G04 #@! TF.GenerationSoftware,KiCad,Pcbnew,(5.1.6)-1*
G04 #@! TF.CreationDate,2020-06-22T19:30:58+02:00*
G04 #@! TF.ProjectId,plc-sniffer,706c632d-736e-4696-9666-65722e6b6963,rev?*
G04 #@! TF.SameCoordinates,Original*
G04 #@! TF.FileFunction,Other,User*
%FSLAX46Y46*%
G04 Gerber Fmt 4.6, Leading zero omitted, Abs format (unit mm)*
G04 Created by KiCad (PCBNEW (5.1.6)-1) date 2020-06-22 19:30:58*
%MOMM*%
%LPD*%
G01*
G04 APERTURE LIST*
%ADD10C,0.050000*%
%ADD11C,0.120000*%
G04 APERTURE END LIST*
D10*
G04 #@! TO.C,C714*
X120532500Y-118430000D02*
X120532500Y-116970000D01*
X120532500Y-116970000D02*
X123492500Y-116970000D01*
X123492500Y-116970000D02*
X123492500Y-118430000D01*
X123492500Y-118430000D02*
X120532500Y-118430000D01*
G04 #@! TO.C,C712*
X145767500Y-122570000D02*
X145767500Y-124030000D01*
X145767500Y-124030000D02*
X142807500Y-124030000D01*
X142807500Y-124030000D02*
X142807500Y-122570000D01*
X142807500Y-122570000D02*
X145767500Y-122570000D01*
G04 #@! TO.C,C706*
X145092500Y-119970000D02*
X145092500Y-121430000D01*
X145092500Y-121430000D02*
X142132500Y-121430000D01*
X142132500Y-121430000D02*
X142132500Y-119970000D01*
X142132500Y-119970000D02*
X145092500Y-119970000D01*
G04 #@! TO.C,C802*
X187550000Y-81882500D02*
X189450000Y-81882500D01*
X189450000Y-81882500D02*
X189450000Y-85242500D01*
X189450000Y-85242500D02*
X187550000Y-85242500D01*
X187550000Y-85242500D02*
X187550000Y-81882500D01*
G04 #@! TO.C,C801*
X185342500Y-90950000D02*
X185342500Y-92850000D01*
X185342500Y-92850000D02*
X181982500Y-92850000D01*
X181982500Y-92850000D02*
X181982500Y-90950000D01*
X181982500Y-90950000D02*
X185342500Y-90950000D01*
G04 #@! TO.C,J601*
X120040000Y-56800000D02*
X136340000Y-56800000D01*
X136340000Y-56800000D02*
X136340000Y-53200000D01*
X136340000Y-53200000D02*
X120040000Y-53200000D01*
X120040000Y-53200000D02*
X120040000Y-56800000D01*
G04 #@! TO.C,J501*
X138200000Y-53200000D02*
X138200000Y-69500000D01*
X138200000Y-69500000D02*
X141800000Y-69500000D01*
X141800000Y-69500000D02*
X141800000Y-53200000D01*
X141800000Y-53200000D02*
X138200000Y-53200000D01*
D11*
G04 #@! TO.C,U802*
X175570000Y-76960000D02*
X175570000Y-96460000D01*
X175570000Y-96460000D02*
X181570000Y-96460000D01*
X181570000Y-96460000D02*
X181570000Y-76960000D01*
X181570000Y-76960000D02*
X175570000Y-76960000D01*
D10*
G04 #@! TO.C,U702*
X119187500Y-130750000D02*
X119187500Y-139900000D01*
X119187500Y-139900000D02*
X120587500Y-139900000D01*
X120587500Y-139900000D02*
X120587500Y-141000000D01*
X120587500Y-141000000D02*
X121687500Y-141000000D01*
X121687500Y-141000000D02*
X121687500Y-142400000D01*
X121687500Y-142400000D02*
X130837500Y-142400000D01*
X119187500Y-130750000D02*
X119187500Y-121600000D01*
X119187500Y-121600000D02*
X120587500Y-121600000D01*
X120587500Y-121600000D02*
X120587500Y-120500000D01*
X120587500Y-120500000D02*
X121687500Y-120500000D01*
X121687500Y-120500000D02*
X121687500Y-119100000D01*
X121687500Y-119100000D02*
X130837500Y-119100000D01*
X142487500Y-130750000D02*
X142487500Y-139900000D01*
X142487500Y-139900000D02*
X141087500Y-139900000D01*
X141087500Y-139900000D02*
X141087500Y-141000000D01*
X141087500Y-141000000D02*
X139987500Y-141000000D01*
X139987500Y-141000000D02*
X139987500Y-142400000D01*
X139987500Y-142400000D02*
X130837500Y-142400000D01*
X142487500Y-130750000D02*
X142487500Y-121600000D01*
X142487500Y-121600000D02*
X141087500Y-121600000D01*
X141087500Y-121600000D02*
X141087500Y-120500000D01*
X141087500Y-120500000D02*
X139987500Y-120500000D01*
X139987500Y-120500000D02*
X139987500Y-119100000D01*
X139987500Y-119100000D02*
X130837500Y-119100000D01*
G04 #@! TO.C,REF\u002A\u002A*
X198450000Y-55000000D02*
G75*
G03*
X198450000Y-55000000I-3450000J0D01*
G01*
X108450000Y-55000000D02*
G75*
G03*
X108450000Y-55000000I-3450000J0D01*
G01*
X108450000Y-145000000D02*
G75*
G03*
X108450000Y-145000000I-3450000J0D01*
G01*
X198450000Y-145000000D02*
G75*
G03*
X198450000Y-145000000I-3450000J0D01*
G01*
G04 #@! TO.C,R1028*
X195270000Y-102270000D02*
X195270000Y-101330000D01*
X195270000Y-101330000D02*
X197130000Y-101330000D01*
X197130000Y-101330000D02*
X197130000Y-102270000D01*
X197130000Y-102270000D02*
X195270000Y-102270000D01*
G04 #@! TO.C,R405*
X194630000Y-94655000D02*
X195570000Y-94655000D01*
X195570000Y-94655000D02*
X195570000Y-96515000D01*
X195570000Y-96515000D02*
X194630000Y-96515000D01*
X194630000Y-96515000D02*
X194630000Y-94655000D01*
G04 #@! TO.C,Q403*
X194400000Y-97650000D02*
X197800000Y-97650000D01*
X197800000Y-97650000D02*
X197800000Y-101150000D01*
X197800000Y-101150000D02*
X194400000Y-101150000D01*
X194400000Y-101150000D02*
X194400000Y-97650000D01*
G04 #@! TO.C,R707*
X120050000Y-142657500D02*
X121950000Y-142657500D01*
X121950000Y-142657500D02*
X121950000Y-146017500D01*
X121950000Y-146017500D02*
X120050000Y-146017500D01*
X120050000Y-146017500D02*
X120050000Y-142657500D01*
G04 #@! TO.C,R610*
X104900000Y-81875000D02*
X103000000Y-81875000D01*
X103000000Y-81875000D02*
X103000000Y-78515000D01*
X103000000Y-78515000D02*
X104900000Y-78515000D01*
X104900000Y-78515000D02*
X104900000Y-81875000D01*
G04 #@! TO.C,R510*
X182420000Y-75155001D02*
X184320000Y-75155001D01*
X184320000Y-75155001D02*
X184320000Y-78515001D01*
X184320000Y-78515001D02*
X182420000Y-78515001D01*
X182420000Y-78515001D02*
X182420000Y-75155001D01*
G04 #@! TO.C,Y701*
X131300000Y-149400000D02*
X134700000Y-149400000D01*
X134700000Y-149400000D02*
X134700000Y-145200000D01*
X134700000Y-145200000D02*
X131300000Y-145200000D01*
X131300000Y-145200000D02*
X131300000Y-149400000D01*
G04 #@! TO.C,U1002*
X155687500Y-124750000D02*
X155687500Y-127900000D01*
X155687500Y-127900000D02*
X157087500Y-127900000D01*
X157087500Y-127900000D02*
X157087500Y-128500000D01*
X157087500Y-128500000D02*
X157687500Y-128500000D01*
X157687500Y-128500000D02*
X157687500Y-129900000D01*
X157687500Y-129900000D02*
X160837500Y-129900000D01*
X155687500Y-124750000D02*
X155687500Y-121600000D01*
X155687500Y-121600000D02*
X157087500Y-121600000D01*
X157087500Y-121600000D02*
X157087500Y-121000000D01*
X157087500Y-121000000D02*
X157687500Y-121000000D01*
X157687500Y-121000000D02*
X157687500Y-119600000D01*
X157687500Y-119600000D02*
X160837500Y-119600000D01*
X165987500Y-124750000D02*
X165987500Y-127900000D01*
X165987500Y-127900000D02*
X164587500Y-127900000D01*
X164587500Y-127900000D02*
X164587500Y-128500000D01*
X164587500Y-128500000D02*
X163987500Y-128500000D01*
X163987500Y-128500000D02*
X163987500Y-129900000D01*
X163987500Y-129900000D02*
X160837500Y-129900000D01*
X165987500Y-124750000D02*
X165987500Y-121600000D01*
X165987500Y-121600000D02*
X164587500Y-121600000D01*
X164587500Y-121600000D02*
X164587500Y-121000000D01*
X164587500Y-121000000D02*
X163987500Y-121000000D01*
X163987500Y-121000000D02*
X163987500Y-119600000D01*
X163987500Y-119600000D02*
X160837500Y-119600000D01*
G04 #@! TO.C,U1001*
X155050000Y-141200000D02*
X163850000Y-141200000D01*
X155050000Y-134000000D02*
X155050000Y-141200000D01*
X163850000Y-134000000D02*
X155050000Y-134000000D01*
X163850000Y-141200000D02*
X163850000Y-134000000D01*
G04 #@! TO.C,U801*
X189925000Y-90795000D02*
X189925000Y-85395000D01*
X189925000Y-85395000D02*
X182525000Y-85395000D01*
X182525000Y-85395000D02*
X182525000Y-90795000D01*
X182525000Y-90795000D02*
X189925000Y-90795000D01*
G04 #@! TO.C,U701*
X119850000Y-141700000D02*
X111050000Y-141700000D01*
X119850000Y-148900000D02*
X119850000Y-141700000D01*
X111050000Y-148900000D02*
X119850000Y-148900000D01*
X111050000Y-141700000D02*
X111050000Y-148900000D01*
G04 #@! TO.C,U601*
X132950000Y-77700000D02*
X132950000Y-68900000D01*
X125750000Y-77700000D02*
X132950000Y-77700000D01*
X125750000Y-68900000D02*
X125750000Y-77700000D01*
X132950000Y-68900000D02*
X125750000Y-68900000D01*
G04 #@! TO.C,U501*
X154370000Y-79330001D02*
X154370000Y-88130001D01*
X161570000Y-79330001D02*
X154370000Y-79330001D01*
X161570000Y-88130001D02*
X161570000Y-79330001D01*
X154370000Y-88130001D02*
X161570000Y-88130001D01*
D11*
G04 #@! TO.C,SW705*
X106550000Y-134575000D02*
X106550000Y-129475000D01*
X101450000Y-134575000D02*
X106550000Y-134575000D01*
X101450000Y-129475000D02*
X101450000Y-134575000D01*
X106550000Y-129475000D02*
X101450000Y-129475000D01*
G04 #@! TO.C,SW704*
X106550000Y-128975000D02*
X106550000Y-123875000D01*
X101450000Y-128975000D02*
X106550000Y-128975000D01*
X101450000Y-123875000D02*
X101450000Y-128975000D01*
X106550000Y-123875000D02*
X101450000Y-123875000D01*
G04 #@! TO.C,SW703*
X114450000Y-128950000D02*
X114450000Y-123850000D01*
X109350000Y-128950000D02*
X114450000Y-128950000D01*
X109350000Y-123850000D02*
X109350000Y-128950000D01*
X114450000Y-123850000D02*
X109350000Y-123850000D01*
G04 #@! TO.C,SW702*
X114450000Y-134550000D02*
X114450000Y-129450000D01*
X109350000Y-134550000D02*
X114450000Y-134550000D01*
X109350000Y-129450000D02*
X109350000Y-134550000D01*
X114450000Y-129450000D02*
X109350000Y-129450000D01*
G04 #@! TO.C,SW701*
X109350000Y-135050000D02*
X109350000Y-140150000D01*
X114450000Y-135050000D02*
X109350000Y-135050000D01*
X114450000Y-140150000D02*
X114450000Y-135050000D01*
X109350000Y-140150000D02*
X114450000Y-140150000D01*
D10*
G04 #@! TO.C,R1027*
X165115000Y-113830000D02*
X165115000Y-114770000D01*
X165115000Y-114770000D02*
X163255000Y-114770000D01*
X163255000Y-114770000D02*
X163255000Y-113830000D01*
X163255000Y-113830000D02*
X165115000Y-113830000D01*
G04 #@! TO.C,R1026*
X165130000Y-111030000D02*
X165130000Y-111970000D01*
X165130000Y-111970000D02*
X163270000Y-111970000D01*
X163270000Y-111970000D02*
X163270000Y-111030000D01*
X163270000Y-111030000D02*
X165130000Y-111030000D01*
G04 #@! TO.C,R1025*
X165115000Y-108230000D02*
X165115000Y-109170000D01*
X165115000Y-109170000D02*
X163255000Y-109170000D01*
X163255000Y-109170000D02*
X163255000Y-108230000D01*
X163255000Y-108230000D02*
X165115000Y-108230000D01*
G04 #@! TO.C,R1024*
X168045000Y-115230000D02*
X168045000Y-116170000D01*
X168045000Y-116170000D02*
X166185000Y-116170000D01*
X166185000Y-116170000D02*
X166185000Y-115230000D01*
X166185000Y-115230000D02*
X168045000Y-115230000D01*
G04 #@! TO.C,R1023*
X168015000Y-112430000D02*
X168015000Y-113370000D01*
X168015000Y-113370000D02*
X166155000Y-113370000D01*
X166155000Y-113370000D02*
X166155000Y-112430000D01*
X166155000Y-112430000D02*
X168015000Y-112430000D01*
G04 #@! TO.C,R1022*
X168015000Y-109630000D02*
X168015000Y-110570000D01*
X168015000Y-110570000D02*
X166155000Y-110570000D01*
X166155000Y-110570000D02*
X166155000Y-109630000D01*
X166155000Y-109630000D02*
X168015000Y-109630000D01*
G04 #@! TO.C,R1021*
X162170000Y-132945000D02*
X161230000Y-132945000D01*
X161230000Y-132945000D02*
X161230000Y-131085000D01*
X161230000Y-131085000D02*
X162170000Y-131085000D01*
X162170000Y-131085000D02*
X162170000Y-132945000D01*
G04 #@! TO.C,R1020*
X195945000Y-137230000D02*
X195945000Y-138170000D01*
X195945000Y-138170000D02*
X194085000Y-138170000D01*
X194085000Y-138170000D02*
X194085000Y-137230000D01*
X194085000Y-137230000D02*
X195945000Y-137230000D01*
G04 #@! TO.C,R1019*
X197445000Y-119730000D02*
X197445000Y-120670000D01*
X197445000Y-120670000D02*
X195585000Y-120670000D01*
X195585000Y-120670000D02*
X195585000Y-119730000D01*
X195585000Y-119730000D02*
X197445000Y-119730000D01*
G04 #@! TO.C,R1018*
X160930000Y-111785000D02*
X161870000Y-111785000D01*
X161870000Y-111785000D02*
X161870000Y-113645000D01*
X161870000Y-113645000D02*
X160930000Y-113645000D01*
X160930000Y-113645000D02*
X160930000Y-111785000D01*
G04 #@! TO.C,R1017*
X152530000Y-120585000D02*
X153470000Y-120585000D01*
X153470000Y-120585000D02*
X153470000Y-122445000D01*
X153470000Y-122445000D02*
X152530000Y-122445000D01*
X152530000Y-122445000D02*
X152530000Y-120585000D01*
G04 #@! TO.C,R1016*
X167767500Y-117570000D02*
X167767500Y-119030000D01*
X167767500Y-119030000D02*
X164807500Y-119030000D01*
X164807500Y-119030000D02*
X164807500Y-117570000D01*
X164807500Y-117570000D02*
X167767500Y-117570000D01*
G04 #@! TO.C,R1015*
X176070000Y-132145000D02*
X175130000Y-132145000D01*
X175130000Y-132145000D02*
X175130000Y-130285000D01*
X175130000Y-130285000D02*
X176070000Y-130285000D01*
X176070000Y-130285000D02*
X176070000Y-132145000D01*
G04 #@! TO.C,R1014*
X176070000Y-126615000D02*
X175130000Y-126615000D01*
X175130000Y-126615000D02*
X175130000Y-124755000D01*
X175130000Y-124755000D02*
X176070000Y-124755000D01*
X176070000Y-124755000D02*
X176070000Y-126615000D01*
G04 #@! TO.C,R1013*
X165030000Y-119285000D02*
X165970000Y-119285000D01*
X165970000Y-119285000D02*
X165970000Y-121145000D01*
X165970000Y-121145000D02*
X165030000Y-121145000D01*
X165030000Y-121145000D02*
X165030000Y-119285000D01*
G04 #@! TO.C,R1012*
X171015000Y-123030000D02*
X171015000Y-123970000D01*
X171015000Y-123970000D02*
X169155000Y-123970000D01*
X169155000Y-123970000D02*
X169155000Y-123030000D01*
X169155000Y-123030000D02*
X171015000Y-123030000D01*
G04 #@! TO.C,R1011*
X168915000Y-123630000D02*
X168915000Y-124570000D01*
X168915000Y-124570000D02*
X167055000Y-124570000D01*
X167055000Y-124570000D02*
X167055000Y-123630000D01*
X167055000Y-123630000D02*
X168915000Y-123630000D01*
G04 #@! TO.C,R1010*
X175130000Y-128285000D02*
X176070000Y-128285000D01*
X176070000Y-128285000D02*
X176070000Y-130145000D01*
X176070000Y-130145000D02*
X175130000Y-130145000D01*
X175130000Y-130145000D02*
X175130000Y-128285000D01*
G04 #@! TO.C,R1009*
X175130000Y-122785000D02*
X176070000Y-122785000D01*
X176070000Y-122785000D02*
X176070000Y-124645000D01*
X176070000Y-124645000D02*
X175130000Y-124645000D01*
X175130000Y-124645000D02*
X175130000Y-122785000D01*
G04 #@! TO.C,R1008*
X149930000Y-120585000D02*
X150870000Y-120585000D01*
X150870000Y-120585000D02*
X150870000Y-122445000D01*
X150870000Y-122445000D02*
X149930000Y-122445000D01*
X149930000Y-122445000D02*
X149930000Y-120585000D01*
G04 #@! TO.C,R1007*
X153530000Y-120585000D02*
X154470000Y-120585000D01*
X154470000Y-120585000D02*
X154470000Y-122445000D01*
X154470000Y-122445000D02*
X153530000Y-122445000D01*
X153530000Y-122445000D02*
X153530000Y-120585000D01*
G04 #@! TO.C,R1006*
X150930000Y-120585000D02*
X151870000Y-120585000D01*
X151870000Y-120585000D02*
X151870000Y-122445000D01*
X151870000Y-122445000D02*
X150930000Y-122445000D01*
X150930000Y-122445000D02*
X150930000Y-120585000D01*
G04 #@! TO.C,R1005*
X152530000Y-128255000D02*
X153470000Y-128255000D01*
X153470000Y-128255000D02*
X153470000Y-130115000D01*
X153470000Y-130115000D02*
X152530000Y-130115000D01*
X152530000Y-130115000D02*
X152530000Y-128255000D01*
G04 #@! TO.C,R1004*
X151530000Y-128255000D02*
X152470000Y-128255000D01*
X152470000Y-128255000D02*
X152470000Y-130115000D01*
X152470000Y-130115000D02*
X151530000Y-130115000D01*
X151530000Y-130115000D02*
X151530000Y-128255000D01*
G04 #@! TO.C,R1003*
X150530000Y-128255000D02*
X151470000Y-128255000D01*
X151470000Y-128255000D02*
X151470000Y-130115000D01*
X151470000Y-130115000D02*
X150530000Y-130115000D01*
X150530000Y-130115000D02*
X150530000Y-128255000D01*
G04 #@! TO.C,R1002*
X149130000Y-128255000D02*
X150070000Y-128255000D01*
X150070000Y-128255000D02*
X150070000Y-130115000D01*
X150070000Y-130115000D02*
X149130000Y-130115000D01*
X149130000Y-130115000D02*
X149130000Y-128255000D01*
G04 #@! TO.C,R1001*
X160130000Y-131085000D02*
X161070000Y-131085000D01*
X161070000Y-131085000D02*
X161070000Y-132945000D01*
X161070000Y-132945000D02*
X160130000Y-132945000D01*
X160130000Y-132945000D02*
X160130000Y-131085000D01*
G04 #@! TO.C,R901*
X111830000Y-104785000D02*
X112770000Y-104785000D01*
X112770000Y-104785000D02*
X112770000Y-106645000D01*
X112770000Y-106645000D02*
X111830000Y-106645000D01*
X111830000Y-106645000D02*
X111830000Y-104785000D01*
G04 #@! TO.C,R813*
X174015000Y-87530000D02*
X174015000Y-88470000D01*
X174015000Y-88470000D02*
X172155000Y-88470000D01*
X172155000Y-88470000D02*
X172155000Y-87530000D01*
X172155000Y-87530000D02*
X174015000Y-87530000D01*
G04 #@! TO.C,R812*
X174045000Y-91130000D02*
X174045000Y-92070000D01*
X174045000Y-92070000D02*
X172185000Y-92070000D01*
X172185000Y-92070000D02*
X172185000Y-91130000D01*
X172185000Y-91130000D02*
X174045000Y-91130000D01*
G04 #@! TO.C,R811*
X194630000Y-78485000D02*
X195570000Y-78485000D01*
X195570000Y-78485000D02*
X195570000Y-80345000D01*
X195570000Y-80345000D02*
X194630000Y-80345000D01*
X194630000Y-80345000D02*
X194630000Y-78485000D01*
G04 #@! TO.C,R810*
X194630000Y-80585000D02*
X195570000Y-80585000D01*
X195570000Y-80585000D02*
X195570000Y-82445000D01*
X195570000Y-82445000D02*
X194630000Y-82445000D01*
X194630000Y-82445000D02*
X194630000Y-80585000D01*
G04 #@! TO.C,R809*
X193685000Y-90470000D02*
X193685000Y-89530000D01*
X193685000Y-89530000D02*
X195545000Y-89530000D01*
X195545000Y-89530000D02*
X195545000Y-90470000D01*
X195545000Y-90470000D02*
X193685000Y-90470000D01*
G04 #@! TO.C,R808*
X191270000Y-87732500D02*
X192730000Y-87732500D01*
X192730000Y-87732500D02*
X192730000Y-90692500D01*
X192730000Y-90692500D02*
X191270000Y-90692500D01*
X191270000Y-90692500D02*
X191270000Y-87732500D01*
G04 #@! TO.C,R807*
X187207500Y-92530000D02*
X187207500Y-91070000D01*
X187207500Y-91070000D02*
X190167500Y-91070000D01*
X190167500Y-91070000D02*
X190167500Y-92530000D01*
X190167500Y-92530000D02*
X187207500Y-92530000D01*
G04 #@! TO.C,R806*
X187030000Y-94067500D02*
X185570000Y-94067500D01*
X185570000Y-94067500D02*
X185570000Y-91107500D01*
X185570000Y-91107500D02*
X187030000Y-91107500D01*
X187030000Y-91107500D02*
X187030000Y-94067500D01*
G04 #@! TO.C,R805*
X191270000Y-84520000D02*
X192730000Y-84520000D01*
X192730000Y-84520000D02*
X192730000Y-87480000D01*
X192730000Y-87480000D02*
X191270000Y-87480000D01*
X191270000Y-87480000D02*
X191270000Y-84520000D01*
G04 #@! TO.C,R804*
X185270000Y-95145000D02*
X184330000Y-95145000D01*
X184330000Y-95145000D02*
X184330000Y-93285000D01*
X184330000Y-93285000D02*
X185270000Y-93285000D01*
X185270000Y-93285000D02*
X185270000Y-95145000D01*
G04 #@! TO.C,R803*
X185830000Y-94255000D02*
X186770000Y-94255000D01*
X186770000Y-94255000D02*
X186770000Y-96115000D01*
X186770000Y-96115000D02*
X185830000Y-96115000D01*
X185830000Y-96115000D02*
X185830000Y-94255000D01*
G04 #@! TO.C,R802*
X164730000Y-77470000D02*
X165670000Y-77470000D01*
X165670000Y-77470000D02*
X165670000Y-79330000D01*
X165670000Y-79330000D02*
X164730000Y-79330000D01*
X164730000Y-79330000D02*
X164730000Y-77470000D01*
G04 #@! TO.C,R801*
X170770000Y-79830000D02*
X169830000Y-79830000D01*
X169830000Y-79830000D02*
X169830000Y-77970000D01*
X169830000Y-77970000D02*
X170770000Y-77970000D01*
X170770000Y-77970000D02*
X170770000Y-79830000D01*
G04 #@! TO.C,R715*
X101955000Y-120170000D02*
X101955000Y-119230000D01*
X101955000Y-119230000D02*
X103815000Y-119230000D01*
X103815000Y-119230000D02*
X103815000Y-120170000D01*
X103815000Y-120170000D02*
X101955000Y-120170000D01*
G04 #@! TO.C,R714*
X101985000Y-122670000D02*
X101985000Y-121730000D01*
X101985000Y-121730000D02*
X103845000Y-121730000D01*
X103845000Y-121730000D02*
X103845000Y-122670000D01*
X103845000Y-122670000D02*
X101985000Y-122670000D01*
G04 #@! TO.C,R713*
X101885000Y-139470000D02*
X101885000Y-138530000D01*
X101885000Y-138530000D02*
X103745000Y-138530000D01*
X103745000Y-138530000D02*
X103745000Y-139470000D01*
X103745000Y-139470000D02*
X101885000Y-139470000D01*
G04 #@! TO.C,R712*
X101885000Y-136770000D02*
X101885000Y-135830000D01*
X101885000Y-135830000D02*
X103745000Y-135830000D01*
X103745000Y-135830000D02*
X103745000Y-136770000D01*
X103745000Y-136770000D02*
X101885000Y-136770000D01*
G04 #@! TO.C,R711*
X108170000Y-133030000D02*
X107230000Y-133030000D01*
X107230000Y-133030000D02*
X107230000Y-131170000D01*
X107230000Y-131170000D02*
X108170000Y-131170000D01*
X108170000Y-131170000D02*
X108170000Y-133030000D01*
G04 #@! TO.C,R710*
X108170000Y-127430000D02*
X107230000Y-127430000D01*
X107230000Y-127430000D02*
X107230000Y-125570000D01*
X107230000Y-125570000D02*
X108170000Y-125570000D01*
X108170000Y-125570000D02*
X108170000Y-127430000D01*
G04 #@! TO.C,R709*
X116070000Y-127415000D02*
X115130000Y-127415000D01*
X115130000Y-127415000D02*
X115130000Y-125555000D01*
X115130000Y-125555000D02*
X116070000Y-125555000D01*
X116070000Y-125555000D02*
X116070000Y-127415000D01*
G04 #@! TO.C,R708*
X116070000Y-132930000D02*
X115130000Y-132930000D01*
X115130000Y-132930000D02*
X115130000Y-131070000D01*
X115130000Y-131070000D02*
X116070000Y-131070000D01*
X116070000Y-131070000D02*
X116070000Y-132930000D01*
G04 #@! TO.C,R706*
X123855000Y-147870000D02*
X123855000Y-146930000D01*
X123855000Y-146930000D02*
X125715000Y-146930000D01*
X125715000Y-146930000D02*
X125715000Y-147870000D01*
X125715000Y-147870000D02*
X123855000Y-147870000D01*
G04 #@! TO.C,R705*
X118315000Y-135230000D02*
X118315000Y-136170000D01*
X118315000Y-136170000D02*
X116455000Y-136170000D01*
X116455000Y-136170000D02*
X116455000Y-135230000D01*
X116455000Y-135230000D02*
X118315000Y-135230000D01*
G04 #@! TO.C,R704*
X143170000Y-148145000D02*
X142230000Y-148145000D01*
X142230000Y-148145000D02*
X142230000Y-146285000D01*
X142230000Y-146285000D02*
X143170000Y-146285000D01*
X143170000Y-146285000D02*
X143170000Y-148145000D01*
G04 #@! TO.C,R703*
X153270000Y-148145000D02*
X152330000Y-148145000D01*
X152330000Y-148145000D02*
X152330000Y-146285000D01*
X152330000Y-146285000D02*
X153270000Y-146285000D01*
X153270000Y-146285000D02*
X153270000Y-148145000D01*
G04 #@! TO.C,R702*
X154770000Y-148145000D02*
X153830000Y-148145000D01*
X153830000Y-148145000D02*
X153830000Y-146285000D01*
X153830000Y-146285000D02*
X154770000Y-146285000D01*
X154770000Y-146285000D02*
X154770000Y-148145000D01*
G04 #@! TO.C,R701*
X164970000Y-148145000D02*
X164030000Y-148145000D01*
X164030000Y-148145000D02*
X164030000Y-146285000D01*
X164030000Y-146285000D02*
X164970000Y-146285000D01*
X164970000Y-146285000D02*
X164970000Y-148145000D01*
G04 #@! TO.C,R609*
X129820000Y-68425000D02*
X128880000Y-68425000D01*
X128880000Y-68425000D02*
X128880000Y-66565000D01*
X128880000Y-66565000D02*
X129820000Y-66565000D01*
X129820000Y-66565000D02*
X129820000Y-68425000D01*
G04 #@! TO.C,R608*
X128550000Y-81125000D02*
X127610000Y-81125000D01*
X127610000Y-81125000D02*
X127610000Y-79265000D01*
X127610000Y-79265000D02*
X128550000Y-79265000D01*
X128550000Y-79265000D02*
X128550000Y-81125000D01*
G04 #@! TO.C,R607*
X121830000Y-63480000D02*
X121830000Y-64420000D01*
X121830000Y-64420000D02*
X119970000Y-64420000D01*
X119970000Y-64420000D02*
X119970000Y-63480000D01*
X119970000Y-63480000D02*
X121830000Y-63480000D01*
G04 #@! TO.C,R606*
X121370000Y-71130000D02*
X120430000Y-71130000D01*
X120430000Y-71130000D02*
X120430000Y-69270000D01*
X120430000Y-69270000D02*
X121370000Y-69270000D01*
X121370000Y-69270000D02*
X121370000Y-71130000D01*
G04 #@! TO.C,R605*
X133015000Y-79245000D02*
X133015000Y-78305000D01*
X133015000Y-78305000D02*
X134875000Y-78305000D01*
X134875000Y-78305000D02*
X134875000Y-79245000D01*
X134875000Y-79245000D02*
X133015000Y-79245000D01*
G04 #@! TO.C,R604*
X141250000Y-81125000D02*
X140310000Y-81125000D01*
X140310000Y-81125000D02*
X140310000Y-79265000D01*
X140310000Y-79265000D02*
X141250000Y-79265000D01*
X141250000Y-79265000D02*
X141250000Y-81125000D01*
G04 #@! TO.C,R603*
X142520000Y-81125000D02*
X141580000Y-81125000D01*
X141580000Y-81125000D02*
X141580000Y-79265000D01*
X141580000Y-79265000D02*
X142520000Y-79265000D01*
X142520000Y-79265000D02*
X142520000Y-81125000D01*
G04 #@! TO.C,R602*
X146025000Y-84045000D02*
X146965000Y-84045000D01*
X146965000Y-84045000D02*
X146965000Y-85905000D01*
X146965000Y-85905000D02*
X146025000Y-85905000D01*
X146025000Y-85905000D02*
X146025000Y-84045000D01*
G04 #@! TO.C,R601*
X142850000Y-79265000D02*
X143790000Y-79265000D01*
X143790000Y-79265000D02*
X143790000Y-81125000D01*
X143790000Y-81125000D02*
X142850000Y-81125000D01*
X142850000Y-81125000D02*
X142850000Y-79265000D01*
G04 #@! TO.C,R509*
X157500000Y-88605001D02*
X158440000Y-88605001D01*
X158440000Y-88605001D02*
X158440000Y-90465001D01*
X158440000Y-90465001D02*
X157500000Y-90465001D01*
X157500000Y-90465001D02*
X157500000Y-88605001D01*
G04 #@! TO.C,R508*
X158770000Y-75905001D02*
X159710000Y-75905001D01*
X159710000Y-75905001D02*
X159710000Y-77765001D01*
X159710000Y-77765001D02*
X158770000Y-77765001D01*
X158770000Y-77765001D02*
X158770000Y-75905001D01*
G04 #@! TO.C,R507*
X165490000Y-93550001D02*
X165490000Y-92610001D01*
X165490000Y-92610001D02*
X167350000Y-92610001D01*
X167350000Y-92610001D02*
X167350000Y-93550001D01*
X167350000Y-93550001D02*
X165490000Y-93550001D01*
G04 #@! TO.C,R506*
X165950000Y-85900001D02*
X166890000Y-85900001D01*
X166890000Y-85900001D02*
X166890000Y-87760001D01*
X166890000Y-87760001D02*
X165950000Y-87760001D01*
X165950000Y-87760001D02*
X165950000Y-85900001D01*
G04 #@! TO.C,R505*
X154305000Y-77785001D02*
X154305000Y-78725001D01*
X154305000Y-78725001D02*
X152445000Y-78725001D01*
X152445000Y-78725001D02*
X152445000Y-77785001D01*
X152445000Y-77785001D02*
X154305000Y-77785001D01*
G04 #@! TO.C,R504*
X146070000Y-75905001D02*
X147010000Y-75905001D01*
X147010000Y-75905001D02*
X147010000Y-77765001D01*
X147010000Y-77765001D02*
X146070000Y-77765001D01*
X146070000Y-77765001D02*
X146070000Y-75905001D01*
G04 #@! TO.C,R503*
X144800000Y-75905001D02*
X145740000Y-75905001D01*
X145740000Y-75905001D02*
X145740000Y-77765001D01*
X145740000Y-77765001D02*
X144800000Y-77765001D01*
X144800000Y-77765001D02*
X144800000Y-75905001D01*
G04 #@! TO.C,R502*
X141295000Y-72985001D02*
X140355000Y-72985001D01*
X140355000Y-72985001D02*
X140355000Y-71125001D01*
X140355000Y-71125001D02*
X141295000Y-71125001D01*
X141295000Y-71125001D02*
X141295000Y-72985001D01*
G04 #@! TO.C,R501*
X144470000Y-77765001D02*
X143530000Y-77765001D01*
X143530000Y-77765001D02*
X143530000Y-75905001D01*
X143530000Y-75905001D02*
X144470000Y-75905001D01*
X144470000Y-75905001D02*
X144470000Y-77765001D01*
G04 #@! TO.C,R404*
X192330000Y-96955000D02*
X193270000Y-96955000D01*
X193270000Y-96955000D02*
X193270000Y-98815000D01*
X193270000Y-98815000D02*
X192330000Y-98815000D01*
X192330000Y-98815000D02*
X192330000Y-96955000D01*
G04 #@! TO.C,R403*
X192330000Y-94670000D02*
X193270000Y-94670000D01*
X193270000Y-94670000D02*
X193270000Y-96530000D01*
X193270000Y-96530000D02*
X192330000Y-96530000D01*
X192330000Y-96530000D02*
X192330000Y-94670000D01*
G04 #@! TO.C,R402*
X188830000Y-101555000D02*
X189770000Y-101555000D01*
X189770000Y-101555000D02*
X189770000Y-103415000D01*
X189770000Y-103415000D02*
X188830000Y-103415000D01*
X188830000Y-103415000D02*
X188830000Y-101555000D01*
G04 #@! TO.C,R401*
X189770000Y-96445000D02*
X188830000Y-96445000D01*
X188830000Y-96445000D02*
X188830000Y-94585000D01*
X188830000Y-94585000D02*
X189770000Y-94585000D01*
X189770000Y-94585000D02*
X189770000Y-96445000D01*
G04 #@! TO.C,R304*
X108130000Y-62880000D02*
X106670000Y-62880000D01*
X106670000Y-62880000D02*
X106670000Y-59920000D01*
X106670000Y-59920000D02*
X108130000Y-59920000D01*
X108130000Y-59920000D02*
X108130000Y-62880000D01*
G04 #@! TO.C,R303*
X108130000Y-66092500D02*
X106670000Y-66092500D01*
X106670000Y-66092500D02*
X106670000Y-63132500D01*
X106670000Y-63132500D02*
X108130000Y-63132500D01*
X108130000Y-63132500D02*
X108130000Y-66092500D01*
G04 #@! TO.C,R302*
X105830000Y-68980000D02*
X104370000Y-68980000D01*
X104370000Y-68980000D02*
X104370000Y-66020000D01*
X104370000Y-66020000D02*
X105830000Y-66020000D01*
X105830000Y-66020000D02*
X105830000Y-68980000D01*
G04 #@! TO.C,R301*
X105570000Y-65845000D02*
X104630000Y-65845000D01*
X104630000Y-65845000D02*
X104630000Y-63985000D01*
X104630000Y-63985000D02*
X105570000Y-63985000D01*
X105570000Y-63985000D02*
X105570000Y-65845000D01*
G04 #@! TO.C,R208*
X113070000Y-74030000D02*
X112130000Y-74030000D01*
X112130000Y-74030000D02*
X112130000Y-72170000D01*
X112130000Y-72170000D02*
X113070000Y-72170000D01*
X113070000Y-72170000D02*
X113070000Y-74030000D01*
G04 #@! TO.C,R207*
X110370000Y-74815000D02*
X109430000Y-74815000D01*
X109430000Y-74815000D02*
X109430000Y-72955000D01*
X109430000Y-72955000D02*
X110370000Y-72955000D01*
X110370000Y-72955000D02*
X110370000Y-74815000D01*
G04 #@! TO.C,R206*
X110355000Y-76915000D02*
X109415000Y-76915000D01*
X109415000Y-76915000D02*
X109415000Y-75055000D01*
X109415000Y-75055000D02*
X110355000Y-75055000D01*
X110355000Y-75055000D02*
X110355000Y-76915000D01*
G04 #@! TO.C,R205*
X117470000Y-74015000D02*
X116530000Y-74015000D01*
X116530000Y-74015000D02*
X116530000Y-72155000D01*
X116530000Y-72155000D02*
X117470000Y-72155000D01*
X117470000Y-72155000D02*
X117470000Y-74015000D01*
G04 #@! TO.C,R204*
X117470000Y-71915000D02*
X116530000Y-71915000D01*
X116530000Y-71915000D02*
X116530000Y-70055000D01*
X116530000Y-70055000D02*
X117470000Y-70055000D01*
X117470000Y-70055000D02*
X117470000Y-71915000D01*
G04 #@! TO.C,R203*
X113070000Y-71915000D02*
X112130000Y-71915000D01*
X112130000Y-71915000D02*
X112130000Y-70055000D01*
X112130000Y-70055000D02*
X113070000Y-70055000D01*
X113070000Y-70055000D02*
X113070000Y-71915000D01*
G04 #@! TO.C,R202*
X111185000Y-79070000D02*
X111185000Y-78130000D01*
X111185000Y-78130000D02*
X113045000Y-78130000D01*
X113045000Y-78130000D02*
X113045000Y-79070000D01*
X113045000Y-79070000D02*
X111185000Y-79070000D01*
G04 #@! TO.C,R201*
X110630000Y-72767500D02*
X109170000Y-72767500D01*
X109170000Y-72767500D02*
X109170000Y-69807500D01*
X109170000Y-69807500D02*
X110630000Y-69807500D01*
X110630000Y-69807500D02*
X110630000Y-72767500D01*
G04 #@! TO.C,Q802*
X171000000Y-77150000D02*
X174400000Y-77150000D01*
X174400000Y-77150000D02*
X174400000Y-80650000D01*
X174400000Y-80650000D02*
X171000000Y-80650000D01*
X171000000Y-80650000D02*
X171000000Y-77150000D01*
G04 #@! TO.C,Q801*
X165900000Y-76650000D02*
X169300000Y-76650000D01*
X169300000Y-76650000D02*
X169300000Y-80150000D01*
X169300000Y-80150000D02*
X165900000Y-80150000D01*
X165900000Y-80150000D02*
X165900000Y-76650000D01*
G04 #@! TO.C,Q602*
X121700000Y-68450000D02*
X125100000Y-68450000D01*
X125100000Y-68450000D02*
X125100000Y-71950000D01*
X125100000Y-71950000D02*
X121700000Y-71950000D01*
X121700000Y-71950000D02*
X121700000Y-68450000D01*
G04 #@! TO.C,Q601*
X122650000Y-64750000D02*
X122650000Y-68150000D01*
X122650000Y-68150000D02*
X119150000Y-68150000D01*
X119150000Y-68150000D02*
X119150000Y-64750000D01*
X119150000Y-64750000D02*
X122650000Y-64750000D01*
G04 #@! TO.C,Q502*
X165620000Y-88580001D02*
X162220000Y-88580001D01*
X162220000Y-88580001D02*
X162220000Y-85080001D01*
X162220000Y-85080001D02*
X165620000Y-85080001D01*
X165620000Y-85080001D02*
X165620000Y-88580001D01*
G04 #@! TO.C,Q501*
X164670000Y-92280001D02*
X164670000Y-88880001D01*
X164670000Y-88880001D02*
X168170000Y-88880001D01*
X168170000Y-88880001D02*
X168170000Y-92280001D01*
X168170000Y-92280001D02*
X164670000Y-92280001D01*
G04 #@! TO.C,Q402*
X193600000Y-101300000D02*
X193600000Y-104700000D01*
X193600000Y-104700000D02*
X190100000Y-104700000D01*
X190100000Y-104700000D02*
X190100000Y-101300000D01*
X190100000Y-101300000D02*
X193600000Y-101300000D01*
G04 #@! TO.C,Q401*
X192000000Y-96700000D02*
X192000000Y-100100000D01*
X192000000Y-100100000D02*
X188500000Y-100100000D01*
X188500000Y-100100000D02*
X188500000Y-96700000D01*
X188500000Y-96700000D02*
X192000000Y-96700000D01*
G04 #@! TO.C,Q201*
X111900000Y-74400000D02*
X115300000Y-74400000D01*
X115300000Y-74400000D02*
X115300000Y-77900000D01*
X115300000Y-77900000D02*
X111900000Y-77900000D01*
X111900000Y-77900000D02*
X111900000Y-74400000D01*
G04 #@! TO.C,J902*
X113000000Y-109900000D02*
X119150000Y-109900000D01*
X119150000Y-109900000D02*
X119150000Y-106300000D01*
X119150000Y-106300000D02*
X113000000Y-106300000D01*
X113000000Y-106300000D02*
X113000000Y-109900000D01*
G04 #@! TO.C,J901*
X107250000Y-105000000D02*
X99950000Y-105000000D01*
X99950000Y-105000000D02*
X99950000Y-115800000D01*
X99950000Y-115800000D02*
X107250000Y-115800000D01*
X107250000Y-115800000D02*
X107250000Y-105000000D01*
G04 #@! TO.C,J703*
X122600000Y-110700000D02*
X108850000Y-110700000D01*
X108850000Y-110700000D02*
X108850000Y-116850000D01*
X108850000Y-116850000D02*
X122600000Y-116850000D01*
X122600000Y-116850000D02*
X122600000Y-110700000D01*
G04 #@! TO.C,J702*
X143360000Y-149500000D02*
X152010000Y-149500000D01*
X152010000Y-149500000D02*
X152010000Y-145900000D01*
X152010000Y-145900000D02*
X143360000Y-145900000D01*
X143360000Y-145900000D02*
X143360000Y-149500000D01*
G04 #@! TO.C,J701*
X155000000Y-149500000D02*
X163650000Y-149500000D01*
X163650000Y-149500000D02*
X163650000Y-145900000D01*
X163650000Y-145900000D02*
X155000000Y-145900000D01*
X155000000Y-145900000D02*
X155000000Y-149500000D01*
G04 #@! TO.C,J103*
X196200000Y-88200000D02*
X196200000Y-96850000D01*
X196200000Y-96850000D02*
X199800000Y-96850000D01*
X199800000Y-96850000D02*
X199800000Y-88200000D01*
X199800000Y-88200000D02*
X196200000Y-88200000D01*
G04 #@! TO.C,J102*
X117480000Y-118500000D02*
X108830000Y-118500000D01*
X108830000Y-118500000D02*
X108830000Y-122100000D01*
X108830000Y-122100000D02*
X117480000Y-122100000D01*
X117480000Y-122100000D02*
X117480000Y-118500000D01*
G04 #@! TO.C,J101*
X100200000Y-63620000D02*
X100200000Y-72270000D01*
X100200000Y-72270000D02*
X103800000Y-72270000D01*
X103800000Y-72270000D02*
X103800000Y-63620000D01*
X103800000Y-63620000D02*
X100200000Y-63620000D01*
G04 #@! TO.C,FB1001*
X171657500Y-128450000D02*
X171657500Y-126550000D01*
X171657500Y-126550000D02*
X175017500Y-126550000D01*
X175017500Y-126550000D02*
X175017500Y-128450000D01*
X175017500Y-128450000D02*
X171657500Y-128450000D01*
G04 #@! TO.C,FB701*
X136857500Y-148250000D02*
X136857500Y-146350000D01*
X136857500Y-146350000D02*
X140217500Y-146350000D01*
X140217500Y-146350000D02*
X140217500Y-148250000D01*
X140217500Y-148250000D02*
X136857500Y-148250000D01*
G04 #@! TO.C,D1003*
X163020000Y-116430000D02*
X163020000Y-114970000D01*
X163020000Y-114970000D02*
X165980000Y-114970000D01*
X165980000Y-114970000D02*
X165980000Y-116430000D01*
X165980000Y-116430000D02*
X163020000Y-116430000D01*
G04 #@! TO.C,D1002*
X163007500Y-113630000D02*
X163007500Y-112170000D01*
X163007500Y-112170000D02*
X165967500Y-112170000D01*
X165967500Y-112170000D02*
X165967500Y-113630000D01*
X165967500Y-113630000D02*
X163007500Y-113630000D01*
G04 #@! TO.C,D1001*
X163007500Y-110830000D02*
X163007500Y-109370000D01*
X163007500Y-109370000D02*
X165967500Y-109370000D01*
X165967500Y-109370000D02*
X165967500Y-110830000D01*
X165967500Y-110830000D02*
X163007500Y-110830000D01*
G04 #@! TO.C,D902*
X107950000Y-106950000D02*
X112650000Y-106950000D01*
X112650000Y-106950000D02*
X112650000Y-109250000D01*
X112650000Y-109250000D02*
X107950000Y-109250000D01*
X107950000Y-106950000D02*
X107950000Y-109250000D01*
G04 #@! TO.C,D901*
X107957500Y-106650000D02*
X107957500Y-104750000D01*
X107957500Y-104750000D02*
X111317500Y-104750000D01*
X111317500Y-104750000D02*
X111317500Y-106650000D01*
X111317500Y-106650000D02*
X107957500Y-106650000D01*
G04 #@! TO.C,D803*
X170050000Y-85420000D02*
X171950000Y-85420000D01*
X171950000Y-85420000D02*
X171950000Y-88780000D01*
X171950000Y-88780000D02*
X170050000Y-88780000D01*
X170050000Y-88780000D02*
X170050000Y-85420000D01*
G04 #@! TO.C,D802*
X170050000Y-88982500D02*
X171950000Y-88982500D01*
X171950000Y-88982500D02*
X171950000Y-92342500D01*
X171950000Y-92342500D02*
X170050000Y-92342500D01*
X170050000Y-92342500D02*
X170050000Y-88982500D01*
G04 #@! TO.C,D801*
X196250000Y-82750000D02*
X196250000Y-87450000D01*
X196250000Y-87450000D02*
X193950000Y-87450000D01*
X193950000Y-87450000D02*
X193950000Y-82750000D01*
X196250000Y-82750000D02*
X193950000Y-82750000D01*
G04 #@! TO.C,D705*
X104382500Y-120650000D02*
X104382500Y-118750000D01*
X104382500Y-118750000D02*
X107742500Y-118750000D01*
X107742500Y-118750000D02*
X107742500Y-120650000D01*
X107742500Y-120650000D02*
X104382500Y-120650000D01*
G04 #@! TO.C,D704*
X104382500Y-123150000D02*
X104382500Y-121250000D01*
X104382500Y-121250000D02*
X107742500Y-121250000D01*
X107742500Y-121250000D02*
X107742500Y-123150000D01*
X107742500Y-123150000D02*
X104382500Y-123150000D01*
G04 #@! TO.C,D703*
X104382500Y-139950000D02*
X104382500Y-138050000D01*
X104382500Y-138050000D02*
X107742500Y-138050000D01*
X107742500Y-138050000D02*
X107742500Y-139950000D01*
X107742500Y-139950000D02*
X104382500Y-139950000D01*
G04 #@! TO.C,D702*
X104382500Y-137250000D02*
X104382500Y-135350000D01*
X104382500Y-135350000D02*
X107742500Y-135350000D01*
X107742500Y-135350000D02*
X107742500Y-137250000D01*
X107742500Y-137250000D02*
X104382500Y-137250000D01*
G04 #@! TO.C,D701*
X123617500Y-146450000D02*
X123617500Y-148350000D01*
X123617500Y-148350000D02*
X120257500Y-148350000D01*
X120257500Y-148350000D02*
X120257500Y-146450000D01*
X120257500Y-146450000D02*
X123617500Y-146450000D01*
G04 #@! TO.C,D602*
X131967500Y-64490000D02*
X131967500Y-66390000D01*
X131967500Y-66390000D02*
X128607500Y-66390000D01*
X128607500Y-66390000D02*
X128607500Y-64490000D01*
X128607500Y-64490000D02*
X131967500Y-64490000D01*
G04 #@! TO.C,D601*
X147445000Y-83297500D02*
X145545000Y-83297500D01*
X145545000Y-83297500D02*
X145545000Y-79937500D01*
X145545000Y-79937500D02*
X147445000Y-79937500D01*
X147445000Y-79937500D02*
X147445000Y-83297500D01*
G04 #@! TO.C,D502*
X155352500Y-92540001D02*
X155352500Y-90640001D01*
X155352500Y-90640001D02*
X158712500Y-90640001D01*
X158712500Y-90640001D02*
X158712500Y-92540001D01*
X158712500Y-92540001D02*
X155352500Y-92540001D01*
G04 #@! TO.C,D501*
X139875000Y-73732501D02*
X141775000Y-73732501D01*
X141775000Y-73732501D02*
X141775000Y-77092501D01*
X141775000Y-77092501D02*
X139875000Y-77092501D01*
X139875000Y-77092501D02*
X139875000Y-73732501D01*
G04 #@! TO.C,D201*
X108600000Y-71650000D02*
X104200000Y-71650000D01*
X104200000Y-71650000D02*
X104200000Y-69350000D01*
X104200000Y-69350000D02*
X108600000Y-69350000D01*
X108600000Y-71650000D02*
X108600000Y-69350000D01*
G04 #@! TO.C,C1011*
X167055000Y-120170000D02*
X167055000Y-119230000D01*
X167055000Y-119230000D02*
X168915000Y-119230000D01*
X168915000Y-119230000D02*
X168915000Y-120170000D01*
X168915000Y-120170000D02*
X167055000Y-120170000D01*
G04 #@! TO.C,C1010*
X167070000Y-121270000D02*
X167070000Y-120330000D01*
X167070000Y-120330000D02*
X168930000Y-120330000D01*
X168930000Y-120330000D02*
X168930000Y-121270000D01*
X168930000Y-121270000D02*
X167070000Y-121270000D01*
G04 #@! TO.C,C1009*
X177015000Y-127030000D02*
X177015000Y-127970000D01*
X177015000Y-127970000D02*
X175155000Y-127970000D01*
X175155000Y-127970000D02*
X175155000Y-127030000D01*
X175155000Y-127030000D02*
X177015000Y-127030000D01*
G04 #@! TO.C,C1008*
X169155000Y-125270000D02*
X169155000Y-124330000D01*
X169155000Y-124330000D02*
X171015000Y-124330000D01*
X171015000Y-124330000D02*
X171015000Y-125270000D01*
X171015000Y-125270000D02*
X169155000Y-125270000D01*
G04 #@! TO.C,C1007*
X156570000Y-121345000D02*
X155630000Y-121345000D01*
X155630000Y-121345000D02*
X155630000Y-119485000D01*
X155630000Y-119485000D02*
X156570000Y-119485000D01*
X156570000Y-119485000D02*
X156570000Y-121345000D01*
G04 #@! TO.C,C1006*
X153570000Y-138045000D02*
X152630000Y-138045000D01*
X152630000Y-138045000D02*
X152630000Y-136185000D01*
X152630000Y-136185000D02*
X153570000Y-136185000D01*
X153570000Y-136185000D02*
X153570000Y-138045000D01*
G04 #@! TO.C,C1005*
X154670000Y-138045000D02*
X153730000Y-138045000D01*
X153730000Y-138045000D02*
X153730000Y-136185000D01*
X153730000Y-136185000D02*
X154670000Y-136185000D01*
X154670000Y-136185000D02*
X154670000Y-138045000D01*
G04 #@! TO.C,C1004*
X160570000Y-118445000D02*
X159630000Y-118445000D01*
X159630000Y-118445000D02*
X159630000Y-116585000D01*
X159630000Y-116585000D02*
X160570000Y-116585000D01*
X160570000Y-116585000D02*
X160570000Y-118445000D01*
G04 #@! TO.C,C1003*
X156730000Y-128230000D02*
X156730000Y-129170000D01*
X156730000Y-129170000D02*
X154870000Y-129170000D01*
X154870000Y-129170000D02*
X154870000Y-128230000D01*
X154870000Y-128230000D02*
X156730000Y-128230000D01*
G04 #@! TO.C,C1002*
X165070000Y-135745000D02*
X164130000Y-135745000D01*
X164130000Y-135745000D02*
X164130000Y-133885000D01*
X164130000Y-133885000D02*
X165070000Y-133885000D01*
X165070000Y-133885000D02*
X165070000Y-135745000D01*
G04 #@! TO.C,C1001*
X167055000Y-123270000D02*
X167055000Y-122330000D01*
X167055000Y-122330000D02*
X168915000Y-122330000D01*
X168915000Y-122330000D02*
X168915000Y-123270000D01*
X168915000Y-123270000D02*
X167055000Y-123270000D01*
G04 #@! TO.C,C901*
X107530000Y-112770000D02*
X108470000Y-112770000D01*
X108470000Y-112770000D02*
X108470000Y-114630000D01*
X108470000Y-114630000D02*
X107530000Y-114630000D01*
X107530000Y-114630000D02*
X107530000Y-112770000D01*
G04 #@! TO.C,C723*
X124130000Y-143070000D02*
X125070000Y-143070000D01*
X125070000Y-143070000D02*
X125070000Y-144930000D01*
X125070000Y-144930000D02*
X124130000Y-144930000D01*
X124130000Y-144930000D02*
X124130000Y-143070000D01*
G04 #@! TO.C,C722*
X118330000Y-139030000D02*
X118330000Y-139970000D01*
X118330000Y-139970000D02*
X116470000Y-139970000D01*
X116470000Y-139970000D02*
X116470000Y-139030000D01*
X116470000Y-139030000D02*
X118330000Y-139030000D01*
G04 #@! TO.C,C721*
X118330000Y-132530000D02*
X118330000Y-133470000D01*
X118330000Y-133470000D02*
X116470000Y-133470000D01*
X116470000Y-133470000D02*
X116470000Y-132530000D01*
X116470000Y-132530000D02*
X118330000Y-132530000D01*
G04 #@! TO.C,C720*
X118230000Y-127830000D02*
X118230000Y-128770000D01*
X118230000Y-128770000D02*
X116370000Y-128770000D01*
X116370000Y-128770000D02*
X116370000Y-127830000D01*
X116370000Y-127830000D02*
X118230000Y-127830000D01*
G04 #@! TO.C,C719*
X129630000Y-143070000D02*
X130570000Y-143070000D01*
X130570000Y-143070000D02*
X130570000Y-144930000D01*
X130570000Y-144930000D02*
X129630000Y-144930000D01*
X129630000Y-144930000D02*
X129630000Y-143070000D01*
G04 #@! TO.C,C718*
X135770000Y-148230000D02*
X134830000Y-148230000D01*
X134830000Y-148230000D02*
X134830000Y-146370000D01*
X134830000Y-146370000D02*
X135770000Y-146370000D01*
X135770000Y-146370000D02*
X135770000Y-148230000D01*
G04 #@! TO.C,C717*
X121470000Y-120445000D02*
X120530000Y-120445000D01*
X120530000Y-120445000D02*
X120530000Y-118585000D01*
X120530000Y-118585000D02*
X121470000Y-118585000D01*
X121470000Y-118585000D02*
X121470000Y-120445000D01*
G04 #@! TO.C,C716*
X130230000Y-146370000D02*
X131170000Y-146370000D01*
X131170000Y-146370000D02*
X131170000Y-148230000D01*
X131170000Y-148230000D02*
X130230000Y-148230000D01*
X130230000Y-148230000D02*
X130230000Y-146370000D01*
G04 #@! TO.C,C715*
X136130000Y-143070000D02*
X137070000Y-143070000D01*
X137070000Y-143070000D02*
X137070000Y-144930000D01*
X137070000Y-144930000D02*
X136130000Y-144930000D01*
X136130000Y-144930000D02*
X136130000Y-143070000D01*
G04 #@! TO.C,C713*
X134570000Y-118330000D02*
X133630000Y-118330000D01*
X133630000Y-118330000D02*
X133630000Y-116470000D01*
X133630000Y-116470000D02*
X134570000Y-116470000D01*
X134570000Y-116470000D02*
X134570000Y-118330000D01*
G04 #@! TO.C,C711*
X143070000Y-138970000D02*
X143070000Y-138030000D01*
X143070000Y-138030000D02*
X144930000Y-138030000D01*
X144930000Y-138030000D02*
X144930000Y-138970000D01*
X144930000Y-138970000D02*
X143070000Y-138970000D01*
G04 #@! TO.C,C710*
X143070000Y-132470000D02*
X143070000Y-131530000D01*
X143070000Y-131530000D02*
X144930000Y-131530000D01*
X144930000Y-131530000D02*
X144930000Y-132470000D01*
X144930000Y-132470000D02*
X143070000Y-132470000D01*
G04 #@! TO.C,C709*
X143070000Y-127370000D02*
X143070000Y-126430000D01*
X143070000Y-126430000D02*
X144930000Y-126430000D01*
X144930000Y-126430000D02*
X144930000Y-127370000D01*
X144930000Y-127370000D02*
X143070000Y-127370000D01*
G04 #@! TO.C,C708*
X128670000Y-118330000D02*
X127730000Y-118330000D01*
X127730000Y-118330000D02*
X127730000Y-116470000D01*
X127730000Y-116470000D02*
X128670000Y-116470000D01*
X128670000Y-116470000D02*
X128670000Y-118330000D01*
G04 #@! TO.C,C707*
X143855000Y-122470000D02*
X143855000Y-121530000D01*
X143855000Y-121530000D02*
X145715000Y-121530000D01*
X145715000Y-121530000D02*
X145715000Y-122470000D01*
X145715000Y-122470000D02*
X143855000Y-122470000D01*
G04 #@! TO.C,C705*
X110870000Y-144415000D02*
X109930000Y-144415000D01*
X109930000Y-144415000D02*
X109930000Y-142555000D01*
X109930000Y-142555000D02*
X110870000Y-142555000D01*
X110870000Y-142555000D02*
X110870000Y-144415000D01*
G04 #@! TO.C,C704*
X137155000Y-144870000D02*
X137155000Y-143930000D01*
X137155000Y-143930000D02*
X139015000Y-143930000D01*
X139015000Y-143930000D02*
X139015000Y-144870000D01*
X139015000Y-144870000D02*
X137155000Y-144870000D01*
G04 #@! TO.C,C703*
X137155000Y-143770000D02*
X137155000Y-142830000D01*
X137155000Y-142830000D02*
X139015000Y-142830000D01*
X139015000Y-142830000D02*
X139015000Y-143770000D01*
X139015000Y-143770000D02*
X137155000Y-143770000D01*
G04 #@! TO.C,C702*
X117330000Y-136630000D02*
X117330000Y-137570000D01*
X117330000Y-137570000D02*
X115470000Y-137570000D01*
X115470000Y-137570000D02*
X115470000Y-136630000D01*
X115470000Y-136630000D02*
X117330000Y-136630000D01*
G04 #@! TO.C,C701*
X110870000Y-148045000D02*
X109930000Y-148045000D01*
X109930000Y-148045000D02*
X109930000Y-146185000D01*
X109930000Y-146185000D02*
X110870000Y-146185000D01*
X110870000Y-146185000D02*
X110870000Y-148045000D01*
G04 #@! TO.C,C602*
X128905000Y-81150000D02*
X128905000Y-80210000D01*
X128905000Y-80210000D02*
X130765000Y-80210000D01*
X130765000Y-80210000D02*
X130765000Y-81150000D01*
X130765000Y-81150000D02*
X128905000Y-81150000D01*
G04 #@! TO.C,C601*
X127280000Y-68425000D02*
X126340000Y-68425000D01*
X126340000Y-68425000D02*
X126340000Y-66565000D01*
X126340000Y-66565000D02*
X127280000Y-66565000D01*
X127280000Y-66565000D02*
X127280000Y-68425000D01*
G04 #@! TO.C,C502*
X158415000Y-75880001D02*
X158415000Y-76820001D01*
X158415000Y-76820001D02*
X156555000Y-76820001D01*
X156555000Y-76820001D02*
X156555000Y-75880001D01*
X156555000Y-75880001D02*
X158415000Y-75880001D01*
G04 #@! TO.C,C501*
X160040000Y-88605001D02*
X160980000Y-88605001D01*
X160980000Y-88605001D02*
X160980000Y-90465001D01*
X160980000Y-90465001D02*
X160040000Y-90465001D01*
X160040000Y-90465001D02*
X160040000Y-88605001D01*
G04 #@! TD*
M02*
