G04 #@! TF.GenerationSoftware,KiCad,Pcbnew,(5.1.6)-1*
G04 #@! TF.CreationDate,2020-06-22T19:30:58+02:00*
G04 #@! TF.ProjectId,plc-sniffer,706c632d-736e-4696-9666-65722e6b6963,rev?*
G04 #@! TF.SameCoordinates,Original*
G04 #@! TF.FileFunction,Other,Fab,Top*
%FSLAX46Y46*%
G04 Gerber Fmt 4.6, Leading zero omitted, Abs format (unit mm)*
G04 Created by KiCad (PCBNEW (5.1.6)-1) date 2020-06-22 19:30:58*
%MOMM*%
%LPD*%
G01*
G04 APERTURE LIST*
%ADD10C,0.100000*%
G04 APERTURE END LIST*
D10*
G04 #@! TO.C,C714*
X121212500Y-118100000D02*
X121212500Y-117300000D01*
X121212500Y-117300000D02*
X122812500Y-117300000D01*
X122812500Y-117300000D02*
X122812500Y-118100000D01*
X122812500Y-118100000D02*
X121212500Y-118100000D01*
G04 #@! TO.C,C712*
X145087500Y-122900000D02*
X145087500Y-123700000D01*
X145087500Y-123700000D02*
X143487500Y-123700000D01*
X143487500Y-123700000D02*
X143487500Y-122900000D01*
X143487500Y-122900000D02*
X145087500Y-122900000D01*
G04 #@! TO.C,C706*
X144412500Y-120300000D02*
X144412500Y-121100000D01*
X144412500Y-121100000D02*
X142812500Y-121100000D01*
X142812500Y-121100000D02*
X142812500Y-120300000D01*
X142812500Y-120300000D02*
X144412500Y-120300000D01*
G04 #@! TO.C,C802*
X187900000Y-82562500D02*
X189100000Y-82562500D01*
X189100000Y-82562500D02*
X189100000Y-84562500D01*
X189100000Y-84562500D02*
X187900000Y-84562500D01*
X187900000Y-84562500D02*
X187900000Y-82562500D01*
G04 #@! TO.C,C801*
X184662500Y-91300000D02*
X184662500Y-92500000D01*
X184662500Y-92500000D02*
X182662500Y-92500000D01*
X182662500Y-92500000D02*
X182662500Y-91300000D01*
X182662500Y-91300000D02*
X184662500Y-91300000D01*
G04 #@! TO.C,J601*
X120570000Y-55635000D02*
X120570000Y-53730000D01*
X120570000Y-53730000D02*
X135810000Y-53730000D01*
X135810000Y-53730000D02*
X135810000Y-56270000D01*
X135810000Y-56270000D02*
X121205000Y-56270000D01*
X121205000Y-56270000D02*
X120570000Y-55635000D01*
G04 #@! TO.C,J501*
X139365000Y-53730000D02*
X141270000Y-53730000D01*
X141270000Y-53730000D02*
X141270000Y-68970000D01*
X141270000Y-68970000D02*
X138730000Y-68970000D01*
X138730000Y-68970000D02*
X138730000Y-54365000D01*
X138730000Y-54365000D02*
X139365000Y-53730000D01*
G04 #@! TO.C,U702*
X120837500Y-139750000D02*
X120837500Y-120750000D01*
X120837500Y-120750000D02*
X140837500Y-120750000D01*
X140837500Y-120750000D02*
X140837500Y-140750000D01*
X140837500Y-140750000D02*
X121837500Y-140750000D01*
X121837500Y-140750000D02*
X120837500Y-139750000D01*
G04 #@! TO.C,R1028*
X195700000Y-102050000D02*
X195700000Y-101550000D01*
X195700000Y-101550000D02*
X196700000Y-101550000D01*
X196700000Y-101550000D02*
X196700000Y-102050000D01*
X196700000Y-102050000D02*
X195700000Y-102050000D01*
G04 #@! TO.C,R405*
X194850000Y-95085000D02*
X195350000Y-95085000D01*
X195350000Y-95085000D02*
X195350000Y-96085000D01*
X195350000Y-96085000D02*
X194850000Y-96085000D01*
X194850000Y-96085000D02*
X194850000Y-95085000D01*
G04 #@! TO.C,Q403*
X195400000Y-98450000D02*
X195400000Y-100900000D01*
X195950000Y-97880000D02*
X196800000Y-97880000D01*
X195400000Y-98450000D02*
X195950000Y-97880000D01*
X196800000Y-97880000D02*
X196800000Y-100920000D01*
X195400000Y-100920000D02*
X196800000Y-100920000D01*
G04 #@! TO.C,R707*
X120400000Y-143337500D02*
X121600000Y-143337500D01*
X121600000Y-143337500D02*
X121600000Y-145337500D01*
X121600000Y-145337500D02*
X120400000Y-145337500D01*
X120400000Y-145337500D02*
X120400000Y-143337500D01*
G04 #@! TO.C,R610*
X104550000Y-81195000D02*
X103350000Y-81195000D01*
X103350000Y-81195000D02*
X103350000Y-79195000D01*
X103350000Y-79195000D02*
X104550000Y-79195000D01*
X104550000Y-79195000D02*
X104550000Y-81195000D01*
G04 #@! TO.C,R510*
X182770000Y-75835001D02*
X183970000Y-75835001D01*
X183970000Y-75835001D02*
X183970000Y-77835001D01*
X183970000Y-77835001D02*
X182770000Y-77835001D01*
X182770000Y-77835001D02*
X182770000Y-75835001D01*
G04 #@! TO.C,Y701*
X131750000Y-148900000D02*
X134250000Y-148900000D01*
X134250000Y-148900000D02*
X134250000Y-145700000D01*
X134250000Y-145700000D02*
X131750000Y-145700000D01*
X131750000Y-145700000D02*
X131750000Y-148900000D01*
X133250000Y-148900000D02*
X134250000Y-147900000D01*
G04 #@! TO.C,U1002*
X157337500Y-127250000D02*
X157337500Y-121250000D01*
X157337500Y-121250000D02*
X164337500Y-121250000D01*
X164337500Y-121250000D02*
X164337500Y-128250000D01*
X164337500Y-128250000D02*
X158337500Y-128250000D01*
X158337500Y-128250000D02*
X157337500Y-127250000D01*
G04 #@! TO.C,U1001*
X161300000Y-139950000D02*
X160300000Y-140950000D01*
X161300000Y-139950000D02*
X161300000Y-134250000D01*
X160300000Y-140950000D02*
X157600000Y-140950000D01*
X161300000Y-134250000D02*
X157600000Y-134250000D01*
X157600000Y-140950000D02*
X157600000Y-134250000D01*
G04 #@! TO.C,U801*
X187200000Y-90545000D02*
X184275000Y-90545000D01*
X184275000Y-90545000D02*
X184275000Y-85645000D01*
X184275000Y-85645000D02*
X188175000Y-85645000D01*
X188175000Y-85645000D02*
X188175000Y-89570000D01*
X188175000Y-89570000D02*
X187200000Y-90545000D01*
G04 #@! TO.C,U701*
X113600000Y-142950000D02*
X114600000Y-141950000D01*
X113600000Y-142950000D02*
X113600000Y-148650000D01*
X114600000Y-141950000D02*
X117300000Y-141950000D01*
X113600000Y-148650000D02*
X117300000Y-148650000D01*
X117300000Y-141950000D02*
X117300000Y-148650000D01*
G04 #@! TO.C,U601*
X131700000Y-71450000D02*
X132700000Y-72450000D01*
X131700000Y-71450000D02*
X126000000Y-71450000D01*
X132700000Y-72450000D02*
X132700000Y-75150000D01*
X126000000Y-71450000D02*
X126000000Y-75150000D01*
X132700000Y-75150000D02*
X126000000Y-75150000D01*
G04 #@! TO.C,U501*
X155620000Y-85580001D02*
X154620000Y-84580001D01*
X155620000Y-85580001D02*
X161320000Y-85580001D01*
X154620000Y-84580001D02*
X154620000Y-81880001D01*
X161320000Y-85580001D02*
X161320000Y-81880001D01*
X154620000Y-81880001D02*
X161320000Y-81880001D01*
G04 #@! TO.C,R1027*
X164685000Y-114050000D02*
X164685000Y-114550000D01*
X164685000Y-114550000D02*
X163685000Y-114550000D01*
X163685000Y-114550000D02*
X163685000Y-114050000D01*
X163685000Y-114050000D02*
X164685000Y-114050000D01*
G04 #@! TO.C,R1026*
X164700000Y-111250000D02*
X164700000Y-111750000D01*
X164700000Y-111750000D02*
X163700000Y-111750000D01*
X163700000Y-111750000D02*
X163700000Y-111250000D01*
X163700000Y-111250000D02*
X164700000Y-111250000D01*
G04 #@! TO.C,R1025*
X164685000Y-108450000D02*
X164685000Y-108950000D01*
X164685000Y-108950000D02*
X163685000Y-108950000D01*
X163685000Y-108950000D02*
X163685000Y-108450000D01*
X163685000Y-108450000D02*
X164685000Y-108450000D01*
G04 #@! TO.C,R1024*
X167615000Y-115450000D02*
X167615000Y-115950000D01*
X167615000Y-115950000D02*
X166615000Y-115950000D01*
X166615000Y-115950000D02*
X166615000Y-115450000D01*
X166615000Y-115450000D02*
X167615000Y-115450000D01*
G04 #@! TO.C,R1023*
X167585000Y-112650000D02*
X167585000Y-113150000D01*
X167585000Y-113150000D02*
X166585000Y-113150000D01*
X166585000Y-113150000D02*
X166585000Y-112650000D01*
X166585000Y-112650000D02*
X167585000Y-112650000D01*
G04 #@! TO.C,R1022*
X167585000Y-109850000D02*
X167585000Y-110350000D01*
X167585000Y-110350000D02*
X166585000Y-110350000D01*
X166585000Y-110350000D02*
X166585000Y-109850000D01*
X166585000Y-109850000D02*
X167585000Y-109850000D01*
G04 #@! TO.C,R1021*
X161950000Y-132515000D02*
X161450000Y-132515000D01*
X161450000Y-132515000D02*
X161450000Y-131515000D01*
X161450000Y-131515000D02*
X161950000Y-131515000D01*
X161950000Y-131515000D02*
X161950000Y-132515000D01*
G04 #@! TO.C,R1020*
X195515000Y-137450000D02*
X195515000Y-137950000D01*
X195515000Y-137950000D02*
X194515000Y-137950000D01*
X194515000Y-137950000D02*
X194515000Y-137450000D01*
X194515000Y-137450000D02*
X195515000Y-137450000D01*
G04 #@! TO.C,R1019*
X197015000Y-119950000D02*
X197015000Y-120450000D01*
X197015000Y-120450000D02*
X196015000Y-120450000D01*
X196015000Y-120450000D02*
X196015000Y-119950000D01*
X196015000Y-119950000D02*
X197015000Y-119950000D01*
G04 #@! TO.C,R1018*
X161150000Y-112215000D02*
X161650000Y-112215000D01*
X161650000Y-112215000D02*
X161650000Y-113215000D01*
X161650000Y-113215000D02*
X161150000Y-113215000D01*
X161150000Y-113215000D02*
X161150000Y-112215000D01*
G04 #@! TO.C,R1017*
X152750000Y-121015000D02*
X153250000Y-121015000D01*
X153250000Y-121015000D02*
X153250000Y-122015000D01*
X153250000Y-122015000D02*
X152750000Y-122015000D01*
X152750000Y-122015000D02*
X152750000Y-121015000D01*
G04 #@! TO.C,R1016*
X167087500Y-117900000D02*
X167087500Y-118700000D01*
X167087500Y-118700000D02*
X165487500Y-118700000D01*
X165487500Y-118700000D02*
X165487500Y-117900000D01*
X165487500Y-117900000D02*
X167087500Y-117900000D01*
G04 #@! TO.C,R1015*
X175850000Y-131715000D02*
X175350000Y-131715000D01*
X175350000Y-131715000D02*
X175350000Y-130715000D01*
X175350000Y-130715000D02*
X175850000Y-130715000D01*
X175850000Y-130715000D02*
X175850000Y-131715000D01*
G04 #@! TO.C,R1014*
X175850000Y-126185000D02*
X175350000Y-126185000D01*
X175350000Y-126185000D02*
X175350000Y-125185000D01*
X175350000Y-125185000D02*
X175850000Y-125185000D01*
X175850000Y-125185000D02*
X175850000Y-126185000D01*
G04 #@! TO.C,R1013*
X165250000Y-119715000D02*
X165750000Y-119715000D01*
X165750000Y-119715000D02*
X165750000Y-120715000D01*
X165750000Y-120715000D02*
X165250000Y-120715000D01*
X165250000Y-120715000D02*
X165250000Y-119715000D01*
G04 #@! TO.C,R1012*
X170585000Y-123250000D02*
X170585000Y-123750000D01*
X170585000Y-123750000D02*
X169585000Y-123750000D01*
X169585000Y-123750000D02*
X169585000Y-123250000D01*
X169585000Y-123250000D02*
X170585000Y-123250000D01*
G04 #@! TO.C,R1011*
X168485000Y-123850000D02*
X168485000Y-124350000D01*
X168485000Y-124350000D02*
X167485000Y-124350000D01*
X167485000Y-124350000D02*
X167485000Y-123850000D01*
X167485000Y-123850000D02*
X168485000Y-123850000D01*
G04 #@! TO.C,R1010*
X175350000Y-128715000D02*
X175850000Y-128715000D01*
X175850000Y-128715000D02*
X175850000Y-129715000D01*
X175850000Y-129715000D02*
X175350000Y-129715000D01*
X175350000Y-129715000D02*
X175350000Y-128715000D01*
G04 #@! TO.C,R1009*
X175350000Y-123215000D02*
X175850000Y-123215000D01*
X175850000Y-123215000D02*
X175850000Y-124215000D01*
X175850000Y-124215000D02*
X175350000Y-124215000D01*
X175350000Y-124215000D02*
X175350000Y-123215000D01*
G04 #@! TO.C,R1008*
X150150000Y-121015000D02*
X150650000Y-121015000D01*
X150650000Y-121015000D02*
X150650000Y-122015000D01*
X150650000Y-122015000D02*
X150150000Y-122015000D01*
X150150000Y-122015000D02*
X150150000Y-121015000D01*
G04 #@! TO.C,R1007*
X153750000Y-121015000D02*
X154250000Y-121015000D01*
X154250000Y-121015000D02*
X154250000Y-122015000D01*
X154250000Y-122015000D02*
X153750000Y-122015000D01*
X153750000Y-122015000D02*
X153750000Y-121015000D01*
G04 #@! TO.C,R1006*
X151150000Y-121015000D02*
X151650000Y-121015000D01*
X151650000Y-121015000D02*
X151650000Y-122015000D01*
X151650000Y-122015000D02*
X151150000Y-122015000D01*
X151150000Y-122015000D02*
X151150000Y-121015000D01*
G04 #@! TO.C,R1005*
X152750000Y-128685000D02*
X153250000Y-128685000D01*
X153250000Y-128685000D02*
X153250000Y-129685000D01*
X153250000Y-129685000D02*
X152750000Y-129685000D01*
X152750000Y-129685000D02*
X152750000Y-128685000D01*
G04 #@! TO.C,R1004*
X151750000Y-128685000D02*
X152250000Y-128685000D01*
X152250000Y-128685000D02*
X152250000Y-129685000D01*
X152250000Y-129685000D02*
X151750000Y-129685000D01*
X151750000Y-129685000D02*
X151750000Y-128685000D01*
G04 #@! TO.C,R1003*
X150750000Y-128685000D02*
X151250000Y-128685000D01*
X151250000Y-128685000D02*
X151250000Y-129685000D01*
X151250000Y-129685000D02*
X150750000Y-129685000D01*
X150750000Y-129685000D02*
X150750000Y-128685000D01*
G04 #@! TO.C,R1002*
X149350000Y-128685000D02*
X149850000Y-128685000D01*
X149850000Y-128685000D02*
X149850000Y-129685000D01*
X149850000Y-129685000D02*
X149350000Y-129685000D01*
X149350000Y-129685000D02*
X149350000Y-128685000D01*
G04 #@! TO.C,R1001*
X160350000Y-131515000D02*
X160850000Y-131515000D01*
X160850000Y-131515000D02*
X160850000Y-132515000D01*
X160850000Y-132515000D02*
X160350000Y-132515000D01*
X160350000Y-132515000D02*
X160350000Y-131515000D01*
G04 #@! TO.C,R901*
X112050000Y-105215000D02*
X112550000Y-105215000D01*
X112550000Y-105215000D02*
X112550000Y-106215000D01*
X112550000Y-106215000D02*
X112050000Y-106215000D01*
X112050000Y-106215000D02*
X112050000Y-105215000D01*
G04 #@! TO.C,R813*
X173585000Y-87750000D02*
X173585000Y-88250000D01*
X173585000Y-88250000D02*
X172585000Y-88250000D01*
X172585000Y-88250000D02*
X172585000Y-87750000D01*
X172585000Y-87750000D02*
X173585000Y-87750000D01*
G04 #@! TO.C,R812*
X173615000Y-91350000D02*
X173615000Y-91850000D01*
X173615000Y-91850000D02*
X172615000Y-91850000D01*
X172615000Y-91850000D02*
X172615000Y-91350000D01*
X172615000Y-91350000D02*
X173615000Y-91350000D01*
G04 #@! TO.C,R811*
X194850000Y-78915000D02*
X195350000Y-78915000D01*
X195350000Y-78915000D02*
X195350000Y-79915000D01*
X195350000Y-79915000D02*
X194850000Y-79915000D01*
X194850000Y-79915000D02*
X194850000Y-78915000D01*
G04 #@! TO.C,R810*
X194850000Y-81015000D02*
X195350000Y-81015000D01*
X195350000Y-81015000D02*
X195350000Y-82015000D01*
X195350000Y-82015000D02*
X194850000Y-82015000D01*
X194850000Y-82015000D02*
X194850000Y-81015000D01*
G04 #@! TO.C,R809*
X194115000Y-90250000D02*
X194115000Y-89750000D01*
X194115000Y-89750000D02*
X195115000Y-89750000D01*
X195115000Y-89750000D02*
X195115000Y-90250000D01*
X195115000Y-90250000D02*
X194115000Y-90250000D01*
G04 #@! TO.C,R808*
X191600000Y-88412500D02*
X192400000Y-88412500D01*
X192400000Y-88412500D02*
X192400000Y-90012500D01*
X192400000Y-90012500D02*
X191600000Y-90012500D01*
X191600000Y-90012500D02*
X191600000Y-88412500D01*
G04 #@! TO.C,R807*
X187887500Y-92200000D02*
X187887500Y-91400000D01*
X187887500Y-91400000D02*
X189487500Y-91400000D01*
X189487500Y-91400000D02*
X189487500Y-92200000D01*
X189487500Y-92200000D02*
X187887500Y-92200000D01*
G04 #@! TO.C,R806*
X186700000Y-93387500D02*
X185900000Y-93387500D01*
X185900000Y-93387500D02*
X185900000Y-91787500D01*
X185900000Y-91787500D02*
X186700000Y-91787500D01*
X186700000Y-91787500D02*
X186700000Y-93387500D01*
G04 #@! TO.C,R805*
X191600000Y-85200000D02*
X192400000Y-85200000D01*
X192400000Y-85200000D02*
X192400000Y-86800000D01*
X192400000Y-86800000D02*
X191600000Y-86800000D01*
X191600000Y-86800000D02*
X191600000Y-85200000D01*
G04 #@! TO.C,R804*
X185050000Y-94715000D02*
X184550000Y-94715000D01*
X184550000Y-94715000D02*
X184550000Y-93715000D01*
X184550000Y-93715000D02*
X185050000Y-93715000D01*
X185050000Y-93715000D02*
X185050000Y-94715000D01*
G04 #@! TO.C,R803*
X186050000Y-94685000D02*
X186550000Y-94685000D01*
X186550000Y-94685000D02*
X186550000Y-95685000D01*
X186550000Y-95685000D02*
X186050000Y-95685000D01*
X186050000Y-95685000D02*
X186050000Y-94685000D01*
G04 #@! TO.C,R802*
X164950000Y-77900000D02*
X165450000Y-77900000D01*
X165450000Y-77900000D02*
X165450000Y-78900000D01*
X165450000Y-78900000D02*
X164950000Y-78900000D01*
X164950000Y-78900000D02*
X164950000Y-77900000D01*
G04 #@! TO.C,R801*
X170550000Y-79400000D02*
X170050000Y-79400000D01*
X170050000Y-79400000D02*
X170050000Y-78400000D01*
X170050000Y-78400000D02*
X170550000Y-78400000D01*
X170550000Y-78400000D02*
X170550000Y-79400000D01*
G04 #@! TO.C,R715*
X102385000Y-119950000D02*
X102385000Y-119450000D01*
X102385000Y-119450000D02*
X103385000Y-119450000D01*
X103385000Y-119450000D02*
X103385000Y-119950000D01*
X103385000Y-119950000D02*
X102385000Y-119950000D01*
G04 #@! TO.C,R714*
X102415000Y-122450000D02*
X102415000Y-121950000D01*
X102415000Y-121950000D02*
X103415000Y-121950000D01*
X103415000Y-121950000D02*
X103415000Y-122450000D01*
X103415000Y-122450000D02*
X102415000Y-122450000D01*
G04 #@! TO.C,R713*
X102315000Y-139250000D02*
X102315000Y-138750000D01*
X102315000Y-138750000D02*
X103315000Y-138750000D01*
X103315000Y-138750000D02*
X103315000Y-139250000D01*
X103315000Y-139250000D02*
X102315000Y-139250000D01*
G04 #@! TO.C,R712*
X102315000Y-136550000D02*
X102315000Y-136050000D01*
X102315000Y-136050000D02*
X103315000Y-136050000D01*
X103315000Y-136050000D02*
X103315000Y-136550000D01*
X103315000Y-136550000D02*
X102315000Y-136550000D01*
G04 #@! TO.C,R711*
X107950000Y-132600000D02*
X107450000Y-132600000D01*
X107450000Y-132600000D02*
X107450000Y-131600000D01*
X107450000Y-131600000D02*
X107950000Y-131600000D01*
X107950000Y-131600000D02*
X107950000Y-132600000D01*
G04 #@! TO.C,R710*
X107950000Y-127000000D02*
X107450000Y-127000000D01*
X107450000Y-127000000D02*
X107450000Y-126000000D01*
X107450000Y-126000000D02*
X107950000Y-126000000D01*
X107950000Y-126000000D02*
X107950000Y-127000000D01*
G04 #@! TO.C,R709*
X115850000Y-126985000D02*
X115350000Y-126985000D01*
X115350000Y-126985000D02*
X115350000Y-125985000D01*
X115350000Y-125985000D02*
X115850000Y-125985000D01*
X115850000Y-125985000D02*
X115850000Y-126985000D01*
G04 #@! TO.C,R708*
X115850000Y-132500000D02*
X115350000Y-132500000D01*
X115350000Y-132500000D02*
X115350000Y-131500000D01*
X115350000Y-131500000D02*
X115850000Y-131500000D01*
X115850000Y-131500000D02*
X115850000Y-132500000D01*
G04 #@! TO.C,R706*
X124285000Y-147650000D02*
X124285000Y-147150000D01*
X124285000Y-147150000D02*
X125285000Y-147150000D01*
X125285000Y-147150000D02*
X125285000Y-147650000D01*
X125285000Y-147650000D02*
X124285000Y-147650000D01*
G04 #@! TO.C,R705*
X117885000Y-135450000D02*
X117885000Y-135950000D01*
X117885000Y-135950000D02*
X116885000Y-135950000D01*
X116885000Y-135950000D02*
X116885000Y-135450000D01*
X116885000Y-135450000D02*
X117885000Y-135450000D01*
G04 #@! TO.C,R704*
X142950000Y-147715000D02*
X142450000Y-147715000D01*
X142450000Y-147715000D02*
X142450000Y-146715000D01*
X142450000Y-146715000D02*
X142950000Y-146715000D01*
X142950000Y-146715000D02*
X142950000Y-147715000D01*
G04 #@! TO.C,R703*
X153050000Y-147715000D02*
X152550000Y-147715000D01*
X152550000Y-147715000D02*
X152550000Y-146715000D01*
X152550000Y-146715000D02*
X153050000Y-146715000D01*
X153050000Y-146715000D02*
X153050000Y-147715000D01*
G04 #@! TO.C,R702*
X154550000Y-147715000D02*
X154050000Y-147715000D01*
X154050000Y-147715000D02*
X154050000Y-146715000D01*
X154050000Y-146715000D02*
X154550000Y-146715000D01*
X154550000Y-146715000D02*
X154550000Y-147715000D01*
G04 #@! TO.C,R701*
X164750000Y-147715000D02*
X164250000Y-147715000D01*
X164250000Y-147715000D02*
X164250000Y-146715000D01*
X164250000Y-146715000D02*
X164750000Y-146715000D01*
X164750000Y-146715000D02*
X164750000Y-147715000D01*
G04 #@! TO.C,R609*
X129600000Y-67995000D02*
X129100000Y-67995000D01*
X129100000Y-67995000D02*
X129100000Y-66995000D01*
X129100000Y-66995000D02*
X129600000Y-66995000D01*
X129600000Y-66995000D02*
X129600000Y-67995000D01*
G04 #@! TO.C,R608*
X128330000Y-80695000D02*
X127830000Y-80695000D01*
X127830000Y-80695000D02*
X127830000Y-79695000D01*
X127830000Y-79695000D02*
X128330000Y-79695000D01*
X128330000Y-79695000D02*
X128330000Y-80695000D01*
G04 #@! TO.C,R607*
X121400000Y-63700000D02*
X121400000Y-64200000D01*
X121400000Y-64200000D02*
X120400000Y-64200000D01*
X120400000Y-64200000D02*
X120400000Y-63700000D01*
X120400000Y-63700000D02*
X121400000Y-63700000D01*
G04 #@! TO.C,R606*
X121150000Y-70700000D02*
X120650000Y-70700000D01*
X120650000Y-70700000D02*
X120650000Y-69700000D01*
X120650000Y-69700000D02*
X121150000Y-69700000D01*
X121150000Y-69700000D02*
X121150000Y-70700000D01*
G04 #@! TO.C,R605*
X133445000Y-79025000D02*
X133445000Y-78525000D01*
X133445000Y-78525000D02*
X134445000Y-78525000D01*
X134445000Y-78525000D02*
X134445000Y-79025000D01*
X134445000Y-79025000D02*
X133445000Y-79025000D01*
G04 #@! TO.C,R604*
X141030000Y-80695000D02*
X140530000Y-80695000D01*
X140530000Y-80695000D02*
X140530000Y-79695000D01*
X140530000Y-79695000D02*
X141030000Y-79695000D01*
X141030000Y-79695000D02*
X141030000Y-80695000D01*
G04 #@! TO.C,R603*
X142300000Y-80695000D02*
X141800000Y-80695000D01*
X141800000Y-80695000D02*
X141800000Y-79695000D01*
X141800000Y-79695000D02*
X142300000Y-79695000D01*
X142300000Y-79695000D02*
X142300000Y-80695000D01*
G04 #@! TO.C,R602*
X146245000Y-84475000D02*
X146745000Y-84475000D01*
X146745000Y-84475000D02*
X146745000Y-85475000D01*
X146745000Y-85475000D02*
X146245000Y-85475000D01*
X146245000Y-85475000D02*
X146245000Y-84475000D01*
G04 #@! TO.C,R601*
X143070000Y-79695000D02*
X143570000Y-79695000D01*
X143570000Y-79695000D02*
X143570000Y-80695000D01*
X143570000Y-80695000D02*
X143070000Y-80695000D01*
X143070000Y-80695000D02*
X143070000Y-79695000D01*
G04 #@! TO.C,R509*
X157720000Y-89035001D02*
X158220000Y-89035001D01*
X158220000Y-89035001D02*
X158220000Y-90035001D01*
X158220000Y-90035001D02*
X157720000Y-90035001D01*
X157720000Y-90035001D02*
X157720000Y-89035001D01*
G04 #@! TO.C,R508*
X158990000Y-76335001D02*
X159490000Y-76335001D01*
X159490000Y-76335001D02*
X159490000Y-77335001D01*
X159490000Y-77335001D02*
X158990000Y-77335001D01*
X158990000Y-77335001D02*
X158990000Y-76335001D01*
G04 #@! TO.C,R507*
X165920000Y-93330001D02*
X165920000Y-92830001D01*
X165920000Y-92830001D02*
X166920000Y-92830001D01*
X166920000Y-92830001D02*
X166920000Y-93330001D01*
X166920000Y-93330001D02*
X165920000Y-93330001D01*
G04 #@! TO.C,R506*
X166170000Y-86330001D02*
X166670000Y-86330001D01*
X166670000Y-86330001D02*
X166670000Y-87330001D01*
X166670000Y-87330001D02*
X166170000Y-87330001D01*
X166170000Y-87330001D02*
X166170000Y-86330001D01*
G04 #@! TO.C,R505*
X153875000Y-78005001D02*
X153875000Y-78505001D01*
X153875000Y-78505001D02*
X152875000Y-78505001D01*
X152875000Y-78505001D02*
X152875000Y-78005001D01*
X152875000Y-78005001D02*
X153875000Y-78005001D01*
G04 #@! TO.C,R504*
X146290000Y-76335001D02*
X146790000Y-76335001D01*
X146790000Y-76335001D02*
X146790000Y-77335001D01*
X146790000Y-77335001D02*
X146290000Y-77335001D01*
X146290000Y-77335001D02*
X146290000Y-76335001D01*
G04 #@! TO.C,R503*
X145020000Y-76335001D02*
X145520000Y-76335001D01*
X145520000Y-76335001D02*
X145520000Y-77335001D01*
X145520000Y-77335001D02*
X145020000Y-77335001D01*
X145020000Y-77335001D02*
X145020000Y-76335001D01*
G04 #@! TO.C,R502*
X141075000Y-72555001D02*
X140575000Y-72555001D01*
X140575000Y-72555001D02*
X140575000Y-71555001D01*
X140575000Y-71555001D02*
X141075000Y-71555001D01*
X141075000Y-71555001D02*
X141075000Y-72555001D01*
G04 #@! TO.C,R501*
X144250000Y-77335001D02*
X143750000Y-77335001D01*
X143750000Y-77335001D02*
X143750000Y-76335001D01*
X143750000Y-76335001D02*
X144250000Y-76335001D01*
X144250000Y-76335001D02*
X144250000Y-77335001D01*
G04 #@! TO.C,R404*
X192550000Y-97385000D02*
X193050000Y-97385000D01*
X193050000Y-97385000D02*
X193050000Y-98385000D01*
X193050000Y-98385000D02*
X192550000Y-98385000D01*
X192550000Y-98385000D02*
X192550000Y-97385000D01*
G04 #@! TO.C,R403*
X192550000Y-95100000D02*
X193050000Y-95100000D01*
X193050000Y-95100000D02*
X193050000Y-96100000D01*
X193050000Y-96100000D02*
X192550000Y-96100000D01*
X192550000Y-96100000D02*
X192550000Y-95100000D01*
G04 #@! TO.C,R402*
X189050000Y-101985000D02*
X189550000Y-101985000D01*
X189550000Y-101985000D02*
X189550000Y-102985000D01*
X189550000Y-102985000D02*
X189050000Y-102985000D01*
X189050000Y-102985000D02*
X189050000Y-101985000D01*
G04 #@! TO.C,R401*
X189550000Y-96015000D02*
X189050000Y-96015000D01*
X189050000Y-96015000D02*
X189050000Y-95015000D01*
X189050000Y-95015000D02*
X189550000Y-95015000D01*
X189550000Y-95015000D02*
X189550000Y-96015000D01*
G04 #@! TO.C,R304*
X107800000Y-62200000D02*
X107000000Y-62200000D01*
X107000000Y-62200000D02*
X107000000Y-60600000D01*
X107000000Y-60600000D02*
X107800000Y-60600000D01*
X107800000Y-60600000D02*
X107800000Y-62200000D01*
G04 #@! TO.C,R303*
X107800000Y-65412500D02*
X107000000Y-65412500D01*
X107000000Y-65412500D02*
X107000000Y-63812500D01*
X107000000Y-63812500D02*
X107800000Y-63812500D01*
X107800000Y-63812500D02*
X107800000Y-65412500D01*
G04 #@! TO.C,R302*
X105500000Y-68300000D02*
X104700000Y-68300000D01*
X104700000Y-68300000D02*
X104700000Y-66700000D01*
X104700000Y-66700000D02*
X105500000Y-66700000D01*
X105500000Y-66700000D02*
X105500000Y-68300000D01*
G04 #@! TO.C,R301*
X105350000Y-65415000D02*
X104850000Y-65415000D01*
X104850000Y-65415000D02*
X104850000Y-64415000D01*
X104850000Y-64415000D02*
X105350000Y-64415000D01*
X105350000Y-64415000D02*
X105350000Y-65415000D01*
G04 #@! TO.C,R208*
X112850000Y-73600000D02*
X112350000Y-73600000D01*
X112350000Y-73600000D02*
X112350000Y-72600000D01*
X112350000Y-72600000D02*
X112850000Y-72600000D01*
X112850000Y-72600000D02*
X112850000Y-73600000D01*
G04 #@! TO.C,R207*
X110150000Y-74385000D02*
X109650000Y-74385000D01*
X109650000Y-74385000D02*
X109650000Y-73385000D01*
X109650000Y-73385000D02*
X110150000Y-73385000D01*
X110150000Y-73385000D02*
X110150000Y-74385000D01*
G04 #@! TO.C,R206*
X110135000Y-76485000D02*
X109635000Y-76485000D01*
X109635000Y-76485000D02*
X109635000Y-75485000D01*
X109635000Y-75485000D02*
X110135000Y-75485000D01*
X110135000Y-75485000D02*
X110135000Y-76485000D01*
G04 #@! TO.C,R205*
X117250000Y-73585000D02*
X116750000Y-73585000D01*
X116750000Y-73585000D02*
X116750000Y-72585000D01*
X116750000Y-72585000D02*
X117250000Y-72585000D01*
X117250000Y-72585000D02*
X117250000Y-73585000D01*
G04 #@! TO.C,R204*
X117250000Y-71485000D02*
X116750000Y-71485000D01*
X116750000Y-71485000D02*
X116750000Y-70485000D01*
X116750000Y-70485000D02*
X117250000Y-70485000D01*
X117250000Y-70485000D02*
X117250000Y-71485000D01*
G04 #@! TO.C,R203*
X112850000Y-71485000D02*
X112350000Y-71485000D01*
X112350000Y-71485000D02*
X112350000Y-70485000D01*
X112350000Y-70485000D02*
X112850000Y-70485000D01*
X112850000Y-70485000D02*
X112850000Y-71485000D01*
G04 #@! TO.C,R202*
X111615000Y-78850000D02*
X111615000Y-78350000D01*
X111615000Y-78350000D02*
X112615000Y-78350000D01*
X112615000Y-78350000D02*
X112615000Y-78850000D01*
X112615000Y-78850000D02*
X111615000Y-78850000D01*
G04 #@! TO.C,R201*
X110300000Y-72087500D02*
X109500000Y-72087500D01*
X109500000Y-72087500D02*
X109500000Y-70487500D01*
X109500000Y-70487500D02*
X110300000Y-70487500D01*
X110300000Y-70487500D02*
X110300000Y-72087500D01*
G04 #@! TO.C,Q802*
X172000000Y-77950000D02*
X172000000Y-80400000D01*
X172550000Y-77380000D02*
X173400000Y-77380000D01*
X172000000Y-77950000D02*
X172550000Y-77380000D01*
X173400000Y-77380000D02*
X173400000Y-80420000D01*
X172000000Y-80420000D02*
X173400000Y-80420000D01*
G04 #@! TO.C,Q801*
X166900000Y-77450000D02*
X166900000Y-79900000D01*
X167450000Y-76880000D02*
X168300000Y-76880000D01*
X166900000Y-77450000D02*
X167450000Y-76880000D01*
X168300000Y-76880000D02*
X168300000Y-79920000D01*
X166900000Y-79920000D02*
X168300000Y-79920000D01*
G04 #@! TO.C,Q602*
X122700000Y-69250000D02*
X122700000Y-71700000D01*
X123250000Y-68680000D02*
X124100000Y-68680000D01*
X122700000Y-69250000D02*
X123250000Y-68680000D01*
X124100000Y-68680000D02*
X124100000Y-71720000D01*
X122700000Y-71720000D02*
X124100000Y-71720000D01*
G04 #@! TO.C,Q601*
X121850000Y-65750000D02*
X119400000Y-65750000D01*
X122420000Y-66300000D02*
X122420000Y-67150000D01*
X121850000Y-65750000D02*
X122420000Y-66300000D01*
X122420000Y-67150000D02*
X119380000Y-67150000D01*
X119380000Y-65750000D02*
X119380000Y-67150000D01*
G04 #@! TO.C,Q502*
X164620000Y-87780001D02*
X164620000Y-85330001D01*
X164070000Y-88350001D02*
X163220000Y-88350001D01*
X164620000Y-87780001D02*
X164070000Y-88350001D01*
X163220000Y-88350001D02*
X163220000Y-85310001D01*
X164620000Y-85310001D02*
X163220000Y-85310001D01*
G04 #@! TO.C,Q501*
X165470000Y-91280001D02*
X167920000Y-91280001D01*
X164900000Y-90730001D02*
X164900000Y-89880001D01*
X165470000Y-91280001D02*
X164900000Y-90730001D01*
X164900000Y-89880001D02*
X167940000Y-89880001D01*
X167940000Y-91280001D02*
X167940000Y-89880001D01*
G04 #@! TO.C,Q402*
X192800000Y-102300000D02*
X190350000Y-102300000D01*
X193370000Y-102850000D02*
X193370000Y-103700000D01*
X192800000Y-102300000D02*
X193370000Y-102850000D01*
X193370000Y-103700000D02*
X190330000Y-103700000D01*
X190330000Y-102300000D02*
X190330000Y-103700000D01*
G04 #@! TO.C,Q401*
X191200000Y-97700000D02*
X188750000Y-97700000D01*
X191770000Y-98250000D02*
X191770000Y-99100000D01*
X191200000Y-97700000D02*
X191770000Y-98250000D01*
X191770000Y-99100000D02*
X188730000Y-99100000D01*
X188730000Y-97700000D02*
X188730000Y-99100000D01*
G04 #@! TO.C,Q201*
X112900000Y-75200000D02*
X112900000Y-77650000D01*
X113450000Y-74630000D02*
X114300000Y-74630000D01*
X112900000Y-75200000D02*
X113450000Y-74630000D01*
X114300000Y-74630000D02*
X114300000Y-77670000D01*
X112900000Y-77670000D02*
X114300000Y-77670000D01*
G04 #@! TO.C,J902*
X113530000Y-108735000D02*
X113530000Y-106830000D01*
X113530000Y-106830000D02*
X118610000Y-106830000D01*
X118610000Y-106830000D02*
X118610000Y-109370000D01*
X118610000Y-109370000D02*
X114165000Y-109370000D01*
X114165000Y-109370000D02*
X113530000Y-108735000D01*
G04 #@! TO.C,J901*
X106350000Y-109100000D02*
X106750000Y-109500000D01*
X106750000Y-109500000D02*
X106750000Y-108700000D01*
X106750000Y-108700000D02*
X106350000Y-109100000D01*
X100450000Y-106650000D02*
X106050000Y-106650000D01*
X100450000Y-114150000D02*
X100450000Y-106650000D01*
X106050000Y-114150000D02*
X100450000Y-114150000D01*
X106050000Y-106650000D02*
X106050000Y-114150000D01*
X101750000Y-107800000D02*
X101750000Y-113000000D01*
G04 #@! TO.C,J703*
X122070000Y-112500000D02*
X122070000Y-116310000D01*
X122070000Y-116310000D02*
X109370000Y-116310000D01*
X109370000Y-116310000D02*
X109370000Y-111230000D01*
X109370000Y-111230000D02*
X120800000Y-111230000D01*
X120800000Y-111230000D02*
X122070000Y-112500000D01*
G04 #@! TO.C,J702*
X143890000Y-148335000D02*
X143890000Y-146430000D01*
X143890000Y-146430000D02*
X151510000Y-146430000D01*
X151510000Y-146430000D02*
X151510000Y-148970000D01*
X151510000Y-148970000D02*
X144525000Y-148970000D01*
X144525000Y-148970000D02*
X143890000Y-148335000D01*
G04 #@! TO.C,J701*
X155530000Y-148335000D02*
X155530000Y-146430000D01*
X155530000Y-146430000D02*
X163150000Y-146430000D01*
X163150000Y-146430000D02*
X163150000Y-148970000D01*
X163150000Y-148970000D02*
X156165000Y-148970000D01*
X156165000Y-148970000D02*
X155530000Y-148335000D01*
G04 #@! TO.C,J103*
X197365000Y-88730000D02*
X199270000Y-88730000D01*
X199270000Y-88730000D02*
X199270000Y-96350000D01*
X199270000Y-96350000D02*
X196730000Y-96350000D01*
X196730000Y-96350000D02*
X196730000Y-89365000D01*
X196730000Y-89365000D02*
X197365000Y-88730000D01*
G04 #@! TO.C,J102*
X116950000Y-119665000D02*
X116950000Y-121570000D01*
X116950000Y-121570000D02*
X109330000Y-121570000D01*
X109330000Y-121570000D02*
X109330000Y-119030000D01*
X109330000Y-119030000D02*
X116315000Y-119030000D01*
X116315000Y-119030000D02*
X116950000Y-119665000D01*
G04 #@! TO.C,J101*
X101365000Y-64150000D02*
X103270000Y-64150000D01*
X103270000Y-64150000D02*
X103270000Y-71770000D01*
X103270000Y-71770000D02*
X100730000Y-71770000D01*
X100730000Y-71770000D02*
X100730000Y-64785000D01*
X100730000Y-64785000D02*
X101365000Y-64150000D01*
G04 #@! TO.C,FB1001*
X172337500Y-128100000D02*
X172337500Y-126900000D01*
X172337500Y-126900000D02*
X174337500Y-126900000D01*
X174337500Y-126900000D02*
X174337500Y-128100000D01*
X174337500Y-128100000D02*
X172337500Y-128100000D01*
G04 #@! TO.C,FB701*
X137537500Y-147900000D02*
X137537500Y-146700000D01*
X137537500Y-146700000D02*
X139537500Y-146700000D01*
X139537500Y-146700000D02*
X139537500Y-147900000D01*
X139537500Y-147900000D02*
X137537500Y-147900000D01*
G04 #@! TO.C,D1003*
X165300000Y-115300000D02*
X164000000Y-115300000D01*
X164000000Y-115300000D02*
X163700000Y-115600000D01*
X163700000Y-115600000D02*
X163700000Y-116100000D01*
X163700000Y-116100000D02*
X165300000Y-116100000D01*
X165300000Y-116100000D02*
X165300000Y-115300000D01*
G04 #@! TO.C,D1002*
X165287500Y-112500000D02*
X163987500Y-112500000D01*
X163987500Y-112500000D02*
X163687500Y-112800000D01*
X163687500Y-112800000D02*
X163687500Y-113300000D01*
X163687500Y-113300000D02*
X165287500Y-113300000D01*
X165287500Y-113300000D02*
X165287500Y-112500000D01*
G04 #@! TO.C,D1001*
X165287500Y-109700000D02*
X163987500Y-109700000D01*
X163987500Y-109700000D02*
X163687500Y-110000000D01*
X163687500Y-110000000D02*
X163687500Y-110500000D01*
X163687500Y-110500000D02*
X165287500Y-110500000D01*
X165287500Y-110500000D02*
X165287500Y-109700000D01*
G04 #@! TO.C,D902*
X110550000Y-108100000D02*
X111050000Y-108100000D01*
X110550000Y-108500000D02*
X109950000Y-108100000D01*
X110550000Y-107700000D02*
X110550000Y-108500000D01*
X109950000Y-108100000D02*
X110550000Y-107700000D01*
X109950000Y-108100000D02*
X109950000Y-108650000D01*
X109950000Y-108100000D02*
X109950000Y-107550000D01*
X109550000Y-108100000D02*
X109950000Y-108100000D01*
X108900000Y-109000000D02*
X108900000Y-107200000D01*
X111700000Y-109000000D02*
X108900000Y-109000000D01*
X111700000Y-107200000D02*
X111700000Y-109000000D01*
X108900000Y-107200000D02*
X111700000Y-107200000D01*
G04 #@! TO.C,D901*
X110637500Y-105100000D02*
X108937500Y-105100000D01*
X108937500Y-105100000D02*
X108637500Y-105400000D01*
X108637500Y-105400000D02*
X108637500Y-106300000D01*
X108637500Y-106300000D02*
X110637500Y-106300000D01*
X110637500Y-106300000D02*
X110637500Y-105100000D01*
G04 #@! TO.C,D803*
X171600000Y-88100000D02*
X171600000Y-86400000D01*
X171600000Y-86400000D02*
X171300000Y-86100000D01*
X171300000Y-86100000D02*
X170400000Y-86100000D01*
X170400000Y-86100000D02*
X170400000Y-88100000D01*
X170400000Y-88100000D02*
X171600000Y-88100000D01*
G04 #@! TO.C,D802*
X171600000Y-91662500D02*
X171600000Y-89962500D01*
X171600000Y-89962500D02*
X171300000Y-89662500D01*
X171300000Y-89662500D02*
X170400000Y-89662500D01*
X170400000Y-89662500D02*
X170400000Y-91662500D01*
X170400000Y-91662500D02*
X171600000Y-91662500D01*
G04 #@! TO.C,D801*
X195100000Y-85350000D02*
X195100000Y-85850000D01*
X194700000Y-85350000D02*
X195100000Y-84750000D01*
X195500000Y-85350000D02*
X194700000Y-85350000D01*
X195100000Y-84750000D02*
X195500000Y-85350000D01*
X195100000Y-84750000D02*
X194550000Y-84750000D01*
X195100000Y-84750000D02*
X195650000Y-84750000D01*
X195100000Y-84350000D02*
X195100000Y-84750000D01*
X194200000Y-83700000D02*
X196000000Y-83700000D01*
X194200000Y-86500000D02*
X194200000Y-83700000D01*
X196000000Y-86500000D02*
X194200000Y-86500000D01*
X196000000Y-83700000D02*
X196000000Y-86500000D01*
G04 #@! TO.C,D705*
X107062500Y-119100000D02*
X105362500Y-119100000D01*
X105362500Y-119100000D02*
X105062500Y-119400000D01*
X105062500Y-119400000D02*
X105062500Y-120300000D01*
X105062500Y-120300000D02*
X107062500Y-120300000D01*
X107062500Y-120300000D02*
X107062500Y-119100000D01*
G04 #@! TO.C,D704*
X107062500Y-121600000D02*
X105362500Y-121600000D01*
X105362500Y-121600000D02*
X105062500Y-121900000D01*
X105062500Y-121900000D02*
X105062500Y-122800000D01*
X105062500Y-122800000D02*
X107062500Y-122800000D01*
X107062500Y-122800000D02*
X107062500Y-121600000D01*
G04 #@! TO.C,D703*
X107062500Y-138400000D02*
X105362500Y-138400000D01*
X105362500Y-138400000D02*
X105062500Y-138700000D01*
X105062500Y-138700000D02*
X105062500Y-139600000D01*
X105062500Y-139600000D02*
X107062500Y-139600000D01*
X107062500Y-139600000D02*
X107062500Y-138400000D01*
G04 #@! TO.C,D702*
X107062500Y-135700000D02*
X105362500Y-135700000D01*
X105362500Y-135700000D02*
X105062500Y-136000000D01*
X105062500Y-136000000D02*
X105062500Y-136900000D01*
X105062500Y-136900000D02*
X107062500Y-136900000D01*
X107062500Y-136900000D02*
X107062500Y-135700000D01*
G04 #@! TO.C,D701*
X120937500Y-148000000D02*
X122637500Y-148000000D01*
X122637500Y-148000000D02*
X122937500Y-147700000D01*
X122937500Y-147700000D02*
X122937500Y-146800000D01*
X122937500Y-146800000D02*
X120937500Y-146800000D01*
X120937500Y-146800000D02*
X120937500Y-148000000D01*
G04 #@! TO.C,D602*
X129287500Y-66040000D02*
X130987500Y-66040000D01*
X130987500Y-66040000D02*
X131287500Y-65740000D01*
X131287500Y-65740000D02*
X131287500Y-64840000D01*
X131287500Y-64840000D02*
X129287500Y-64840000D01*
X129287500Y-64840000D02*
X129287500Y-66040000D01*
G04 #@! TO.C,D601*
X145895000Y-80617500D02*
X145895000Y-82317500D01*
X145895000Y-82317500D02*
X146195000Y-82617500D01*
X146195000Y-82617500D02*
X147095000Y-82617500D01*
X147095000Y-82617500D02*
X147095000Y-80617500D01*
X147095000Y-80617500D02*
X145895000Y-80617500D01*
G04 #@! TO.C,D502*
X158032500Y-90990001D02*
X156332500Y-90990001D01*
X156332500Y-90990001D02*
X156032500Y-91290001D01*
X156032500Y-91290001D02*
X156032500Y-92190001D01*
X156032500Y-92190001D02*
X158032500Y-92190001D01*
X158032500Y-92190001D02*
X158032500Y-90990001D01*
G04 #@! TO.C,D501*
X141425000Y-76412501D02*
X141425000Y-74712501D01*
X141425000Y-74712501D02*
X141125000Y-74412501D01*
X141125000Y-74412501D02*
X140225000Y-74412501D01*
X140225000Y-74412501D02*
X140225000Y-76412501D01*
X140225000Y-76412501D02*
X141425000Y-76412501D01*
G04 #@! TO.C,D201*
X106150000Y-70500000D02*
X105650000Y-70500000D01*
X106150000Y-70100000D02*
X106750000Y-70500000D01*
X106150000Y-70900000D02*
X106150000Y-70100000D01*
X106750000Y-70500000D02*
X106150000Y-70900000D01*
X106750000Y-70500000D02*
X106750000Y-69950000D01*
X106750000Y-70500000D02*
X106750000Y-71050000D01*
X107150000Y-70500000D02*
X106750000Y-70500000D01*
X107800000Y-69600000D02*
X107800000Y-71400000D01*
X105000000Y-69600000D02*
X107800000Y-69600000D01*
X105000000Y-71400000D02*
X105000000Y-69600000D01*
X107800000Y-71400000D02*
X105000000Y-71400000D01*
G04 #@! TO.C,C1011*
X167485000Y-119950000D02*
X167485000Y-119450000D01*
X167485000Y-119450000D02*
X168485000Y-119450000D01*
X168485000Y-119450000D02*
X168485000Y-119950000D01*
X168485000Y-119950000D02*
X167485000Y-119950000D01*
G04 #@! TO.C,C1010*
X167500000Y-121050000D02*
X167500000Y-120550000D01*
X167500000Y-120550000D02*
X168500000Y-120550000D01*
X168500000Y-120550000D02*
X168500000Y-121050000D01*
X168500000Y-121050000D02*
X167500000Y-121050000D01*
G04 #@! TO.C,C1009*
X176585000Y-127250000D02*
X176585000Y-127750000D01*
X176585000Y-127750000D02*
X175585000Y-127750000D01*
X175585000Y-127750000D02*
X175585000Y-127250000D01*
X175585000Y-127250000D02*
X176585000Y-127250000D01*
G04 #@! TO.C,C1008*
X169585000Y-125050000D02*
X169585000Y-124550000D01*
X169585000Y-124550000D02*
X170585000Y-124550000D01*
X170585000Y-124550000D02*
X170585000Y-125050000D01*
X170585000Y-125050000D02*
X169585000Y-125050000D01*
G04 #@! TO.C,C1007*
X156350000Y-120915000D02*
X155850000Y-120915000D01*
X155850000Y-120915000D02*
X155850000Y-119915000D01*
X155850000Y-119915000D02*
X156350000Y-119915000D01*
X156350000Y-119915000D02*
X156350000Y-120915000D01*
G04 #@! TO.C,C1006*
X153350000Y-137615000D02*
X152850000Y-137615000D01*
X152850000Y-137615000D02*
X152850000Y-136615000D01*
X152850000Y-136615000D02*
X153350000Y-136615000D01*
X153350000Y-136615000D02*
X153350000Y-137615000D01*
G04 #@! TO.C,C1005*
X154450000Y-137615000D02*
X153950000Y-137615000D01*
X153950000Y-137615000D02*
X153950000Y-136615000D01*
X153950000Y-136615000D02*
X154450000Y-136615000D01*
X154450000Y-136615000D02*
X154450000Y-137615000D01*
G04 #@! TO.C,C1004*
X160350000Y-118015000D02*
X159850000Y-118015000D01*
X159850000Y-118015000D02*
X159850000Y-117015000D01*
X159850000Y-117015000D02*
X160350000Y-117015000D01*
X160350000Y-117015000D02*
X160350000Y-118015000D01*
G04 #@! TO.C,C1003*
X156300000Y-128450000D02*
X156300000Y-128950000D01*
X156300000Y-128950000D02*
X155300000Y-128950000D01*
X155300000Y-128950000D02*
X155300000Y-128450000D01*
X155300000Y-128450000D02*
X156300000Y-128450000D01*
G04 #@! TO.C,C1002*
X164850000Y-135315000D02*
X164350000Y-135315000D01*
X164350000Y-135315000D02*
X164350000Y-134315000D01*
X164350000Y-134315000D02*
X164850000Y-134315000D01*
X164850000Y-134315000D02*
X164850000Y-135315000D01*
G04 #@! TO.C,C1001*
X167485000Y-123050000D02*
X167485000Y-122550000D01*
X167485000Y-122550000D02*
X168485000Y-122550000D01*
X168485000Y-122550000D02*
X168485000Y-123050000D01*
X168485000Y-123050000D02*
X167485000Y-123050000D01*
G04 #@! TO.C,C901*
X107750000Y-113200000D02*
X108250000Y-113200000D01*
X108250000Y-113200000D02*
X108250000Y-114200000D01*
X108250000Y-114200000D02*
X107750000Y-114200000D01*
X107750000Y-114200000D02*
X107750000Y-113200000D01*
G04 #@! TO.C,C723*
X124350000Y-143500000D02*
X124850000Y-143500000D01*
X124850000Y-143500000D02*
X124850000Y-144500000D01*
X124850000Y-144500000D02*
X124350000Y-144500000D01*
X124350000Y-144500000D02*
X124350000Y-143500000D01*
G04 #@! TO.C,C722*
X117900000Y-139250000D02*
X117900000Y-139750000D01*
X117900000Y-139750000D02*
X116900000Y-139750000D01*
X116900000Y-139750000D02*
X116900000Y-139250000D01*
X116900000Y-139250000D02*
X117900000Y-139250000D01*
G04 #@! TO.C,C721*
X117900000Y-132750000D02*
X117900000Y-133250000D01*
X117900000Y-133250000D02*
X116900000Y-133250000D01*
X116900000Y-133250000D02*
X116900000Y-132750000D01*
X116900000Y-132750000D02*
X117900000Y-132750000D01*
G04 #@! TO.C,C720*
X117800000Y-128050000D02*
X117800000Y-128550000D01*
X117800000Y-128550000D02*
X116800000Y-128550000D01*
X116800000Y-128550000D02*
X116800000Y-128050000D01*
X116800000Y-128050000D02*
X117800000Y-128050000D01*
G04 #@! TO.C,C719*
X129850000Y-143500000D02*
X130350000Y-143500000D01*
X130350000Y-143500000D02*
X130350000Y-144500000D01*
X130350000Y-144500000D02*
X129850000Y-144500000D01*
X129850000Y-144500000D02*
X129850000Y-143500000D01*
G04 #@! TO.C,C718*
X135550000Y-147800000D02*
X135050000Y-147800000D01*
X135050000Y-147800000D02*
X135050000Y-146800000D01*
X135050000Y-146800000D02*
X135550000Y-146800000D01*
X135550000Y-146800000D02*
X135550000Y-147800000D01*
G04 #@! TO.C,C717*
X121250000Y-120015000D02*
X120750000Y-120015000D01*
X120750000Y-120015000D02*
X120750000Y-119015000D01*
X120750000Y-119015000D02*
X121250000Y-119015000D01*
X121250000Y-119015000D02*
X121250000Y-120015000D01*
G04 #@! TO.C,C716*
X130450000Y-146800000D02*
X130950000Y-146800000D01*
X130950000Y-146800000D02*
X130950000Y-147800000D01*
X130950000Y-147800000D02*
X130450000Y-147800000D01*
X130450000Y-147800000D02*
X130450000Y-146800000D01*
G04 #@! TO.C,C715*
X136350000Y-143500000D02*
X136850000Y-143500000D01*
X136850000Y-143500000D02*
X136850000Y-144500000D01*
X136850000Y-144500000D02*
X136350000Y-144500000D01*
X136350000Y-144500000D02*
X136350000Y-143500000D01*
G04 #@! TO.C,C713*
X134350000Y-117900000D02*
X133850000Y-117900000D01*
X133850000Y-117900000D02*
X133850000Y-116900000D01*
X133850000Y-116900000D02*
X134350000Y-116900000D01*
X134350000Y-116900000D02*
X134350000Y-117900000D01*
G04 #@! TO.C,C711*
X143500000Y-138750000D02*
X143500000Y-138250000D01*
X143500000Y-138250000D02*
X144500000Y-138250000D01*
X144500000Y-138250000D02*
X144500000Y-138750000D01*
X144500000Y-138750000D02*
X143500000Y-138750000D01*
G04 #@! TO.C,C710*
X143500000Y-132250000D02*
X143500000Y-131750000D01*
X143500000Y-131750000D02*
X144500000Y-131750000D01*
X144500000Y-131750000D02*
X144500000Y-132250000D01*
X144500000Y-132250000D02*
X143500000Y-132250000D01*
G04 #@! TO.C,C709*
X143500000Y-127150000D02*
X143500000Y-126650000D01*
X143500000Y-126650000D02*
X144500000Y-126650000D01*
X144500000Y-126650000D02*
X144500000Y-127150000D01*
X144500000Y-127150000D02*
X143500000Y-127150000D01*
G04 #@! TO.C,C708*
X128450000Y-117900000D02*
X127950000Y-117900000D01*
X127950000Y-117900000D02*
X127950000Y-116900000D01*
X127950000Y-116900000D02*
X128450000Y-116900000D01*
X128450000Y-116900000D02*
X128450000Y-117900000D01*
G04 #@! TO.C,C707*
X144285000Y-122250000D02*
X144285000Y-121750000D01*
X144285000Y-121750000D02*
X145285000Y-121750000D01*
X145285000Y-121750000D02*
X145285000Y-122250000D01*
X145285000Y-122250000D02*
X144285000Y-122250000D01*
G04 #@! TO.C,C705*
X110650000Y-143985000D02*
X110150000Y-143985000D01*
X110150000Y-143985000D02*
X110150000Y-142985000D01*
X110150000Y-142985000D02*
X110650000Y-142985000D01*
X110650000Y-142985000D02*
X110650000Y-143985000D01*
G04 #@! TO.C,C704*
X137585000Y-144650000D02*
X137585000Y-144150000D01*
X137585000Y-144150000D02*
X138585000Y-144150000D01*
X138585000Y-144150000D02*
X138585000Y-144650000D01*
X138585000Y-144650000D02*
X137585000Y-144650000D01*
G04 #@! TO.C,C703*
X137585000Y-143550000D02*
X137585000Y-143050000D01*
X137585000Y-143050000D02*
X138585000Y-143050000D01*
X138585000Y-143050000D02*
X138585000Y-143550000D01*
X138585000Y-143550000D02*
X137585000Y-143550000D01*
G04 #@! TO.C,C702*
X116900000Y-136850000D02*
X116900000Y-137350000D01*
X116900000Y-137350000D02*
X115900000Y-137350000D01*
X115900000Y-137350000D02*
X115900000Y-136850000D01*
X115900000Y-136850000D02*
X116900000Y-136850000D01*
G04 #@! TO.C,C701*
X110650000Y-147615000D02*
X110150000Y-147615000D01*
X110150000Y-147615000D02*
X110150000Y-146615000D01*
X110150000Y-146615000D02*
X110650000Y-146615000D01*
X110650000Y-146615000D02*
X110650000Y-147615000D01*
G04 #@! TO.C,C602*
X129335000Y-80930000D02*
X129335000Y-80430000D01*
X129335000Y-80430000D02*
X130335000Y-80430000D01*
X130335000Y-80430000D02*
X130335000Y-80930000D01*
X130335000Y-80930000D02*
X129335000Y-80930000D01*
G04 #@! TO.C,C601*
X127060000Y-67995000D02*
X126560000Y-67995000D01*
X126560000Y-67995000D02*
X126560000Y-66995000D01*
X126560000Y-66995000D02*
X127060000Y-66995000D01*
X127060000Y-66995000D02*
X127060000Y-67995000D01*
G04 #@! TO.C,C502*
X157985000Y-76100001D02*
X157985000Y-76600001D01*
X157985000Y-76600001D02*
X156985000Y-76600001D01*
X156985000Y-76600001D02*
X156985000Y-76100001D01*
X156985000Y-76100001D02*
X157985000Y-76100001D01*
G04 #@! TO.C,C501*
X160260000Y-89035001D02*
X160760000Y-89035001D01*
X160760000Y-89035001D02*
X160760000Y-90035001D01*
X160760000Y-90035001D02*
X160260000Y-90035001D01*
X160260000Y-90035001D02*
X160260000Y-89035001D01*
G04 #@! TD*
M02*
