G04 #@! TF.GenerationSoftware,KiCad,Pcbnew,(5.1.6)-1*
G04 #@! TF.CreationDate,2020-06-22T19:30:58+02:00*
G04 #@! TF.ProjectId,plc-sniffer,706c632d-736e-4696-9666-65722e6b6963,rev?*
G04 #@! TF.SameCoordinates,Original*
G04 #@! TF.FileFunction,Paste,Top*
G04 #@! TF.FilePolarity,Positive*
%FSLAX46Y46*%
G04 Gerber Fmt 4.6, Leading zero omitted, Abs format (unit mm)*
G04 Created by KiCad (PCBNEW (5.1.6)-1) date 2020-06-22 19:30:58*
%MOMM*%
%LPD*%
G01*
G04 APERTURE LIST*
%ADD10R,0.900000X0.800000*%
%ADD11R,1.200000X1.400000*%
%ADD12R,2.000000X1.500000*%
%ADD13R,2.000000X3.800000*%
%ADD14R,0.850000X1.700000*%
%ADD15R,1.500000X2.000000*%
%ADD16R,3.800000X2.000000*%
%ADD17R,1.000000X0.750000*%
%ADD18R,0.800000X0.900000*%
%ADD19R,1.400000X0.400000*%
%ADD20R,1.900000X2.300000*%
%ADD21R,1.900000X1.800000*%
%ADD22R,0.900000X1.200000*%
%ADD23R,1.200000X0.900000*%
%ADD24R,1.100000X1.100000*%
G04 APERTURE END LIST*
G04 #@! TO.C,C714*
G36*
G01*
X122362500Y-117956250D02*
X122362500Y-117443750D01*
G75*
G02*
X122581250Y-117225000I218750J0D01*
G01*
X123018750Y-117225000D01*
G75*
G02*
X123237500Y-117443750I0J-218750D01*
G01*
X123237500Y-117956250D01*
G75*
G02*
X123018750Y-118175000I-218750J0D01*
G01*
X122581250Y-118175000D01*
G75*
G02*
X122362500Y-117956250I0J218750D01*
G01*
G37*
G36*
G01*
X120787500Y-117956250D02*
X120787500Y-117443750D01*
G75*
G02*
X121006250Y-117225000I218750J0D01*
G01*
X121443750Y-117225000D01*
G75*
G02*
X121662500Y-117443750I0J-218750D01*
G01*
X121662500Y-117956250D01*
G75*
G02*
X121443750Y-118175000I-218750J0D01*
G01*
X121006250Y-118175000D01*
G75*
G02*
X120787500Y-117956250I0J218750D01*
G01*
G37*
G04 #@! TD*
G04 #@! TO.C,C712*
G36*
G01*
X143937500Y-123043750D02*
X143937500Y-123556250D01*
G75*
G02*
X143718750Y-123775000I-218750J0D01*
G01*
X143281250Y-123775000D01*
G75*
G02*
X143062500Y-123556250I0J218750D01*
G01*
X143062500Y-123043750D01*
G75*
G02*
X143281250Y-122825000I218750J0D01*
G01*
X143718750Y-122825000D01*
G75*
G02*
X143937500Y-123043750I0J-218750D01*
G01*
G37*
G36*
G01*
X145512500Y-123043750D02*
X145512500Y-123556250D01*
G75*
G02*
X145293750Y-123775000I-218750J0D01*
G01*
X144856250Y-123775000D01*
G75*
G02*
X144637500Y-123556250I0J218750D01*
G01*
X144637500Y-123043750D01*
G75*
G02*
X144856250Y-122825000I218750J0D01*
G01*
X145293750Y-122825000D01*
G75*
G02*
X145512500Y-123043750I0J-218750D01*
G01*
G37*
G04 #@! TD*
G04 #@! TO.C,C706*
G36*
G01*
X143262500Y-120443750D02*
X143262500Y-120956250D01*
G75*
G02*
X143043750Y-121175000I-218750J0D01*
G01*
X142606250Y-121175000D01*
G75*
G02*
X142387500Y-120956250I0J218750D01*
G01*
X142387500Y-120443750D01*
G75*
G02*
X142606250Y-120225000I218750J0D01*
G01*
X143043750Y-120225000D01*
G75*
G02*
X143262500Y-120443750I0J-218750D01*
G01*
G37*
G36*
G01*
X144837500Y-120443750D02*
X144837500Y-120956250D01*
G75*
G02*
X144618750Y-121175000I-218750J0D01*
G01*
X144181250Y-121175000D01*
G75*
G02*
X143962500Y-120956250I0J218750D01*
G01*
X143962500Y-120443750D01*
G75*
G02*
X144181250Y-120225000I218750J0D01*
G01*
X144618750Y-120225000D01*
G75*
G02*
X144837500Y-120443750I0J-218750D01*
G01*
G37*
G04 #@! TD*
G04 #@! TO.C,C802*
G36*
G01*
X188043750Y-84012500D02*
X188956250Y-84012500D01*
G75*
G02*
X189200000Y-84256250I0J-243750D01*
G01*
X189200000Y-84743750D01*
G75*
G02*
X188956250Y-84987500I-243750J0D01*
G01*
X188043750Y-84987500D01*
G75*
G02*
X187800000Y-84743750I0J243750D01*
G01*
X187800000Y-84256250D01*
G75*
G02*
X188043750Y-84012500I243750J0D01*
G01*
G37*
G36*
G01*
X188043750Y-82137500D02*
X188956250Y-82137500D01*
G75*
G02*
X189200000Y-82381250I0J-243750D01*
G01*
X189200000Y-82868750D01*
G75*
G02*
X188956250Y-83112500I-243750J0D01*
G01*
X188043750Y-83112500D01*
G75*
G02*
X187800000Y-82868750I0J243750D01*
G01*
X187800000Y-82381250D01*
G75*
G02*
X188043750Y-82137500I243750J0D01*
G01*
G37*
G04 #@! TD*
G04 #@! TO.C,C801*
G36*
G01*
X183212500Y-91443750D02*
X183212500Y-92356250D01*
G75*
G02*
X182968750Y-92600000I-243750J0D01*
G01*
X182481250Y-92600000D01*
G75*
G02*
X182237500Y-92356250I0J243750D01*
G01*
X182237500Y-91443750D01*
G75*
G02*
X182481250Y-91200000I243750J0D01*
G01*
X182968750Y-91200000D01*
G75*
G02*
X183212500Y-91443750I0J-243750D01*
G01*
G37*
G36*
G01*
X185087500Y-91443750D02*
X185087500Y-92356250D01*
G75*
G02*
X184843750Y-92600000I-243750J0D01*
G01*
X184356250Y-92600000D01*
G75*
G02*
X184112500Y-92356250I0J243750D01*
G01*
X184112500Y-91443750D01*
G75*
G02*
X184356250Y-91200000I243750J0D01*
G01*
X184843750Y-91200000D01*
G75*
G02*
X185087500Y-91443750I0J-243750D01*
G01*
G37*
G04 #@! TD*
G04 #@! TO.C,U702*
G36*
G01*
X120837500Y-139650000D02*
X119512500Y-139650000D01*
G75*
G02*
X119437500Y-139575000I0J75000D01*
G01*
X119437500Y-139425000D01*
G75*
G02*
X119512500Y-139350000I75000J0D01*
G01*
X120837500Y-139350000D01*
G75*
G02*
X120912500Y-139425000I0J-75000D01*
G01*
X120912500Y-139575000D01*
G75*
G02*
X120837500Y-139650000I-75000J0D01*
G01*
G37*
G36*
G01*
X120837500Y-139150000D02*
X119512500Y-139150000D01*
G75*
G02*
X119437500Y-139075000I0J75000D01*
G01*
X119437500Y-138925000D01*
G75*
G02*
X119512500Y-138850000I75000J0D01*
G01*
X120837500Y-138850000D01*
G75*
G02*
X120912500Y-138925000I0J-75000D01*
G01*
X120912500Y-139075000D01*
G75*
G02*
X120837500Y-139150000I-75000J0D01*
G01*
G37*
G36*
G01*
X120837500Y-138650000D02*
X119512500Y-138650000D01*
G75*
G02*
X119437500Y-138575000I0J75000D01*
G01*
X119437500Y-138425000D01*
G75*
G02*
X119512500Y-138350000I75000J0D01*
G01*
X120837500Y-138350000D01*
G75*
G02*
X120912500Y-138425000I0J-75000D01*
G01*
X120912500Y-138575000D01*
G75*
G02*
X120837500Y-138650000I-75000J0D01*
G01*
G37*
G36*
G01*
X120837500Y-138150000D02*
X119512500Y-138150000D01*
G75*
G02*
X119437500Y-138075000I0J75000D01*
G01*
X119437500Y-137925000D01*
G75*
G02*
X119512500Y-137850000I75000J0D01*
G01*
X120837500Y-137850000D01*
G75*
G02*
X120912500Y-137925000I0J-75000D01*
G01*
X120912500Y-138075000D01*
G75*
G02*
X120837500Y-138150000I-75000J0D01*
G01*
G37*
G36*
G01*
X120837500Y-137650000D02*
X119512500Y-137650000D01*
G75*
G02*
X119437500Y-137575000I0J75000D01*
G01*
X119437500Y-137425000D01*
G75*
G02*
X119512500Y-137350000I75000J0D01*
G01*
X120837500Y-137350000D01*
G75*
G02*
X120912500Y-137425000I0J-75000D01*
G01*
X120912500Y-137575000D01*
G75*
G02*
X120837500Y-137650000I-75000J0D01*
G01*
G37*
G36*
G01*
X120837500Y-137150000D02*
X119512500Y-137150000D01*
G75*
G02*
X119437500Y-137075000I0J75000D01*
G01*
X119437500Y-136925000D01*
G75*
G02*
X119512500Y-136850000I75000J0D01*
G01*
X120837500Y-136850000D01*
G75*
G02*
X120912500Y-136925000I0J-75000D01*
G01*
X120912500Y-137075000D01*
G75*
G02*
X120837500Y-137150000I-75000J0D01*
G01*
G37*
G36*
G01*
X120837500Y-136650000D02*
X119512500Y-136650000D01*
G75*
G02*
X119437500Y-136575000I0J75000D01*
G01*
X119437500Y-136425000D01*
G75*
G02*
X119512500Y-136350000I75000J0D01*
G01*
X120837500Y-136350000D01*
G75*
G02*
X120912500Y-136425000I0J-75000D01*
G01*
X120912500Y-136575000D01*
G75*
G02*
X120837500Y-136650000I-75000J0D01*
G01*
G37*
G36*
G01*
X120837500Y-136150000D02*
X119512500Y-136150000D01*
G75*
G02*
X119437500Y-136075000I0J75000D01*
G01*
X119437500Y-135925000D01*
G75*
G02*
X119512500Y-135850000I75000J0D01*
G01*
X120837500Y-135850000D01*
G75*
G02*
X120912500Y-135925000I0J-75000D01*
G01*
X120912500Y-136075000D01*
G75*
G02*
X120837500Y-136150000I-75000J0D01*
G01*
G37*
G36*
G01*
X120837500Y-135650000D02*
X119512500Y-135650000D01*
G75*
G02*
X119437500Y-135575000I0J75000D01*
G01*
X119437500Y-135425000D01*
G75*
G02*
X119512500Y-135350000I75000J0D01*
G01*
X120837500Y-135350000D01*
G75*
G02*
X120912500Y-135425000I0J-75000D01*
G01*
X120912500Y-135575000D01*
G75*
G02*
X120837500Y-135650000I-75000J0D01*
G01*
G37*
G36*
G01*
X120837500Y-135150000D02*
X119512500Y-135150000D01*
G75*
G02*
X119437500Y-135075000I0J75000D01*
G01*
X119437500Y-134925000D01*
G75*
G02*
X119512500Y-134850000I75000J0D01*
G01*
X120837500Y-134850000D01*
G75*
G02*
X120912500Y-134925000I0J-75000D01*
G01*
X120912500Y-135075000D01*
G75*
G02*
X120837500Y-135150000I-75000J0D01*
G01*
G37*
G36*
G01*
X120837500Y-134650000D02*
X119512500Y-134650000D01*
G75*
G02*
X119437500Y-134575000I0J75000D01*
G01*
X119437500Y-134425000D01*
G75*
G02*
X119512500Y-134350000I75000J0D01*
G01*
X120837500Y-134350000D01*
G75*
G02*
X120912500Y-134425000I0J-75000D01*
G01*
X120912500Y-134575000D01*
G75*
G02*
X120837500Y-134650000I-75000J0D01*
G01*
G37*
G36*
G01*
X120837500Y-134150000D02*
X119512500Y-134150000D01*
G75*
G02*
X119437500Y-134075000I0J75000D01*
G01*
X119437500Y-133925000D01*
G75*
G02*
X119512500Y-133850000I75000J0D01*
G01*
X120837500Y-133850000D01*
G75*
G02*
X120912500Y-133925000I0J-75000D01*
G01*
X120912500Y-134075000D01*
G75*
G02*
X120837500Y-134150000I-75000J0D01*
G01*
G37*
G36*
G01*
X120837500Y-133650000D02*
X119512500Y-133650000D01*
G75*
G02*
X119437500Y-133575000I0J75000D01*
G01*
X119437500Y-133425000D01*
G75*
G02*
X119512500Y-133350000I75000J0D01*
G01*
X120837500Y-133350000D01*
G75*
G02*
X120912500Y-133425000I0J-75000D01*
G01*
X120912500Y-133575000D01*
G75*
G02*
X120837500Y-133650000I-75000J0D01*
G01*
G37*
G36*
G01*
X120837500Y-133150000D02*
X119512500Y-133150000D01*
G75*
G02*
X119437500Y-133075000I0J75000D01*
G01*
X119437500Y-132925000D01*
G75*
G02*
X119512500Y-132850000I75000J0D01*
G01*
X120837500Y-132850000D01*
G75*
G02*
X120912500Y-132925000I0J-75000D01*
G01*
X120912500Y-133075000D01*
G75*
G02*
X120837500Y-133150000I-75000J0D01*
G01*
G37*
G36*
G01*
X120837500Y-132650000D02*
X119512500Y-132650000D01*
G75*
G02*
X119437500Y-132575000I0J75000D01*
G01*
X119437500Y-132425000D01*
G75*
G02*
X119512500Y-132350000I75000J0D01*
G01*
X120837500Y-132350000D01*
G75*
G02*
X120912500Y-132425000I0J-75000D01*
G01*
X120912500Y-132575000D01*
G75*
G02*
X120837500Y-132650000I-75000J0D01*
G01*
G37*
G36*
G01*
X120837500Y-132150000D02*
X119512500Y-132150000D01*
G75*
G02*
X119437500Y-132075000I0J75000D01*
G01*
X119437500Y-131925000D01*
G75*
G02*
X119512500Y-131850000I75000J0D01*
G01*
X120837500Y-131850000D01*
G75*
G02*
X120912500Y-131925000I0J-75000D01*
G01*
X120912500Y-132075000D01*
G75*
G02*
X120837500Y-132150000I-75000J0D01*
G01*
G37*
G36*
G01*
X120837500Y-131650000D02*
X119512500Y-131650000D01*
G75*
G02*
X119437500Y-131575000I0J75000D01*
G01*
X119437500Y-131425000D01*
G75*
G02*
X119512500Y-131350000I75000J0D01*
G01*
X120837500Y-131350000D01*
G75*
G02*
X120912500Y-131425000I0J-75000D01*
G01*
X120912500Y-131575000D01*
G75*
G02*
X120837500Y-131650000I-75000J0D01*
G01*
G37*
G36*
G01*
X120837500Y-131150000D02*
X119512500Y-131150000D01*
G75*
G02*
X119437500Y-131075000I0J75000D01*
G01*
X119437500Y-130925000D01*
G75*
G02*
X119512500Y-130850000I75000J0D01*
G01*
X120837500Y-130850000D01*
G75*
G02*
X120912500Y-130925000I0J-75000D01*
G01*
X120912500Y-131075000D01*
G75*
G02*
X120837500Y-131150000I-75000J0D01*
G01*
G37*
G36*
G01*
X120837500Y-130650000D02*
X119512500Y-130650000D01*
G75*
G02*
X119437500Y-130575000I0J75000D01*
G01*
X119437500Y-130425000D01*
G75*
G02*
X119512500Y-130350000I75000J0D01*
G01*
X120837500Y-130350000D01*
G75*
G02*
X120912500Y-130425000I0J-75000D01*
G01*
X120912500Y-130575000D01*
G75*
G02*
X120837500Y-130650000I-75000J0D01*
G01*
G37*
G36*
G01*
X120837500Y-130150000D02*
X119512500Y-130150000D01*
G75*
G02*
X119437500Y-130075000I0J75000D01*
G01*
X119437500Y-129925000D01*
G75*
G02*
X119512500Y-129850000I75000J0D01*
G01*
X120837500Y-129850000D01*
G75*
G02*
X120912500Y-129925000I0J-75000D01*
G01*
X120912500Y-130075000D01*
G75*
G02*
X120837500Y-130150000I-75000J0D01*
G01*
G37*
G36*
G01*
X120837500Y-129650000D02*
X119512500Y-129650000D01*
G75*
G02*
X119437500Y-129575000I0J75000D01*
G01*
X119437500Y-129425000D01*
G75*
G02*
X119512500Y-129350000I75000J0D01*
G01*
X120837500Y-129350000D01*
G75*
G02*
X120912500Y-129425000I0J-75000D01*
G01*
X120912500Y-129575000D01*
G75*
G02*
X120837500Y-129650000I-75000J0D01*
G01*
G37*
G36*
G01*
X120837500Y-129150000D02*
X119512500Y-129150000D01*
G75*
G02*
X119437500Y-129075000I0J75000D01*
G01*
X119437500Y-128925000D01*
G75*
G02*
X119512500Y-128850000I75000J0D01*
G01*
X120837500Y-128850000D01*
G75*
G02*
X120912500Y-128925000I0J-75000D01*
G01*
X120912500Y-129075000D01*
G75*
G02*
X120837500Y-129150000I-75000J0D01*
G01*
G37*
G36*
G01*
X120837500Y-128650000D02*
X119512500Y-128650000D01*
G75*
G02*
X119437500Y-128575000I0J75000D01*
G01*
X119437500Y-128425000D01*
G75*
G02*
X119512500Y-128350000I75000J0D01*
G01*
X120837500Y-128350000D01*
G75*
G02*
X120912500Y-128425000I0J-75000D01*
G01*
X120912500Y-128575000D01*
G75*
G02*
X120837500Y-128650000I-75000J0D01*
G01*
G37*
G36*
G01*
X120837500Y-128150000D02*
X119512500Y-128150000D01*
G75*
G02*
X119437500Y-128075000I0J75000D01*
G01*
X119437500Y-127925000D01*
G75*
G02*
X119512500Y-127850000I75000J0D01*
G01*
X120837500Y-127850000D01*
G75*
G02*
X120912500Y-127925000I0J-75000D01*
G01*
X120912500Y-128075000D01*
G75*
G02*
X120837500Y-128150000I-75000J0D01*
G01*
G37*
G36*
G01*
X120837500Y-127650000D02*
X119512500Y-127650000D01*
G75*
G02*
X119437500Y-127575000I0J75000D01*
G01*
X119437500Y-127425000D01*
G75*
G02*
X119512500Y-127350000I75000J0D01*
G01*
X120837500Y-127350000D01*
G75*
G02*
X120912500Y-127425000I0J-75000D01*
G01*
X120912500Y-127575000D01*
G75*
G02*
X120837500Y-127650000I-75000J0D01*
G01*
G37*
G36*
G01*
X120837500Y-127150000D02*
X119512500Y-127150000D01*
G75*
G02*
X119437500Y-127075000I0J75000D01*
G01*
X119437500Y-126925000D01*
G75*
G02*
X119512500Y-126850000I75000J0D01*
G01*
X120837500Y-126850000D01*
G75*
G02*
X120912500Y-126925000I0J-75000D01*
G01*
X120912500Y-127075000D01*
G75*
G02*
X120837500Y-127150000I-75000J0D01*
G01*
G37*
G36*
G01*
X120837500Y-126650000D02*
X119512500Y-126650000D01*
G75*
G02*
X119437500Y-126575000I0J75000D01*
G01*
X119437500Y-126425000D01*
G75*
G02*
X119512500Y-126350000I75000J0D01*
G01*
X120837500Y-126350000D01*
G75*
G02*
X120912500Y-126425000I0J-75000D01*
G01*
X120912500Y-126575000D01*
G75*
G02*
X120837500Y-126650000I-75000J0D01*
G01*
G37*
G36*
G01*
X120837500Y-126150000D02*
X119512500Y-126150000D01*
G75*
G02*
X119437500Y-126075000I0J75000D01*
G01*
X119437500Y-125925000D01*
G75*
G02*
X119512500Y-125850000I75000J0D01*
G01*
X120837500Y-125850000D01*
G75*
G02*
X120912500Y-125925000I0J-75000D01*
G01*
X120912500Y-126075000D01*
G75*
G02*
X120837500Y-126150000I-75000J0D01*
G01*
G37*
G36*
G01*
X120837500Y-125650000D02*
X119512500Y-125650000D01*
G75*
G02*
X119437500Y-125575000I0J75000D01*
G01*
X119437500Y-125425000D01*
G75*
G02*
X119512500Y-125350000I75000J0D01*
G01*
X120837500Y-125350000D01*
G75*
G02*
X120912500Y-125425000I0J-75000D01*
G01*
X120912500Y-125575000D01*
G75*
G02*
X120837500Y-125650000I-75000J0D01*
G01*
G37*
G36*
G01*
X120837500Y-125150000D02*
X119512500Y-125150000D01*
G75*
G02*
X119437500Y-125075000I0J75000D01*
G01*
X119437500Y-124925000D01*
G75*
G02*
X119512500Y-124850000I75000J0D01*
G01*
X120837500Y-124850000D01*
G75*
G02*
X120912500Y-124925000I0J-75000D01*
G01*
X120912500Y-125075000D01*
G75*
G02*
X120837500Y-125150000I-75000J0D01*
G01*
G37*
G36*
G01*
X120837500Y-124650000D02*
X119512500Y-124650000D01*
G75*
G02*
X119437500Y-124575000I0J75000D01*
G01*
X119437500Y-124425000D01*
G75*
G02*
X119512500Y-124350000I75000J0D01*
G01*
X120837500Y-124350000D01*
G75*
G02*
X120912500Y-124425000I0J-75000D01*
G01*
X120912500Y-124575000D01*
G75*
G02*
X120837500Y-124650000I-75000J0D01*
G01*
G37*
G36*
G01*
X120837500Y-124150000D02*
X119512500Y-124150000D01*
G75*
G02*
X119437500Y-124075000I0J75000D01*
G01*
X119437500Y-123925000D01*
G75*
G02*
X119512500Y-123850000I75000J0D01*
G01*
X120837500Y-123850000D01*
G75*
G02*
X120912500Y-123925000I0J-75000D01*
G01*
X120912500Y-124075000D01*
G75*
G02*
X120837500Y-124150000I-75000J0D01*
G01*
G37*
G36*
G01*
X120837500Y-123650000D02*
X119512500Y-123650000D01*
G75*
G02*
X119437500Y-123575000I0J75000D01*
G01*
X119437500Y-123425000D01*
G75*
G02*
X119512500Y-123350000I75000J0D01*
G01*
X120837500Y-123350000D01*
G75*
G02*
X120912500Y-123425000I0J-75000D01*
G01*
X120912500Y-123575000D01*
G75*
G02*
X120837500Y-123650000I-75000J0D01*
G01*
G37*
G36*
G01*
X120837500Y-123150000D02*
X119512500Y-123150000D01*
G75*
G02*
X119437500Y-123075000I0J75000D01*
G01*
X119437500Y-122925000D01*
G75*
G02*
X119512500Y-122850000I75000J0D01*
G01*
X120837500Y-122850000D01*
G75*
G02*
X120912500Y-122925000I0J-75000D01*
G01*
X120912500Y-123075000D01*
G75*
G02*
X120837500Y-123150000I-75000J0D01*
G01*
G37*
G36*
G01*
X120837500Y-122650000D02*
X119512500Y-122650000D01*
G75*
G02*
X119437500Y-122575000I0J75000D01*
G01*
X119437500Y-122425000D01*
G75*
G02*
X119512500Y-122350000I75000J0D01*
G01*
X120837500Y-122350000D01*
G75*
G02*
X120912500Y-122425000I0J-75000D01*
G01*
X120912500Y-122575000D01*
G75*
G02*
X120837500Y-122650000I-75000J0D01*
G01*
G37*
G36*
G01*
X120837500Y-122150000D02*
X119512500Y-122150000D01*
G75*
G02*
X119437500Y-122075000I0J75000D01*
G01*
X119437500Y-121925000D01*
G75*
G02*
X119512500Y-121850000I75000J0D01*
G01*
X120837500Y-121850000D01*
G75*
G02*
X120912500Y-121925000I0J-75000D01*
G01*
X120912500Y-122075000D01*
G75*
G02*
X120837500Y-122150000I-75000J0D01*
G01*
G37*
G36*
G01*
X122162500Y-120825000D02*
X122012500Y-120825000D01*
G75*
G02*
X121937500Y-120750000I0J75000D01*
G01*
X121937500Y-119425000D01*
G75*
G02*
X122012500Y-119350000I75000J0D01*
G01*
X122162500Y-119350000D01*
G75*
G02*
X122237500Y-119425000I0J-75000D01*
G01*
X122237500Y-120750000D01*
G75*
G02*
X122162500Y-120825000I-75000J0D01*
G01*
G37*
G36*
G01*
X122662500Y-120825000D02*
X122512500Y-120825000D01*
G75*
G02*
X122437500Y-120750000I0J75000D01*
G01*
X122437500Y-119425000D01*
G75*
G02*
X122512500Y-119350000I75000J0D01*
G01*
X122662500Y-119350000D01*
G75*
G02*
X122737500Y-119425000I0J-75000D01*
G01*
X122737500Y-120750000D01*
G75*
G02*
X122662500Y-120825000I-75000J0D01*
G01*
G37*
G36*
G01*
X123162500Y-120825000D02*
X123012500Y-120825000D01*
G75*
G02*
X122937500Y-120750000I0J75000D01*
G01*
X122937500Y-119425000D01*
G75*
G02*
X123012500Y-119350000I75000J0D01*
G01*
X123162500Y-119350000D01*
G75*
G02*
X123237500Y-119425000I0J-75000D01*
G01*
X123237500Y-120750000D01*
G75*
G02*
X123162500Y-120825000I-75000J0D01*
G01*
G37*
G36*
G01*
X123662500Y-120825000D02*
X123512500Y-120825000D01*
G75*
G02*
X123437500Y-120750000I0J75000D01*
G01*
X123437500Y-119425000D01*
G75*
G02*
X123512500Y-119350000I75000J0D01*
G01*
X123662500Y-119350000D01*
G75*
G02*
X123737500Y-119425000I0J-75000D01*
G01*
X123737500Y-120750000D01*
G75*
G02*
X123662500Y-120825000I-75000J0D01*
G01*
G37*
G36*
G01*
X124162500Y-120825000D02*
X124012500Y-120825000D01*
G75*
G02*
X123937500Y-120750000I0J75000D01*
G01*
X123937500Y-119425000D01*
G75*
G02*
X124012500Y-119350000I75000J0D01*
G01*
X124162500Y-119350000D01*
G75*
G02*
X124237500Y-119425000I0J-75000D01*
G01*
X124237500Y-120750000D01*
G75*
G02*
X124162500Y-120825000I-75000J0D01*
G01*
G37*
G36*
G01*
X124662500Y-120825000D02*
X124512500Y-120825000D01*
G75*
G02*
X124437500Y-120750000I0J75000D01*
G01*
X124437500Y-119425000D01*
G75*
G02*
X124512500Y-119350000I75000J0D01*
G01*
X124662500Y-119350000D01*
G75*
G02*
X124737500Y-119425000I0J-75000D01*
G01*
X124737500Y-120750000D01*
G75*
G02*
X124662500Y-120825000I-75000J0D01*
G01*
G37*
G36*
G01*
X125162500Y-120825000D02*
X125012500Y-120825000D01*
G75*
G02*
X124937500Y-120750000I0J75000D01*
G01*
X124937500Y-119425000D01*
G75*
G02*
X125012500Y-119350000I75000J0D01*
G01*
X125162500Y-119350000D01*
G75*
G02*
X125237500Y-119425000I0J-75000D01*
G01*
X125237500Y-120750000D01*
G75*
G02*
X125162500Y-120825000I-75000J0D01*
G01*
G37*
G36*
G01*
X125662500Y-120825000D02*
X125512500Y-120825000D01*
G75*
G02*
X125437500Y-120750000I0J75000D01*
G01*
X125437500Y-119425000D01*
G75*
G02*
X125512500Y-119350000I75000J0D01*
G01*
X125662500Y-119350000D01*
G75*
G02*
X125737500Y-119425000I0J-75000D01*
G01*
X125737500Y-120750000D01*
G75*
G02*
X125662500Y-120825000I-75000J0D01*
G01*
G37*
G36*
G01*
X126162500Y-120825000D02*
X126012500Y-120825000D01*
G75*
G02*
X125937500Y-120750000I0J75000D01*
G01*
X125937500Y-119425000D01*
G75*
G02*
X126012500Y-119350000I75000J0D01*
G01*
X126162500Y-119350000D01*
G75*
G02*
X126237500Y-119425000I0J-75000D01*
G01*
X126237500Y-120750000D01*
G75*
G02*
X126162500Y-120825000I-75000J0D01*
G01*
G37*
G36*
G01*
X126662500Y-120825000D02*
X126512500Y-120825000D01*
G75*
G02*
X126437500Y-120750000I0J75000D01*
G01*
X126437500Y-119425000D01*
G75*
G02*
X126512500Y-119350000I75000J0D01*
G01*
X126662500Y-119350000D01*
G75*
G02*
X126737500Y-119425000I0J-75000D01*
G01*
X126737500Y-120750000D01*
G75*
G02*
X126662500Y-120825000I-75000J0D01*
G01*
G37*
G36*
G01*
X127162500Y-120825000D02*
X127012500Y-120825000D01*
G75*
G02*
X126937500Y-120750000I0J75000D01*
G01*
X126937500Y-119425000D01*
G75*
G02*
X127012500Y-119350000I75000J0D01*
G01*
X127162500Y-119350000D01*
G75*
G02*
X127237500Y-119425000I0J-75000D01*
G01*
X127237500Y-120750000D01*
G75*
G02*
X127162500Y-120825000I-75000J0D01*
G01*
G37*
G36*
G01*
X127662500Y-120825000D02*
X127512500Y-120825000D01*
G75*
G02*
X127437500Y-120750000I0J75000D01*
G01*
X127437500Y-119425000D01*
G75*
G02*
X127512500Y-119350000I75000J0D01*
G01*
X127662500Y-119350000D01*
G75*
G02*
X127737500Y-119425000I0J-75000D01*
G01*
X127737500Y-120750000D01*
G75*
G02*
X127662500Y-120825000I-75000J0D01*
G01*
G37*
G36*
G01*
X128162500Y-120825000D02*
X128012500Y-120825000D01*
G75*
G02*
X127937500Y-120750000I0J75000D01*
G01*
X127937500Y-119425000D01*
G75*
G02*
X128012500Y-119350000I75000J0D01*
G01*
X128162500Y-119350000D01*
G75*
G02*
X128237500Y-119425000I0J-75000D01*
G01*
X128237500Y-120750000D01*
G75*
G02*
X128162500Y-120825000I-75000J0D01*
G01*
G37*
G36*
G01*
X128662500Y-120825000D02*
X128512500Y-120825000D01*
G75*
G02*
X128437500Y-120750000I0J75000D01*
G01*
X128437500Y-119425000D01*
G75*
G02*
X128512500Y-119350000I75000J0D01*
G01*
X128662500Y-119350000D01*
G75*
G02*
X128737500Y-119425000I0J-75000D01*
G01*
X128737500Y-120750000D01*
G75*
G02*
X128662500Y-120825000I-75000J0D01*
G01*
G37*
G36*
G01*
X129162500Y-120825000D02*
X129012500Y-120825000D01*
G75*
G02*
X128937500Y-120750000I0J75000D01*
G01*
X128937500Y-119425000D01*
G75*
G02*
X129012500Y-119350000I75000J0D01*
G01*
X129162500Y-119350000D01*
G75*
G02*
X129237500Y-119425000I0J-75000D01*
G01*
X129237500Y-120750000D01*
G75*
G02*
X129162500Y-120825000I-75000J0D01*
G01*
G37*
G36*
G01*
X129662500Y-120825000D02*
X129512500Y-120825000D01*
G75*
G02*
X129437500Y-120750000I0J75000D01*
G01*
X129437500Y-119425000D01*
G75*
G02*
X129512500Y-119350000I75000J0D01*
G01*
X129662500Y-119350000D01*
G75*
G02*
X129737500Y-119425000I0J-75000D01*
G01*
X129737500Y-120750000D01*
G75*
G02*
X129662500Y-120825000I-75000J0D01*
G01*
G37*
G36*
G01*
X130162500Y-120825000D02*
X130012500Y-120825000D01*
G75*
G02*
X129937500Y-120750000I0J75000D01*
G01*
X129937500Y-119425000D01*
G75*
G02*
X130012500Y-119350000I75000J0D01*
G01*
X130162500Y-119350000D01*
G75*
G02*
X130237500Y-119425000I0J-75000D01*
G01*
X130237500Y-120750000D01*
G75*
G02*
X130162500Y-120825000I-75000J0D01*
G01*
G37*
G36*
G01*
X130662500Y-120825000D02*
X130512500Y-120825000D01*
G75*
G02*
X130437500Y-120750000I0J75000D01*
G01*
X130437500Y-119425000D01*
G75*
G02*
X130512500Y-119350000I75000J0D01*
G01*
X130662500Y-119350000D01*
G75*
G02*
X130737500Y-119425000I0J-75000D01*
G01*
X130737500Y-120750000D01*
G75*
G02*
X130662500Y-120825000I-75000J0D01*
G01*
G37*
G36*
G01*
X131162500Y-120825000D02*
X131012500Y-120825000D01*
G75*
G02*
X130937500Y-120750000I0J75000D01*
G01*
X130937500Y-119425000D01*
G75*
G02*
X131012500Y-119350000I75000J0D01*
G01*
X131162500Y-119350000D01*
G75*
G02*
X131237500Y-119425000I0J-75000D01*
G01*
X131237500Y-120750000D01*
G75*
G02*
X131162500Y-120825000I-75000J0D01*
G01*
G37*
G36*
G01*
X131662500Y-120825000D02*
X131512500Y-120825000D01*
G75*
G02*
X131437500Y-120750000I0J75000D01*
G01*
X131437500Y-119425000D01*
G75*
G02*
X131512500Y-119350000I75000J0D01*
G01*
X131662500Y-119350000D01*
G75*
G02*
X131737500Y-119425000I0J-75000D01*
G01*
X131737500Y-120750000D01*
G75*
G02*
X131662500Y-120825000I-75000J0D01*
G01*
G37*
G36*
G01*
X132162500Y-120825000D02*
X132012500Y-120825000D01*
G75*
G02*
X131937500Y-120750000I0J75000D01*
G01*
X131937500Y-119425000D01*
G75*
G02*
X132012500Y-119350000I75000J0D01*
G01*
X132162500Y-119350000D01*
G75*
G02*
X132237500Y-119425000I0J-75000D01*
G01*
X132237500Y-120750000D01*
G75*
G02*
X132162500Y-120825000I-75000J0D01*
G01*
G37*
G36*
G01*
X132662500Y-120825000D02*
X132512500Y-120825000D01*
G75*
G02*
X132437500Y-120750000I0J75000D01*
G01*
X132437500Y-119425000D01*
G75*
G02*
X132512500Y-119350000I75000J0D01*
G01*
X132662500Y-119350000D01*
G75*
G02*
X132737500Y-119425000I0J-75000D01*
G01*
X132737500Y-120750000D01*
G75*
G02*
X132662500Y-120825000I-75000J0D01*
G01*
G37*
G36*
G01*
X133162500Y-120825000D02*
X133012500Y-120825000D01*
G75*
G02*
X132937500Y-120750000I0J75000D01*
G01*
X132937500Y-119425000D01*
G75*
G02*
X133012500Y-119350000I75000J0D01*
G01*
X133162500Y-119350000D01*
G75*
G02*
X133237500Y-119425000I0J-75000D01*
G01*
X133237500Y-120750000D01*
G75*
G02*
X133162500Y-120825000I-75000J0D01*
G01*
G37*
G36*
G01*
X133662500Y-120825000D02*
X133512500Y-120825000D01*
G75*
G02*
X133437500Y-120750000I0J75000D01*
G01*
X133437500Y-119425000D01*
G75*
G02*
X133512500Y-119350000I75000J0D01*
G01*
X133662500Y-119350000D01*
G75*
G02*
X133737500Y-119425000I0J-75000D01*
G01*
X133737500Y-120750000D01*
G75*
G02*
X133662500Y-120825000I-75000J0D01*
G01*
G37*
G36*
G01*
X134162500Y-120825000D02*
X134012500Y-120825000D01*
G75*
G02*
X133937500Y-120750000I0J75000D01*
G01*
X133937500Y-119425000D01*
G75*
G02*
X134012500Y-119350000I75000J0D01*
G01*
X134162500Y-119350000D01*
G75*
G02*
X134237500Y-119425000I0J-75000D01*
G01*
X134237500Y-120750000D01*
G75*
G02*
X134162500Y-120825000I-75000J0D01*
G01*
G37*
G36*
G01*
X134662500Y-120825000D02*
X134512500Y-120825000D01*
G75*
G02*
X134437500Y-120750000I0J75000D01*
G01*
X134437500Y-119425000D01*
G75*
G02*
X134512500Y-119350000I75000J0D01*
G01*
X134662500Y-119350000D01*
G75*
G02*
X134737500Y-119425000I0J-75000D01*
G01*
X134737500Y-120750000D01*
G75*
G02*
X134662500Y-120825000I-75000J0D01*
G01*
G37*
G36*
G01*
X135162500Y-120825000D02*
X135012500Y-120825000D01*
G75*
G02*
X134937500Y-120750000I0J75000D01*
G01*
X134937500Y-119425000D01*
G75*
G02*
X135012500Y-119350000I75000J0D01*
G01*
X135162500Y-119350000D01*
G75*
G02*
X135237500Y-119425000I0J-75000D01*
G01*
X135237500Y-120750000D01*
G75*
G02*
X135162500Y-120825000I-75000J0D01*
G01*
G37*
G36*
G01*
X135662500Y-120825000D02*
X135512500Y-120825000D01*
G75*
G02*
X135437500Y-120750000I0J75000D01*
G01*
X135437500Y-119425000D01*
G75*
G02*
X135512500Y-119350000I75000J0D01*
G01*
X135662500Y-119350000D01*
G75*
G02*
X135737500Y-119425000I0J-75000D01*
G01*
X135737500Y-120750000D01*
G75*
G02*
X135662500Y-120825000I-75000J0D01*
G01*
G37*
G36*
G01*
X136162500Y-120825000D02*
X136012500Y-120825000D01*
G75*
G02*
X135937500Y-120750000I0J75000D01*
G01*
X135937500Y-119425000D01*
G75*
G02*
X136012500Y-119350000I75000J0D01*
G01*
X136162500Y-119350000D01*
G75*
G02*
X136237500Y-119425000I0J-75000D01*
G01*
X136237500Y-120750000D01*
G75*
G02*
X136162500Y-120825000I-75000J0D01*
G01*
G37*
G36*
G01*
X136662500Y-120825000D02*
X136512500Y-120825000D01*
G75*
G02*
X136437500Y-120750000I0J75000D01*
G01*
X136437500Y-119425000D01*
G75*
G02*
X136512500Y-119350000I75000J0D01*
G01*
X136662500Y-119350000D01*
G75*
G02*
X136737500Y-119425000I0J-75000D01*
G01*
X136737500Y-120750000D01*
G75*
G02*
X136662500Y-120825000I-75000J0D01*
G01*
G37*
G36*
G01*
X137162500Y-120825000D02*
X137012500Y-120825000D01*
G75*
G02*
X136937500Y-120750000I0J75000D01*
G01*
X136937500Y-119425000D01*
G75*
G02*
X137012500Y-119350000I75000J0D01*
G01*
X137162500Y-119350000D01*
G75*
G02*
X137237500Y-119425000I0J-75000D01*
G01*
X137237500Y-120750000D01*
G75*
G02*
X137162500Y-120825000I-75000J0D01*
G01*
G37*
G36*
G01*
X137662500Y-120825000D02*
X137512500Y-120825000D01*
G75*
G02*
X137437500Y-120750000I0J75000D01*
G01*
X137437500Y-119425000D01*
G75*
G02*
X137512500Y-119350000I75000J0D01*
G01*
X137662500Y-119350000D01*
G75*
G02*
X137737500Y-119425000I0J-75000D01*
G01*
X137737500Y-120750000D01*
G75*
G02*
X137662500Y-120825000I-75000J0D01*
G01*
G37*
G36*
G01*
X138162500Y-120825000D02*
X138012500Y-120825000D01*
G75*
G02*
X137937500Y-120750000I0J75000D01*
G01*
X137937500Y-119425000D01*
G75*
G02*
X138012500Y-119350000I75000J0D01*
G01*
X138162500Y-119350000D01*
G75*
G02*
X138237500Y-119425000I0J-75000D01*
G01*
X138237500Y-120750000D01*
G75*
G02*
X138162500Y-120825000I-75000J0D01*
G01*
G37*
G36*
G01*
X138662500Y-120825000D02*
X138512500Y-120825000D01*
G75*
G02*
X138437500Y-120750000I0J75000D01*
G01*
X138437500Y-119425000D01*
G75*
G02*
X138512500Y-119350000I75000J0D01*
G01*
X138662500Y-119350000D01*
G75*
G02*
X138737500Y-119425000I0J-75000D01*
G01*
X138737500Y-120750000D01*
G75*
G02*
X138662500Y-120825000I-75000J0D01*
G01*
G37*
G36*
G01*
X139162500Y-120825000D02*
X139012500Y-120825000D01*
G75*
G02*
X138937500Y-120750000I0J75000D01*
G01*
X138937500Y-119425000D01*
G75*
G02*
X139012500Y-119350000I75000J0D01*
G01*
X139162500Y-119350000D01*
G75*
G02*
X139237500Y-119425000I0J-75000D01*
G01*
X139237500Y-120750000D01*
G75*
G02*
X139162500Y-120825000I-75000J0D01*
G01*
G37*
G36*
G01*
X139662500Y-120825000D02*
X139512500Y-120825000D01*
G75*
G02*
X139437500Y-120750000I0J75000D01*
G01*
X139437500Y-119425000D01*
G75*
G02*
X139512500Y-119350000I75000J0D01*
G01*
X139662500Y-119350000D01*
G75*
G02*
X139737500Y-119425000I0J-75000D01*
G01*
X139737500Y-120750000D01*
G75*
G02*
X139662500Y-120825000I-75000J0D01*
G01*
G37*
G36*
G01*
X142162500Y-122150000D02*
X140837500Y-122150000D01*
G75*
G02*
X140762500Y-122075000I0J75000D01*
G01*
X140762500Y-121925000D01*
G75*
G02*
X140837500Y-121850000I75000J0D01*
G01*
X142162500Y-121850000D01*
G75*
G02*
X142237500Y-121925000I0J-75000D01*
G01*
X142237500Y-122075000D01*
G75*
G02*
X142162500Y-122150000I-75000J0D01*
G01*
G37*
G36*
G01*
X142162500Y-122650000D02*
X140837500Y-122650000D01*
G75*
G02*
X140762500Y-122575000I0J75000D01*
G01*
X140762500Y-122425000D01*
G75*
G02*
X140837500Y-122350000I75000J0D01*
G01*
X142162500Y-122350000D01*
G75*
G02*
X142237500Y-122425000I0J-75000D01*
G01*
X142237500Y-122575000D01*
G75*
G02*
X142162500Y-122650000I-75000J0D01*
G01*
G37*
G36*
G01*
X142162500Y-123150000D02*
X140837500Y-123150000D01*
G75*
G02*
X140762500Y-123075000I0J75000D01*
G01*
X140762500Y-122925000D01*
G75*
G02*
X140837500Y-122850000I75000J0D01*
G01*
X142162500Y-122850000D01*
G75*
G02*
X142237500Y-122925000I0J-75000D01*
G01*
X142237500Y-123075000D01*
G75*
G02*
X142162500Y-123150000I-75000J0D01*
G01*
G37*
G36*
G01*
X142162500Y-123650000D02*
X140837500Y-123650000D01*
G75*
G02*
X140762500Y-123575000I0J75000D01*
G01*
X140762500Y-123425000D01*
G75*
G02*
X140837500Y-123350000I75000J0D01*
G01*
X142162500Y-123350000D01*
G75*
G02*
X142237500Y-123425000I0J-75000D01*
G01*
X142237500Y-123575000D01*
G75*
G02*
X142162500Y-123650000I-75000J0D01*
G01*
G37*
G36*
G01*
X142162500Y-124150000D02*
X140837500Y-124150000D01*
G75*
G02*
X140762500Y-124075000I0J75000D01*
G01*
X140762500Y-123925000D01*
G75*
G02*
X140837500Y-123850000I75000J0D01*
G01*
X142162500Y-123850000D01*
G75*
G02*
X142237500Y-123925000I0J-75000D01*
G01*
X142237500Y-124075000D01*
G75*
G02*
X142162500Y-124150000I-75000J0D01*
G01*
G37*
G36*
G01*
X142162500Y-124650000D02*
X140837500Y-124650000D01*
G75*
G02*
X140762500Y-124575000I0J75000D01*
G01*
X140762500Y-124425000D01*
G75*
G02*
X140837500Y-124350000I75000J0D01*
G01*
X142162500Y-124350000D01*
G75*
G02*
X142237500Y-124425000I0J-75000D01*
G01*
X142237500Y-124575000D01*
G75*
G02*
X142162500Y-124650000I-75000J0D01*
G01*
G37*
G36*
G01*
X142162500Y-125150000D02*
X140837500Y-125150000D01*
G75*
G02*
X140762500Y-125075000I0J75000D01*
G01*
X140762500Y-124925000D01*
G75*
G02*
X140837500Y-124850000I75000J0D01*
G01*
X142162500Y-124850000D01*
G75*
G02*
X142237500Y-124925000I0J-75000D01*
G01*
X142237500Y-125075000D01*
G75*
G02*
X142162500Y-125150000I-75000J0D01*
G01*
G37*
G36*
G01*
X142162500Y-125650000D02*
X140837500Y-125650000D01*
G75*
G02*
X140762500Y-125575000I0J75000D01*
G01*
X140762500Y-125425000D01*
G75*
G02*
X140837500Y-125350000I75000J0D01*
G01*
X142162500Y-125350000D01*
G75*
G02*
X142237500Y-125425000I0J-75000D01*
G01*
X142237500Y-125575000D01*
G75*
G02*
X142162500Y-125650000I-75000J0D01*
G01*
G37*
G36*
G01*
X142162500Y-126150000D02*
X140837500Y-126150000D01*
G75*
G02*
X140762500Y-126075000I0J75000D01*
G01*
X140762500Y-125925000D01*
G75*
G02*
X140837500Y-125850000I75000J0D01*
G01*
X142162500Y-125850000D01*
G75*
G02*
X142237500Y-125925000I0J-75000D01*
G01*
X142237500Y-126075000D01*
G75*
G02*
X142162500Y-126150000I-75000J0D01*
G01*
G37*
G36*
G01*
X142162500Y-126650000D02*
X140837500Y-126650000D01*
G75*
G02*
X140762500Y-126575000I0J75000D01*
G01*
X140762500Y-126425000D01*
G75*
G02*
X140837500Y-126350000I75000J0D01*
G01*
X142162500Y-126350000D01*
G75*
G02*
X142237500Y-126425000I0J-75000D01*
G01*
X142237500Y-126575000D01*
G75*
G02*
X142162500Y-126650000I-75000J0D01*
G01*
G37*
G36*
G01*
X142162500Y-127150000D02*
X140837500Y-127150000D01*
G75*
G02*
X140762500Y-127075000I0J75000D01*
G01*
X140762500Y-126925000D01*
G75*
G02*
X140837500Y-126850000I75000J0D01*
G01*
X142162500Y-126850000D01*
G75*
G02*
X142237500Y-126925000I0J-75000D01*
G01*
X142237500Y-127075000D01*
G75*
G02*
X142162500Y-127150000I-75000J0D01*
G01*
G37*
G36*
G01*
X142162500Y-127650000D02*
X140837500Y-127650000D01*
G75*
G02*
X140762500Y-127575000I0J75000D01*
G01*
X140762500Y-127425000D01*
G75*
G02*
X140837500Y-127350000I75000J0D01*
G01*
X142162500Y-127350000D01*
G75*
G02*
X142237500Y-127425000I0J-75000D01*
G01*
X142237500Y-127575000D01*
G75*
G02*
X142162500Y-127650000I-75000J0D01*
G01*
G37*
G36*
G01*
X142162500Y-128150000D02*
X140837500Y-128150000D01*
G75*
G02*
X140762500Y-128075000I0J75000D01*
G01*
X140762500Y-127925000D01*
G75*
G02*
X140837500Y-127850000I75000J0D01*
G01*
X142162500Y-127850000D01*
G75*
G02*
X142237500Y-127925000I0J-75000D01*
G01*
X142237500Y-128075000D01*
G75*
G02*
X142162500Y-128150000I-75000J0D01*
G01*
G37*
G36*
G01*
X142162500Y-128650000D02*
X140837500Y-128650000D01*
G75*
G02*
X140762500Y-128575000I0J75000D01*
G01*
X140762500Y-128425000D01*
G75*
G02*
X140837500Y-128350000I75000J0D01*
G01*
X142162500Y-128350000D01*
G75*
G02*
X142237500Y-128425000I0J-75000D01*
G01*
X142237500Y-128575000D01*
G75*
G02*
X142162500Y-128650000I-75000J0D01*
G01*
G37*
G36*
G01*
X142162500Y-129150000D02*
X140837500Y-129150000D01*
G75*
G02*
X140762500Y-129075000I0J75000D01*
G01*
X140762500Y-128925000D01*
G75*
G02*
X140837500Y-128850000I75000J0D01*
G01*
X142162500Y-128850000D01*
G75*
G02*
X142237500Y-128925000I0J-75000D01*
G01*
X142237500Y-129075000D01*
G75*
G02*
X142162500Y-129150000I-75000J0D01*
G01*
G37*
G36*
G01*
X142162500Y-129650000D02*
X140837500Y-129650000D01*
G75*
G02*
X140762500Y-129575000I0J75000D01*
G01*
X140762500Y-129425000D01*
G75*
G02*
X140837500Y-129350000I75000J0D01*
G01*
X142162500Y-129350000D01*
G75*
G02*
X142237500Y-129425000I0J-75000D01*
G01*
X142237500Y-129575000D01*
G75*
G02*
X142162500Y-129650000I-75000J0D01*
G01*
G37*
G36*
G01*
X142162500Y-130150000D02*
X140837500Y-130150000D01*
G75*
G02*
X140762500Y-130075000I0J75000D01*
G01*
X140762500Y-129925000D01*
G75*
G02*
X140837500Y-129850000I75000J0D01*
G01*
X142162500Y-129850000D01*
G75*
G02*
X142237500Y-129925000I0J-75000D01*
G01*
X142237500Y-130075000D01*
G75*
G02*
X142162500Y-130150000I-75000J0D01*
G01*
G37*
G36*
G01*
X142162500Y-130650000D02*
X140837500Y-130650000D01*
G75*
G02*
X140762500Y-130575000I0J75000D01*
G01*
X140762500Y-130425000D01*
G75*
G02*
X140837500Y-130350000I75000J0D01*
G01*
X142162500Y-130350000D01*
G75*
G02*
X142237500Y-130425000I0J-75000D01*
G01*
X142237500Y-130575000D01*
G75*
G02*
X142162500Y-130650000I-75000J0D01*
G01*
G37*
G36*
G01*
X142162500Y-131150000D02*
X140837500Y-131150000D01*
G75*
G02*
X140762500Y-131075000I0J75000D01*
G01*
X140762500Y-130925000D01*
G75*
G02*
X140837500Y-130850000I75000J0D01*
G01*
X142162500Y-130850000D01*
G75*
G02*
X142237500Y-130925000I0J-75000D01*
G01*
X142237500Y-131075000D01*
G75*
G02*
X142162500Y-131150000I-75000J0D01*
G01*
G37*
G36*
G01*
X142162500Y-131650000D02*
X140837500Y-131650000D01*
G75*
G02*
X140762500Y-131575000I0J75000D01*
G01*
X140762500Y-131425000D01*
G75*
G02*
X140837500Y-131350000I75000J0D01*
G01*
X142162500Y-131350000D01*
G75*
G02*
X142237500Y-131425000I0J-75000D01*
G01*
X142237500Y-131575000D01*
G75*
G02*
X142162500Y-131650000I-75000J0D01*
G01*
G37*
G36*
G01*
X142162500Y-132150000D02*
X140837500Y-132150000D01*
G75*
G02*
X140762500Y-132075000I0J75000D01*
G01*
X140762500Y-131925000D01*
G75*
G02*
X140837500Y-131850000I75000J0D01*
G01*
X142162500Y-131850000D01*
G75*
G02*
X142237500Y-131925000I0J-75000D01*
G01*
X142237500Y-132075000D01*
G75*
G02*
X142162500Y-132150000I-75000J0D01*
G01*
G37*
G36*
G01*
X142162500Y-132650000D02*
X140837500Y-132650000D01*
G75*
G02*
X140762500Y-132575000I0J75000D01*
G01*
X140762500Y-132425000D01*
G75*
G02*
X140837500Y-132350000I75000J0D01*
G01*
X142162500Y-132350000D01*
G75*
G02*
X142237500Y-132425000I0J-75000D01*
G01*
X142237500Y-132575000D01*
G75*
G02*
X142162500Y-132650000I-75000J0D01*
G01*
G37*
G36*
G01*
X142162500Y-133150000D02*
X140837500Y-133150000D01*
G75*
G02*
X140762500Y-133075000I0J75000D01*
G01*
X140762500Y-132925000D01*
G75*
G02*
X140837500Y-132850000I75000J0D01*
G01*
X142162500Y-132850000D01*
G75*
G02*
X142237500Y-132925000I0J-75000D01*
G01*
X142237500Y-133075000D01*
G75*
G02*
X142162500Y-133150000I-75000J0D01*
G01*
G37*
G36*
G01*
X142162500Y-133650000D02*
X140837500Y-133650000D01*
G75*
G02*
X140762500Y-133575000I0J75000D01*
G01*
X140762500Y-133425000D01*
G75*
G02*
X140837500Y-133350000I75000J0D01*
G01*
X142162500Y-133350000D01*
G75*
G02*
X142237500Y-133425000I0J-75000D01*
G01*
X142237500Y-133575000D01*
G75*
G02*
X142162500Y-133650000I-75000J0D01*
G01*
G37*
G36*
G01*
X142162500Y-134150000D02*
X140837500Y-134150000D01*
G75*
G02*
X140762500Y-134075000I0J75000D01*
G01*
X140762500Y-133925000D01*
G75*
G02*
X140837500Y-133850000I75000J0D01*
G01*
X142162500Y-133850000D01*
G75*
G02*
X142237500Y-133925000I0J-75000D01*
G01*
X142237500Y-134075000D01*
G75*
G02*
X142162500Y-134150000I-75000J0D01*
G01*
G37*
G36*
G01*
X142162500Y-134650000D02*
X140837500Y-134650000D01*
G75*
G02*
X140762500Y-134575000I0J75000D01*
G01*
X140762500Y-134425000D01*
G75*
G02*
X140837500Y-134350000I75000J0D01*
G01*
X142162500Y-134350000D01*
G75*
G02*
X142237500Y-134425000I0J-75000D01*
G01*
X142237500Y-134575000D01*
G75*
G02*
X142162500Y-134650000I-75000J0D01*
G01*
G37*
G36*
G01*
X142162500Y-135150000D02*
X140837500Y-135150000D01*
G75*
G02*
X140762500Y-135075000I0J75000D01*
G01*
X140762500Y-134925000D01*
G75*
G02*
X140837500Y-134850000I75000J0D01*
G01*
X142162500Y-134850000D01*
G75*
G02*
X142237500Y-134925000I0J-75000D01*
G01*
X142237500Y-135075000D01*
G75*
G02*
X142162500Y-135150000I-75000J0D01*
G01*
G37*
G36*
G01*
X142162500Y-135650000D02*
X140837500Y-135650000D01*
G75*
G02*
X140762500Y-135575000I0J75000D01*
G01*
X140762500Y-135425000D01*
G75*
G02*
X140837500Y-135350000I75000J0D01*
G01*
X142162500Y-135350000D01*
G75*
G02*
X142237500Y-135425000I0J-75000D01*
G01*
X142237500Y-135575000D01*
G75*
G02*
X142162500Y-135650000I-75000J0D01*
G01*
G37*
G36*
G01*
X142162500Y-136150000D02*
X140837500Y-136150000D01*
G75*
G02*
X140762500Y-136075000I0J75000D01*
G01*
X140762500Y-135925000D01*
G75*
G02*
X140837500Y-135850000I75000J0D01*
G01*
X142162500Y-135850000D01*
G75*
G02*
X142237500Y-135925000I0J-75000D01*
G01*
X142237500Y-136075000D01*
G75*
G02*
X142162500Y-136150000I-75000J0D01*
G01*
G37*
G36*
G01*
X142162500Y-136650000D02*
X140837500Y-136650000D01*
G75*
G02*
X140762500Y-136575000I0J75000D01*
G01*
X140762500Y-136425000D01*
G75*
G02*
X140837500Y-136350000I75000J0D01*
G01*
X142162500Y-136350000D01*
G75*
G02*
X142237500Y-136425000I0J-75000D01*
G01*
X142237500Y-136575000D01*
G75*
G02*
X142162500Y-136650000I-75000J0D01*
G01*
G37*
G36*
G01*
X142162500Y-137150000D02*
X140837500Y-137150000D01*
G75*
G02*
X140762500Y-137075000I0J75000D01*
G01*
X140762500Y-136925000D01*
G75*
G02*
X140837500Y-136850000I75000J0D01*
G01*
X142162500Y-136850000D01*
G75*
G02*
X142237500Y-136925000I0J-75000D01*
G01*
X142237500Y-137075000D01*
G75*
G02*
X142162500Y-137150000I-75000J0D01*
G01*
G37*
G36*
G01*
X142162500Y-137650000D02*
X140837500Y-137650000D01*
G75*
G02*
X140762500Y-137575000I0J75000D01*
G01*
X140762500Y-137425000D01*
G75*
G02*
X140837500Y-137350000I75000J0D01*
G01*
X142162500Y-137350000D01*
G75*
G02*
X142237500Y-137425000I0J-75000D01*
G01*
X142237500Y-137575000D01*
G75*
G02*
X142162500Y-137650000I-75000J0D01*
G01*
G37*
G36*
G01*
X142162500Y-138150000D02*
X140837500Y-138150000D01*
G75*
G02*
X140762500Y-138075000I0J75000D01*
G01*
X140762500Y-137925000D01*
G75*
G02*
X140837500Y-137850000I75000J0D01*
G01*
X142162500Y-137850000D01*
G75*
G02*
X142237500Y-137925000I0J-75000D01*
G01*
X142237500Y-138075000D01*
G75*
G02*
X142162500Y-138150000I-75000J0D01*
G01*
G37*
G36*
G01*
X142162500Y-138650000D02*
X140837500Y-138650000D01*
G75*
G02*
X140762500Y-138575000I0J75000D01*
G01*
X140762500Y-138425000D01*
G75*
G02*
X140837500Y-138350000I75000J0D01*
G01*
X142162500Y-138350000D01*
G75*
G02*
X142237500Y-138425000I0J-75000D01*
G01*
X142237500Y-138575000D01*
G75*
G02*
X142162500Y-138650000I-75000J0D01*
G01*
G37*
G36*
G01*
X142162500Y-139150000D02*
X140837500Y-139150000D01*
G75*
G02*
X140762500Y-139075000I0J75000D01*
G01*
X140762500Y-138925000D01*
G75*
G02*
X140837500Y-138850000I75000J0D01*
G01*
X142162500Y-138850000D01*
G75*
G02*
X142237500Y-138925000I0J-75000D01*
G01*
X142237500Y-139075000D01*
G75*
G02*
X142162500Y-139150000I-75000J0D01*
G01*
G37*
G36*
G01*
X142162500Y-139650000D02*
X140837500Y-139650000D01*
G75*
G02*
X140762500Y-139575000I0J75000D01*
G01*
X140762500Y-139425000D01*
G75*
G02*
X140837500Y-139350000I75000J0D01*
G01*
X142162500Y-139350000D01*
G75*
G02*
X142237500Y-139425000I0J-75000D01*
G01*
X142237500Y-139575000D01*
G75*
G02*
X142162500Y-139650000I-75000J0D01*
G01*
G37*
G36*
G01*
X139662500Y-142150000D02*
X139512500Y-142150000D01*
G75*
G02*
X139437500Y-142075000I0J75000D01*
G01*
X139437500Y-140750000D01*
G75*
G02*
X139512500Y-140675000I75000J0D01*
G01*
X139662500Y-140675000D01*
G75*
G02*
X139737500Y-140750000I0J-75000D01*
G01*
X139737500Y-142075000D01*
G75*
G02*
X139662500Y-142150000I-75000J0D01*
G01*
G37*
G36*
G01*
X139162500Y-142150000D02*
X139012500Y-142150000D01*
G75*
G02*
X138937500Y-142075000I0J75000D01*
G01*
X138937500Y-140750000D01*
G75*
G02*
X139012500Y-140675000I75000J0D01*
G01*
X139162500Y-140675000D01*
G75*
G02*
X139237500Y-140750000I0J-75000D01*
G01*
X139237500Y-142075000D01*
G75*
G02*
X139162500Y-142150000I-75000J0D01*
G01*
G37*
G36*
G01*
X138662500Y-142150000D02*
X138512500Y-142150000D01*
G75*
G02*
X138437500Y-142075000I0J75000D01*
G01*
X138437500Y-140750000D01*
G75*
G02*
X138512500Y-140675000I75000J0D01*
G01*
X138662500Y-140675000D01*
G75*
G02*
X138737500Y-140750000I0J-75000D01*
G01*
X138737500Y-142075000D01*
G75*
G02*
X138662500Y-142150000I-75000J0D01*
G01*
G37*
G36*
G01*
X138162500Y-142150000D02*
X138012500Y-142150000D01*
G75*
G02*
X137937500Y-142075000I0J75000D01*
G01*
X137937500Y-140750000D01*
G75*
G02*
X138012500Y-140675000I75000J0D01*
G01*
X138162500Y-140675000D01*
G75*
G02*
X138237500Y-140750000I0J-75000D01*
G01*
X138237500Y-142075000D01*
G75*
G02*
X138162500Y-142150000I-75000J0D01*
G01*
G37*
G36*
G01*
X137662500Y-142150000D02*
X137512500Y-142150000D01*
G75*
G02*
X137437500Y-142075000I0J75000D01*
G01*
X137437500Y-140750000D01*
G75*
G02*
X137512500Y-140675000I75000J0D01*
G01*
X137662500Y-140675000D01*
G75*
G02*
X137737500Y-140750000I0J-75000D01*
G01*
X137737500Y-142075000D01*
G75*
G02*
X137662500Y-142150000I-75000J0D01*
G01*
G37*
G36*
G01*
X137162500Y-142150000D02*
X137012500Y-142150000D01*
G75*
G02*
X136937500Y-142075000I0J75000D01*
G01*
X136937500Y-140750000D01*
G75*
G02*
X137012500Y-140675000I75000J0D01*
G01*
X137162500Y-140675000D01*
G75*
G02*
X137237500Y-140750000I0J-75000D01*
G01*
X137237500Y-142075000D01*
G75*
G02*
X137162500Y-142150000I-75000J0D01*
G01*
G37*
G36*
G01*
X136662500Y-142150000D02*
X136512500Y-142150000D01*
G75*
G02*
X136437500Y-142075000I0J75000D01*
G01*
X136437500Y-140750000D01*
G75*
G02*
X136512500Y-140675000I75000J0D01*
G01*
X136662500Y-140675000D01*
G75*
G02*
X136737500Y-140750000I0J-75000D01*
G01*
X136737500Y-142075000D01*
G75*
G02*
X136662500Y-142150000I-75000J0D01*
G01*
G37*
G36*
G01*
X136162500Y-142150000D02*
X136012500Y-142150000D01*
G75*
G02*
X135937500Y-142075000I0J75000D01*
G01*
X135937500Y-140750000D01*
G75*
G02*
X136012500Y-140675000I75000J0D01*
G01*
X136162500Y-140675000D01*
G75*
G02*
X136237500Y-140750000I0J-75000D01*
G01*
X136237500Y-142075000D01*
G75*
G02*
X136162500Y-142150000I-75000J0D01*
G01*
G37*
G36*
G01*
X135662500Y-142150000D02*
X135512500Y-142150000D01*
G75*
G02*
X135437500Y-142075000I0J75000D01*
G01*
X135437500Y-140750000D01*
G75*
G02*
X135512500Y-140675000I75000J0D01*
G01*
X135662500Y-140675000D01*
G75*
G02*
X135737500Y-140750000I0J-75000D01*
G01*
X135737500Y-142075000D01*
G75*
G02*
X135662500Y-142150000I-75000J0D01*
G01*
G37*
G36*
G01*
X135162500Y-142150000D02*
X135012500Y-142150000D01*
G75*
G02*
X134937500Y-142075000I0J75000D01*
G01*
X134937500Y-140750000D01*
G75*
G02*
X135012500Y-140675000I75000J0D01*
G01*
X135162500Y-140675000D01*
G75*
G02*
X135237500Y-140750000I0J-75000D01*
G01*
X135237500Y-142075000D01*
G75*
G02*
X135162500Y-142150000I-75000J0D01*
G01*
G37*
G36*
G01*
X134662500Y-142150000D02*
X134512500Y-142150000D01*
G75*
G02*
X134437500Y-142075000I0J75000D01*
G01*
X134437500Y-140750000D01*
G75*
G02*
X134512500Y-140675000I75000J0D01*
G01*
X134662500Y-140675000D01*
G75*
G02*
X134737500Y-140750000I0J-75000D01*
G01*
X134737500Y-142075000D01*
G75*
G02*
X134662500Y-142150000I-75000J0D01*
G01*
G37*
G36*
G01*
X134162500Y-142150000D02*
X134012500Y-142150000D01*
G75*
G02*
X133937500Y-142075000I0J75000D01*
G01*
X133937500Y-140750000D01*
G75*
G02*
X134012500Y-140675000I75000J0D01*
G01*
X134162500Y-140675000D01*
G75*
G02*
X134237500Y-140750000I0J-75000D01*
G01*
X134237500Y-142075000D01*
G75*
G02*
X134162500Y-142150000I-75000J0D01*
G01*
G37*
G36*
G01*
X133662500Y-142150000D02*
X133512500Y-142150000D01*
G75*
G02*
X133437500Y-142075000I0J75000D01*
G01*
X133437500Y-140750000D01*
G75*
G02*
X133512500Y-140675000I75000J0D01*
G01*
X133662500Y-140675000D01*
G75*
G02*
X133737500Y-140750000I0J-75000D01*
G01*
X133737500Y-142075000D01*
G75*
G02*
X133662500Y-142150000I-75000J0D01*
G01*
G37*
G36*
G01*
X133162500Y-142150000D02*
X133012500Y-142150000D01*
G75*
G02*
X132937500Y-142075000I0J75000D01*
G01*
X132937500Y-140750000D01*
G75*
G02*
X133012500Y-140675000I75000J0D01*
G01*
X133162500Y-140675000D01*
G75*
G02*
X133237500Y-140750000I0J-75000D01*
G01*
X133237500Y-142075000D01*
G75*
G02*
X133162500Y-142150000I-75000J0D01*
G01*
G37*
G36*
G01*
X132662500Y-142150000D02*
X132512500Y-142150000D01*
G75*
G02*
X132437500Y-142075000I0J75000D01*
G01*
X132437500Y-140750000D01*
G75*
G02*
X132512500Y-140675000I75000J0D01*
G01*
X132662500Y-140675000D01*
G75*
G02*
X132737500Y-140750000I0J-75000D01*
G01*
X132737500Y-142075000D01*
G75*
G02*
X132662500Y-142150000I-75000J0D01*
G01*
G37*
G36*
G01*
X132162500Y-142150000D02*
X132012500Y-142150000D01*
G75*
G02*
X131937500Y-142075000I0J75000D01*
G01*
X131937500Y-140750000D01*
G75*
G02*
X132012500Y-140675000I75000J0D01*
G01*
X132162500Y-140675000D01*
G75*
G02*
X132237500Y-140750000I0J-75000D01*
G01*
X132237500Y-142075000D01*
G75*
G02*
X132162500Y-142150000I-75000J0D01*
G01*
G37*
G36*
G01*
X131662500Y-142150000D02*
X131512500Y-142150000D01*
G75*
G02*
X131437500Y-142075000I0J75000D01*
G01*
X131437500Y-140750000D01*
G75*
G02*
X131512500Y-140675000I75000J0D01*
G01*
X131662500Y-140675000D01*
G75*
G02*
X131737500Y-140750000I0J-75000D01*
G01*
X131737500Y-142075000D01*
G75*
G02*
X131662500Y-142150000I-75000J0D01*
G01*
G37*
G36*
G01*
X131162500Y-142150000D02*
X131012500Y-142150000D01*
G75*
G02*
X130937500Y-142075000I0J75000D01*
G01*
X130937500Y-140750000D01*
G75*
G02*
X131012500Y-140675000I75000J0D01*
G01*
X131162500Y-140675000D01*
G75*
G02*
X131237500Y-140750000I0J-75000D01*
G01*
X131237500Y-142075000D01*
G75*
G02*
X131162500Y-142150000I-75000J0D01*
G01*
G37*
G36*
G01*
X130662500Y-142150000D02*
X130512500Y-142150000D01*
G75*
G02*
X130437500Y-142075000I0J75000D01*
G01*
X130437500Y-140750000D01*
G75*
G02*
X130512500Y-140675000I75000J0D01*
G01*
X130662500Y-140675000D01*
G75*
G02*
X130737500Y-140750000I0J-75000D01*
G01*
X130737500Y-142075000D01*
G75*
G02*
X130662500Y-142150000I-75000J0D01*
G01*
G37*
G36*
G01*
X130162500Y-142150000D02*
X130012500Y-142150000D01*
G75*
G02*
X129937500Y-142075000I0J75000D01*
G01*
X129937500Y-140750000D01*
G75*
G02*
X130012500Y-140675000I75000J0D01*
G01*
X130162500Y-140675000D01*
G75*
G02*
X130237500Y-140750000I0J-75000D01*
G01*
X130237500Y-142075000D01*
G75*
G02*
X130162500Y-142150000I-75000J0D01*
G01*
G37*
G36*
G01*
X129662500Y-142150000D02*
X129512500Y-142150000D01*
G75*
G02*
X129437500Y-142075000I0J75000D01*
G01*
X129437500Y-140750000D01*
G75*
G02*
X129512500Y-140675000I75000J0D01*
G01*
X129662500Y-140675000D01*
G75*
G02*
X129737500Y-140750000I0J-75000D01*
G01*
X129737500Y-142075000D01*
G75*
G02*
X129662500Y-142150000I-75000J0D01*
G01*
G37*
G36*
G01*
X129162500Y-142150000D02*
X129012500Y-142150000D01*
G75*
G02*
X128937500Y-142075000I0J75000D01*
G01*
X128937500Y-140750000D01*
G75*
G02*
X129012500Y-140675000I75000J0D01*
G01*
X129162500Y-140675000D01*
G75*
G02*
X129237500Y-140750000I0J-75000D01*
G01*
X129237500Y-142075000D01*
G75*
G02*
X129162500Y-142150000I-75000J0D01*
G01*
G37*
G36*
G01*
X128662500Y-142150000D02*
X128512500Y-142150000D01*
G75*
G02*
X128437500Y-142075000I0J75000D01*
G01*
X128437500Y-140750000D01*
G75*
G02*
X128512500Y-140675000I75000J0D01*
G01*
X128662500Y-140675000D01*
G75*
G02*
X128737500Y-140750000I0J-75000D01*
G01*
X128737500Y-142075000D01*
G75*
G02*
X128662500Y-142150000I-75000J0D01*
G01*
G37*
G36*
G01*
X128162500Y-142150000D02*
X128012500Y-142150000D01*
G75*
G02*
X127937500Y-142075000I0J75000D01*
G01*
X127937500Y-140750000D01*
G75*
G02*
X128012500Y-140675000I75000J0D01*
G01*
X128162500Y-140675000D01*
G75*
G02*
X128237500Y-140750000I0J-75000D01*
G01*
X128237500Y-142075000D01*
G75*
G02*
X128162500Y-142150000I-75000J0D01*
G01*
G37*
G36*
G01*
X127662500Y-142150000D02*
X127512500Y-142150000D01*
G75*
G02*
X127437500Y-142075000I0J75000D01*
G01*
X127437500Y-140750000D01*
G75*
G02*
X127512500Y-140675000I75000J0D01*
G01*
X127662500Y-140675000D01*
G75*
G02*
X127737500Y-140750000I0J-75000D01*
G01*
X127737500Y-142075000D01*
G75*
G02*
X127662500Y-142150000I-75000J0D01*
G01*
G37*
G36*
G01*
X127162500Y-142150000D02*
X127012500Y-142150000D01*
G75*
G02*
X126937500Y-142075000I0J75000D01*
G01*
X126937500Y-140750000D01*
G75*
G02*
X127012500Y-140675000I75000J0D01*
G01*
X127162500Y-140675000D01*
G75*
G02*
X127237500Y-140750000I0J-75000D01*
G01*
X127237500Y-142075000D01*
G75*
G02*
X127162500Y-142150000I-75000J0D01*
G01*
G37*
G36*
G01*
X126662500Y-142150000D02*
X126512500Y-142150000D01*
G75*
G02*
X126437500Y-142075000I0J75000D01*
G01*
X126437500Y-140750000D01*
G75*
G02*
X126512500Y-140675000I75000J0D01*
G01*
X126662500Y-140675000D01*
G75*
G02*
X126737500Y-140750000I0J-75000D01*
G01*
X126737500Y-142075000D01*
G75*
G02*
X126662500Y-142150000I-75000J0D01*
G01*
G37*
G36*
G01*
X126162500Y-142150000D02*
X126012500Y-142150000D01*
G75*
G02*
X125937500Y-142075000I0J75000D01*
G01*
X125937500Y-140750000D01*
G75*
G02*
X126012500Y-140675000I75000J0D01*
G01*
X126162500Y-140675000D01*
G75*
G02*
X126237500Y-140750000I0J-75000D01*
G01*
X126237500Y-142075000D01*
G75*
G02*
X126162500Y-142150000I-75000J0D01*
G01*
G37*
G36*
G01*
X125662500Y-142150000D02*
X125512500Y-142150000D01*
G75*
G02*
X125437500Y-142075000I0J75000D01*
G01*
X125437500Y-140750000D01*
G75*
G02*
X125512500Y-140675000I75000J0D01*
G01*
X125662500Y-140675000D01*
G75*
G02*
X125737500Y-140750000I0J-75000D01*
G01*
X125737500Y-142075000D01*
G75*
G02*
X125662500Y-142150000I-75000J0D01*
G01*
G37*
G36*
G01*
X125162500Y-142150000D02*
X125012500Y-142150000D01*
G75*
G02*
X124937500Y-142075000I0J75000D01*
G01*
X124937500Y-140750000D01*
G75*
G02*
X125012500Y-140675000I75000J0D01*
G01*
X125162500Y-140675000D01*
G75*
G02*
X125237500Y-140750000I0J-75000D01*
G01*
X125237500Y-142075000D01*
G75*
G02*
X125162500Y-142150000I-75000J0D01*
G01*
G37*
G36*
G01*
X124662500Y-142150000D02*
X124512500Y-142150000D01*
G75*
G02*
X124437500Y-142075000I0J75000D01*
G01*
X124437500Y-140750000D01*
G75*
G02*
X124512500Y-140675000I75000J0D01*
G01*
X124662500Y-140675000D01*
G75*
G02*
X124737500Y-140750000I0J-75000D01*
G01*
X124737500Y-142075000D01*
G75*
G02*
X124662500Y-142150000I-75000J0D01*
G01*
G37*
G36*
G01*
X124162500Y-142150000D02*
X124012500Y-142150000D01*
G75*
G02*
X123937500Y-142075000I0J75000D01*
G01*
X123937500Y-140750000D01*
G75*
G02*
X124012500Y-140675000I75000J0D01*
G01*
X124162500Y-140675000D01*
G75*
G02*
X124237500Y-140750000I0J-75000D01*
G01*
X124237500Y-142075000D01*
G75*
G02*
X124162500Y-142150000I-75000J0D01*
G01*
G37*
G36*
G01*
X123662500Y-142150000D02*
X123512500Y-142150000D01*
G75*
G02*
X123437500Y-142075000I0J75000D01*
G01*
X123437500Y-140750000D01*
G75*
G02*
X123512500Y-140675000I75000J0D01*
G01*
X123662500Y-140675000D01*
G75*
G02*
X123737500Y-140750000I0J-75000D01*
G01*
X123737500Y-142075000D01*
G75*
G02*
X123662500Y-142150000I-75000J0D01*
G01*
G37*
G36*
G01*
X123162500Y-142150000D02*
X123012500Y-142150000D01*
G75*
G02*
X122937500Y-142075000I0J75000D01*
G01*
X122937500Y-140750000D01*
G75*
G02*
X123012500Y-140675000I75000J0D01*
G01*
X123162500Y-140675000D01*
G75*
G02*
X123237500Y-140750000I0J-75000D01*
G01*
X123237500Y-142075000D01*
G75*
G02*
X123162500Y-142150000I-75000J0D01*
G01*
G37*
G36*
G01*
X122662500Y-142150000D02*
X122512500Y-142150000D01*
G75*
G02*
X122437500Y-142075000I0J75000D01*
G01*
X122437500Y-140750000D01*
G75*
G02*
X122512500Y-140675000I75000J0D01*
G01*
X122662500Y-140675000D01*
G75*
G02*
X122737500Y-140750000I0J-75000D01*
G01*
X122737500Y-142075000D01*
G75*
G02*
X122662500Y-142150000I-75000J0D01*
G01*
G37*
G36*
G01*
X122162500Y-142150000D02*
X122012500Y-142150000D01*
G75*
G02*
X121937500Y-142075000I0J75000D01*
G01*
X121937500Y-140750000D01*
G75*
G02*
X122012500Y-140675000I75000J0D01*
G01*
X122162500Y-140675000D01*
G75*
G02*
X122237500Y-140750000I0J-75000D01*
G01*
X122237500Y-142075000D01*
G75*
G02*
X122162500Y-142150000I-75000J0D01*
G01*
G37*
G04 #@! TD*
G04 #@! TO.C,R1028*
G36*
G01*
X196390000Y-101972500D02*
X196390000Y-101627500D01*
G75*
G02*
X196537500Y-101480000I147500J0D01*
G01*
X196832500Y-101480000D01*
G75*
G02*
X196980000Y-101627500I0J-147500D01*
G01*
X196980000Y-101972500D01*
G75*
G02*
X196832500Y-102120000I-147500J0D01*
G01*
X196537500Y-102120000D01*
G75*
G02*
X196390000Y-101972500I0J147500D01*
G01*
G37*
G36*
G01*
X195420000Y-101972500D02*
X195420000Y-101627500D01*
G75*
G02*
X195567500Y-101480000I147500J0D01*
G01*
X195862500Y-101480000D01*
G75*
G02*
X196010000Y-101627500I0J-147500D01*
G01*
X196010000Y-101972500D01*
G75*
G02*
X195862500Y-102120000I-147500J0D01*
G01*
X195567500Y-102120000D01*
G75*
G02*
X195420000Y-101972500I0J147500D01*
G01*
G37*
G04 #@! TD*
G04 #@! TO.C,R405*
G36*
G01*
X194927500Y-95775000D02*
X195272500Y-95775000D01*
G75*
G02*
X195420000Y-95922500I0J-147500D01*
G01*
X195420000Y-96217500D01*
G75*
G02*
X195272500Y-96365000I-147500J0D01*
G01*
X194927500Y-96365000D01*
G75*
G02*
X194780000Y-96217500I0J147500D01*
G01*
X194780000Y-95922500D01*
G75*
G02*
X194927500Y-95775000I147500J0D01*
G01*
G37*
G36*
G01*
X194927500Y-94805000D02*
X195272500Y-94805000D01*
G75*
G02*
X195420000Y-94952500I0J-147500D01*
G01*
X195420000Y-95247500D01*
G75*
G02*
X195272500Y-95395000I-147500J0D01*
G01*
X194927500Y-95395000D01*
G75*
G02*
X194780000Y-95247500I0J147500D01*
G01*
X194780000Y-94952500D01*
G75*
G02*
X194927500Y-94805000I147500J0D01*
G01*
G37*
G04 #@! TD*
D10*
G04 #@! TO.C,Q403*
X197100000Y-99400000D03*
X195100000Y-100350000D03*
X195100000Y-98450000D03*
G04 #@! TD*
G04 #@! TO.C,R707*
G36*
G01*
X120543750Y-144787500D02*
X121456250Y-144787500D01*
G75*
G02*
X121700000Y-145031250I0J-243750D01*
G01*
X121700000Y-145518750D01*
G75*
G02*
X121456250Y-145762500I-243750J0D01*
G01*
X120543750Y-145762500D01*
G75*
G02*
X120300000Y-145518750I0J243750D01*
G01*
X120300000Y-145031250D01*
G75*
G02*
X120543750Y-144787500I243750J0D01*
G01*
G37*
G36*
G01*
X120543750Y-142912500D02*
X121456250Y-142912500D01*
G75*
G02*
X121700000Y-143156250I0J-243750D01*
G01*
X121700000Y-143643750D01*
G75*
G02*
X121456250Y-143887500I-243750J0D01*
G01*
X120543750Y-143887500D01*
G75*
G02*
X120300000Y-143643750I0J243750D01*
G01*
X120300000Y-143156250D01*
G75*
G02*
X120543750Y-142912500I243750J0D01*
G01*
G37*
G04 #@! TD*
G04 #@! TO.C,R610*
G36*
G01*
X104406250Y-79745000D02*
X103493750Y-79745000D01*
G75*
G02*
X103250000Y-79501250I0J243750D01*
G01*
X103250000Y-79013750D01*
G75*
G02*
X103493750Y-78770000I243750J0D01*
G01*
X104406250Y-78770000D01*
G75*
G02*
X104650000Y-79013750I0J-243750D01*
G01*
X104650000Y-79501250D01*
G75*
G02*
X104406250Y-79745000I-243750J0D01*
G01*
G37*
G36*
G01*
X104406250Y-81620000D02*
X103493750Y-81620000D01*
G75*
G02*
X103250000Y-81376250I0J243750D01*
G01*
X103250000Y-80888750D01*
G75*
G02*
X103493750Y-80645000I243750J0D01*
G01*
X104406250Y-80645000D01*
G75*
G02*
X104650000Y-80888750I0J-243750D01*
G01*
X104650000Y-81376250D01*
G75*
G02*
X104406250Y-81620000I-243750J0D01*
G01*
G37*
G04 #@! TD*
G04 #@! TO.C,R510*
G36*
G01*
X182913750Y-77285001D02*
X183826250Y-77285001D01*
G75*
G02*
X184070000Y-77528751I0J-243750D01*
G01*
X184070000Y-78016251D01*
G75*
G02*
X183826250Y-78260001I-243750J0D01*
G01*
X182913750Y-78260001D01*
G75*
G02*
X182670000Y-78016251I0J243750D01*
G01*
X182670000Y-77528751D01*
G75*
G02*
X182913750Y-77285001I243750J0D01*
G01*
G37*
G36*
G01*
X182913750Y-75410001D02*
X183826250Y-75410001D01*
G75*
G02*
X184070000Y-75653751I0J-243750D01*
G01*
X184070000Y-76141251D01*
G75*
G02*
X183826250Y-76385001I-243750J0D01*
G01*
X182913750Y-76385001D01*
G75*
G02*
X182670000Y-76141251I0J243750D01*
G01*
X182670000Y-75653751D01*
G75*
G02*
X182913750Y-75410001I243750J0D01*
G01*
G37*
G04 #@! TD*
D11*
G04 #@! TO.C,Y701*
X132150000Y-148400000D03*
X132150000Y-146200000D03*
X133850000Y-146200000D03*
X133850000Y-148400000D03*
G04 #@! TD*
G04 #@! TO.C,U1002*
G36*
G01*
X157337500Y-127650000D02*
X156012500Y-127650000D01*
G75*
G02*
X155937500Y-127575000I0J75000D01*
G01*
X155937500Y-127425000D01*
G75*
G02*
X156012500Y-127350000I75000J0D01*
G01*
X157337500Y-127350000D01*
G75*
G02*
X157412500Y-127425000I0J-75000D01*
G01*
X157412500Y-127575000D01*
G75*
G02*
X157337500Y-127650000I-75000J0D01*
G01*
G37*
G36*
G01*
X157337500Y-127150000D02*
X156012500Y-127150000D01*
G75*
G02*
X155937500Y-127075000I0J75000D01*
G01*
X155937500Y-126925000D01*
G75*
G02*
X156012500Y-126850000I75000J0D01*
G01*
X157337500Y-126850000D01*
G75*
G02*
X157412500Y-126925000I0J-75000D01*
G01*
X157412500Y-127075000D01*
G75*
G02*
X157337500Y-127150000I-75000J0D01*
G01*
G37*
G36*
G01*
X157337500Y-126650000D02*
X156012500Y-126650000D01*
G75*
G02*
X155937500Y-126575000I0J75000D01*
G01*
X155937500Y-126425000D01*
G75*
G02*
X156012500Y-126350000I75000J0D01*
G01*
X157337500Y-126350000D01*
G75*
G02*
X157412500Y-126425000I0J-75000D01*
G01*
X157412500Y-126575000D01*
G75*
G02*
X157337500Y-126650000I-75000J0D01*
G01*
G37*
G36*
G01*
X157337500Y-126150000D02*
X156012500Y-126150000D01*
G75*
G02*
X155937500Y-126075000I0J75000D01*
G01*
X155937500Y-125925000D01*
G75*
G02*
X156012500Y-125850000I75000J0D01*
G01*
X157337500Y-125850000D01*
G75*
G02*
X157412500Y-125925000I0J-75000D01*
G01*
X157412500Y-126075000D01*
G75*
G02*
X157337500Y-126150000I-75000J0D01*
G01*
G37*
G36*
G01*
X157337500Y-125650000D02*
X156012500Y-125650000D01*
G75*
G02*
X155937500Y-125575000I0J75000D01*
G01*
X155937500Y-125425000D01*
G75*
G02*
X156012500Y-125350000I75000J0D01*
G01*
X157337500Y-125350000D01*
G75*
G02*
X157412500Y-125425000I0J-75000D01*
G01*
X157412500Y-125575000D01*
G75*
G02*
X157337500Y-125650000I-75000J0D01*
G01*
G37*
G36*
G01*
X157337500Y-125150000D02*
X156012500Y-125150000D01*
G75*
G02*
X155937500Y-125075000I0J75000D01*
G01*
X155937500Y-124925000D01*
G75*
G02*
X156012500Y-124850000I75000J0D01*
G01*
X157337500Y-124850000D01*
G75*
G02*
X157412500Y-124925000I0J-75000D01*
G01*
X157412500Y-125075000D01*
G75*
G02*
X157337500Y-125150000I-75000J0D01*
G01*
G37*
G36*
G01*
X157337500Y-124650000D02*
X156012500Y-124650000D01*
G75*
G02*
X155937500Y-124575000I0J75000D01*
G01*
X155937500Y-124425000D01*
G75*
G02*
X156012500Y-124350000I75000J0D01*
G01*
X157337500Y-124350000D01*
G75*
G02*
X157412500Y-124425000I0J-75000D01*
G01*
X157412500Y-124575000D01*
G75*
G02*
X157337500Y-124650000I-75000J0D01*
G01*
G37*
G36*
G01*
X157337500Y-124150000D02*
X156012500Y-124150000D01*
G75*
G02*
X155937500Y-124075000I0J75000D01*
G01*
X155937500Y-123925000D01*
G75*
G02*
X156012500Y-123850000I75000J0D01*
G01*
X157337500Y-123850000D01*
G75*
G02*
X157412500Y-123925000I0J-75000D01*
G01*
X157412500Y-124075000D01*
G75*
G02*
X157337500Y-124150000I-75000J0D01*
G01*
G37*
G36*
G01*
X157337500Y-123650000D02*
X156012500Y-123650000D01*
G75*
G02*
X155937500Y-123575000I0J75000D01*
G01*
X155937500Y-123425000D01*
G75*
G02*
X156012500Y-123350000I75000J0D01*
G01*
X157337500Y-123350000D01*
G75*
G02*
X157412500Y-123425000I0J-75000D01*
G01*
X157412500Y-123575000D01*
G75*
G02*
X157337500Y-123650000I-75000J0D01*
G01*
G37*
G36*
G01*
X157337500Y-123150000D02*
X156012500Y-123150000D01*
G75*
G02*
X155937500Y-123075000I0J75000D01*
G01*
X155937500Y-122925000D01*
G75*
G02*
X156012500Y-122850000I75000J0D01*
G01*
X157337500Y-122850000D01*
G75*
G02*
X157412500Y-122925000I0J-75000D01*
G01*
X157412500Y-123075000D01*
G75*
G02*
X157337500Y-123150000I-75000J0D01*
G01*
G37*
G36*
G01*
X157337500Y-122650000D02*
X156012500Y-122650000D01*
G75*
G02*
X155937500Y-122575000I0J75000D01*
G01*
X155937500Y-122425000D01*
G75*
G02*
X156012500Y-122350000I75000J0D01*
G01*
X157337500Y-122350000D01*
G75*
G02*
X157412500Y-122425000I0J-75000D01*
G01*
X157412500Y-122575000D01*
G75*
G02*
X157337500Y-122650000I-75000J0D01*
G01*
G37*
G36*
G01*
X157337500Y-122150000D02*
X156012500Y-122150000D01*
G75*
G02*
X155937500Y-122075000I0J75000D01*
G01*
X155937500Y-121925000D01*
G75*
G02*
X156012500Y-121850000I75000J0D01*
G01*
X157337500Y-121850000D01*
G75*
G02*
X157412500Y-121925000I0J-75000D01*
G01*
X157412500Y-122075000D01*
G75*
G02*
X157337500Y-122150000I-75000J0D01*
G01*
G37*
G36*
G01*
X158162500Y-121325000D02*
X158012500Y-121325000D01*
G75*
G02*
X157937500Y-121250000I0J75000D01*
G01*
X157937500Y-119925000D01*
G75*
G02*
X158012500Y-119850000I75000J0D01*
G01*
X158162500Y-119850000D01*
G75*
G02*
X158237500Y-119925000I0J-75000D01*
G01*
X158237500Y-121250000D01*
G75*
G02*
X158162500Y-121325000I-75000J0D01*
G01*
G37*
G36*
G01*
X158662500Y-121325000D02*
X158512500Y-121325000D01*
G75*
G02*
X158437500Y-121250000I0J75000D01*
G01*
X158437500Y-119925000D01*
G75*
G02*
X158512500Y-119850000I75000J0D01*
G01*
X158662500Y-119850000D01*
G75*
G02*
X158737500Y-119925000I0J-75000D01*
G01*
X158737500Y-121250000D01*
G75*
G02*
X158662500Y-121325000I-75000J0D01*
G01*
G37*
G36*
G01*
X159162500Y-121325000D02*
X159012500Y-121325000D01*
G75*
G02*
X158937500Y-121250000I0J75000D01*
G01*
X158937500Y-119925000D01*
G75*
G02*
X159012500Y-119850000I75000J0D01*
G01*
X159162500Y-119850000D01*
G75*
G02*
X159237500Y-119925000I0J-75000D01*
G01*
X159237500Y-121250000D01*
G75*
G02*
X159162500Y-121325000I-75000J0D01*
G01*
G37*
G36*
G01*
X159662500Y-121325000D02*
X159512500Y-121325000D01*
G75*
G02*
X159437500Y-121250000I0J75000D01*
G01*
X159437500Y-119925000D01*
G75*
G02*
X159512500Y-119850000I75000J0D01*
G01*
X159662500Y-119850000D01*
G75*
G02*
X159737500Y-119925000I0J-75000D01*
G01*
X159737500Y-121250000D01*
G75*
G02*
X159662500Y-121325000I-75000J0D01*
G01*
G37*
G36*
G01*
X160162500Y-121325000D02*
X160012500Y-121325000D01*
G75*
G02*
X159937500Y-121250000I0J75000D01*
G01*
X159937500Y-119925000D01*
G75*
G02*
X160012500Y-119850000I75000J0D01*
G01*
X160162500Y-119850000D01*
G75*
G02*
X160237500Y-119925000I0J-75000D01*
G01*
X160237500Y-121250000D01*
G75*
G02*
X160162500Y-121325000I-75000J0D01*
G01*
G37*
G36*
G01*
X160662500Y-121325000D02*
X160512500Y-121325000D01*
G75*
G02*
X160437500Y-121250000I0J75000D01*
G01*
X160437500Y-119925000D01*
G75*
G02*
X160512500Y-119850000I75000J0D01*
G01*
X160662500Y-119850000D01*
G75*
G02*
X160737500Y-119925000I0J-75000D01*
G01*
X160737500Y-121250000D01*
G75*
G02*
X160662500Y-121325000I-75000J0D01*
G01*
G37*
G36*
G01*
X161162500Y-121325000D02*
X161012500Y-121325000D01*
G75*
G02*
X160937500Y-121250000I0J75000D01*
G01*
X160937500Y-119925000D01*
G75*
G02*
X161012500Y-119850000I75000J0D01*
G01*
X161162500Y-119850000D01*
G75*
G02*
X161237500Y-119925000I0J-75000D01*
G01*
X161237500Y-121250000D01*
G75*
G02*
X161162500Y-121325000I-75000J0D01*
G01*
G37*
G36*
G01*
X161662500Y-121325000D02*
X161512500Y-121325000D01*
G75*
G02*
X161437500Y-121250000I0J75000D01*
G01*
X161437500Y-119925000D01*
G75*
G02*
X161512500Y-119850000I75000J0D01*
G01*
X161662500Y-119850000D01*
G75*
G02*
X161737500Y-119925000I0J-75000D01*
G01*
X161737500Y-121250000D01*
G75*
G02*
X161662500Y-121325000I-75000J0D01*
G01*
G37*
G36*
G01*
X162162500Y-121325000D02*
X162012500Y-121325000D01*
G75*
G02*
X161937500Y-121250000I0J75000D01*
G01*
X161937500Y-119925000D01*
G75*
G02*
X162012500Y-119850000I75000J0D01*
G01*
X162162500Y-119850000D01*
G75*
G02*
X162237500Y-119925000I0J-75000D01*
G01*
X162237500Y-121250000D01*
G75*
G02*
X162162500Y-121325000I-75000J0D01*
G01*
G37*
G36*
G01*
X162662500Y-121325000D02*
X162512500Y-121325000D01*
G75*
G02*
X162437500Y-121250000I0J75000D01*
G01*
X162437500Y-119925000D01*
G75*
G02*
X162512500Y-119850000I75000J0D01*
G01*
X162662500Y-119850000D01*
G75*
G02*
X162737500Y-119925000I0J-75000D01*
G01*
X162737500Y-121250000D01*
G75*
G02*
X162662500Y-121325000I-75000J0D01*
G01*
G37*
G36*
G01*
X163162500Y-121325000D02*
X163012500Y-121325000D01*
G75*
G02*
X162937500Y-121250000I0J75000D01*
G01*
X162937500Y-119925000D01*
G75*
G02*
X163012500Y-119850000I75000J0D01*
G01*
X163162500Y-119850000D01*
G75*
G02*
X163237500Y-119925000I0J-75000D01*
G01*
X163237500Y-121250000D01*
G75*
G02*
X163162500Y-121325000I-75000J0D01*
G01*
G37*
G36*
G01*
X163662500Y-121325000D02*
X163512500Y-121325000D01*
G75*
G02*
X163437500Y-121250000I0J75000D01*
G01*
X163437500Y-119925000D01*
G75*
G02*
X163512500Y-119850000I75000J0D01*
G01*
X163662500Y-119850000D01*
G75*
G02*
X163737500Y-119925000I0J-75000D01*
G01*
X163737500Y-121250000D01*
G75*
G02*
X163662500Y-121325000I-75000J0D01*
G01*
G37*
G36*
G01*
X165662500Y-122150000D02*
X164337500Y-122150000D01*
G75*
G02*
X164262500Y-122075000I0J75000D01*
G01*
X164262500Y-121925000D01*
G75*
G02*
X164337500Y-121850000I75000J0D01*
G01*
X165662500Y-121850000D01*
G75*
G02*
X165737500Y-121925000I0J-75000D01*
G01*
X165737500Y-122075000D01*
G75*
G02*
X165662500Y-122150000I-75000J0D01*
G01*
G37*
G36*
G01*
X165662500Y-122650000D02*
X164337500Y-122650000D01*
G75*
G02*
X164262500Y-122575000I0J75000D01*
G01*
X164262500Y-122425000D01*
G75*
G02*
X164337500Y-122350000I75000J0D01*
G01*
X165662500Y-122350000D01*
G75*
G02*
X165737500Y-122425000I0J-75000D01*
G01*
X165737500Y-122575000D01*
G75*
G02*
X165662500Y-122650000I-75000J0D01*
G01*
G37*
G36*
G01*
X165662500Y-123150000D02*
X164337500Y-123150000D01*
G75*
G02*
X164262500Y-123075000I0J75000D01*
G01*
X164262500Y-122925000D01*
G75*
G02*
X164337500Y-122850000I75000J0D01*
G01*
X165662500Y-122850000D01*
G75*
G02*
X165737500Y-122925000I0J-75000D01*
G01*
X165737500Y-123075000D01*
G75*
G02*
X165662500Y-123150000I-75000J0D01*
G01*
G37*
G36*
G01*
X165662500Y-123650000D02*
X164337500Y-123650000D01*
G75*
G02*
X164262500Y-123575000I0J75000D01*
G01*
X164262500Y-123425000D01*
G75*
G02*
X164337500Y-123350000I75000J0D01*
G01*
X165662500Y-123350000D01*
G75*
G02*
X165737500Y-123425000I0J-75000D01*
G01*
X165737500Y-123575000D01*
G75*
G02*
X165662500Y-123650000I-75000J0D01*
G01*
G37*
G36*
G01*
X165662500Y-124150000D02*
X164337500Y-124150000D01*
G75*
G02*
X164262500Y-124075000I0J75000D01*
G01*
X164262500Y-123925000D01*
G75*
G02*
X164337500Y-123850000I75000J0D01*
G01*
X165662500Y-123850000D01*
G75*
G02*
X165737500Y-123925000I0J-75000D01*
G01*
X165737500Y-124075000D01*
G75*
G02*
X165662500Y-124150000I-75000J0D01*
G01*
G37*
G36*
G01*
X165662500Y-124650000D02*
X164337500Y-124650000D01*
G75*
G02*
X164262500Y-124575000I0J75000D01*
G01*
X164262500Y-124425000D01*
G75*
G02*
X164337500Y-124350000I75000J0D01*
G01*
X165662500Y-124350000D01*
G75*
G02*
X165737500Y-124425000I0J-75000D01*
G01*
X165737500Y-124575000D01*
G75*
G02*
X165662500Y-124650000I-75000J0D01*
G01*
G37*
G36*
G01*
X165662500Y-125150000D02*
X164337500Y-125150000D01*
G75*
G02*
X164262500Y-125075000I0J75000D01*
G01*
X164262500Y-124925000D01*
G75*
G02*
X164337500Y-124850000I75000J0D01*
G01*
X165662500Y-124850000D01*
G75*
G02*
X165737500Y-124925000I0J-75000D01*
G01*
X165737500Y-125075000D01*
G75*
G02*
X165662500Y-125150000I-75000J0D01*
G01*
G37*
G36*
G01*
X165662500Y-125650000D02*
X164337500Y-125650000D01*
G75*
G02*
X164262500Y-125575000I0J75000D01*
G01*
X164262500Y-125425000D01*
G75*
G02*
X164337500Y-125350000I75000J0D01*
G01*
X165662500Y-125350000D01*
G75*
G02*
X165737500Y-125425000I0J-75000D01*
G01*
X165737500Y-125575000D01*
G75*
G02*
X165662500Y-125650000I-75000J0D01*
G01*
G37*
G36*
G01*
X165662500Y-126150000D02*
X164337500Y-126150000D01*
G75*
G02*
X164262500Y-126075000I0J75000D01*
G01*
X164262500Y-125925000D01*
G75*
G02*
X164337500Y-125850000I75000J0D01*
G01*
X165662500Y-125850000D01*
G75*
G02*
X165737500Y-125925000I0J-75000D01*
G01*
X165737500Y-126075000D01*
G75*
G02*
X165662500Y-126150000I-75000J0D01*
G01*
G37*
G36*
G01*
X165662500Y-126650000D02*
X164337500Y-126650000D01*
G75*
G02*
X164262500Y-126575000I0J75000D01*
G01*
X164262500Y-126425000D01*
G75*
G02*
X164337500Y-126350000I75000J0D01*
G01*
X165662500Y-126350000D01*
G75*
G02*
X165737500Y-126425000I0J-75000D01*
G01*
X165737500Y-126575000D01*
G75*
G02*
X165662500Y-126650000I-75000J0D01*
G01*
G37*
G36*
G01*
X165662500Y-127150000D02*
X164337500Y-127150000D01*
G75*
G02*
X164262500Y-127075000I0J75000D01*
G01*
X164262500Y-126925000D01*
G75*
G02*
X164337500Y-126850000I75000J0D01*
G01*
X165662500Y-126850000D01*
G75*
G02*
X165737500Y-126925000I0J-75000D01*
G01*
X165737500Y-127075000D01*
G75*
G02*
X165662500Y-127150000I-75000J0D01*
G01*
G37*
G36*
G01*
X165662500Y-127650000D02*
X164337500Y-127650000D01*
G75*
G02*
X164262500Y-127575000I0J75000D01*
G01*
X164262500Y-127425000D01*
G75*
G02*
X164337500Y-127350000I75000J0D01*
G01*
X165662500Y-127350000D01*
G75*
G02*
X165737500Y-127425000I0J-75000D01*
G01*
X165737500Y-127575000D01*
G75*
G02*
X165662500Y-127650000I-75000J0D01*
G01*
G37*
G36*
G01*
X163662500Y-129650000D02*
X163512500Y-129650000D01*
G75*
G02*
X163437500Y-129575000I0J75000D01*
G01*
X163437500Y-128250000D01*
G75*
G02*
X163512500Y-128175000I75000J0D01*
G01*
X163662500Y-128175000D01*
G75*
G02*
X163737500Y-128250000I0J-75000D01*
G01*
X163737500Y-129575000D01*
G75*
G02*
X163662500Y-129650000I-75000J0D01*
G01*
G37*
G36*
G01*
X163162500Y-129650000D02*
X163012500Y-129650000D01*
G75*
G02*
X162937500Y-129575000I0J75000D01*
G01*
X162937500Y-128250000D01*
G75*
G02*
X163012500Y-128175000I75000J0D01*
G01*
X163162500Y-128175000D01*
G75*
G02*
X163237500Y-128250000I0J-75000D01*
G01*
X163237500Y-129575000D01*
G75*
G02*
X163162500Y-129650000I-75000J0D01*
G01*
G37*
G36*
G01*
X162662500Y-129650000D02*
X162512500Y-129650000D01*
G75*
G02*
X162437500Y-129575000I0J75000D01*
G01*
X162437500Y-128250000D01*
G75*
G02*
X162512500Y-128175000I75000J0D01*
G01*
X162662500Y-128175000D01*
G75*
G02*
X162737500Y-128250000I0J-75000D01*
G01*
X162737500Y-129575000D01*
G75*
G02*
X162662500Y-129650000I-75000J0D01*
G01*
G37*
G36*
G01*
X162162500Y-129650000D02*
X162012500Y-129650000D01*
G75*
G02*
X161937500Y-129575000I0J75000D01*
G01*
X161937500Y-128250000D01*
G75*
G02*
X162012500Y-128175000I75000J0D01*
G01*
X162162500Y-128175000D01*
G75*
G02*
X162237500Y-128250000I0J-75000D01*
G01*
X162237500Y-129575000D01*
G75*
G02*
X162162500Y-129650000I-75000J0D01*
G01*
G37*
G36*
G01*
X161662500Y-129650000D02*
X161512500Y-129650000D01*
G75*
G02*
X161437500Y-129575000I0J75000D01*
G01*
X161437500Y-128250000D01*
G75*
G02*
X161512500Y-128175000I75000J0D01*
G01*
X161662500Y-128175000D01*
G75*
G02*
X161737500Y-128250000I0J-75000D01*
G01*
X161737500Y-129575000D01*
G75*
G02*
X161662500Y-129650000I-75000J0D01*
G01*
G37*
G36*
G01*
X161162500Y-129650000D02*
X161012500Y-129650000D01*
G75*
G02*
X160937500Y-129575000I0J75000D01*
G01*
X160937500Y-128250000D01*
G75*
G02*
X161012500Y-128175000I75000J0D01*
G01*
X161162500Y-128175000D01*
G75*
G02*
X161237500Y-128250000I0J-75000D01*
G01*
X161237500Y-129575000D01*
G75*
G02*
X161162500Y-129650000I-75000J0D01*
G01*
G37*
G36*
G01*
X160662500Y-129650000D02*
X160512500Y-129650000D01*
G75*
G02*
X160437500Y-129575000I0J75000D01*
G01*
X160437500Y-128250000D01*
G75*
G02*
X160512500Y-128175000I75000J0D01*
G01*
X160662500Y-128175000D01*
G75*
G02*
X160737500Y-128250000I0J-75000D01*
G01*
X160737500Y-129575000D01*
G75*
G02*
X160662500Y-129650000I-75000J0D01*
G01*
G37*
G36*
G01*
X160162500Y-129650000D02*
X160012500Y-129650000D01*
G75*
G02*
X159937500Y-129575000I0J75000D01*
G01*
X159937500Y-128250000D01*
G75*
G02*
X160012500Y-128175000I75000J0D01*
G01*
X160162500Y-128175000D01*
G75*
G02*
X160237500Y-128250000I0J-75000D01*
G01*
X160237500Y-129575000D01*
G75*
G02*
X160162500Y-129650000I-75000J0D01*
G01*
G37*
G36*
G01*
X159662500Y-129650000D02*
X159512500Y-129650000D01*
G75*
G02*
X159437500Y-129575000I0J75000D01*
G01*
X159437500Y-128250000D01*
G75*
G02*
X159512500Y-128175000I75000J0D01*
G01*
X159662500Y-128175000D01*
G75*
G02*
X159737500Y-128250000I0J-75000D01*
G01*
X159737500Y-129575000D01*
G75*
G02*
X159662500Y-129650000I-75000J0D01*
G01*
G37*
G36*
G01*
X159162500Y-129650000D02*
X159012500Y-129650000D01*
G75*
G02*
X158937500Y-129575000I0J75000D01*
G01*
X158937500Y-128250000D01*
G75*
G02*
X159012500Y-128175000I75000J0D01*
G01*
X159162500Y-128175000D01*
G75*
G02*
X159237500Y-128250000I0J-75000D01*
G01*
X159237500Y-129575000D01*
G75*
G02*
X159162500Y-129650000I-75000J0D01*
G01*
G37*
G36*
G01*
X158662500Y-129650000D02*
X158512500Y-129650000D01*
G75*
G02*
X158437500Y-129575000I0J75000D01*
G01*
X158437500Y-128250000D01*
G75*
G02*
X158512500Y-128175000I75000J0D01*
G01*
X158662500Y-128175000D01*
G75*
G02*
X158737500Y-128250000I0J-75000D01*
G01*
X158737500Y-129575000D01*
G75*
G02*
X158662500Y-129650000I-75000J0D01*
G01*
G37*
G36*
G01*
X158162500Y-129650000D02*
X158012500Y-129650000D01*
G75*
G02*
X157937500Y-129575000I0J75000D01*
G01*
X157937500Y-128250000D01*
G75*
G02*
X158012500Y-128175000I75000J0D01*
G01*
X158162500Y-128175000D01*
G75*
G02*
X158237500Y-128250000I0J-75000D01*
G01*
X158237500Y-129575000D01*
G75*
G02*
X158162500Y-129650000I-75000J0D01*
G01*
G37*
G04 #@! TD*
D12*
G04 #@! TO.C,U1001*
X162600000Y-139900000D03*
X162600000Y-135300000D03*
X162600000Y-137600000D03*
D13*
X156300000Y-137600000D03*
G04 #@! TD*
G04 #@! TO.C,U801*
G36*
G01*
X184725000Y-89850000D02*
X184725000Y-90150000D01*
G75*
G02*
X184575000Y-90300000I-150000J0D01*
G01*
X182925000Y-90300000D01*
G75*
G02*
X182775000Y-90150000I0J150000D01*
G01*
X182775000Y-89850000D01*
G75*
G02*
X182925000Y-89700000I150000J0D01*
G01*
X184575000Y-89700000D01*
G75*
G02*
X184725000Y-89850000I0J-150000D01*
G01*
G37*
G36*
G01*
X184725000Y-88580000D02*
X184725000Y-88880000D01*
G75*
G02*
X184575000Y-89030000I-150000J0D01*
G01*
X182925000Y-89030000D01*
G75*
G02*
X182775000Y-88880000I0J150000D01*
G01*
X182775000Y-88580000D01*
G75*
G02*
X182925000Y-88430000I150000J0D01*
G01*
X184575000Y-88430000D01*
G75*
G02*
X184725000Y-88580000I0J-150000D01*
G01*
G37*
G36*
G01*
X184725000Y-87310000D02*
X184725000Y-87610000D01*
G75*
G02*
X184575000Y-87760000I-150000J0D01*
G01*
X182925000Y-87760000D01*
G75*
G02*
X182775000Y-87610000I0J150000D01*
G01*
X182775000Y-87310000D01*
G75*
G02*
X182925000Y-87160000I150000J0D01*
G01*
X184575000Y-87160000D01*
G75*
G02*
X184725000Y-87310000I0J-150000D01*
G01*
G37*
G36*
G01*
X184725000Y-86040000D02*
X184725000Y-86340000D01*
G75*
G02*
X184575000Y-86490000I-150000J0D01*
G01*
X182925000Y-86490000D01*
G75*
G02*
X182775000Y-86340000I0J150000D01*
G01*
X182775000Y-86040000D01*
G75*
G02*
X182925000Y-85890000I150000J0D01*
G01*
X184575000Y-85890000D01*
G75*
G02*
X184725000Y-86040000I0J-150000D01*
G01*
G37*
G36*
G01*
X189675000Y-86040000D02*
X189675000Y-86340000D01*
G75*
G02*
X189525000Y-86490000I-150000J0D01*
G01*
X187875000Y-86490000D01*
G75*
G02*
X187725000Y-86340000I0J150000D01*
G01*
X187725000Y-86040000D01*
G75*
G02*
X187875000Y-85890000I150000J0D01*
G01*
X189525000Y-85890000D01*
G75*
G02*
X189675000Y-86040000I0J-150000D01*
G01*
G37*
G36*
G01*
X189675000Y-87310000D02*
X189675000Y-87610000D01*
G75*
G02*
X189525000Y-87760000I-150000J0D01*
G01*
X187875000Y-87760000D01*
G75*
G02*
X187725000Y-87610000I0J150000D01*
G01*
X187725000Y-87310000D01*
G75*
G02*
X187875000Y-87160000I150000J0D01*
G01*
X189525000Y-87160000D01*
G75*
G02*
X189675000Y-87310000I0J-150000D01*
G01*
G37*
G36*
G01*
X189675000Y-88580000D02*
X189675000Y-88880000D01*
G75*
G02*
X189525000Y-89030000I-150000J0D01*
G01*
X187875000Y-89030000D01*
G75*
G02*
X187725000Y-88880000I0J150000D01*
G01*
X187725000Y-88580000D01*
G75*
G02*
X187875000Y-88430000I150000J0D01*
G01*
X189525000Y-88430000D01*
G75*
G02*
X189675000Y-88580000I0J-150000D01*
G01*
G37*
G36*
G01*
X189675000Y-89850000D02*
X189675000Y-90150000D01*
G75*
G02*
X189525000Y-90300000I-150000J0D01*
G01*
X187875000Y-90300000D01*
G75*
G02*
X187725000Y-90150000I0J150000D01*
G01*
X187725000Y-89850000D01*
G75*
G02*
X187875000Y-89700000I150000J0D01*
G01*
X189525000Y-89700000D01*
G75*
G02*
X189675000Y-89850000I0J-150000D01*
G01*
G37*
G04 #@! TD*
D12*
G04 #@! TO.C,U701*
X112300000Y-143000000D03*
X112300000Y-147600000D03*
X112300000Y-145300000D03*
D13*
X118600000Y-145300000D03*
G04 #@! TD*
D14*
G04 #@! TO.C,U602*
X133160000Y-103905000D03*
X131890000Y-103905000D03*
X130620000Y-103905000D03*
X129350000Y-103905000D03*
X128080000Y-103905000D03*
X126810000Y-103905000D03*
X125540000Y-103905000D03*
X124270000Y-103905000D03*
X102680000Y-82585000D03*
X103950000Y-82585000D03*
X114110000Y-82585000D03*
X128080000Y-82585000D03*
X129350000Y-82585000D03*
X130620000Y-82585000D03*
X131890000Y-82585000D03*
X133160000Y-82585000D03*
X134430000Y-82585000D03*
X135700000Y-82585000D03*
X136970000Y-82585000D03*
X138240000Y-82585000D03*
X139510000Y-82585000D03*
X140780000Y-82585000D03*
X142050000Y-82585000D03*
X143320000Y-82585000D03*
G04 #@! TD*
D15*
G04 #@! TO.C,U601*
X131650000Y-70150000D03*
X127050000Y-70150000D03*
X129350000Y-70150000D03*
D16*
X129350000Y-76450000D03*
G04 #@! TD*
D14*
G04 #@! TO.C,U502*
X154160000Y-53125001D03*
X155430000Y-53125001D03*
X156700000Y-53125001D03*
X157970000Y-53125001D03*
X159240000Y-53125001D03*
X160510000Y-53125001D03*
X161780000Y-53125001D03*
X163050000Y-53125001D03*
X184640000Y-74445001D03*
X183370000Y-74445001D03*
X173210000Y-74445001D03*
X159240000Y-74445001D03*
X157970000Y-74445001D03*
X156700000Y-74445001D03*
X155430000Y-74445001D03*
X154160000Y-74445001D03*
X152890000Y-74445001D03*
X151620000Y-74445001D03*
X150350000Y-74445001D03*
X149080000Y-74445001D03*
X147810000Y-74445001D03*
X146540000Y-74445001D03*
X145270000Y-74445001D03*
X144000000Y-74445001D03*
G04 #@! TD*
D15*
G04 #@! TO.C,U501*
X155670000Y-86880001D03*
X160270000Y-86880001D03*
X157970000Y-86880001D03*
D16*
X157970000Y-80580001D03*
G04 #@! TD*
D17*
G04 #@! TO.C,SW705*
X107000000Y-130150000D03*
X101000000Y-130150000D03*
X101000000Y-133900000D03*
X107000000Y-133900000D03*
G04 #@! TD*
G04 #@! TO.C,SW704*
X107000000Y-124550000D03*
X101000000Y-124550000D03*
X101000000Y-128300000D03*
X107000000Y-128300000D03*
G04 #@! TD*
G04 #@! TO.C,SW703*
X114900000Y-124525000D03*
X108900000Y-124525000D03*
X108900000Y-128275000D03*
X114900000Y-128275000D03*
G04 #@! TD*
G04 #@! TO.C,SW702*
X114900000Y-130125000D03*
X108900000Y-130125000D03*
X108900000Y-133875000D03*
X114900000Y-133875000D03*
G04 #@! TD*
G04 #@! TO.C,SW701*
X108900000Y-139475000D03*
X114900000Y-139475000D03*
X114900000Y-135725000D03*
X108900000Y-135725000D03*
G04 #@! TD*
G04 #@! TO.C,R1027*
G36*
G01*
X163995000Y-114127500D02*
X163995000Y-114472500D01*
G75*
G02*
X163847500Y-114620000I-147500J0D01*
G01*
X163552500Y-114620000D01*
G75*
G02*
X163405000Y-114472500I0J147500D01*
G01*
X163405000Y-114127500D01*
G75*
G02*
X163552500Y-113980000I147500J0D01*
G01*
X163847500Y-113980000D01*
G75*
G02*
X163995000Y-114127500I0J-147500D01*
G01*
G37*
G36*
G01*
X164965000Y-114127500D02*
X164965000Y-114472500D01*
G75*
G02*
X164817500Y-114620000I-147500J0D01*
G01*
X164522500Y-114620000D01*
G75*
G02*
X164375000Y-114472500I0J147500D01*
G01*
X164375000Y-114127500D01*
G75*
G02*
X164522500Y-113980000I147500J0D01*
G01*
X164817500Y-113980000D01*
G75*
G02*
X164965000Y-114127500I0J-147500D01*
G01*
G37*
G04 #@! TD*
G04 #@! TO.C,R1026*
G36*
G01*
X164010000Y-111327500D02*
X164010000Y-111672500D01*
G75*
G02*
X163862500Y-111820000I-147500J0D01*
G01*
X163567500Y-111820000D01*
G75*
G02*
X163420000Y-111672500I0J147500D01*
G01*
X163420000Y-111327500D01*
G75*
G02*
X163567500Y-111180000I147500J0D01*
G01*
X163862500Y-111180000D01*
G75*
G02*
X164010000Y-111327500I0J-147500D01*
G01*
G37*
G36*
G01*
X164980000Y-111327500D02*
X164980000Y-111672500D01*
G75*
G02*
X164832500Y-111820000I-147500J0D01*
G01*
X164537500Y-111820000D01*
G75*
G02*
X164390000Y-111672500I0J147500D01*
G01*
X164390000Y-111327500D01*
G75*
G02*
X164537500Y-111180000I147500J0D01*
G01*
X164832500Y-111180000D01*
G75*
G02*
X164980000Y-111327500I0J-147500D01*
G01*
G37*
G04 #@! TD*
G04 #@! TO.C,R1025*
G36*
G01*
X163995000Y-108527500D02*
X163995000Y-108872500D01*
G75*
G02*
X163847500Y-109020000I-147500J0D01*
G01*
X163552500Y-109020000D01*
G75*
G02*
X163405000Y-108872500I0J147500D01*
G01*
X163405000Y-108527500D01*
G75*
G02*
X163552500Y-108380000I147500J0D01*
G01*
X163847500Y-108380000D01*
G75*
G02*
X163995000Y-108527500I0J-147500D01*
G01*
G37*
G36*
G01*
X164965000Y-108527500D02*
X164965000Y-108872500D01*
G75*
G02*
X164817500Y-109020000I-147500J0D01*
G01*
X164522500Y-109020000D01*
G75*
G02*
X164375000Y-108872500I0J147500D01*
G01*
X164375000Y-108527500D01*
G75*
G02*
X164522500Y-108380000I147500J0D01*
G01*
X164817500Y-108380000D01*
G75*
G02*
X164965000Y-108527500I0J-147500D01*
G01*
G37*
G04 #@! TD*
G04 #@! TO.C,R1024*
G36*
G01*
X166925000Y-115527500D02*
X166925000Y-115872500D01*
G75*
G02*
X166777500Y-116020000I-147500J0D01*
G01*
X166482500Y-116020000D01*
G75*
G02*
X166335000Y-115872500I0J147500D01*
G01*
X166335000Y-115527500D01*
G75*
G02*
X166482500Y-115380000I147500J0D01*
G01*
X166777500Y-115380000D01*
G75*
G02*
X166925000Y-115527500I0J-147500D01*
G01*
G37*
G36*
G01*
X167895000Y-115527500D02*
X167895000Y-115872500D01*
G75*
G02*
X167747500Y-116020000I-147500J0D01*
G01*
X167452500Y-116020000D01*
G75*
G02*
X167305000Y-115872500I0J147500D01*
G01*
X167305000Y-115527500D01*
G75*
G02*
X167452500Y-115380000I147500J0D01*
G01*
X167747500Y-115380000D01*
G75*
G02*
X167895000Y-115527500I0J-147500D01*
G01*
G37*
G04 #@! TD*
G04 #@! TO.C,R1023*
G36*
G01*
X166895000Y-112727500D02*
X166895000Y-113072500D01*
G75*
G02*
X166747500Y-113220000I-147500J0D01*
G01*
X166452500Y-113220000D01*
G75*
G02*
X166305000Y-113072500I0J147500D01*
G01*
X166305000Y-112727500D01*
G75*
G02*
X166452500Y-112580000I147500J0D01*
G01*
X166747500Y-112580000D01*
G75*
G02*
X166895000Y-112727500I0J-147500D01*
G01*
G37*
G36*
G01*
X167865000Y-112727500D02*
X167865000Y-113072500D01*
G75*
G02*
X167717500Y-113220000I-147500J0D01*
G01*
X167422500Y-113220000D01*
G75*
G02*
X167275000Y-113072500I0J147500D01*
G01*
X167275000Y-112727500D01*
G75*
G02*
X167422500Y-112580000I147500J0D01*
G01*
X167717500Y-112580000D01*
G75*
G02*
X167865000Y-112727500I0J-147500D01*
G01*
G37*
G04 #@! TD*
G04 #@! TO.C,R1022*
G36*
G01*
X166895000Y-109927500D02*
X166895000Y-110272500D01*
G75*
G02*
X166747500Y-110420000I-147500J0D01*
G01*
X166452500Y-110420000D01*
G75*
G02*
X166305000Y-110272500I0J147500D01*
G01*
X166305000Y-109927500D01*
G75*
G02*
X166452500Y-109780000I147500J0D01*
G01*
X166747500Y-109780000D01*
G75*
G02*
X166895000Y-109927500I0J-147500D01*
G01*
G37*
G36*
G01*
X167865000Y-109927500D02*
X167865000Y-110272500D01*
G75*
G02*
X167717500Y-110420000I-147500J0D01*
G01*
X167422500Y-110420000D01*
G75*
G02*
X167275000Y-110272500I0J147500D01*
G01*
X167275000Y-109927500D01*
G75*
G02*
X167422500Y-109780000I147500J0D01*
G01*
X167717500Y-109780000D01*
G75*
G02*
X167865000Y-109927500I0J-147500D01*
G01*
G37*
G04 #@! TD*
G04 #@! TO.C,R1021*
G36*
G01*
X161872500Y-131825000D02*
X161527500Y-131825000D01*
G75*
G02*
X161380000Y-131677500I0J147500D01*
G01*
X161380000Y-131382500D01*
G75*
G02*
X161527500Y-131235000I147500J0D01*
G01*
X161872500Y-131235000D01*
G75*
G02*
X162020000Y-131382500I0J-147500D01*
G01*
X162020000Y-131677500D01*
G75*
G02*
X161872500Y-131825000I-147500J0D01*
G01*
G37*
G36*
G01*
X161872500Y-132795000D02*
X161527500Y-132795000D01*
G75*
G02*
X161380000Y-132647500I0J147500D01*
G01*
X161380000Y-132352500D01*
G75*
G02*
X161527500Y-132205000I147500J0D01*
G01*
X161872500Y-132205000D01*
G75*
G02*
X162020000Y-132352500I0J-147500D01*
G01*
X162020000Y-132647500D01*
G75*
G02*
X161872500Y-132795000I-147500J0D01*
G01*
G37*
G04 #@! TD*
G04 #@! TO.C,R1020*
G36*
G01*
X194825000Y-137527500D02*
X194825000Y-137872500D01*
G75*
G02*
X194677500Y-138020000I-147500J0D01*
G01*
X194382500Y-138020000D01*
G75*
G02*
X194235000Y-137872500I0J147500D01*
G01*
X194235000Y-137527500D01*
G75*
G02*
X194382500Y-137380000I147500J0D01*
G01*
X194677500Y-137380000D01*
G75*
G02*
X194825000Y-137527500I0J-147500D01*
G01*
G37*
G36*
G01*
X195795000Y-137527500D02*
X195795000Y-137872500D01*
G75*
G02*
X195647500Y-138020000I-147500J0D01*
G01*
X195352500Y-138020000D01*
G75*
G02*
X195205000Y-137872500I0J147500D01*
G01*
X195205000Y-137527500D01*
G75*
G02*
X195352500Y-137380000I147500J0D01*
G01*
X195647500Y-137380000D01*
G75*
G02*
X195795000Y-137527500I0J-147500D01*
G01*
G37*
G04 #@! TD*
G04 #@! TO.C,R1019*
G36*
G01*
X196325000Y-120027500D02*
X196325000Y-120372500D01*
G75*
G02*
X196177500Y-120520000I-147500J0D01*
G01*
X195882500Y-120520000D01*
G75*
G02*
X195735000Y-120372500I0J147500D01*
G01*
X195735000Y-120027500D01*
G75*
G02*
X195882500Y-119880000I147500J0D01*
G01*
X196177500Y-119880000D01*
G75*
G02*
X196325000Y-120027500I0J-147500D01*
G01*
G37*
G36*
G01*
X197295000Y-120027500D02*
X197295000Y-120372500D01*
G75*
G02*
X197147500Y-120520000I-147500J0D01*
G01*
X196852500Y-120520000D01*
G75*
G02*
X196705000Y-120372500I0J147500D01*
G01*
X196705000Y-120027500D01*
G75*
G02*
X196852500Y-119880000I147500J0D01*
G01*
X197147500Y-119880000D01*
G75*
G02*
X197295000Y-120027500I0J-147500D01*
G01*
G37*
G04 #@! TD*
G04 #@! TO.C,R1018*
G36*
G01*
X161227500Y-112905000D02*
X161572500Y-112905000D01*
G75*
G02*
X161720000Y-113052500I0J-147500D01*
G01*
X161720000Y-113347500D01*
G75*
G02*
X161572500Y-113495000I-147500J0D01*
G01*
X161227500Y-113495000D01*
G75*
G02*
X161080000Y-113347500I0J147500D01*
G01*
X161080000Y-113052500D01*
G75*
G02*
X161227500Y-112905000I147500J0D01*
G01*
G37*
G36*
G01*
X161227500Y-111935000D02*
X161572500Y-111935000D01*
G75*
G02*
X161720000Y-112082500I0J-147500D01*
G01*
X161720000Y-112377500D01*
G75*
G02*
X161572500Y-112525000I-147500J0D01*
G01*
X161227500Y-112525000D01*
G75*
G02*
X161080000Y-112377500I0J147500D01*
G01*
X161080000Y-112082500D01*
G75*
G02*
X161227500Y-111935000I147500J0D01*
G01*
G37*
G04 #@! TD*
G04 #@! TO.C,R1017*
G36*
G01*
X152827500Y-121705000D02*
X153172500Y-121705000D01*
G75*
G02*
X153320000Y-121852500I0J-147500D01*
G01*
X153320000Y-122147500D01*
G75*
G02*
X153172500Y-122295000I-147500J0D01*
G01*
X152827500Y-122295000D01*
G75*
G02*
X152680000Y-122147500I0J147500D01*
G01*
X152680000Y-121852500D01*
G75*
G02*
X152827500Y-121705000I147500J0D01*
G01*
G37*
G36*
G01*
X152827500Y-120735000D02*
X153172500Y-120735000D01*
G75*
G02*
X153320000Y-120882500I0J-147500D01*
G01*
X153320000Y-121177500D01*
G75*
G02*
X153172500Y-121325000I-147500J0D01*
G01*
X152827500Y-121325000D01*
G75*
G02*
X152680000Y-121177500I0J147500D01*
G01*
X152680000Y-120882500D01*
G75*
G02*
X152827500Y-120735000I147500J0D01*
G01*
G37*
G04 #@! TD*
G04 #@! TO.C,R1016*
G36*
G01*
X165937500Y-118043750D02*
X165937500Y-118556250D01*
G75*
G02*
X165718750Y-118775000I-218750J0D01*
G01*
X165281250Y-118775000D01*
G75*
G02*
X165062500Y-118556250I0J218750D01*
G01*
X165062500Y-118043750D01*
G75*
G02*
X165281250Y-117825000I218750J0D01*
G01*
X165718750Y-117825000D01*
G75*
G02*
X165937500Y-118043750I0J-218750D01*
G01*
G37*
G36*
G01*
X167512500Y-118043750D02*
X167512500Y-118556250D01*
G75*
G02*
X167293750Y-118775000I-218750J0D01*
G01*
X166856250Y-118775000D01*
G75*
G02*
X166637500Y-118556250I0J218750D01*
G01*
X166637500Y-118043750D01*
G75*
G02*
X166856250Y-117825000I218750J0D01*
G01*
X167293750Y-117825000D01*
G75*
G02*
X167512500Y-118043750I0J-218750D01*
G01*
G37*
G04 #@! TD*
G04 #@! TO.C,R1015*
G36*
G01*
X175772500Y-131025000D02*
X175427500Y-131025000D01*
G75*
G02*
X175280000Y-130877500I0J147500D01*
G01*
X175280000Y-130582500D01*
G75*
G02*
X175427500Y-130435000I147500J0D01*
G01*
X175772500Y-130435000D01*
G75*
G02*
X175920000Y-130582500I0J-147500D01*
G01*
X175920000Y-130877500D01*
G75*
G02*
X175772500Y-131025000I-147500J0D01*
G01*
G37*
G36*
G01*
X175772500Y-131995000D02*
X175427500Y-131995000D01*
G75*
G02*
X175280000Y-131847500I0J147500D01*
G01*
X175280000Y-131552500D01*
G75*
G02*
X175427500Y-131405000I147500J0D01*
G01*
X175772500Y-131405000D01*
G75*
G02*
X175920000Y-131552500I0J-147500D01*
G01*
X175920000Y-131847500D01*
G75*
G02*
X175772500Y-131995000I-147500J0D01*
G01*
G37*
G04 #@! TD*
G04 #@! TO.C,R1014*
G36*
G01*
X175772500Y-125495000D02*
X175427500Y-125495000D01*
G75*
G02*
X175280000Y-125347500I0J147500D01*
G01*
X175280000Y-125052500D01*
G75*
G02*
X175427500Y-124905000I147500J0D01*
G01*
X175772500Y-124905000D01*
G75*
G02*
X175920000Y-125052500I0J-147500D01*
G01*
X175920000Y-125347500D01*
G75*
G02*
X175772500Y-125495000I-147500J0D01*
G01*
G37*
G36*
G01*
X175772500Y-126465000D02*
X175427500Y-126465000D01*
G75*
G02*
X175280000Y-126317500I0J147500D01*
G01*
X175280000Y-126022500D01*
G75*
G02*
X175427500Y-125875000I147500J0D01*
G01*
X175772500Y-125875000D01*
G75*
G02*
X175920000Y-126022500I0J-147500D01*
G01*
X175920000Y-126317500D01*
G75*
G02*
X175772500Y-126465000I-147500J0D01*
G01*
G37*
G04 #@! TD*
G04 #@! TO.C,R1013*
G36*
G01*
X165327500Y-120405000D02*
X165672500Y-120405000D01*
G75*
G02*
X165820000Y-120552500I0J-147500D01*
G01*
X165820000Y-120847500D01*
G75*
G02*
X165672500Y-120995000I-147500J0D01*
G01*
X165327500Y-120995000D01*
G75*
G02*
X165180000Y-120847500I0J147500D01*
G01*
X165180000Y-120552500D01*
G75*
G02*
X165327500Y-120405000I147500J0D01*
G01*
G37*
G36*
G01*
X165327500Y-119435000D02*
X165672500Y-119435000D01*
G75*
G02*
X165820000Y-119582500I0J-147500D01*
G01*
X165820000Y-119877500D01*
G75*
G02*
X165672500Y-120025000I-147500J0D01*
G01*
X165327500Y-120025000D01*
G75*
G02*
X165180000Y-119877500I0J147500D01*
G01*
X165180000Y-119582500D01*
G75*
G02*
X165327500Y-119435000I147500J0D01*
G01*
G37*
G04 #@! TD*
G04 #@! TO.C,R1012*
G36*
G01*
X169895000Y-123327500D02*
X169895000Y-123672500D01*
G75*
G02*
X169747500Y-123820000I-147500J0D01*
G01*
X169452500Y-123820000D01*
G75*
G02*
X169305000Y-123672500I0J147500D01*
G01*
X169305000Y-123327500D01*
G75*
G02*
X169452500Y-123180000I147500J0D01*
G01*
X169747500Y-123180000D01*
G75*
G02*
X169895000Y-123327500I0J-147500D01*
G01*
G37*
G36*
G01*
X170865000Y-123327500D02*
X170865000Y-123672500D01*
G75*
G02*
X170717500Y-123820000I-147500J0D01*
G01*
X170422500Y-123820000D01*
G75*
G02*
X170275000Y-123672500I0J147500D01*
G01*
X170275000Y-123327500D01*
G75*
G02*
X170422500Y-123180000I147500J0D01*
G01*
X170717500Y-123180000D01*
G75*
G02*
X170865000Y-123327500I0J-147500D01*
G01*
G37*
G04 #@! TD*
G04 #@! TO.C,R1011*
G36*
G01*
X167795000Y-123927500D02*
X167795000Y-124272500D01*
G75*
G02*
X167647500Y-124420000I-147500J0D01*
G01*
X167352500Y-124420000D01*
G75*
G02*
X167205000Y-124272500I0J147500D01*
G01*
X167205000Y-123927500D01*
G75*
G02*
X167352500Y-123780000I147500J0D01*
G01*
X167647500Y-123780000D01*
G75*
G02*
X167795000Y-123927500I0J-147500D01*
G01*
G37*
G36*
G01*
X168765000Y-123927500D02*
X168765000Y-124272500D01*
G75*
G02*
X168617500Y-124420000I-147500J0D01*
G01*
X168322500Y-124420000D01*
G75*
G02*
X168175000Y-124272500I0J147500D01*
G01*
X168175000Y-123927500D01*
G75*
G02*
X168322500Y-123780000I147500J0D01*
G01*
X168617500Y-123780000D01*
G75*
G02*
X168765000Y-123927500I0J-147500D01*
G01*
G37*
G04 #@! TD*
G04 #@! TO.C,R1010*
G36*
G01*
X175427500Y-129405000D02*
X175772500Y-129405000D01*
G75*
G02*
X175920000Y-129552500I0J-147500D01*
G01*
X175920000Y-129847500D01*
G75*
G02*
X175772500Y-129995000I-147500J0D01*
G01*
X175427500Y-129995000D01*
G75*
G02*
X175280000Y-129847500I0J147500D01*
G01*
X175280000Y-129552500D01*
G75*
G02*
X175427500Y-129405000I147500J0D01*
G01*
G37*
G36*
G01*
X175427500Y-128435000D02*
X175772500Y-128435000D01*
G75*
G02*
X175920000Y-128582500I0J-147500D01*
G01*
X175920000Y-128877500D01*
G75*
G02*
X175772500Y-129025000I-147500J0D01*
G01*
X175427500Y-129025000D01*
G75*
G02*
X175280000Y-128877500I0J147500D01*
G01*
X175280000Y-128582500D01*
G75*
G02*
X175427500Y-128435000I147500J0D01*
G01*
G37*
G04 #@! TD*
G04 #@! TO.C,R1009*
G36*
G01*
X175427500Y-123905000D02*
X175772500Y-123905000D01*
G75*
G02*
X175920000Y-124052500I0J-147500D01*
G01*
X175920000Y-124347500D01*
G75*
G02*
X175772500Y-124495000I-147500J0D01*
G01*
X175427500Y-124495000D01*
G75*
G02*
X175280000Y-124347500I0J147500D01*
G01*
X175280000Y-124052500D01*
G75*
G02*
X175427500Y-123905000I147500J0D01*
G01*
G37*
G36*
G01*
X175427500Y-122935000D02*
X175772500Y-122935000D01*
G75*
G02*
X175920000Y-123082500I0J-147500D01*
G01*
X175920000Y-123377500D01*
G75*
G02*
X175772500Y-123525000I-147500J0D01*
G01*
X175427500Y-123525000D01*
G75*
G02*
X175280000Y-123377500I0J147500D01*
G01*
X175280000Y-123082500D01*
G75*
G02*
X175427500Y-122935000I147500J0D01*
G01*
G37*
G04 #@! TD*
G04 #@! TO.C,R1008*
G36*
G01*
X150227500Y-121705000D02*
X150572500Y-121705000D01*
G75*
G02*
X150720000Y-121852500I0J-147500D01*
G01*
X150720000Y-122147500D01*
G75*
G02*
X150572500Y-122295000I-147500J0D01*
G01*
X150227500Y-122295000D01*
G75*
G02*
X150080000Y-122147500I0J147500D01*
G01*
X150080000Y-121852500D01*
G75*
G02*
X150227500Y-121705000I147500J0D01*
G01*
G37*
G36*
G01*
X150227500Y-120735000D02*
X150572500Y-120735000D01*
G75*
G02*
X150720000Y-120882500I0J-147500D01*
G01*
X150720000Y-121177500D01*
G75*
G02*
X150572500Y-121325000I-147500J0D01*
G01*
X150227500Y-121325000D01*
G75*
G02*
X150080000Y-121177500I0J147500D01*
G01*
X150080000Y-120882500D01*
G75*
G02*
X150227500Y-120735000I147500J0D01*
G01*
G37*
G04 #@! TD*
G04 #@! TO.C,R1007*
G36*
G01*
X153827500Y-121705000D02*
X154172500Y-121705000D01*
G75*
G02*
X154320000Y-121852500I0J-147500D01*
G01*
X154320000Y-122147500D01*
G75*
G02*
X154172500Y-122295000I-147500J0D01*
G01*
X153827500Y-122295000D01*
G75*
G02*
X153680000Y-122147500I0J147500D01*
G01*
X153680000Y-121852500D01*
G75*
G02*
X153827500Y-121705000I147500J0D01*
G01*
G37*
G36*
G01*
X153827500Y-120735000D02*
X154172500Y-120735000D01*
G75*
G02*
X154320000Y-120882500I0J-147500D01*
G01*
X154320000Y-121177500D01*
G75*
G02*
X154172500Y-121325000I-147500J0D01*
G01*
X153827500Y-121325000D01*
G75*
G02*
X153680000Y-121177500I0J147500D01*
G01*
X153680000Y-120882500D01*
G75*
G02*
X153827500Y-120735000I147500J0D01*
G01*
G37*
G04 #@! TD*
G04 #@! TO.C,R1006*
G36*
G01*
X151227500Y-121705000D02*
X151572500Y-121705000D01*
G75*
G02*
X151720000Y-121852500I0J-147500D01*
G01*
X151720000Y-122147500D01*
G75*
G02*
X151572500Y-122295000I-147500J0D01*
G01*
X151227500Y-122295000D01*
G75*
G02*
X151080000Y-122147500I0J147500D01*
G01*
X151080000Y-121852500D01*
G75*
G02*
X151227500Y-121705000I147500J0D01*
G01*
G37*
G36*
G01*
X151227500Y-120735000D02*
X151572500Y-120735000D01*
G75*
G02*
X151720000Y-120882500I0J-147500D01*
G01*
X151720000Y-121177500D01*
G75*
G02*
X151572500Y-121325000I-147500J0D01*
G01*
X151227500Y-121325000D01*
G75*
G02*
X151080000Y-121177500I0J147500D01*
G01*
X151080000Y-120882500D01*
G75*
G02*
X151227500Y-120735000I147500J0D01*
G01*
G37*
G04 #@! TD*
G04 #@! TO.C,R1005*
G36*
G01*
X152827500Y-129375000D02*
X153172500Y-129375000D01*
G75*
G02*
X153320000Y-129522500I0J-147500D01*
G01*
X153320000Y-129817500D01*
G75*
G02*
X153172500Y-129965000I-147500J0D01*
G01*
X152827500Y-129965000D01*
G75*
G02*
X152680000Y-129817500I0J147500D01*
G01*
X152680000Y-129522500D01*
G75*
G02*
X152827500Y-129375000I147500J0D01*
G01*
G37*
G36*
G01*
X152827500Y-128405000D02*
X153172500Y-128405000D01*
G75*
G02*
X153320000Y-128552500I0J-147500D01*
G01*
X153320000Y-128847500D01*
G75*
G02*
X153172500Y-128995000I-147500J0D01*
G01*
X152827500Y-128995000D01*
G75*
G02*
X152680000Y-128847500I0J147500D01*
G01*
X152680000Y-128552500D01*
G75*
G02*
X152827500Y-128405000I147500J0D01*
G01*
G37*
G04 #@! TD*
G04 #@! TO.C,R1004*
G36*
G01*
X151827500Y-129375000D02*
X152172500Y-129375000D01*
G75*
G02*
X152320000Y-129522500I0J-147500D01*
G01*
X152320000Y-129817500D01*
G75*
G02*
X152172500Y-129965000I-147500J0D01*
G01*
X151827500Y-129965000D01*
G75*
G02*
X151680000Y-129817500I0J147500D01*
G01*
X151680000Y-129522500D01*
G75*
G02*
X151827500Y-129375000I147500J0D01*
G01*
G37*
G36*
G01*
X151827500Y-128405000D02*
X152172500Y-128405000D01*
G75*
G02*
X152320000Y-128552500I0J-147500D01*
G01*
X152320000Y-128847500D01*
G75*
G02*
X152172500Y-128995000I-147500J0D01*
G01*
X151827500Y-128995000D01*
G75*
G02*
X151680000Y-128847500I0J147500D01*
G01*
X151680000Y-128552500D01*
G75*
G02*
X151827500Y-128405000I147500J0D01*
G01*
G37*
G04 #@! TD*
G04 #@! TO.C,R1003*
G36*
G01*
X150827500Y-129375000D02*
X151172500Y-129375000D01*
G75*
G02*
X151320000Y-129522500I0J-147500D01*
G01*
X151320000Y-129817500D01*
G75*
G02*
X151172500Y-129965000I-147500J0D01*
G01*
X150827500Y-129965000D01*
G75*
G02*
X150680000Y-129817500I0J147500D01*
G01*
X150680000Y-129522500D01*
G75*
G02*
X150827500Y-129375000I147500J0D01*
G01*
G37*
G36*
G01*
X150827500Y-128405000D02*
X151172500Y-128405000D01*
G75*
G02*
X151320000Y-128552500I0J-147500D01*
G01*
X151320000Y-128847500D01*
G75*
G02*
X151172500Y-128995000I-147500J0D01*
G01*
X150827500Y-128995000D01*
G75*
G02*
X150680000Y-128847500I0J147500D01*
G01*
X150680000Y-128552500D01*
G75*
G02*
X150827500Y-128405000I147500J0D01*
G01*
G37*
G04 #@! TD*
G04 #@! TO.C,R1002*
G36*
G01*
X149427500Y-129375000D02*
X149772500Y-129375000D01*
G75*
G02*
X149920000Y-129522500I0J-147500D01*
G01*
X149920000Y-129817500D01*
G75*
G02*
X149772500Y-129965000I-147500J0D01*
G01*
X149427500Y-129965000D01*
G75*
G02*
X149280000Y-129817500I0J147500D01*
G01*
X149280000Y-129522500D01*
G75*
G02*
X149427500Y-129375000I147500J0D01*
G01*
G37*
G36*
G01*
X149427500Y-128405000D02*
X149772500Y-128405000D01*
G75*
G02*
X149920000Y-128552500I0J-147500D01*
G01*
X149920000Y-128847500D01*
G75*
G02*
X149772500Y-128995000I-147500J0D01*
G01*
X149427500Y-128995000D01*
G75*
G02*
X149280000Y-128847500I0J147500D01*
G01*
X149280000Y-128552500D01*
G75*
G02*
X149427500Y-128405000I147500J0D01*
G01*
G37*
G04 #@! TD*
G04 #@! TO.C,R1001*
G36*
G01*
X160427500Y-132205000D02*
X160772500Y-132205000D01*
G75*
G02*
X160920000Y-132352500I0J-147500D01*
G01*
X160920000Y-132647500D01*
G75*
G02*
X160772500Y-132795000I-147500J0D01*
G01*
X160427500Y-132795000D01*
G75*
G02*
X160280000Y-132647500I0J147500D01*
G01*
X160280000Y-132352500D01*
G75*
G02*
X160427500Y-132205000I147500J0D01*
G01*
G37*
G36*
G01*
X160427500Y-131235000D02*
X160772500Y-131235000D01*
G75*
G02*
X160920000Y-131382500I0J-147500D01*
G01*
X160920000Y-131677500D01*
G75*
G02*
X160772500Y-131825000I-147500J0D01*
G01*
X160427500Y-131825000D01*
G75*
G02*
X160280000Y-131677500I0J147500D01*
G01*
X160280000Y-131382500D01*
G75*
G02*
X160427500Y-131235000I147500J0D01*
G01*
G37*
G04 #@! TD*
G04 #@! TO.C,R901*
G36*
G01*
X112127500Y-105905000D02*
X112472500Y-105905000D01*
G75*
G02*
X112620000Y-106052500I0J-147500D01*
G01*
X112620000Y-106347500D01*
G75*
G02*
X112472500Y-106495000I-147500J0D01*
G01*
X112127500Y-106495000D01*
G75*
G02*
X111980000Y-106347500I0J147500D01*
G01*
X111980000Y-106052500D01*
G75*
G02*
X112127500Y-105905000I147500J0D01*
G01*
G37*
G36*
G01*
X112127500Y-104935000D02*
X112472500Y-104935000D01*
G75*
G02*
X112620000Y-105082500I0J-147500D01*
G01*
X112620000Y-105377500D01*
G75*
G02*
X112472500Y-105525000I-147500J0D01*
G01*
X112127500Y-105525000D01*
G75*
G02*
X111980000Y-105377500I0J147500D01*
G01*
X111980000Y-105082500D01*
G75*
G02*
X112127500Y-104935000I147500J0D01*
G01*
G37*
G04 #@! TD*
G04 #@! TO.C,R813*
G36*
G01*
X172895000Y-87827500D02*
X172895000Y-88172500D01*
G75*
G02*
X172747500Y-88320000I-147500J0D01*
G01*
X172452500Y-88320000D01*
G75*
G02*
X172305000Y-88172500I0J147500D01*
G01*
X172305000Y-87827500D01*
G75*
G02*
X172452500Y-87680000I147500J0D01*
G01*
X172747500Y-87680000D01*
G75*
G02*
X172895000Y-87827500I0J-147500D01*
G01*
G37*
G36*
G01*
X173865000Y-87827500D02*
X173865000Y-88172500D01*
G75*
G02*
X173717500Y-88320000I-147500J0D01*
G01*
X173422500Y-88320000D01*
G75*
G02*
X173275000Y-88172500I0J147500D01*
G01*
X173275000Y-87827500D01*
G75*
G02*
X173422500Y-87680000I147500J0D01*
G01*
X173717500Y-87680000D01*
G75*
G02*
X173865000Y-87827500I0J-147500D01*
G01*
G37*
G04 #@! TD*
G04 #@! TO.C,R812*
G36*
G01*
X172925000Y-91427500D02*
X172925000Y-91772500D01*
G75*
G02*
X172777500Y-91920000I-147500J0D01*
G01*
X172482500Y-91920000D01*
G75*
G02*
X172335000Y-91772500I0J147500D01*
G01*
X172335000Y-91427500D01*
G75*
G02*
X172482500Y-91280000I147500J0D01*
G01*
X172777500Y-91280000D01*
G75*
G02*
X172925000Y-91427500I0J-147500D01*
G01*
G37*
G36*
G01*
X173895000Y-91427500D02*
X173895000Y-91772500D01*
G75*
G02*
X173747500Y-91920000I-147500J0D01*
G01*
X173452500Y-91920000D01*
G75*
G02*
X173305000Y-91772500I0J147500D01*
G01*
X173305000Y-91427500D01*
G75*
G02*
X173452500Y-91280000I147500J0D01*
G01*
X173747500Y-91280000D01*
G75*
G02*
X173895000Y-91427500I0J-147500D01*
G01*
G37*
G04 #@! TD*
G04 #@! TO.C,R811*
G36*
G01*
X194927500Y-79605000D02*
X195272500Y-79605000D01*
G75*
G02*
X195420000Y-79752500I0J-147500D01*
G01*
X195420000Y-80047500D01*
G75*
G02*
X195272500Y-80195000I-147500J0D01*
G01*
X194927500Y-80195000D01*
G75*
G02*
X194780000Y-80047500I0J147500D01*
G01*
X194780000Y-79752500D01*
G75*
G02*
X194927500Y-79605000I147500J0D01*
G01*
G37*
G36*
G01*
X194927500Y-78635000D02*
X195272500Y-78635000D01*
G75*
G02*
X195420000Y-78782500I0J-147500D01*
G01*
X195420000Y-79077500D01*
G75*
G02*
X195272500Y-79225000I-147500J0D01*
G01*
X194927500Y-79225000D01*
G75*
G02*
X194780000Y-79077500I0J147500D01*
G01*
X194780000Y-78782500D01*
G75*
G02*
X194927500Y-78635000I147500J0D01*
G01*
G37*
G04 #@! TD*
G04 #@! TO.C,R810*
G36*
G01*
X194927500Y-81705000D02*
X195272500Y-81705000D01*
G75*
G02*
X195420000Y-81852500I0J-147500D01*
G01*
X195420000Y-82147500D01*
G75*
G02*
X195272500Y-82295000I-147500J0D01*
G01*
X194927500Y-82295000D01*
G75*
G02*
X194780000Y-82147500I0J147500D01*
G01*
X194780000Y-81852500D01*
G75*
G02*
X194927500Y-81705000I147500J0D01*
G01*
G37*
G36*
G01*
X194927500Y-80735000D02*
X195272500Y-80735000D01*
G75*
G02*
X195420000Y-80882500I0J-147500D01*
G01*
X195420000Y-81177500D01*
G75*
G02*
X195272500Y-81325000I-147500J0D01*
G01*
X194927500Y-81325000D01*
G75*
G02*
X194780000Y-81177500I0J147500D01*
G01*
X194780000Y-80882500D01*
G75*
G02*
X194927500Y-80735000I147500J0D01*
G01*
G37*
G04 #@! TD*
G04 #@! TO.C,R809*
G36*
G01*
X194805000Y-90172500D02*
X194805000Y-89827500D01*
G75*
G02*
X194952500Y-89680000I147500J0D01*
G01*
X195247500Y-89680000D01*
G75*
G02*
X195395000Y-89827500I0J-147500D01*
G01*
X195395000Y-90172500D01*
G75*
G02*
X195247500Y-90320000I-147500J0D01*
G01*
X194952500Y-90320000D01*
G75*
G02*
X194805000Y-90172500I0J147500D01*
G01*
G37*
G36*
G01*
X193835000Y-90172500D02*
X193835000Y-89827500D01*
G75*
G02*
X193982500Y-89680000I147500J0D01*
G01*
X194277500Y-89680000D01*
G75*
G02*
X194425000Y-89827500I0J-147500D01*
G01*
X194425000Y-90172500D01*
G75*
G02*
X194277500Y-90320000I-147500J0D01*
G01*
X193982500Y-90320000D01*
G75*
G02*
X193835000Y-90172500I0J147500D01*
G01*
G37*
G04 #@! TD*
G04 #@! TO.C,R808*
G36*
G01*
X191743750Y-89562500D02*
X192256250Y-89562500D01*
G75*
G02*
X192475000Y-89781250I0J-218750D01*
G01*
X192475000Y-90218750D01*
G75*
G02*
X192256250Y-90437500I-218750J0D01*
G01*
X191743750Y-90437500D01*
G75*
G02*
X191525000Y-90218750I0J218750D01*
G01*
X191525000Y-89781250D01*
G75*
G02*
X191743750Y-89562500I218750J0D01*
G01*
G37*
G36*
G01*
X191743750Y-87987500D02*
X192256250Y-87987500D01*
G75*
G02*
X192475000Y-88206250I0J-218750D01*
G01*
X192475000Y-88643750D01*
G75*
G02*
X192256250Y-88862500I-218750J0D01*
G01*
X191743750Y-88862500D01*
G75*
G02*
X191525000Y-88643750I0J218750D01*
G01*
X191525000Y-88206250D01*
G75*
G02*
X191743750Y-87987500I218750J0D01*
G01*
G37*
G04 #@! TD*
G04 #@! TO.C,R807*
G36*
G01*
X189037500Y-92056250D02*
X189037500Y-91543750D01*
G75*
G02*
X189256250Y-91325000I218750J0D01*
G01*
X189693750Y-91325000D01*
G75*
G02*
X189912500Y-91543750I0J-218750D01*
G01*
X189912500Y-92056250D01*
G75*
G02*
X189693750Y-92275000I-218750J0D01*
G01*
X189256250Y-92275000D01*
G75*
G02*
X189037500Y-92056250I0J218750D01*
G01*
G37*
G36*
G01*
X187462500Y-92056250D02*
X187462500Y-91543750D01*
G75*
G02*
X187681250Y-91325000I218750J0D01*
G01*
X188118750Y-91325000D01*
G75*
G02*
X188337500Y-91543750I0J-218750D01*
G01*
X188337500Y-92056250D01*
G75*
G02*
X188118750Y-92275000I-218750J0D01*
G01*
X187681250Y-92275000D01*
G75*
G02*
X187462500Y-92056250I0J218750D01*
G01*
G37*
G04 #@! TD*
G04 #@! TO.C,R806*
G36*
G01*
X186556250Y-92237500D02*
X186043750Y-92237500D01*
G75*
G02*
X185825000Y-92018750I0J218750D01*
G01*
X185825000Y-91581250D01*
G75*
G02*
X186043750Y-91362500I218750J0D01*
G01*
X186556250Y-91362500D01*
G75*
G02*
X186775000Y-91581250I0J-218750D01*
G01*
X186775000Y-92018750D01*
G75*
G02*
X186556250Y-92237500I-218750J0D01*
G01*
G37*
G36*
G01*
X186556250Y-93812500D02*
X186043750Y-93812500D01*
G75*
G02*
X185825000Y-93593750I0J218750D01*
G01*
X185825000Y-93156250D01*
G75*
G02*
X186043750Y-92937500I218750J0D01*
G01*
X186556250Y-92937500D01*
G75*
G02*
X186775000Y-93156250I0J-218750D01*
G01*
X186775000Y-93593750D01*
G75*
G02*
X186556250Y-93812500I-218750J0D01*
G01*
G37*
G04 #@! TD*
G04 #@! TO.C,R805*
G36*
G01*
X191743750Y-86350000D02*
X192256250Y-86350000D01*
G75*
G02*
X192475000Y-86568750I0J-218750D01*
G01*
X192475000Y-87006250D01*
G75*
G02*
X192256250Y-87225000I-218750J0D01*
G01*
X191743750Y-87225000D01*
G75*
G02*
X191525000Y-87006250I0J218750D01*
G01*
X191525000Y-86568750D01*
G75*
G02*
X191743750Y-86350000I218750J0D01*
G01*
G37*
G36*
G01*
X191743750Y-84775000D02*
X192256250Y-84775000D01*
G75*
G02*
X192475000Y-84993750I0J-218750D01*
G01*
X192475000Y-85431250D01*
G75*
G02*
X192256250Y-85650000I-218750J0D01*
G01*
X191743750Y-85650000D01*
G75*
G02*
X191525000Y-85431250I0J218750D01*
G01*
X191525000Y-84993750D01*
G75*
G02*
X191743750Y-84775000I218750J0D01*
G01*
G37*
G04 #@! TD*
G04 #@! TO.C,R804*
G36*
G01*
X184972500Y-94025000D02*
X184627500Y-94025000D01*
G75*
G02*
X184480000Y-93877500I0J147500D01*
G01*
X184480000Y-93582500D01*
G75*
G02*
X184627500Y-93435000I147500J0D01*
G01*
X184972500Y-93435000D01*
G75*
G02*
X185120000Y-93582500I0J-147500D01*
G01*
X185120000Y-93877500D01*
G75*
G02*
X184972500Y-94025000I-147500J0D01*
G01*
G37*
G36*
G01*
X184972500Y-94995000D02*
X184627500Y-94995000D01*
G75*
G02*
X184480000Y-94847500I0J147500D01*
G01*
X184480000Y-94552500D01*
G75*
G02*
X184627500Y-94405000I147500J0D01*
G01*
X184972500Y-94405000D01*
G75*
G02*
X185120000Y-94552500I0J-147500D01*
G01*
X185120000Y-94847500D01*
G75*
G02*
X184972500Y-94995000I-147500J0D01*
G01*
G37*
G04 #@! TD*
G04 #@! TO.C,R803*
G36*
G01*
X186127500Y-95375000D02*
X186472500Y-95375000D01*
G75*
G02*
X186620000Y-95522500I0J-147500D01*
G01*
X186620000Y-95817500D01*
G75*
G02*
X186472500Y-95965000I-147500J0D01*
G01*
X186127500Y-95965000D01*
G75*
G02*
X185980000Y-95817500I0J147500D01*
G01*
X185980000Y-95522500D01*
G75*
G02*
X186127500Y-95375000I147500J0D01*
G01*
G37*
G36*
G01*
X186127500Y-94405000D02*
X186472500Y-94405000D01*
G75*
G02*
X186620000Y-94552500I0J-147500D01*
G01*
X186620000Y-94847500D01*
G75*
G02*
X186472500Y-94995000I-147500J0D01*
G01*
X186127500Y-94995000D01*
G75*
G02*
X185980000Y-94847500I0J147500D01*
G01*
X185980000Y-94552500D01*
G75*
G02*
X186127500Y-94405000I147500J0D01*
G01*
G37*
G04 #@! TD*
G04 #@! TO.C,R802*
G36*
G01*
X165027500Y-78590000D02*
X165372500Y-78590000D01*
G75*
G02*
X165520000Y-78737500I0J-147500D01*
G01*
X165520000Y-79032500D01*
G75*
G02*
X165372500Y-79180000I-147500J0D01*
G01*
X165027500Y-79180000D01*
G75*
G02*
X164880000Y-79032500I0J147500D01*
G01*
X164880000Y-78737500D01*
G75*
G02*
X165027500Y-78590000I147500J0D01*
G01*
G37*
G36*
G01*
X165027500Y-77620000D02*
X165372500Y-77620000D01*
G75*
G02*
X165520000Y-77767500I0J-147500D01*
G01*
X165520000Y-78062500D01*
G75*
G02*
X165372500Y-78210000I-147500J0D01*
G01*
X165027500Y-78210000D01*
G75*
G02*
X164880000Y-78062500I0J147500D01*
G01*
X164880000Y-77767500D01*
G75*
G02*
X165027500Y-77620000I147500J0D01*
G01*
G37*
G04 #@! TD*
G04 #@! TO.C,R801*
G36*
G01*
X170472500Y-78710000D02*
X170127500Y-78710000D01*
G75*
G02*
X169980000Y-78562500I0J147500D01*
G01*
X169980000Y-78267500D01*
G75*
G02*
X170127500Y-78120000I147500J0D01*
G01*
X170472500Y-78120000D01*
G75*
G02*
X170620000Y-78267500I0J-147500D01*
G01*
X170620000Y-78562500D01*
G75*
G02*
X170472500Y-78710000I-147500J0D01*
G01*
G37*
G36*
G01*
X170472500Y-79680000D02*
X170127500Y-79680000D01*
G75*
G02*
X169980000Y-79532500I0J147500D01*
G01*
X169980000Y-79237500D01*
G75*
G02*
X170127500Y-79090000I147500J0D01*
G01*
X170472500Y-79090000D01*
G75*
G02*
X170620000Y-79237500I0J-147500D01*
G01*
X170620000Y-79532500D01*
G75*
G02*
X170472500Y-79680000I-147500J0D01*
G01*
G37*
G04 #@! TD*
G04 #@! TO.C,R715*
G36*
G01*
X103075000Y-119872500D02*
X103075000Y-119527500D01*
G75*
G02*
X103222500Y-119380000I147500J0D01*
G01*
X103517500Y-119380000D01*
G75*
G02*
X103665000Y-119527500I0J-147500D01*
G01*
X103665000Y-119872500D01*
G75*
G02*
X103517500Y-120020000I-147500J0D01*
G01*
X103222500Y-120020000D01*
G75*
G02*
X103075000Y-119872500I0J147500D01*
G01*
G37*
G36*
G01*
X102105000Y-119872500D02*
X102105000Y-119527500D01*
G75*
G02*
X102252500Y-119380000I147500J0D01*
G01*
X102547500Y-119380000D01*
G75*
G02*
X102695000Y-119527500I0J-147500D01*
G01*
X102695000Y-119872500D01*
G75*
G02*
X102547500Y-120020000I-147500J0D01*
G01*
X102252500Y-120020000D01*
G75*
G02*
X102105000Y-119872500I0J147500D01*
G01*
G37*
G04 #@! TD*
G04 #@! TO.C,R714*
G36*
G01*
X103105000Y-122372500D02*
X103105000Y-122027500D01*
G75*
G02*
X103252500Y-121880000I147500J0D01*
G01*
X103547500Y-121880000D01*
G75*
G02*
X103695000Y-122027500I0J-147500D01*
G01*
X103695000Y-122372500D01*
G75*
G02*
X103547500Y-122520000I-147500J0D01*
G01*
X103252500Y-122520000D01*
G75*
G02*
X103105000Y-122372500I0J147500D01*
G01*
G37*
G36*
G01*
X102135000Y-122372500D02*
X102135000Y-122027500D01*
G75*
G02*
X102282500Y-121880000I147500J0D01*
G01*
X102577500Y-121880000D01*
G75*
G02*
X102725000Y-122027500I0J-147500D01*
G01*
X102725000Y-122372500D01*
G75*
G02*
X102577500Y-122520000I-147500J0D01*
G01*
X102282500Y-122520000D01*
G75*
G02*
X102135000Y-122372500I0J147500D01*
G01*
G37*
G04 #@! TD*
G04 #@! TO.C,R713*
G36*
G01*
X103005000Y-139172500D02*
X103005000Y-138827500D01*
G75*
G02*
X103152500Y-138680000I147500J0D01*
G01*
X103447500Y-138680000D01*
G75*
G02*
X103595000Y-138827500I0J-147500D01*
G01*
X103595000Y-139172500D01*
G75*
G02*
X103447500Y-139320000I-147500J0D01*
G01*
X103152500Y-139320000D01*
G75*
G02*
X103005000Y-139172500I0J147500D01*
G01*
G37*
G36*
G01*
X102035000Y-139172500D02*
X102035000Y-138827500D01*
G75*
G02*
X102182500Y-138680000I147500J0D01*
G01*
X102477500Y-138680000D01*
G75*
G02*
X102625000Y-138827500I0J-147500D01*
G01*
X102625000Y-139172500D01*
G75*
G02*
X102477500Y-139320000I-147500J0D01*
G01*
X102182500Y-139320000D01*
G75*
G02*
X102035000Y-139172500I0J147500D01*
G01*
G37*
G04 #@! TD*
G04 #@! TO.C,R712*
G36*
G01*
X103005000Y-136472500D02*
X103005000Y-136127500D01*
G75*
G02*
X103152500Y-135980000I147500J0D01*
G01*
X103447500Y-135980000D01*
G75*
G02*
X103595000Y-136127500I0J-147500D01*
G01*
X103595000Y-136472500D01*
G75*
G02*
X103447500Y-136620000I-147500J0D01*
G01*
X103152500Y-136620000D01*
G75*
G02*
X103005000Y-136472500I0J147500D01*
G01*
G37*
G36*
G01*
X102035000Y-136472500D02*
X102035000Y-136127500D01*
G75*
G02*
X102182500Y-135980000I147500J0D01*
G01*
X102477500Y-135980000D01*
G75*
G02*
X102625000Y-136127500I0J-147500D01*
G01*
X102625000Y-136472500D01*
G75*
G02*
X102477500Y-136620000I-147500J0D01*
G01*
X102182500Y-136620000D01*
G75*
G02*
X102035000Y-136472500I0J147500D01*
G01*
G37*
G04 #@! TD*
G04 #@! TO.C,R711*
G36*
G01*
X107872500Y-131910000D02*
X107527500Y-131910000D01*
G75*
G02*
X107380000Y-131762500I0J147500D01*
G01*
X107380000Y-131467500D01*
G75*
G02*
X107527500Y-131320000I147500J0D01*
G01*
X107872500Y-131320000D01*
G75*
G02*
X108020000Y-131467500I0J-147500D01*
G01*
X108020000Y-131762500D01*
G75*
G02*
X107872500Y-131910000I-147500J0D01*
G01*
G37*
G36*
G01*
X107872500Y-132880000D02*
X107527500Y-132880000D01*
G75*
G02*
X107380000Y-132732500I0J147500D01*
G01*
X107380000Y-132437500D01*
G75*
G02*
X107527500Y-132290000I147500J0D01*
G01*
X107872500Y-132290000D01*
G75*
G02*
X108020000Y-132437500I0J-147500D01*
G01*
X108020000Y-132732500D01*
G75*
G02*
X107872500Y-132880000I-147500J0D01*
G01*
G37*
G04 #@! TD*
G04 #@! TO.C,R710*
G36*
G01*
X107872500Y-126310000D02*
X107527500Y-126310000D01*
G75*
G02*
X107380000Y-126162500I0J147500D01*
G01*
X107380000Y-125867500D01*
G75*
G02*
X107527500Y-125720000I147500J0D01*
G01*
X107872500Y-125720000D01*
G75*
G02*
X108020000Y-125867500I0J-147500D01*
G01*
X108020000Y-126162500D01*
G75*
G02*
X107872500Y-126310000I-147500J0D01*
G01*
G37*
G36*
G01*
X107872500Y-127280000D02*
X107527500Y-127280000D01*
G75*
G02*
X107380000Y-127132500I0J147500D01*
G01*
X107380000Y-126837500D01*
G75*
G02*
X107527500Y-126690000I147500J0D01*
G01*
X107872500Y-126690000D01*
G75*
G02*
X108020000Y-126837500I0J-147500D01*
G01*
X108020000Y-127132500D01*
G75*
G02*
X107872500Y-127280000I-147500J0D01*
G01*
G37*
G04 #@! TD*
G04 #@! TO.C,R709*
G36*
G01*
X115772500Y-126295000D02*
X115427500Y-126295000D01*
G75*
G02*
X115280000Y-126147500I0J147500D01*
G01*
X115280000Y-125852500D01*
G75*
G02*
X115427500Y-125705000I147500J0D01*
G01*
X115772500Y-125705000D01*
G75*
G02*
X115920000Y-125852500I0J-147500D01*
G01*
X115920000Y-126147500D01*
G75*
G02*
X115772500Y-126295000I-147500J0D01*
G01*
G37*
G36*
G01*
X115772500Y-127265000D02*
X115427500Y-127265000D01*
G75*
G02*
X115280000Y-127117500I0J147500D01*
G01*
X115280000Y-126822500D01*
G75*
G02*
X115427500Y-126675000I147500J0D01*
G01*
X115772500Y-126675000D01*
G75*
G02*
X115920000Y-126822500I0J-147500D01*
G01*
X115920000Y-127117500D01*
G75*
G02*
X115772500Y-127265000I-147500J0D01*
G01*
G37*
G04 #@! TD*
G04 #@! TO.C,R708*
G36*
G01*
X115772500Y-131810000D02*
X115427500Y-131810000D01*
G75*
G02*
X115280000Y-131662500I0J147500D01*
G01*
X115280000Y-131367500D01*
G75*
G02*
X115427500Y-131220000I147500J0D01*
G01*
X115772500Y-131220000D01*
G75*
G02*
X115920000Y-131367500I0J-147500D01*
G01*
X115920000Y-131662500D01*
G75*
G02*
X115772500Y-131810000I-147500J0D01*
G01*
G37*
G36*
G01*
X115772500Y-132780000D02*
X115427500Y-132780000D01*
G75*
G02*
X115280000Y-132632500I0J147500D01*
G01*
X115280000Y-132337500D01*
G75*
G02*
X115427500Y-132190000I147500J0D01*
G01*
X115772500Y-132190000D01*
G75*
G02*
X115920000Y-132337500I0J-147500D01*
G01*
X115920000Y-132632500D01*
G75*
G02*
X115772500Y-132780000I-147500J0D01*
G01*
G37*
G04 #@! TD*
G04 #@! TO.C,R706*
G36*
G01*
X124975000Y-147572500D02*
X124975000Y-147227500D01*
G75*
G02*
X125122500Y-147080000I147500J0D01*
G01*
X125417500Y-147080000D01*
G75*
G02*
X125565000Y-147227500I0J-147500D01*
G01*
X125565000Y-147572500D01*
G75*
G02*
X125417500Y-147720000I-147500J0D01*
G01*
X125122500Y-147720000D01*
G75*
G02*
X124975000Y-147572500I0J147500D01*
G01*
G37*
G36*
G01*
X124005000Y-147572500D02*
X124005000Y-147227500D01*
G75*
G02*
X124152500Y-147080000I147500J0D01*
G01*
X124447500Y-147080000D01*
G75*
G02*
X124595000Y-147227500I0J-147500D01*
G01*
X124595000Y-147572500D01*
G75*
G02*
X124447500Y-147720000I-147500J0D01*
G01*
X124152500Y-147720000D01*
G75*
G02*
X124005000Y-147572500I0J147500D01*
G01*
G37*
G04 #@! TD*
G04 #@! TO.C,R705*
G36*
G01*
X117195000Y-135527500D02*
X117195000Y-135872500D01*
G75*
G02*
X117047500Y-136020000I-147500J0D01*
G01*
X116752500Y-136020000D01*
G75*
G02*
X116605000Y-135872500I0J147500D01*
G01*
X116605000Y-135527500D01*
G75*
G02*
X116752500Y-135380000I147500J0D01*
G01*
X117047500Y-135380000D01*
G75*
G02*
X117195000Y-135527500I0J-147500D01*
G01*
G37*
G36*
G01*
X118165000Y-135527500D02*
X118165000Y-135872500D01*
G75*
G02*
X118017500Y-136020000I-147500J0D01*
G01*
X117722500Y-136020000D01*
G75*
G02*
X117575000Y-135872500I0J147500D01*
G01*
X117575000Y-135527500D01*
G75*
G02*
X117722500Y-135380000I147500J0D01*
G01*
X118017500Y-135380000D01*
G75*
G02*
X118165000Y-135527500I0J-147500D01*
G01*
G37*
G04 #@! TD*
G04 #@! TO.C,R704*
G36*
G01*
X142872500Y-147025000D02*
X142527500Y-147025000D01*
G75*
G02*
X142380000Y-146877500I0J147500D01*
G01*
X142380000Y-146582500D01*
G75*
G02*
X142527500Y-146435000I147500J0D01*
G01*
X142872500Y-146435000D01*
G75*
G02*
X143020000Y-146582500I0J-147500D01*
G01*
X143020000Y-146877500D01*
G75*
G02*
X142872500Y-147025000I-147500J0D01*
G01*
G37*
G36*
G01*
X142872500Y-147995000D02*
X142527500Y-147995000D01*
G75*
G02*
X142380000Y-147847500I0J147500D01*
G01*
X142380000Y-147552500D01*
G75*
G02*
X142527500Y-147405000I147500J0D01*
G01*
X142872500Y-147405000D01*
G75*
G02*
X143020000Y-147552500I0J-147500D01*
G01*
X143020000Y-147847500D01*
G75*
G02*
X142872500Y-147995000I-147500J0D01*
G01*
G37*
G04 #@! TD*
G04 #@! TO.C,R703*
G36*
G01*
X152972500Y-147025000D02*
X152627500Y-147025000D01*
G75*
G02*
X152480000Y-146877500I0J147500D01*
G01*
X152480000Y-146582500D01*
G75*
G02*
X152627500Y-146435000I147500J0D01*
G01*
X152972500Y-146435000D01*
G75*
G02*
X153120000Y-146582500I0J-147500D01*
G01*
X153120000Y-146877500D01*
G75*
G02*
X152972500Y-147025000I-147500J0D01*
G01*
G37*
G36*
G01*
X152972500Y-147995000D02*
X152627500Y-147995000D01*
G75*
G02*
X152480000Y-147847500I0J147500D01*
G01*
X152480000Y-147552500D01*
G75*
G02*
X152627500Y-147405000I147500J0D01*
G01*
X152972500Y-147405000D01*
G75*
G02*
X153120000Y-147552500I0J-147500D01*
G01*
X153120000Y-147847500D01*
G75*
G02*
X152972500Y-147995000I-147500J0D01*
G01*
G37*
G04 #@! TD*
G04 #@! TO.C,R702*
G36*
G01*
X154472500Y-147025000D02*
X154127500Y-147025000D01*
G75*
G02*
X153980000Y-146877500I0J147500D01*
G01*
X153980000Y-146582500D01*
G75*
G02*
X154127500Y-146435000I147500J0D01*
G01*
X154472500Y-146435000D01*
G75*
G02*
X154620000Y-146582500I0J-147500D01*
G01*
X154620000Y-146877500D01*
G75*
G02*
X154472500Y-147025000I-147500J0D01*
G01*
G37*
G36*
G01*
X154472500Y-147995000D02*
X154127500Y-147995000D01*
G75*
G02*
X153980000Y-147847500I0J147500D01*
G01*
X153980000Y-147552500D01*
G75*
G02*
X154127500Y-147405000I147500J0D01*
G01*
X154472500Y-147405000D01*
G75*
G02*
X154620000Y-147552500I0J-147500D01*
G01*
X154620000Y-147847500D01*
G75*
G02*
X154472500Y-147995000I-147500J0D01*
G01*
G37*
G04 #@! TD*
G04 #@! TO.C,R701*
G36*
G01*
X164672500Y-147025000D02*
X164327500Y-147025000D01*
G75*
G02*
X164180000Y-146877500I0J147500D01*
G01*
X164180000Y-146582500D01*
G75*
G02*
X164327500Y-146435000I147500J0D01*
G01*
X164672500Y-146435000D01*
G75*
G02*
X164820000Y-146582500I0J-147500D01*
G01*
X164820000Y-146877500D01*
G75*
G02*
X164672500Y-147025000I-147500J0D01*
G01*
G37*
G36*
G01*
X164672500Y-147995000D02*
X164327500Y-147995000D01*
G75*
G02*
X164180000Y-147847500I0J147500D01*
G01*
X164180000Y-147552500D01*
G75*
G02*
X164327500Y-147405000I147500J0D01*
G01*
X164672500Y-147405000D01*
G75*
G02*
X164820000Y-147552500I0J-147500D01*
G01*
X164820000Y-147847500D01*
G75*
G02*
X164672500Y-147995000I-147500J0D01*
G01*
G37*
G04 #@! TD*
G04 #@! TO.C,R609*
G36*
G01*
X129522500Y-67305000D02*
X129177500Y-67305000D01*
G75*
G02*
X129030000Y-67157500I0J147500D01*
G01*
X129030000Y-66862500D01*
G75*
G02*
X129177500Y-66715000I147500J0D01*
G01*
X129522500Y-66715000D01*
G75*
G02*
X129670000Y-66862500I0J-147500D01*
G01*
X129670000Y-67157500D01*
G75*
G02*
X129522500Y-67305000I-147500J0D01*
G01*
G37*
G36*
G01*
X129522500Y-68275000D02*
X129177500Y-68275000D01*
G75*
G02*
X129030000Y-68127500I0J147500D01*
G01*
X129030000Y-67832500D01*
G75*
G02*
X129177500Y-67685000I147500J0D01*
G01*
X129522500Y-67685000D01*
G75*
G02*
X129670000Y-67832500I0J-147500D01*
G01*
X129670000Y-68127500D01*
G75*
G02*
X129522500Y-68275000I-147500J0D01*
G01*
G37*
G04 #@! TD*
G04 #@! TO.C,R608*
G36*
G01*
X128252500Y-80005000D02*
X127907500Y-80005000D01*
G75*
G02*
X127760000Y-79857500I0J147500D01*
G01*
X127760000Y-79562500D01*
G75*
G02*
X127907500Y-79415000I147500J0D01*
G01*
X128252500Y-79415000D01*
G75*
G02*
X128400000Y-79562500I0J-147500D01*
G01*
X128400000Y-79857500D01*
G75*
G02*
X128252500Y-80005000I-147500J0D01*
G01*
G37*
G36*
G01*
X128252500Y-80975000D02*
X127907500Y-80975000D01*
G75*
G02*
X127760000Y-80827500I0J147500D01*
G01*
X127760000Y-80532500D01*
G75*
G02*
X127907500Y-80385000I147500J0D01*
G01*
X128252500Y-80385000D01*
G75*
G02*
X128400000Y-80532500I0J-147500D01*
G01*
X128400000Y-80827500D01*
G75*
G02*
X128252500Y-80975000I-147500J0D01*
G01*
G37*
G04 #@! TD*
G04 #@! TO.C,R607*
G36*
G01*
X120710000Y-63777500D02*
X120710000Y-64122500D01*
G75*
G02*
X120562500Y-64270000I-147500J0D01*
G01*
X120267500Y-64270000D01*
G75*
G02*
X120120000Y-64122500I0J147500D01*
G01*
X120120000Y-63777500D01*
G75*
G02*
X120267500Y-63630000I147500J0D01*
G01*
X120562500Y-63630000D01*
G75*
G02*
X120710000Y-63777500I0J-147500D01*
G01*
G37*
G36*
G01*
X121680000Y-63777500D02*
X121680000Y-64122500D01*
G75*
G02*
X121532500Y-64270000I-147500J0D01*
G01*
X121237500Y-64270000D01*
G75*
G02*
X121090000Y-64122500I0J147500D01*
G01*
X121090000Y-63777500D01*
G75*
G02*
X121237500Y-63630000I147500J0D01*
G01*
X121532500Y-63630000D01*
G75*
G02*
X121680000Y-63777500I0J-147500D01*
G01*
G37*
G04 #@! TD*
G04 #@! TO.C,R606*
G36*
G01*
X121072500Y-70010000D02*
X120727500Y-70010000D01*
G75*
G02*
X120580000Y-69862500I0J147500D01*
G01*
X120580000Y-69567500D01*
G75*
G02*
X120727500Y-69420000I147500J0D01*
G01*
X121072500Y-69420000D01*
G75*
G02*
X121220000Y-69567500I0J-147500D01*
G01*
X121220000Y-69862500D01*
G75*
G02*
X121072500Y-70010000I-147500J0D01*
G01*
G37*
G36*
G01*
X121072500Y-70980000D02*
X120727500Y-70980000D01*
G75*
G02*
X120580000Y-70832500I0J147500D01*
G01*
X120580000Y-70537500D01*
G75*
G02*
X120727500Y-70390000I147500J0D01*
G01*
X121072500Y-70390000D01*
G75*
G02*
X121220000Y-70537500I0J-147500D01*
G01*
X121220000Y-70832500D01*
G75*
G02*
X121072500Y-70980000I-147500J0D01*
G01*
G37*
G04 #@! TD*
G04 #@! TO.C,R605*
G36*
G01*
X134135000Y-78947500D02*
X134135000Y-78602500D01*
G75*
G02*
X134282500Y-78455000I147500J0D01*
G01*
X134577500Y-78455000D01*
G75*
G02*
X134725000Y-78602500I0J-147500D01*
G01*
X134725000Y-78947500D01*
G75*
G02*
X134577500Y-79095000I-147500J0D01*
G01*
X134282500Y-79095000D01*
G75*
G02*
X134135000Y-78947500I0J147500D01*
G01*
G37*
G36*
G01*
X133165000Y-78947500D02*
X133165000Y-78602500D01*
G75*
G02*
X133312500Y-78455000I147500J0D01*
G01*
X133607500Y-78455000D01*
G75*
G02*
X133755000Y-78602500I0J-147500D01*
G01*
X133755000Y-78947500D01*
G75*
G02*
X133607500Y-79095000I-147500J0D01*
G01*
X133312500Y-79095000D01*
G75*
G02*
X133165000Y-78947500I0J147500D01*
G01*
G37*
G04 #@! TD*
G04 #@! TO.C,R604*
G36*
G01*
X140952500Y-80005000D02*
X140607500Y-80005000D01*
G75*
G02*
X140460000Y-79857500I0J147500D01*
G01*
X140460000Y-79562500D01*
G75*
G02*
X140607500Y-79415000I147500J0D01*
G01*
X140952500Y-79415000D01*
G75*
G02*
X141100000Y-79562500I0J-147500D01*
G01*
X141100000Y-79857500D01*
G75*
G02*
X140952500Y-80005000I-147500J0D01*
G01*
G37*
G36*
G01*
X140952500Y-80975000D02*
X140607500Y-80975000D01*
G75*
G02*
X140460000Y-80827500I0J147500D01*
G01*
X140460000Y-80532500D01*
G75*
G02*
X140607500Y-80385000I147500J0D01*
G01*
X140952500Y-80385000D01*
G75*
G02*
X141100000Y-80532500I0J-147500D01*
G01*
X141100000Y-80827500D01*
G75*
G02*
X140952500Y-80975000I-147500J0D01*
G01*
G37*
G04 #@! TD*
G04 #@! TO.C,R603*
G36*
G01*
X142222500Y-80005000D02*
X141877500Y-80005000D01*
G75*
G02*
X141730000Y-79857500I0J147500D01*
G01*
X141730000Y-79562500D01*
G75*
G02*
X141877500Y-79415000I147500J0D01*
G01*
X142222500Y-79415000D01*
G75*
G02*
X142370000Y-79562500I0J-147500D01*
G01*
X142370000Y-79857500D01*
G75*
G02*
X142222500Y-80005000I-147500J0D01*
G01*
G37*
G36*
G01*
X142222500Y-80975000D02*
X141877500Y-80975000D01*
G75*
G02*
X141730000Y-80827500I0J147500D01*
G01*
X141730000Y-80532500D01*
G75*
G02*
X141877500Y-80385000I147500J0D01*
G01*
X142222500Y-80385000D01*
G75*
G02*
X142370000Y-80532500I0J-147500D01*
G01*
X142370000Y-80827500D01*
G75*
G02*
X142222500Y-80975000I-147500J0D01*
G01*
G37*
G04 #@! TD*
G04 #@! TO.C,R602*
G36*
G01*
X146322500Y-85165000D02*
X146667500Y-85165000D01*
G75*
G02*
X146815000Y-85312500I0J-147500D01*
G01*
X146815000Y-85607500D01*
G75*
G02*
X146667500Y-85755000I-147500J0D01*
G01*
X146322500Y-85755000D01*
G75*
G02*
X146175000Y-85607500I0J147500D01*
G01*
X146175000Y-85312500D01*
G75*
G02*
X146322500Y-85165000I147500J0D01*
G01*
G37*
G36*
G01*
X146322500Y-84195000D02*
X146667500Y-84195000D01*
G75*
G02*
X146815000Y-84342500I0J-147500D01*
G01*
X146815000Y-84637500D01*
G75*
G02*
X146667500Y-84785000I-147500J0D01*
G01*
X146322500Y-84785000D01*
G75*
G02*
X146175000Y-84637500I0J147500D01*
G01*
X146175000Y-84342500D01*
G75*
G02*
X146322500Y-84195000I147500J0D01*
G01*
G37*
G04 #@! TD*
G04 #@! TO.C,R601*
G36*
G01*
X143147500Y-80385000D02*
X143492500Y-80385000D01*
G75*
G02*
X143640000Y-80532500I0J-147500D01*
G01*
X143640000Y-80827500D01*
G75*
G02*
X143492500Y-80975000I-147500J0D01*
G01*
X143147500Y-80975000D01*
G75*
G02*
X143000000Y-80827500I0J147500D01*
G01*
X143000000Y-80532500D01*
G75*
G02*
X143147500Y-80385000I147500J0D01*
G01*
G37*
G36*
G01*
X143147500Y-79415000D02*
X143492500Y-79415000D01*
G75*
G02*
X143640000Y-79562500I0J-147500D01*
G01*
X143640000Y-79857500D01*
G75*
G02*
X143492500Y-80005000I-147500J0D01*
G01*
X143147500Y-80005000D01*
G75*
G02*
X143000000Y-79857500I0J147500D01*
G01*
X143000000Y-79562500D01*
G75*
G02*
X143147500Y-79415000I147500J0D01*
G01*
G37*
G04 #@! TD*
G04 #@! TO.C,R509*
G36*
G01*
X157797500Y-89725001D02*
X158142500Y-89725001D01*
G75*
G02*
X158290000Y-89872501I0J-147500D01*
G01*
X158290000Y-90167501D01*
G75*
G02*
X158142500Y-90315001I-147500J0D01*
G01*
X157797500Y-90315001D01*
G75*
G02*
X157650000Y-90167501I0J147500D01*
G01*
X157650000Y-89872501D01*
G75*
G02*
X157797500Y-89725001I147500J0D01*
G01*
G37*
G36*
G01*
X157797500Y-88755001D02*
X158142500Y-88755001D01*
G75*
G02*
X158290000Y-88902501I0J-147500D01*
G01*
X158290000Y-89197501D01*
G75*
G02*
X158142500Y-89345001I-147500J0D01*
G01*
X157797500Y-89345001D01*
G75*
G02*
X157650000Y-89197501I0J147500D01*
G01*
X157650000Y-88902501D01*
G75*
G02*
X157797500Y-88755001I147500J0D01*
G01*
G37*
G04 #@! TD*
G04 #@! TO.C,R508*
G36*
G01*
X159067500Y-77025001D02*
X159412500Y-77025001D01*
G75*
G02*
X159560000Y-77172501I0J-147500D01*
G01*
X159560000Y-77467501D01*
G75*
G02*
X159412500Y-77615001I-147500J0D01*
G01*
X159067500Y-77615001D01*
G75*
G02*
X158920000Y-77467501I0J147500D01*
G01*
X158920000Y-77172501D01*
G75*
G02*
X159067500Y-77025001I147500J0D01*
G01*
G37*
G36*
G01*
X159067500Y-76055001D02*
X159412500Y-76055001D01*
G75*
G02*
X159560000Y-76202501I0J-147500D01*
G01*
X159560000Y-76497501D01*
G75*
G02*
X159412500Y-76645001I-147500J0D01*
G01*
X159067500Y-76645001D01*
G75*
G02*
X158920000Y-76497501I0J147500D01*
G01*
X158920000Y-76202501D01*
G75*
G02*
X159067500Y-76055001I147500J0D01*
G01*
G37*
G04 #@! TD*
G04 #@! TO.C,R507*
G36*
G01*
X166610000Y-93252501D02*
X166610000Y-92907501D01*
G75*
G02*
X166757500Y-92760001I147500J0D01*
G01*
X167052500Y-92760001D01*
G75*
G02*
X167200000Y-92907501I0J-147500D01*
G01*
X167200000Y-93252501D01*
G75*
G02*
X167052500Y-93400001I-147500J0D01*
G01*
X166757500Y-93400001D01*
G75*
G02*
X166610000Y-93252501I0J147500D01*
G01*
G37*
G36*
G01*
X165640000Y-93252501D02*
X165640000Y-92907501D01*
G75*
G02*
X165787500Y-92760001I147500J0D01*
G01*
X166082500Y-92760001D01*
G75*
G02*
X166230000Y-92907501I0J-147500D01*
G01*
X166230000Y-93252501D01*
G75*
G02*
X166082500Y-93400001I-147500J0D01*
G01*
X165787500Y-93400001D01*
G75*
G02*
X165640000Y-93252501I0J147500D01*
G01*
G37*
G04 #@! TD*
G04 #@! TO.C,R506*
G36*
G01*
X166247500Y-87020001D02*
X166592500Y-87020001D01*
G75*
G02*
X166740000Y-87167501I0J-147500D01*
G01*
X166740000Y-87462501D01*
G75*
G02*
X166592500Y-87610001I-147500J0D01*
G01*
X166247500Y-87610001D01*
G75*
G02*
X166100000Y-87462501I0J147500D01*
G01*
X166100000Y-87167501D01*
G75*
G02*
X166247500Y-87020001I147500J0D01*
G01*
G37*
G36*
G01*
X166247500Y-86050001D02*
X166592500Y-86050001D01*
G75*
G02*
X166740000Y-86197501I0J-147500D01*
G01*
X166740000Y-86492501D01*
G75*
G02*
X166592500Y-86640001I-147500J0D01*
G01*
X166247500Y-86640001D01*
G75*
G02*
X166100000Y-86492501I0J147500D01*
G01*
X166100000Y-86197501D01*
G75*
G02*
X166247500Y-86050001I147500J0D01*
G01*
G37*
G04 #@! TD*
G04 #@! TO.C,R505*
G36*
G01*
X153185000Y-78082501D02*
X153185000Y-78427501D01*
G75*
G02*
X153037500Y-78575001I-147500J0D01*
G01*
X152742500Y-78575001D01*
G75*
G02*
X152595000Y-78427501I0J147500D01*
G01*
X152595000Y-78082501D01*
G75*
G02*
X152742500Y-77935001I147500J0D01*
G01*
X153037500Y-77935001D01*
G75*
G02*
X153185000Y-78082501I0J-147500D01*
G01*
G37*
G36*
G01*
X154155000Y-78082501D02*
X154155000Y-78427501D01*
G75*
G02*
X154007500Y-78575001I-147500J0D01*
G01*
X153712500Y-78575001D01*
G75*
G02*
X153565000Y-78427501I0J147500D01*
G01*
X153565000Y-78082501D01*
G75*
G02*
X153712500Y-77935001I147500J0D01*
G01*
X154007500Y-77935001D01*
G75*
G02*
X154155000Y-78082501I0J-147500D01*
G01*
G37*
G04 #@! TD*
G04 #@! TO.C,R504*
G36*
G01*
X146367500Y-77025001D02*
X146712500Y-77025001D01*
G75*
G02*
X146860000Y-77172501I0J-147500D01*
G01*
X146860000Y-77467501D01*
G75*
G02*
X146712500Y-77615001I-147500J0D01*
G01*
X146367500Y-77615001D01*
G75*
G02*
X146220000Y-77467501I0J147500D01*
G01*
X146220000Y-77172501D01*
G75*
G02*
X146367500Y-77025001I147500J0D01*
G01*
G37*
G36*
G01*
X146367500Y-76055001D02*
X146712500Y-76055001D01*
G75*
G02*
X146860000Y-76202501I0J-147500D01*
G01*
X146860000Y-76497501D01*
G75*
G02*
X146712500Y-76645001I-147500J0D01*
G01*
X146367500Y-76645001D01*
G75*
G02*
X146220000Y-76497501I0J147500D01*
G01*
X146220000Y-76202501D01*
G75*
G02*
X146367500Y-76055001I147500J0D01*
G01*
G37*
G04 #@! TD*
G04 #@! TO.C,R503*
G36*
G01*
X145097500Y-77025001D02*
X145442500Y-77025001D01*
G75*
G02*
X145590000Y-77172501I0J-147500D01*
G01*
X145590000Y-77467501D01*
G75*
G02*
X145442500Y-77615001I-147500J0D01*
G01*
X145097500Y-77615001D01*
G75*
G02*
X144950000Y-77467501I0J147500D01*
G01*
X144950000Y-77172501D01*
G75*
G02*
X145097500Y-77025001I147500J0D01*
G01*
G37*
G36*
G01*
X145097500Y-76055001D02*
X145442500Y-76055001D01*
G75*
G02*
X145590000Y-76202501I0J-147500D01*
G01*
X145590000Y-76497501D01*
G75*
G02*
X145442500Y-76645001I-147500J0D01*
G01*
X145097500Y-76645001D01*
G75*
G02*
X144950000Y-76497501I0J147500D01*
G01*
X144950000Y-76202501D01*
G75*
G02*
X145097500Y-76055001I147500J0D01*
G01*
G37*
G04 #@! TD*
G04 #@! TO.C,R502*
G36*
G01*
X140997500Y-71865001D02*
X140652500Y-71865001D01*
G75*
G02*
X140505000Y-71717501I0J147500D01*
G01*
X140505000Y-71422501D01*
G75*
G02*
X140652500Y-71275001I147500J0D01*
G01*
X140997500Y-71275001D01*
G75*
G02*
X141145000Y-71422501I0J-147500D01*
G01*
X141145000Y-71717501D01*
G75*
G02*
X140997500Y-71865001I-147500J0D01*
G01*
G37*
G36*
G01*
X140997500Y-72835001D02*
X140652500Y-72835001D01*
G75*
G02*
X140505000Y-72687501I0J147500D01*
G01*
X140505000Y-72392501D01*
G75*
G02*
X140652500Y-72245001I147500J0D01*
G01*
X140997500Y-72245001D01*
G75*
G02*
X141145000Y-72392501I0J-147500D01*
G01*
X141145000Y-72687501D01*
G75*
G02*
X140997500Y-72835001I-147500J0D01*
G01*
G37*
G04 #@! TD*
G04 #@! TO.C,R501*
G36*
G01*
X144172500Y-76645001D02*
X143827500Y-76645001D01*
G75*
G02*
X143680000Y-76497501I0J147500D01*
G01*
X143680000Y-76202501D01*
G75*
G02*
X143827500Y-76055001I147500J0D01*
G01*
X144172500Y-76055001D01*
G75*
G02*
X144320000Y-76202501I0J-147500D01*
G01*
X144320000Y-76497501D01*
G75*
G02*
X144172500Y-76645001I-147500J0D01*
G01*
G37*
G36*
G01*
X144172500Y-77615001D02*
X143827500Y-77615001D01*
G75*
G02*
X143680000Y-77467501I0J147500D01*
G01*
X143680000Y-77172501D01*
G75*
G02*
X143827500Y-77025001I147500J0D01*
G01*
X144172500Y-77025001D01*
G75*
G02*
X144320000Y-77172501I0J-147500D01*
G01*
X144320000Y-77467501D01*
G75*
G02*
X144172500Y-77615001I-147500J0D01*
G01*
G37*
G04 #@! TD*
G04 #@! TO.C,R404*
G36*
G01*
X192627500Y-98075000D02*
X192972500Y-98075000D01*
G75*
G02*
X193120000Y-98222500I0J-147500D01*
G01*
X193120000Y-98517500D01*
G75*
G02*
X192972500Y-98665000I-147500J0D01*
G01*
X192627500Y-98665000D01*
G75*
G02*
X192480000Y-98517500I0J147500D01*
G01*
X192480000Y-98222500D01*
G75*
G02*
X192627500Y-98075000I147500J0D01*
G01*
G37*
G36*
G01*
X192627500Y-97105000D02*
X192972500Y-97105000D01*
G75*
G02*
X193120000Y-97252500I0J-147500D01*
G01*
X193120000Y-97547500D01*
G75*
G02*
X192972500Y-97695000I-147500J0D01*
G01*
X192627500Y-97695000D01*
G75*
G02*
X192480000Y-97547500I0J147500D01*
G01*
X192480000Y-97252500D01*
G75*
G02*
X192627500Y-97105000I147500J0D01*
G01*
G37*
G04 #@! TD*
G04 #@! TO.C,R403*
G36*
G01*
X192627500Y-95790000D02*
X192972500Y-95790000D01*
G75*
G02*
X193120000Y-95937500I0J-147500D01*
G01*
X193120000Y-96232500D01*
G75*
G02*
X192972500Y-96380000I-147500J0D01*
G01*
X192627500Y-96380000D01*
G75*
G02*
X192480000Y-96232500I0J147500D01*
G01*
X192480000Y-95937500D01*
G75*
G02*
X192627500Y-95790000I147500J0D01*
G01*
G37*
G36*
G01*
X192627500Y-94820000D02*
X192972500Y-94820000D01*
G75*
G02*
X193120000Y-94967500I0J-147500D01*
G01*
X193120000Y-95262500D01*
G75*
G02*
X192972500Y-95410000I-147500J0D01*
G01*
X192627500Y-95410000D01*
G75*
G02*
X192480000Y-95262500I0J147500D01*
G01*
X192480000Y-94967500D01*
G75*
G02*
X192627500Y-94820000I147500J0D01*
G01*
G37*
G04 #@! TD*
G04 #@! TO.C,R402*
G36*
G01*
X189127500Y-102675000D02*
X189472500Y-102675000D01*
G75*
G02*
X189620000Y-102822500I0J-147500D01*
G01*
X189620000Y-103117500D01*
G75*
G02*
X189472500Y-103265000I-147500J0D01*
G01*
X189127500Y-103265000D01*
G75*
G02*
X188980000Y-103117500I0J147500D01*
G01*
X188980000Y-102822500D01*
G75*
G02*
X189127500Y-102675000I147500J0D01*
G01*
G37*
G36*
G01*
X189127500Y-101705000D02*
X189472500Y-101705000D01*
G75*
G02*
X189620000Y-101852500I0J-147500D01*
G01*
X189620000Y-102147500D01*
G75*
G02*
X189472500Y-102295000I-147500J0D01*
G01*
X189127500Y-102295000D01*
G75*
G02*
X188980000Y-102147500I0J147500D01*
G01*
X188980000Y-101852500D01*
G75*
G02*
X189127500Y-101705000I147500J0D01*
G01*
G37*
G04 #@! TD*
G04 #@! TO.C,R401*
G36*
G01*
X189472500Y-95325000D02*
X189127500Y-95325000D01*
G75*
G02*
X188980000Y-95177500I0J147500D01*
G01*
X188980000Y-94882500D01*
G75*
G02*
X189127500Y-94735000I147500J0D01*
G01*
X189472500Y-94735000D01*
G75*
G02*
X189620000Y-94882500I0J-147500D01*
G01*
X189620000Y-95177500D01*
G75*
G02*
X189472500Y-95325000I-147500J0D01*
G01*
G37*
G36*
G01*
X189472500Y-96295000D02*
X189127500Y-96295000D01*
G75*
G02*
X188980000Y-96147500I0J147500D01*
G01*
X188980000Y-95852500D01*
G75*
G02*
X189127500Y-95705000I147500J0D01*
G01*
X189472500Y-95705000D01*
G75*
G02*
X189620000Y-95852500I0J-147500D01*
G01*
X189620000Y-96147500D01*
G75*
G02*
X189472500Y-96295000I-147500J0D01*
G01*
G37*
G04 #@! TD*
G04 #@! TO.C,R304*
G36*
G01*
X107656250Y-61050000D02*
X107143750Y-61050000D01*
G75*
G02*
X106925000Y-60831250I0J218750D01*
G01*
X106925000Y-60393750D01*
G75*
G02*
X107143750Y-60175000I218750J0D01*
G01*
X107656250Y-60175000D01*
G75*
G02*
X107875000Y-60393750I0J-218750D01*
G01*
X107875000Y-60831250D01*
G75*
G02*
X107656250Y-61050000I-218750J0D01*
G01*
G37*
G36*
G01*
X107656250Y-62625000D02*
X107143750Y-62625000D01*
G75*
G02*
X106925000Y-62406250I0J218750D01*
G01*
X106925000Y-61968750D01*
G75*
G02*
X107143750Y-61750000I218750J0D01*
G01*
X107656250Y-61750000D01*
G75*
G02*
X107875000Y-61968750I0J-218750D01*
G01*
X107875000Y-62406250D01*
G75*
G02*
X107656250Y-62625000I-218750J0D01*
G01*
G37*
G04 #@! TD*
G04 #@! TO.C,R303*
G36*
G01*
X107656250Y-64262500D02*
X107143750Y-64262500D01*
G75*
G02*
X106925000Y-64043750I0J218750D01*
G01*
X106925000Y-63606250D01*
G75*
G02*
X107143750Y-63387500I218750J0D01*
G01*
X107656250Y-63387500D01*
G75*
G02*
X107875000Y-63606250I0J-218750D01*
G01*
X107875000Y-64043750D01*
G75*
G02*
X107656250Y-64262500I-218750J0D01*
G01*
G37*
G36*
G01*
X107656250Y-65837500D02*
X107143750Y-65837500D01*
G75*
G02*
X106925000Y-65618750I0J218750D01*
G01*
X106925000Y-65181250D01*
G75*
G02*
X107143750Y-64962500I218750J0D01*
G01*
X107656250Y-64962500D01*
G75*
G02*
X107875000Y-65181250I0J-218750D01*
G01*
X107875000Y-65618750D01*
G75*
G02*
X107656250Y-65837500I-218750J0D01*
G01*
G37*
G04 #@! TD*
G04 #@! TO.C,R302*
G36*
G01*
X105356250Y-67150000D02*
X104843750Y-67150000D01*
G75*
G02*
X104625000Y-66931250I0J218750D01*
G01*
X104625000Y-66493750D01*
G75*
G02*
X104843750Y-66275000I218750J0D01*
G01*
X105356250Y-66275000D01*
G75*
G02*
X105575000Y-66493750I0J-218750D01*
G01*
X105575000Y-66931250D01*
G75*
G02*
X105356250Y-67150000I-218750J0D01*
G01*
G37*
G36*
G01*
X105356250Y-68725000D02*
X104843750Y-68725000D01*
G75*
G02*
X104625000Y-68506250I0J218750D01*
G01*
X104625000Y-68068750D01*
G75*
G02*
X104843750Y-67850000I218750J0D01*
G01*
X105356250Y-67850000D01*
G75*
G02*
X105575000Y-68068750I0J-218750D01*
G01*
X105575000Y-68506250D01*
G75*
G02*
X105356250Y-68725000I-218750J0D01*
G01*
G37*
G04 #@! TD*
G04 #@! TO.C,R301*
G36*
G01*
X105272500Y-64725000D02*
X104927500Y-64725000D01*
G75*
G02*
X104780000Y-64577500I0J147500D01*
G01*
X104780000Y-64282500D01*
G75*
G02*
X104927500Y-64135000I147500J0D01*
G01*
X105272500Y-64135000D01*
G75*
G02*
X105420000Y-64282500I0J-147500D01*
G01*
X105420000Y-64577500D01*
G75*
G02*
X105272500Y-64725000I-147500J0D01*
G01*
G37*
G36*
G01*
X105272500Y-65695000D02*
X104927500Y-65695000D01*
G75*
G02*
X104780000Y-65547500I0J147500D01*
G01*
X104780000Y-65252500D01*
G75*
G02*
X104927500Y-65105000I147500J0D01*
G01*
X105272500Y-65105000D01*
G75*
G02*
X105420000Y-65252500I0J-147500D01*
G01*
X105420000Y-65547500D01*
G75*
G02*
X105272500Y-65695000I-147500J0D01*
G01*
G37*
G04 #@! TD*
G04 #@! TO.C,R208*
G36*
G01*
X112772500Y-72910000D02*
X112427500Y-72910000D01*
G75*
G02*
X112280000Y-72762500I0J147500D01*
G01*
X112280000Y-72467500D01*
G75*
G02*
X112427500Y-72320000I147500J0D01*
G01*
X112772500Y-72320000D01*
G75*
G02*
X112920000Y-72467500I0J-147500D01*
G01*
X112920000Y-72762500D01*
G75*
G02*
X112772500Y-72910000I-147500J0D01*
G01*
G37*
G36*
G01*
X112772500Y-73880000D02*
X112427500Y-73880000D01*
G75*
G02*
X112280000Y-73732500I0J147500D01*
G01*
X112280000Y-73437500D01*
G75*
G02*
X112427500Y-73290000I147500J0D01*
G01*
X112772500Y-73290000D01*
G75*
G02*
X112920000Y-73437500I0J-147500D01*
G01*
X112920000Y-73732500D01*
G75*
G02*
X112772500Y-73880000I-147500J0D01*
G01*
G37*
G04 #@! TD*
G04 #@! TO.C,R207*
G36*
G01*
X110072500Y-73695000D02*
X109727500Y-73695000D01*
G75*
G02*
X109580000Y-73547500I0J147500D01*
G01*
X109580000Y-73252500D01*
G75*
G02*
X109727500Y-73105000I147500J0D01*
G01*
X110072500Y-73105000D01*
G75*
G02*
X110220000Y-73252500I0J-147500D01*
G01*
X110220000Y-73547500D01*
G75*
G02*
X110072500Y-73695000I-147500J0D01*
G01*
G37*
G36*
G01*
X110072500Y-74665000D02*
X109727500Y-74665000D01*
G75*
G02*
X109580000Y-74517500I0J147500D01*
G01*
X109580000Y-74222500D01*
G75*
G02*
X109727500Y-74075000I147500J0D01*
G01*
X110072500Y-74075000D01*
G75*
G02*
X110220000Y-74222500I0J-147500D01*
G01*
X110220000Y-74517500D01*
G75*
G02*
X110072500Y-74665000I-147500J0D01*
G01*
G37*
G04 #@! TD*
G04 #@! TO.C,R206*
G36*
G01*
X110057500Y-75795000D02*
X109712500Y-75795000D01*
G75*
G02*
X109565000Y-75647500I0J147500D01*
G01*
X109565000Y-75352500D01*
G75*
G02*
X109712500Y-75205000I147500J0D01*
G01*
X110057500Y-75205000D01*
G75*
G02*
X110205000Y-75352500I0J-147500D01*
G01*
X110205000Y-75647500D01*
G75*
G02*
X110057500Y-75795000I-147500J0D01*
G01*
G37*
G36*
G01*
X110057500Y-76765000D02*
X109712500Y-76765000D01*
G75*
G02*
X109565000Y-76617500I0J147500D01*
G01*
X109565000Y-76322500D01*
G75*
G02*
X109712500Y-76175000I147500J0D01*
G01*
X110057500Y-76175000D01*
G75*
G02*
X110205000Y-76322500I0J-147500D01*
G01*
X110205000Y-76617500D01*
G75*
G02*
X110057500Y-76765000I-147500J0D01*
G01*
G37*
G04 #@! TD*
G04 #@! TO.C,R205*
G36*
G01*
X117172500Y-72895000D02*
X116827500Y-72895000D01*
G75*
G02*
X116680000Y-72747500I0J147500D01*
G01*
X116680000Y-72452500D01*
G75*
G02*
X116827500Y-72305000I147500J0D01*
G01*
X117172500Y-72305000D01*
G75*
G02*
X117320000Y-72452500I0J-147500D01*
G01*
X117320000Y-72747500D01*
G75*
G02*
X117172500Y-72895000I-147500J0D01*
G01*
G37*
G36*
G01*
X117172500Y-73865000D02*
X116827500Y-73865000D01*
G75*
G02*
X116680000Y-73717500I0J147500D01*
G01*
X116680000Y-73422500D01*
G75*
G02*
X116827500Y-73275000I147500J0D01*
G01*
X117172500Y-73275000D01*
G75*
G02*
X117320000Y-73422500I0J-147500D01*
G01*
X117320000Y-73717500D01*
G75*
G02*
X117172500Y-73865000I-147500J0D01*
G01*
G37*
G04 #@! TD*
G04 #@! TO.C,R204*
G36*
G01*
X117172500Y-70795000D02*
X116827500Y-70795000D01*
G75*
G02*
X116680000Y-70647500I0J147500D01*
G01*
X116680000Y-70352500D01*
G75*
G02*
X116827500Y-70205000I147500J0D01*
G01*
X117172500Y-70205000D01*
G75*
G02*
X117320000Y-70352500I0J-147500D01*
G01*
X117320000Y-70647500D01*
G75*
G02*
X117172500Y-70795000I-147500J0D01*
G01*
G37*
G36*
G01*
X117172500Y-71765000D02*
X116827500Y-71765000D01*
G75*
G02*
X116680000Y-71617500I0J147500D01*
G01*
X116680000Y-71322500D01*
G75*
G02*
X116827500Y-71175000I147500J0D01*
G01*
X117172500Y-71175000D01*
G75*
G02*
X117320000Y-71322500I0J-147500D01*
G01*
X117320000Y-71617500D01*
G75*
G02*
X117172500Y-71765000I-147500J0D01*
G01*
G37*
G04 #@! TD*
G04 #@! TO.C,R203*
G36*
G01*
X112772500Y-70795000D02*
X112427500Y-70795000D01*
G75*
G02*
X112280000Y-70647500I0J147500D01*
G01*
X112280000Y-70352500D01*
G75*
G02*
X112427500Y-70205000I147500J0D01*
G01*
X112772500Y-70205000D01*
G75*
G02*
X112920000Y-70352500I0J-147500D01*
G01*
X112920000Y-70647500D01*
G75*
G02*
X112772500Y-70795000I-147500J0D01*
G01*
G37*
G36*
G01*
X112772500Y-71765000D02*
X112427500Y-71765000D01*
G75*
G02*
X112280000Y-71617500I0J147500D01*
G01*
X112280000Y-71322500D01*
G75*
G02*
X112427500Y-71175000I147500J0D01*
G01*
X112772500Y-71175000D01*
G75*
G02*
X112920000Y-71322500I0J-147500D01*
G01*
X112920000Y-71617500D01*
G75*
G02*
X112772500Y-71765000I-147500J0D01*
G01*
G37*
G04 #@! TD*
G04 #@! TO.C,R202*
G36*
G01*
X112305000Y-78772500D02*
X112305000Y-78427500D01*
G75*
G02*
X112452500Y-78280000I147500J0D01*
G01*
X112747500Y-78280000D01*
G75*
G02*
X112895000Y-78427500I0J-147500D01*
G01*
X112895000Y-78772500D01*
G75*
G02*
X112747500Y-78920000I-147500J0D01*
G01*
X112452500Y-78920000D01*
G75*
G02*
X112305000Y-78772500I0J147500D01*
G01*
G37*
G36*
G01*
X111335000Y-78772500D02*
X111335000Y-78427500D01*
G75*
G02*
X111482500Y-78280000I147500J0D01*
G01*
X111777500Y-78280000D01*
G75*
G02*
X111925000Y-78427500I0J-147500D01*
G01*
X111925000Y-78772500D01*
G75*
G02*
X111777500Y-78920000I-147500J0D01*
G01*
X111482500Y-78920000D01*
G75*
G02*
X111335000Y-78772500I0J147500D01*
G01*
G37*
G04 #@! TD*
G04 #@! TO.C,R201*
G36*
G01*
X110156250Y-70937500D02*
X109643750Y-70937500D01*
G75*
G02*
X109425000Y-70718750I0J218750D01*
G01*
X109425000Y-70281250D01*
G75*
G02*
X109643750Y-70062500I218750J0D01*
G01*
X110156250Y-70062500D01*
G75*
G02*
X110375000Y-70281250I0J-218750D01*
G01*
X110375000Y-70718750D01*
G75*
G02*
X110156250Y-70937500I-218750J0D01*
G01*
G37*
G36*
G01*
X110156250Y-72512500D02*
X109643750Y-72512500D01*
G75*
G02*
X109425000Y-72293750I0J218750D01*
G01*
X109425000Y-71856250D01*
G75*
G02*
X109643750Y-71637500I218750J0D01*
G01*
X110156250Y-71637500D01*
G75*
G02*
X110375000Y-71856250I0J-218750D01*
G01*
X110375000Y-72293750D01*
G75*
G02*
X110156250Y-72512500I-218750J0D01*
G01*
G37*
G04 #@! TD*
D10*
G04 #@! TO.C,Q802*
X173700000Y-78900000D03*
X171700000Y-79850000D03*
X171700000Y-77950000D03*
G04 #@! TD*
G04 #@! TO.C,Q801*
X168600000Y-78400000D03*
X166600000Y-79350000D03*
X166600000Y-77450000D03*
G04 #@! TD*
G04 #@! TO.C,Q602*
X124400000Y-70200000D03*
X122400000Y-71150000D03*
X122400000Y-69250000D03*
G04 #@! TD*
D18*
G04 #@! TO.C,Q601*
X120900000Y-67450000D03*
X119950000Y-65450000D03*
X121850000Y-65450000D03*
G04 #@! TD*
D10*
G04 #@! TO.C,Q502*
X162920000Y-86830001D03*
X164920000Y-85880001D03*
X164920000Y-87780001D03*
G04 #@! TD*
D18*
G04 #@! TO.C,Q501*
X166420000Y-89580001D03*
X167370000Y-91580001D03*
X165470000Y-91580001D03*
G04 #@! TD*
G04 #@! TO.C,Q402*
X191850000Y-104000000D03*
X190900000Y-102000000D03*
X192800000Y-102000000D03*
G04 #@! TD*
G04 #@! TO.C,Q401*
X190250000Y-99400000D03*
X189300000Y-97400000D03*
X191200000Y-97400000D03*
G04 #@! TD*
D10*
G04 #@! TO.C,Q201*
X114600000Y-76150000D03*
X112600000Y-77100000D03*
X112600000Y-75200000D03*
G04 #@! TD*
D19*
G04 #@! TO.C,J901*
X106050000Y-109100000D03*
X106050000Y-109750000D03*
X106050000Y-110400000D03*
X106050000Y-111050000D03*
X106050000Y-111700000D03*
D20*
X103200000Y-106650000D03*
X103200000Y-114150000D03*
D21*
X103200000Y-109250000D03*
X103200000Y-111550000D03*
G04 #@! TD*
G04 #@! TO.C,FB1001*
G36*
G01*
X173787500Y-127956250D02*
X173787500Y-127043750D01*
G75*
G02*
X174031250Y-126800000I243750J0D01*
G01*
X174518750Y-126800000D01*
G75*
G02*
X174762500Y-127043750I0J-243750D01*
G01*
X174762500Y-127956250D01*
G75*
G02*
X174518750Y-128200000I-243750J0D01*
G01*
X174031250Y-128200000D01*
G75*
G02*
X173787500Y-127956250I0J243750D01*
G01*
G37*
G36*
G01*
X171912500Y-127956250D02*
X171912500Y-127043750D01*
G75*
G02*
X172156250Y-126800000I243750J0D01*
G01*
X172643750Y-126800000D01*
G75*
G02*
X172887500Y-127043750I0J-243750D01*
G01*
X172887500Y-127956250D01*
G75*
G02*
X172643750Y-128200000I-243750J0D01*
G01*
X172156250Y-128200000D01*
G75*
G02*
X171912500Y-127956250I0J243750D01*
G01*
G37*
G04 #@! TD*
G04 #@! TO.C,FB701*
G36*
G01*
X138987500Y-147756250D02*
X138987500Y-146843750D01*
G75*
G02*
X139231250Y-146600000I243750J0D01*
G01*
X139718750Y-146600000D01*
G75*
G02*
X139962500Y-146843750I0J-243750D01*
G01*
X139962500Y-147756250D01*
G75*
G02*
X139718750Y-148000000I-243750J0D01*
G01*
X139231250Y-148000000D01*
G75*
G02*
X138987500Y-147756250I0J243750D01*
G01*
G37*
G36*
G01*
X137112500Y-147756250D02*
X137112500Y-146843750D01*
G75*
G02*
X137356250Y-146600000I243750J0D01*
G01*
X137843750Y-146600000D01*
G75*
G02*
X138087500Y-146843750I0J-243750D01*
G01*
X138087500Y-147756250D01*
G75*
G02*
X137843750Y-148000000I-243750J0D01*
G01*
X137356250Y-148000000D01*
G75*
G02*
X137112500Y-147756250I0J243750D01*
G01*
G37*
G04 #@! TD*
G04 #@! TO.C,D1003*
G36*
G01*
X164850000Y-115956250D02*
X164850000Y-115443750D01*
G75*
G02*
X165068750Y-115225000I218750J0D01*
G01*
X165506250Y-115225000D01*
G75*
G02*
X165725000Y-115443750I0J-218750D01*
G01*
X165725000Y-115956250D01*
G75*
G02*
X165506250Y-116175000I-218750J0D01*
G01*
X165068750Y-116175000D01*
G75*
G02*
X164850000Y-115956250I0J218750D01*
G01*
G37*
G36*
G01*
X163275000Y-115956250D02*
X163275000Y-115443750D01*
G75*
G02*
X163493750Y-115225000I218750J0D01*
G01*
X163931250Y-115225000D01*
G75*
G02*
X164150000Y-115443750I0J-218750D01*
G01*
X164150000Y-115956250D01*
G75*
G02*
X163931250Y-116175000I-218750J0D01*
G01*
X163493750Y-116175000D01*
G75*
G02*
X163275000Y-115956250I0J218750D01*
G01*
G37*
G04 #@! TD*
G04 #@! TO.C,D1002*
G36*
G01*
X164837500Y-113156250D02*
X164837500Y-112643750D01*
G75*
G02*
X165056250Y-112425000I218750J0D01*
G01*
X165493750Y-112425000D01*
G75*
G02*
X165712500Y-112643750I0J-218750D01*
G01*
X165712500Y-113156250D01*
G75*
G02*
X165493750Y-113375000I-218750J0D01*
G01*
X165056250Y-113375000D01*
G75*
G02*
X164837500Y-113156250I0J218750D01*
G01*
G37*
G36*
G01*
X163262500Y-113156250D02*
X163262500Y-112643750D01*
G75*
G02*
X163481250Y-112425000I218750J0D01*
G01*
X163918750Y-112425000D01*
G75*
G02*
X164137500Y-112643750I0J-218750D01*
G01*
X164137500Y-113156250D01*
G75*
G02*
X163918750Y-113375000I-218750J0D01*
G01*
X163481250Y-113375000D01*
G75*
G02*
X163262500Y-113156250I0J218750D01*
G01*
G37*
G04 #@! TD*
G04 #@! TO.C,D1001*
G36*
G01*
X164837500Y-110356250D02*
X164837500Y-109843750D01*
G75*
G02*
X165056250Y-109625000I218750J0D01*
G01*
X165493750Y-109625000D01*
G75*
G02*
X165712500Y-109843750I0J-218750D01*
G01*
X165712500Y-110356250D01*
G75*
G02*
X165493750Y-110575000I-218750J0D01*
G01*
X165056250Y-110575000D01*
G75*
G02*
X164837500Y-110356250I0J218750D01*
G01*
G37*
G36*
G01*
X163262500Y-110356250D02*
X163262500Y-109843750D01*
G75*
G02*
X163481250Y-109625000I218750J0D01*
G01*
X163918750Y-109625000D01*
G75*
G02*
X164137500Y-109843750I0J-218750D01*
G01*
X164137500Y-110356250D01*
G75*
G02*
X163918750Y-110575000I-218750J0D01*
G01*
X163481250Y-110575000D01*
G75*
G02*
X163262500Y-110356250I0J218750D01*
G01*
G37*
G04 #@! TD*
D22*
G04 #@! TO.C,D902*
X111950000Y-108100000D03*
X108650000Y-108100000D03*
G04 #@! TD*
G04 #@! TO.C,D901*
G36*
G01*
X110087500Y-106156250D02*
X110087500Y-105243750D01*
G75*
G02*
X110331250Y-105000000I243750J0D01*
G01*
X110818750Y-105000000D01*
G75*
G02*
X111062500Y-105243750I0J-243750D01*
G01*
X111062500Y-106156250D01*
G75*
G02*
X110818750Y-106400000I-243750J0D01*
G01*
X110331250Y-106400000D01*
G75*
G02*
X110087500Y-106156250I0J243750D01*
G01*
G37*
G36*
G01*
X108212500Y-106156250D02*
X108212500Y-105243750D01*
G75*
G02*
X108456250Y-105000000I243750J0D01*
G01*
X108943750Y-105000000D01*
G75*
G02*
X109187500Y-105243750I0J-243750D01*
G01*
X109187500Y-106156250D01*
G75*
G02*
X108943750Y-106400000I-243750J0D01*
G01*
X108456250Y-106400000D01*
G75*
G02*
X108212500Y-106156250I0J243750D01*
G01*
G37*
G04 #@! TD*
G04 #@! TO.C,D803*
G36*
G01*
X170543750Y-87550000D02*
X171456250Y-87550000D01*
G75*
G02*
X171700000Y-87793750I0J-243750D01*
G01*
X171700000Y-88281250D01*
G75*
G02*
X171456250Y-88525000I-243750J0D01*
G01*
X170543750Y-88525000D01*
G75*
G02*
X170300000Y-88281250I0J243750D01*
G01*
X170300000Y-87793750D01*
G75*
G02*
X170543750Y-87550000I243750J0D01*
G01*
G37*
G36*
G01*
X170543750Y-85675000D02*
X171456250Y-85675000D01*
G75*
G02*
X171700000Y-85918750I0J-243750D01*
G01*
X171700000Y-86406250D01*
G75*
G02*
X171456250Y-86650000I-243750J0D01*
G01*
X170543750Y-86650000D01*
G75*
G02*
X170300000Y-86406250I0J243750D01*
G01*
X170300000Y-85918750D01*
G75*
G02*
X170543750Y-85675000I243750J0D01*
G01*
G37*
G04 #@! TD*
G04 #@! TO.C,D802*
G36*
G01*
X170543750Y-91112500D02*
X171456250Y-91112500D01*
G75*
G02*
X171700000Y-91356250I0J-243750D01*
G01*
X171700000Y-91843750D01*
G75*
G02*
X171456250Y-92087500I-243750J0D01*
G01*
X170543750Y-92087500D01*
G75*
G02*
X170300000Y-91843750I0J243750D01*
G01*
X170300000Y-91356250D01*
G75*
G02*
X170543750Y-91112500I243750J0D01*
G01*
G37*
G36*
G01*
X170543750Y-89237500D02*
X171456250Y-89237500D01*
G75*
G02*
X171700000Y-89481250I0J-243750D01*
G01*
X171700000Y-89968750D01*
G75*
G02*
X171456250Y-90212500I-243750J0D01*
G01*
X170543750Y-90212500D01*
G75*
G02*
X170300000Y-89968750I0J243750D01*
G01*
X170300000Y-89481250D01*
G75*
G02*
X170543750Y-89237500I243750J0D01*
G01*
G37*
G04 #@! TD*
D23*
G04 #@! TO.C,D801*
X195100000Y-86750000D03*
X195100000Y-83450000D03*
G04 #@! TD*
G04 #@! TO.C,D705*
G36*
G01*
X106512500Y-120156250D02*
X106512500Y-119243750D01*
G75*
G02*
X106756250Y-119000000I243750J0D01*
G01*
X107243750Y-119000000D01*
G75*
G02*
X107487500Y-119243750I0J-243750D01*
G01*
X107487500Y-120156250D01*
G75*
G02*
X107243750Y-120400000I-243750J0D01*
G01*
X106756250Y-120400000D01*
G75*
G02*
X106512500Y-120156250I0J243750D01*
G01*
G37*
G36*
G01*
X104637500Y-120156250D02*
X104637500Y-119243750D01*
G75*
G02*
X104881250Y-119000000I243750J0D01*
G01*
X105368750Y-119000000D01*
G75*
G02*
X105612500Y-119243750I0J-243750D01*
G01*
X105612500Y-120156250D01*
G75*
G02*
X105368750Y-120400000I-243750J0D01*
G01*
X104881250Y-120400000D01*
G75*
G02*
X104637500Y-120156250I0J243750D01*
G01*
G37*
G04 #@! TD*
G04 #@! TO.C,D704*
G36*
G01*
X106512500Y-122656250D02*
X106512500Y-121743750D01*
G75*
G02*
X106756250Y-121500000I243750J0D01*
G01*
X107243750Y-121500000D01*
G75*
G02*
X107487500Y-121743750I0J-243750D01*
G01*
X107487500Y-122656250D01*
G75*
G02*
X107243750Y-122900000I-243750J0D01*
G01*
X106756250Y-122900000D01*
G75*
G02*
X106512500Y-122656250I0J243750D01*
G01*
G37*
G36*
G01*
X104637500Y-122656250D02*
X104637500Y-121743750D01*
G75*
G02*
X104881250Y-121500000I243750J0D01*
G01*
X105368750Y-121500000D01*
G75*
G02*
X105612500Y-121743750I0J-243750D01*
G01*
X105612500Y-122656250D01*
G75*
G02*
X105368750Y-122900000I-243750J0D01*
G01*
X104881250Y-122900000D01*
G75*
G02*
X104637500Y-122656250I0J243750D01*
G01*
G37*
G04 #@! TD*
G04 #@! TO.C,D703*
G36*
G01*
X106512500Y-139456250D02*
X106512500Y-138543750D01*
G75*
G02*
X106756250Y-138300000I243750J0D01*
G01*
X107243750Y-138300000D01*
G75*
G02*
X107487500Y-138543750I0J-243750D01*
G01*
X107487500Y-139456250D01*
G75*
G02*
X107243750Y-139700000I-243750J0D01*
G01*
X106756250Y-139700000D01*
G75*
G02*
X106512500Y-139456250I0J243750D01*
G01*
G37*
G36*
G01*
X104637500Y-139456250D02*
X104637500Y-138543750D01*
G75*
G02*
X104881250Y-138300000I243750J0D01*
G01*
X105368750Y-138300000D01*
G75*
G02*
X105612500Y-138543750I0J-243750D01*
G01*
X105612500Y-139456250D01*
G75*
G02*
X105368750Y-139700000I-243750J0D01*
G01*
X104881250Y-139700000D01*
G75*
G02*
X104637500Y-139456250I0J243750D01*
G01*
G37*
G04 #@! TD*
G04 #@! TO.C,D702*
G36*
G01*
X106512500Y-136756250D02*
X106512500Y-135843750D01*
G75*
G02*
X106756250Y-135600000I243750J0D01*
G01*
X107243750Y-135600000D01*
G75*
G02*
X107487500Y-135843750I0J-243750D01*
G01*
X107487500Y-136756250D01*
G75*
G02*
X107243750Y-137000000I-243750J0D01*
G01*
X106756250Y-137000000D01*
G75*
G02*
X106512500Y-136756250I0J243750D01*
G01*
G37*
G36*
G01*
X104637500Y-136756250D02*
X104637500Y-135843750D01*
G75*
G02*
X104881250Y-135600000I243750J0D01*
G01*
X105368750Y-135600000D01*
G75*
G02*
X105612500Y-135843750I0J-243750D01*
G01*
X105612500Y-136756250D01*
G75*
G02*
X105368750Y-137000000I-243750J0D01*
G01*
X104881250Y-137000000D01*
G75*
G02*
X104637500Y-136756250I0J243750D01*
G01*
G37*
G04 #@! TD*
G04 #@! TO.C,D701*
G36*
G01*
X121487500Y-146943750D02*
X121487500Y-147856250D01*
G75*
G02*
X121243750Y-148100000I-243750J0D01*
G01*
X120756250Y-148100000D01*
G75*
G02*
X120512500Y-147856250I0J243750D01*
G01*
X120512500Y-146943750D01*
G75*
G02*
X120756250Y-146700000I243750J0D01*
G01*
X121243750Y-146700000D01*
G75*
G02*
X121487500Y-146943750I0J-243750D01*
G01*
G37*
G36*
G01*
X123362500Y-146943750D02*
X123362500Y-147856250D01*
G75*
G02*
X123118750Y-148100000I-243750J0D01*
G01*
X122631250Y-148100000D01*
G75*
G02*
X122387500Y-147856250I0J243750D01*
G01*
X122387500Y-146943750D01*
G75*
G02*
X122631250Y-146700000I243750J0D01*
G01*
X123118750Y-146700000D01*
G75*
G02*
X123362500Y-146943750I0J-243750D01*
G01*
G37*
G04 #@! TD*
G04 #@! TO.C,D602*
G36*
G01*
X129837500Y-64983750D02*
X129837500Y-65896250D01*
G75*
G02*
X129593750Y-66140000I-243750J0D01*
G01*
X129106250Y-66140000D01*
G75*
G02*
X128862500Y-65896250I0J243750D01*
G01*
X128862500Y-64983750D01*
G75*
G02*
X129106250Y-64740000I243750J0D01*
G01*
X129593750Y-64740000D01*
G75*
G02*
X129837500Y-64983750I0J-243750D01*
G01*
G37*
G36*
G01*
X131712500Y-64983750D02*
X131712500Y-65896250D01*
G75*
G02*
X131468750Y-66140000I-243750J0D01*
G01*
X130981250Y-66140000D01*
G75*
G02*
X130737500Y-65896250I0J243750D01*
G01*
X130737500Y-64983750D01*
G75*
G02*
X130981250Y-64740000I243750J0D01*
G01*
X131468750Y-64740000D01*
G75*
G02*
X131712500Y-64983750I0J-243750D01*
G01*
G37*
G04 #@! TD*
G04 #@! TO.C,D601*
G36*
G01*
X146951250Y-81167500D02*
X146038750Y-81167500D01*
G75*
G02*
X145795000Y-80923750I0J243750D01*
G01*
X145795000Y-80436250D01*
G75*
G02*
X146038750Y-80192500I243750J0D01*
G01*
X146951250Y-80192500D01*
G75*
G02*
X147195000Y-80436250I0J-243750D01*
G01*
X147195000Y-80923750D01*
G75*
G02*
X146951250Y-81167500I-243750J0D01*
G01*
G37*
G36*
G01*
X146951250Y-83042500D02*
X146038750Y-83042500D01*
G75*
G02*
X145795000Y-82798750I0J243750D01*
G01*
X145795000Y-82311250D01*
G75*
G02*
X146038750Y-82067500I243750J0D01*
G01*
X146951250Y-82067500D01*
G75*
G02*
X147195000Y-82311250I0J-243750D01*
G01*
X147195000Y-82798750D01*
G75*
G02*
X146951250Y-83042500I-243750J0D01*
G01*
G37*
G04 #@! TD*
G04 #@! TO.C,D502*
G36*
G01*
X157482500Y-92046251D02*
X157482500Y-91133751D01*
G75*
G02*
X157726250Y-90890001I243750J0D01*
G01*
X158213750Y-90890001D01*
G75*
G02*
X158457500Y-91133751I0J-243750D01*
G01*
X158457500Y-92046251D01*
G75*
G02*
X158213750Y-92290001I-243750J0D01*
G01*
X157726250Y-92290001D01*
G75*
G02*
X157482500Y-92046251I0J243750D01*
G01*
G37*
G36*
G01*
X155607500Y-92046251D02*
X155607500Y-91133751D01*
G75*
G02*
X155851250Y-90890001I243750J0D01*
G01*
X156338750Y-90890001D01*
G75*
G02*
X156582500Y-91133751I0J-243750D01*
G01*
X156582500Y-92046251D01*
G75*
G02*
X156338750Y-92290001I-243750J0D01*
G01*
X155851250Y-92290001D01*
G75*
G02*
X155607500Y-92046251I0J243750D01*
G01*
G37*
G04 #@! TD*
G04 #@! TO.C,D501*
G36*
G01*
X140368750Y-75862501D02*
X141281250Y-75862501D01*
G75*
G02*
X141525000Y-76106251I0J-243750D01*
G01*
X141525000Y-76593751D01*
G75*
G02*
X141281250Y-76837501I-243750J0D01*
G01*
X140368750Y-76837501D01*
G75*
G02*
X140125000Y-76593751I0J243750D01*
G01*
X140125000Y-76106251D01*
G75*
G02*
X140368750Y-75862501I243750J0D01*
G01*
G37*
G36*
G01*
X140368750Y-73987501D02*
X141281250Y-73987501D01*
G75*
G02*
X141525000Y-74231251I0J-243750D01*
G01*
X141525000Y-74718751D01*
G75*
G02*
X141281250Y-74962501I-243750J0D01*
G01*
X140368750Y-74962501D01*
G75*
G02*
X140125000Y-74718751I0J243750D01*
G01*
X140125000Y-74231251D01*
G75*
G02*
X140368750Y-73987501I243750J0D01*
G01*
G37*
G04 #@! TD*
D24*
G04 #@! TO.C,D201*
X105000000Y-70500000D03*
X107800000Y-70500000D03*
G04 #@! TD*
G04 #@! TO.C,C1011*
G36*
G01*
X168175000Y-119872500D02*
X168175000Y-119527500D01*
G75*
G02*
X168322500Y-119380000I147500J0D01*
G01*
X168617500Y-119380000D01*
G75*
G02*
X168765000Y-119527500I0J-147500D01*
G01*
X168765000Y-119872500D01*
G75*
G02*
X168617500Y-120020000I-147500J0D01*
G01*
X168322500Y-120020000D01*
G75*
G02*
X168175000Y-119872500I0J147500D01*
G01*
G37*
G36*
G01*
X167205000Y-119872500D02*
X167205000Y-119527500D01*
G75*
G02*
X167352500Y-119380000I147500J0D01*
G01*
X167647500Y-119380000D01*
G75*
G02*
X167795000Y-119527500I0J-147500D01*
G01*
X167795000Y-119872500D01*
G75*
G02*
X167647500Y-120020000I-147500J0D01*
G01*
X167352500Y-120020000D01*
G75*
G02*
X167205000Y-119872500I0J147500D01*
G01*
G37*
G04 #@! TD*
G04 #@! TO.C,C1010*
G36*
G01*
X168190000Y-120972500D02*
X168190000Y-120627500D01*
G75*
G02*
X168337500Y-120480000I147500J0D01*
G01*
X168632500Y-120480000D01*
G75*
G02*
X168780000Y-120627500I0J-147500D01*
G01*
X168780000Y-120972500D01*
G75*
G02*
X168632500Y-121120000I-147500J0D01*
G01*
X168337500Y-121120000D01*
G75*
G02*
X168190000Y-120972500I0J147500D01*
G01*
G37*
G36*
G01*
X167220000Y-120972500D02*
X167220000Y-120627500D01*
G75*
G02*
X167367500Y-120480000I147500J0D01*
G01*
X167662500Y-120480000D01*
G75*
G02*
X167810000Y-120627500I0J-147500D01*
G01*
X167810000Y-120972500D01*
G75*
G02*
X167662500Y-121120000I-147500J0D01*
G01*
X167367500Y-121120000D01*
G75*
G02*
X167220000Y-120972500I0J147500D01*
G01*
G37*
G04 #@! TD*
G04 #@! TO.C,C1009*
G36*
G01*
X175895000Y-127327500D02*
X175895000Y-127672500D01*
G75*
G02*
X175747500Y-127820000I-147500J0D01*
G01*
X175452500Y-127820000D01*
G75*
G02*
X175305000Y-127672500I0J147500D01*
G01*
X175305000Y-127327500D01*
G75*
G02*
X175452500Y-127180000I147500J0D01*
G01*
X175747500Y-127180000D01*
G75*
G02*
X175895000Y-127327500I0J-147500D01*
G01*
G37*
G36*
G01*
X176865000Y-127327500D02*
X176865000Y-127672500D01*
G75*
G02*
X176717500Y-127820000I-147500J0D01*
G01*
X176422500Y-127820000D01*
G75*
G02*
X176275000Y-127672500I0J147500D01*
G01*
X176275000Y-127327500D01*
G75*
G02*
X176422500Y-127180000I147500J0D01*
G01*
X176717500Y-127180000D01*
G75*
G02*
X176865000Y-127327500I0J-147500D01*
G01*
G37*
G04 #@! TD*
G04 #@! TO.C,C1008*
G36*
G01*
X170275000Y-124972500D02*
X170275000Y-124627500D01*
G75*
G02*
X170422500Y-124480000I147500J0D01*
G01*
X170717500Y-124480000D01*
G75*
G02*
X170865000Y-124627500I0J-147500D01*
G01*
X170865000Y-124972500D01*
G75*
G02*
X170717500Y-125120000I-147500J0D01*
G01*
X170422500Y-125120000D01*
G75*
G02*
X170275000Y-124972500I0J147500D01*
G01*
G37*
G36*
G01*
X169305000Y-124972500D02*
X169305000Y-124627500D01*
G75*
G02*
X169452500Y-124480000I147500J0D01*
G01*
X169747500Y-124480000D01*
G75*
G02*
X169895000Y-124627500I0J-147500D01*
G01*
X169895000Y-124972500D01*
G75*
G02*
X169747500Y-125120000I-147500J0D01*
G01*
X169452500Y-125120000D01*
G75*
G02*
X169305000Y-124972500I0J147500D01*
G01*
G37*
G04 #@! TD*
G04 #@! TO.C,C1007*
G36*
G01*
X156272500Y-120225000D02*
X155927500Y-120225000D01*
G75*
G02*
X155780000Y-120077500I0J147500D01*
G01*
X155780000Y-119782500D01*
G75*
G02*
X155927500Y-119635000I147500J0D01*
G01*
X156272500Y-119635000D01*
G75*
G02*
X156420000Y-119782500I0J-147500D01*
G01*
X156420000Y-120077500D01*
G75*
G02*
X156272500Y-120225000I-147500J0D01*
G01*
G37*
G36*
G01*
X156272500Y-121195000D02*
X155927500Y-121195000D01*
G75*
G02*
X155780000Y-121047500I0J147500D01*
G01*
X155780000Y-120752500D01*
G75*
G02*
X155927500Y-120605000I147500J0D01*
G01*
X156272500Y-120605000D01*
G75*
G02*
X156420000Y-120752500I0J-147500D01*
G01*
X156420000Y-121047500D01*
G75*
G02*
X156272500Y-121195000I-147500J0D01*
G01*
G37*
G04 #@! TD*
G04 #@! TO.C,C1006*
G36*
G01*
X153272500Y-136925000D02*
X152927500Y-136925000D01*
G75*
G02*
X152780000Y-136777500I0J147500D01*
G01*
X152780000Y-136482500D01*
G75*
G02*
X152927500Y-136335000I147500J0D01*
G01*
X153272500Y-136335000D01*
G75*
G02*
X153420000Y-136482500I0J-147500D01*
G01*
X153420000Y-136777500D01*
G75*
G02*
X153272500Y-136925000I-147500J0D01*
G01*
G37*
G36*
G01*
X153272500Y-137895000D02*
X152927500Y-137895000D01*
G75*
G02*
X152780000Y-137747500I0J147500D01*
G01*
X152780000Y-137452500D01*
G75*
G02*
X152927500Y-137305000I147500J0D01*
G01*
X153272500Y-137305000D01*
G75*
G02*
X153420000Y-137452500I0J-147500D01*
G01*
X153420000Y-137747500D01*
G75*
G02*
X153272500Y-137895000I-147500J0D01*
G01*
G37*
G04 #@! TD*
G04 #@! TO.C,C1005*
G36*
G01*
X154372500Y-136925000D02*
X154027500Y-136925000D01*
G75*
G02*
X153880000Y-136777500I0J147500D01*
G01*
X153880000Y-136482500D01*
G75*
G02*
X154027500Y-136335000I147500J0D01*
G01*
X154372500Y-136335000D01*
G75*
G02*
X154520000Y-136482500I0J-147500D01*
G01*
X154520000Y-136777500D01*
G75*
G02*
X154372500Y-136925000I-147500J0D01*
G01*
G37*
G36*
G01*
X154372500Y-137895000D02*
X154027500Y-137895000D01*
G75*
G02*
X153880000Y-137747500I0J147500D01*
G01*
X153880000Y-137452500D01*
G75*
G02*
X154027500Y-137305000I147500J0D01*
G01*
X154372500Y-137305000D01*
G75*
G02*
X154520000Y-137452500I0J-147500D01*
G01*
X154520000Y-137747500D01*
G75*
G02*
X154372500Y-137895000I-147500J0D01*
G01*
G37*
G04 #@! TD*
G04 #@! TO.C,C1004*
G36*
G01*
X160272500Y-117325000D02*
X159927500Y-117325000D01*
G75*
G02*
X159780000Y-117177500I0J147500D01*
G01*
X159780000Y-116882500D01*
G75*
G02*
X159927500Y-116735000I147500J0D01*
G01*
X160272500Y-116735000D01*
G75*
G02*
X160420000Y-116882500I0J-147500D01*
G01*
X160420000Y-117177500D01*
G75*
G02*
X160272500Y-117325000I-147500J0D01*
G01*
G37*
G36*
G01*
X160272500Y-118295000D02*
X159927500Y-118295000D01*
G75*
G02*
X159780000Y-118147500I0J147500D01*
G01*
X159780000Y-117852500D01*
G75*
G02*
X159927500Y-117705000I147500J0D01*
G01*
X160272500Y-117705000D01*
G75*
G02*
X160420000Y-117852500I0J-147500D01*
G01*
X160420000Y-118147500D01*
G75*
G02*
X160272500Y-118295000I-147500J0D01*
G01*
G37*
G04 #@! TD*
G04 #@! TO.C,C1003*
G36*
G01*
X155610000Y-128527500D02*
X155610000Y-128872500D01*
G75*
G02*
X155462500Y-129020000I-147500J0D01*
G01*
X155167500Y-129020000D01*
G75*
G02*
X155020000Y-128872500I0J147500D01*
G01*
X155020000Y-128527500D01*
G75*
G02*
X155167500Y-128380000I147500J0D01*
G01*
X155462500Y-128380000D01*
G75*
G02*
X155610000Y-128527500I0J-147500D01*
G01*
G37*
G36*
G01*
X156580000Y-128527500D02*
X156580000Y-128872500D01*
G75*
G02*
X156432500Y-129020000I-147500J0D01*
G01*
X156137500Y-129020000D01*
G75*
G02*
X155990000Y-128872500I0J147500D01*
G01*
X155990000Y-128527500D01*
G75*
G02*
X156137500Y-128380000I147500J0D01*
G01*
X156432500Y-128380000D01*
G75*
G02*
X156580000Y-128527500I0J-147500D01*
G01*
G37*
G04 #@! TD*
G04 #@! TO.C,C1002*
G36*
G01*
X164772500Y-134625000D02*
X164427500Y-134625000D01*
G75*
G02*
X164280000Y-134477500I0J147500D01*
G01*
X164280000Y-134182500D01*
G75*
G02*
X164427500Y-134035000I147500J0D01*
G01*
X164772500Y-134035000D01*
G75*
G02*
X164920000Y-134182500I0J-147500D01*
G01*
X164920000Y-134477500D01*
G75*
G02*
X164772500Y-134625000I-147500J0D01*
G01*
G37*
G36*
G01*
X164772500Y-135595000D02*
X164427500Y-135595000D01*
G75*
G02*
X164280000Y-135447500I0J147500D01*
G01*
X164280000Y-135152500D01*
G75*
G02*
X164427500Y-135005000I147500J0D01*
G01*
X164772500Y-135005000D01*
G75*
G02*
X164920000Y-135152500I0J-147500D01*
G01*
X164920000Y-135447500D01*
G75*
G02*
X164772500Y-135595000I-147500J0D01*
G01*
G37*
G04 #@! TD*
G04 #@! TO.C,C1001*
G36*
G01*
X168175000Y-122972500D02*
X168175000Y-122627500D01*
G75*
G02*
X168322500Y-122480000I147500J0D01*
G01*
X168617500Y-122480000D01*
G75*
G02*
X168765000Y-122627500I0J-147500D01*
G01*
X168765000Y-122972500D01*
G75*
G02*
X168617500Y-123120000I-147500J0D01*
G01*
X168322500Y-123120000D01*
G75*
G02*
X168175000Y-122972500I0J147500D01*
G01*
G37*
G36*
G01*
X167205000Y-122972500D02*
X167205000Y-122627500D01*
G75*
G02*
X167352500Y-122480000I147500J0D01*
G01*
X167647500Y-122480000D01*
G75*
G02*
X167795000Y-122627500I0J-147500D01*
G01*
X167795000Y-122972500D01*
G75*
G02*
X167647500Y-123120000I-147500J0D01*
G01*
X167352500Y-123120000D01*
G75*
G02*
X167205000Y-122972500I0J147500D01*
G01*
G37*
G04 #@! TD*
G04 #@! TO.C,C901*
G36*
G01*
X107827500Y-113890000D02*
X108172500Y-113890000D01*
G75*
G02*
X108320000Y-114037500I0J-147500D01*
G01*
X108320000Y-114332500D01*
G75*
G02*
X108172500Y-114480000I-147500J0D01*
G01*
X107827500Y-114480000D01*
G75*
G02*
X107680000Y-114332500I0J147500D01*
G01*
X107680000Y-114037500D01*
G75*
G02*
X107827500Y-113890000I147500J0D01*
G01*
G37*
G36*
G01*
X107827500Y-112920000D02*
X108172500Y-112920000D01*
G75*
G02*
X108320000Y-113067500I0J-147500D01*
G01*
X108320000Y-113362500D01*
G75*
G02*
X108172500Y-113510000I-147500J0D01*
G01*
X107827500Y-113510000D01*
G75*
G02*
X107680000Y-113362500I0J147500D01*
G01*
X107680000Y-113067500D01*
G75*
G02*
X107827500Y-112920000I147500J0D01*
G01*
G37*
G04 #@! TD*
G04 #@! TO.C,C723*
G36*
G01*
X124427500Y-144190000D02*
X124772500Y-144190000D01*
G75*
G02*
X124920000Y-144337500I0J-147500D01*
G01*
X124920000Y-144632500D01*
G75*
G02*
X124772500Y-144780000I-147500J0D01*
G01*
X124427500Y-144780000D01*
G75*
G02*
X124280000Y-144632500I0J147500D01*
G01*
X124280000Y-144337500D01*
G75*
G02*
X124427500Y-144190000I147500J0D01*
G01*
G37*
G36*
G01*
X124427500Y-143220000D02*
X124772500Y-143220000D01*
G75*
G02*
X124920000Y-143367500I0J-147500D01*
G01*
X124920000Y-143662500D01*
G75*
G02*
X124772500Y-143810000I-147500J0D01*
G01*
X124427500Y-143810000D01*
G75*
G02*
X124280000Y-143662500I0J147500D01*
G01*
X124280000Y-143367500D01*
G75*
G02*
X124427500Y-143220000I147500J0D01*
G01*
G37*
G04 #@! TD*
G04 #@! TO.C,C722*
G36*
G01*
X117210000Y-139327500D02*
X117210000Y-139672500D01*
G75*
G02*
X117062500Y-139820000I-147500J0D01*
G01*
X116767500Y-139820000D01*
G75*
G02*
X116620000Y-139672500I0J147500D01*
G01*
X116620000Y-139327500D01*
G75*
G02*
X116767500Y-139180000I147500J0D01*
G01*
X117062500Y-139180000D01*
G75*
G02*
X117210000Y-139327500I0J-147500D01*
G01*
G37*
G36*
G01*
X118180000Y-139327500D02*
X118180000Y-139672500D01*
G75*
G02*
X118032500Y-139820000I-147500J0D01*
G01*
X117737500Y-139820000D01*
G75*
G02*
X117590000Y-139672500I0J147500D01*
G01*
X117590000Y-139327500D01*
G75*
G02*
X117737500Y-139180000I147500J0D01*
G01*
X118032500Y-139180000D01*
G75*
G02*
X118180000Y-139327500I0J-147500D01*
G01*
G37*
G04 #@! TD*
G04 #@! TO.C,C721*
G36*
G01*
X117210000Y-132827500D02*
X117210000Y-133172500D01*
G75*
G02*
X117062500Y-133320000I-147500J0D01*
G01*
X116767500Y-133320000D01*
G75*
G02*
X116620000Y-133172500I0J147500D01*
G01*
X116620000Y-132827500D01*
G75*
G02*
X116767500Y-132680000I147500J0D01*
G01*
X117062500Y-132680000D01*
G75*
G02*
X117210000Y-132827500I0J-147500D01*
G01*
G37*
G36*
G01*
X118180000Y-132827500D02*
X118180000Y-133172500D01*
G75*
G02*
X118032500Y-133320000I-147500J0D01*
G01*
X117737500Y-133320000D01*
G75*
G02*
X117590000Y-133172500I0J147500D01*
G01*
X117590000Y-132827500D01*
G75*
G02*
X117737500Y-132680000I147500J0D01*
G01*
X118032500Y-132680000D01*
G75*
G02*
X118180000Y-132827500I0J-147500D01*
G01*
G37*
G04 #@! TD*
G04 #@! TO.C,C720*
G36*
G01*
X117110000Y-128127500D02*
X117110000Y-128472500D01*
G75*
G02*
X116962500Y-128620000I-147500J0D01*
G01*
X116667500Y-128620000D01*
G75*
G02*
X116520000Y-128472500I0J147500D01*
G01*
X116520000Y-128127500D01*
G75*
G02*
X116667500Y-127980000I147500J0D01*
G01*
X116962500Y-127980000D01*
G75*
G02*
X117110000Y-128127500I0J-147500D01*
G01*
G37*
G36*
G01*
X118080000Y-128127500D02*
X118080000Y-128472500D01*
G75*
G02*
X117932500Y-128620000I-147500J0D01*
G01*
X117637500Y-128620000D01*
G75*
G02*
X117490000Y-128472500I0J147500D01*
G01*
X117490000Y-128127500D01*
G75*
G02*
X117637500Y-127980000I147500J0D01*
G01*
X117932500Y-127980000D01*
G75*
G02*
X118080000Y-128127500I0J-147500D01*
G01*
G37*
G04 #@! TD*
G04 #@! TO.C,C719*
G36*
G01*
X129927500Y-144190000D02*
X130272500Y-144190000D01*
G75*
G02*
X130420000Y-144337500I0J-147500D01*
G01*
X130420000Y-144632500D01*
G75*
G02*
X130272500Y-144780000I-147500J0D01*
G01*
X129927500Y-144780000D01*
G75*
G02*
X129780000Y-144632500I0J147500D01*
G01*
X129780000Y-144337500D01*
G75*
G02*
X129927500Y-144190000I147500J0D01*
G01*
G37*
G36*
G01*
X129927500Y-143220000D02*
X130272500Y-143220000D01*
G75*
G02*
X130420000Y-143367500I0J-147500D01*
G01*
X130420000Y-143662500D01*
G75*
G02*
X130272500Y-143810000I-147500J0D01*
G01*
X129927500Y-143810000D01*
G75*
G02*
X129780000Y-143662500I0J147500D01*
G01*
X129780000Y-143367500D01*
G75*
G02*
X129927500Y-143220000I147500J0D01*
G01*
G37*
G04 #@! TD*
G04 #@! TO.C,C718*
G36*
G01*
X135472500Y-147110000D02*
X135127500Y-147110000D01*
G75*
G02*
X134980000Y-146962500I0J147500D01*
G01*
X134980000Y-146667500D01*
G75*
G02*
X135127500Y-146520000I147500J0D01*
G01*
X135472500Y-146520000D01*
G75*
G02*
X135620000Y-146667500I0J-147500D01*
G01*
X135620000Y-146962500D01*
G75*
G02*
X135472500Y-147110000I-147500J0D01*
G01*
G37*
G36*
G01*
X135472500Y-148080000D02*
X135127500Y-148080000D01*
G75*
G02*
X134980000Y-147932500I0J147500D01*
G01*
X134980000Y-147637500D01*
G75*
G02*
X135127500Y-147490000I147500J0D01*
G01*
X135472500Y-147490000D01*
G75*
G02*
X135620000Y-147637500I0J-147500D01*
G01*
X135620000Y-147932500D01*
G75*
G02*
X135472500Y-148080000I-147500J0D01*
G01*
G37*
G04 #@! TD*
G04 #@! TO.C,C717*
G36*
G01*
X121172500Y-119325000D02*
X120827500Y-119325000D01*
G75*
G02*
X120680000Y-119177500I0J147500D01*
G01*
X120680000Y-118882500D01*
G75*
G02*
X120827500Y-118735000I147500J0D01*
G01*
X121172500Y-118735000D01*
G75*
G02*
X121320000Y-118882500I0J-147500D01*
G01*
X121320000Y-119177500D01*
G75*
G02*
X121172500Y-119325000I-147500J0D01*
G01*
G37*
G36*
G01*
X121172500Y-120295000D02*
X120827500Y-120295000D01*
G75*
G02*
X120680000Y-120147500I0J147500D01*
G01*
X120680000Y-119852500D01*
G75*
G02*
X120827500Y-119705000I147500J0D01*
G01*
X121172500Y-119705000D01*
G75*
G02*
X121320000Y-119852500I0J-147500D01*
G01*
X121320000Y-120147500D01*
G75*
G02*
X121172500Y-120295000I-147500J0D01*
G01*
G37*
G04 #@! TD*
G04 #@! TO.C,C716*
G36*
G01*
X130527500Y-147490000D02*
X130872500Y-147490000D01*
G75*
G02*
X131020000Y-147637500I0J-147500D01*
G01*
X131020000Y-147932500D01*
G75*
G02*
X130872500Y-148080000I-147500J0D01*
G01*
X130527500Y-148080000D01*
G75*
G02*
X130380000Y-147932500I0J147500D01*
G01*
X130380000Y-147637500D01*
G75*
G02*
X130527500Y-147490000I147500J0D01*
G01*
G37*
G36*
G01*
X130527500Y-146520000D02*
X130872500Y-146520000D01*
G75*
G02*
X131020000Y-146667500I0J-147500D01*
G01*
X131020000Y-146962500D01*
G75*
G02*
X130872500Y-147110000I-147500J0D01*
G01*
X130527500Y-147110000D01*
G75*
G02*
X130380000Y-146962500I0J147500D01*
G01*
X130380000Y-146667500D01*
G75*
G02*
X130527500Y-146520000I147500J0D01*
G01*
G37*
G04 #@! TD*
G04 #@! TO.C,C715*
G36*
G01*
X136427500Y-144190000D02*
X136772500Y-144190000D01*
G75*
G02*
X136920000Y-144337500I0J-147500D01*
G01*
X136920000Y-144632500D01*
G75*
G02*
X136772500Y-144780000I-147500J0D01*
G01*
X136427500Y-144780000D01*
G75*
G02*
X136280000Y-144632500I0J147500D01*
G01*
X136280000Y-144337500D01*
G75*
G02*
X136427500Y-144190000I147500J0D01*
G01*
G37*
G36*
G01*
X136427500Y-143220000D02*
X136772500Y-143220000D01*
G75*
G02*
X136920000Y-143367500I0J-147500D01*
G01*
X136920000Y-143662500D01*
G75*
G02*
X136772500Y-143810000I-147500J0D01*
G01*
X136427500Y-143810000D01*
G75*
G02*
X136280000Y-143662500I0J147500D01*
G01*
X136280000Y-143367500D01*
G75*
G02*
X136427500Y-143220000I147500J0D01*
G01*
G37*
G04 #@! TD*
G04 #@! TO.C,C713*
G36*
G01*
X134272500Y-117210000D02*
X133927500Y-117210000D01*
G75*
G02*
X133780000Y-117062500I0J147500D01*
G01*
X133780000Y-116767500D01*
G75*
G02*
X133927500Y-116620000I147500J0D01*
G01*
X134272500Y-116620000D01*
G75*
G02*
X134420000Y-116767500I0J-147500D01*
G01*
X134420000Y-117062500D01*
G75*
G02*
X134272500Y-117210000I-147500J0D01*
G01*
G37*
G36*
G01*
X134272500Y-118180000D02*
X133927500Y-118180000D01*
G75*
G02*
X133780000Y-118032500I0J147500D01*
G01*
X133780000Y-117737500D01*
G75*
G02*
X133927500Y-117590000I147500J0D01*
G01*
X134272500Y-117590000D01*
G75*
G02*
X134420000Y-117737500I0J-147500D01*
G01*
X134420000Y-118032500D01*
G75*
G02*
X134272500Y-118180000I-147500J0D01*
G01*
G37*
G04 #@! TD*
G04 #@! TO.C,C711*
G36*
G01*
X144190000Y-138672500D02*
X144190000Y-138327500D01*
G75*
G02*
X144337500Y-138180000I147500J0D01*
G01*
X144632500Y-138180000D01*
G75*
G02*
X144780000Y-138327500I0J-147500D01*
G01*
X144780000Y-138672500D01*
G75*
G02*
X144632500Y-138820000I-147500J0D01*
G01*
X144337500Y-138820000D01*
G75*
G02*
X144190000Y-138672500I0J147500D01*
G01*
G37*
G36*
G01*
X143220000Y-138672500D02*
X143220000Y-138327500D01*
G75*
G02*
X143367500Y-138180000I147500J0D01*
G01*
X143662500Y-138180000D01*
G75*
G02*
X143810000Y-138327500I0J-147500D01*
G01*
X143810000Y-138672500D01*
G75*
G02*
X143662500Y-138820000I-147500J0D01*
G01*
X143367500Y-138820000D01*
G75*
G02*
X143220000Y-138672500I0J147500D01*
G01*
G37*
G04 #@! TD*
G04 #@! TO.C,C710*
G36*
G01*
X144190000Y-132172500D02*
X144190000Y-131827500D01*
G75*
G02*
X144337500Y-131680000I147500J0D01*
G01*
X144632500Y-131680000D01*
G75*
G02*
X144780000Y-131827500I0J-147500D01*
G01*
X144780000Y-132172500D01*
G75*
G02*
X144632500Y-132320000I-147500J0D01*
G01*
X144337500Y-132320000D01*
G75*
G02*
X144190000Y-132172500I0J147500D01*
G01*
G37*
G36*
G01*
X143220000Y-132172500D02*
X143220000Y-131827500D01*
G75*
G02*
X143367500Y-131680000I147500J0D01*
G01*
X143662500Y-131680000D01*
G75*
G02*
X143810000Y-131827500I0J-147500D01*
G01*
X143810000Y-132172500D01*
G75*
G02*
X143662500Y-132320000I-147500J0D01*
G01*
X143367500Y-132320000D01*
G75*
G02*
X143220000Y-132172500I0J147500D01*
G01*
G37*
G04 #@! TD*
G04 #@! TO.C,C709*
G36*
G01*
X144190000Y-127072500D02*
X144190000Y-126727500D01*
G75*
G02*
X144337500Y-126580000I147500J0D01*
G01*
X144632500Y-126580000D01*
G75*
G02*
X144780000Y-126727500I0J-147500D01*
G01*
X144780000Y-127072500D01*
G75*
G02*
X144632500Y-127220000I-147500J0D01*
G01*
X144337500Y-127220000D01*
G75*
G02*
X144190000Y-127072500I0J147500D01*
G01*
G37*
G36*
G01*
X143220000Y-127072500D02*
X143220000Y-126727500D01*
G75*
G02*
X143367500Y-126580000I147500J0D01*
G01*
X143662500Y-126580000D01*
G75*
G02*
X143810000Y-126727500I0J-147500D01*
G01*
X143810000Y-127072500D01*
G75*
G02*
X143662500Y-127220000I-147500J0D01*
G01*
X143367500Y-127220000D01*
G75*
G02*
X143220000Y-127072500I0J147500D01*
G01*
G37*
G04 #@! TD*
G04 #@! TO.C,C708*
G36*
G01*
X128372500Y-117210000D02*
X128027500Y-117210000D01*
G75*
G02*
X127880000Y-117062500I0J147500D01*
G01*
X127880000Y-116767500D01*
G75*
G02*
X128027500Y-116620000I147500J0D01*
G01*
X128372500Y-116620000D01*
G75*
G02*
X128520000Y-116767500I0J-147500D01*
G01*
X128520000Y-117062500D01*
G75*
G02*
X128372500Y-117210000I-147500J0D01*
G01*
G37*
G36*
G01*
X128372500Y-118180000D02*
X128027500Y-118180000D01*
G75*
G02*
X127880000Y-118032500I0J147500D01*
G01*
X127880000Y-117737500D01*
G75*
G02*
X128027500Y-117590000I147500J0D01*
G01*
X128372500Y-117590000D01*
G75*
G02*
X128520000Y-117737500I0J-147500D01*
G01*
X128520000Y-118032500D01*
G75*
G02*
X128372500Y-118180000I-147500J0D01*
G01*
G37*
G04 #@! TD*
G04 #@! TO.C,C707*
G36*
G01*
X144975000Y-122172500D02*
X144975000Y-121827500D01*
G75*
G02*
X145122500Y-121680000I147500J0D01*
G01*
X145417500Y-121680000D01*
G75*
G02*
X145565000Y-121827500I0J-147500D01*
G01*
X145565000Y-122172500D01*
G75*
G02*
X145417500Y-122320000I-147500J0D01*
G01*
X145122500Y-122320000D01*
G75*
G02*
X144975000Y-122172500I0J147500D01*
G01*
G37*
G36*
G01*
X144005000Y-122172500D02*
X144005000Y-121827500D01*
G75*
G02*
X144152500Y-121680000I147500J0D01*
G01*
X144447500Y-121680000D01*
G75*
G02*
X144595000Y-121827500I0J-147500D01*
G01*
X144595000Y-122172500D01*
G75*
G02*
X144447500Y-122320000I-147500J0D01*
G01*
X144152500Y-122320000D01*
G75*
G02*
X144005000Y-122172500I0J147500D01*
G01*
G37*
G04 #@! TD*
G04 #@! TO.C,C705*
G36*
G01*
X110572500Y-143295000D02*
X110227500Y-143295000D01*
G75*
G02*
X110080000Y-143147500I0J147500D01*
G01*
X110080000Y-142852500D01*
G75*
G02*
X110227500Y-142705000I147500J0D01*
G01*
X110572500Y-142705000D01*
G75*
G02*
X110720000Y-142852500I0J-147500D01*
G01*
X110720000Y-143147500D01*
G75*
G02*
X110572500Y-143295000I-147500J0D01*
G01*
G37*
G36*
G01*
X110572500Y-144265000D02*
X110227500Y-144265000D01*
G75*
G02*
X110080000Y-144117500I0J147500D01*
G01*
X110080000Y-143822500D01*
G75*
G02*
X110227500Y-143675000I147500J0D01*
G01*
X110572500Y-143675000D01*
G75*
G02*
X110720000Y-143822500I0J-147500D01*
G01*
X110720000Y-144117500D01*
G75*
G02*
X110572500Y-144265000I-147500J0D01*
G01*
G37*
G04 #@! TD*
G04 #@! TO.C,C704*
G36*
G01*
X138275000Y-144572500D02*
X138275000Y-144227500D01*
G75*
G02*
X138422500Y-144080000I147500J0D01*
G01*
X138717500Y-144080000D01*
G75*
G02*
X138865000Y-144227500I0J-147500D01*
G01*
X138865000Y-144572500D01*
G75*
G02*
X138717500Y-144720000I-147500J0D01*
G01*
X138422500Y-144720000D01*
G75*
G02*
X138275000Y-144572500I0J147500D01*
G01*
G37*
G36*
G01*
X137305000Y-144572500D02*
X137305000Y-144227500D01*
G75*
G02*
X137452500Y-144080000I147500J0D01*
G01*
X137747500Y-144080000D01*
G75*
G02*
X137895000Y-144227500I0J-147500D01*
G01*
X137895000Y-144572500D01*
G75*
G02*
X137747500Y-144720000I-147500J0D01*
G01*
X137452500Y-144720000D01*
G75*
G02*
X137305000Y-144572500I0J147500D01*
G01*
G37*
G04 #@! TD*
G04 #@! TO.C,C703*
G36*
G01*
X138275000Y-143472500D02*
X138275000Y-143127500D01*
G75*
G02*
X138422500Y-142980000I147500J0D01*
G01*
X138717500Y-142980000D01*
G75*
G02*
X138865000Y-143127500I0J-147500D01*
G01*
X138865000Y-143472500D01*
G75*
G02*
X138717500Y-143620000I-147500J0D01*
G01*
X138422500Y-143620000D01*
G75*
G02*
X138275000Y-143472500I0J147500D01*
G01*
G37*
G36*
G01*
X137305000Y-143472500D02*
X137305000Y-143127500D01*
G75*
G02*
X137452500Y-142980000I147500J0D01*
G01*
X137747500Y-142980000D01*
G75*
G02*
X137895000Y-143127500I0J-147500D01*
G01*
X137895000Y-143472500D01*
G75*
G02*
X137747500Y-143620000I-147500J0D01*
G01*
X137452500Y-143620000D01*
G75*
G02*
X137305000Y-143472500I0J147500D01*
G01*
G37*
G04 #@! TD*
G04 #@! TO.C,C702*
G36*
G01*
X116210000Y-136927500D02*
X116210000Y-137272500D01*
G75*
G02*
X116062500Y-137420000I-147500J0D01*
G01*
X115767500Y-137420000D01*
G75*
G02*
X115620000Y-137272500I0J147500D01*
G01*
X115620000Y-136927500D01*
G75*
G02*
X115767500Y-136780000I147500J0D01*
G01*
X116062500Y-136780000D01*
G75*
G02*
X116210000Y-136927500I0J-147500D01*
G01*
G37*
G36*
G01*
X117180000Y-136927500D02*
X117180000Y-137272500D01*
G75*
G02*
X117032500Y-137420000I-147500J0D01*
G01*
X116737500Y-137420000D01*
G75*
G02*
X116590000Y-137272500I0J147500D01*
G01*
X116590000Y-136927500D01*
G75*
G02*
X116737500Y-136780000I147500J0D01*
G01*
X117032500Y-136780000D01*
G75*
G02*
X117180000Y-136927500I0J-147500D01*
G01*
G37*
G04 #@! TD*
G04 #@! TO.C,C701*
G36*
G01*
X110572500Y-146925000D02*
X110227500Y-146925000D01*
G75*
G02*
X110080000Y-146777500I0J147500D01*
G01*
X110080000Y-146482500D01*
G75*
G02*
X110227500Y-146335000I147500J0D01*
G01*
X110572500Y-146335000D01*
G75*
G02*
X110720000Y-146482500I0J-147500D01*
G01*
X110720000Y-146777500D01*
G75*
G02*
X110572500Y-146925000I-147500J0D01*
G01*
G37*
G36*
G01*
X110572500Y-147895000D02*
X110227500Y-147895000D01*
G75*
G02*
X110080000Y-147747500I0J147500D01*
G01*
X110080000Y-147452500D01*
G75*
G02*
X110227500Y-147305000I147500J0D01*
G01*
X110572500Y-147305000D01*
G75*
G02*
X110720000Y-147452500I0J-147500D01*
G01*
X110720000Y-147747500D01*
G75*
G02*
X110572500Y-147895000I-147500J0D01*
G01*
G37*
G04 #@! TD*
G04 #@! TO.C,C602*
G36*
G01*
X130025000Y-80852500D02*
X130025000Y-80507500D01*
G75*
G02*
X130172500Y-80360000I147500J0D01*
G01*
X130467500Y-80360000D01*
G75*
G02*
X130615000Y-80507500I0J-147500D01*
G01*
X130615000Y-80852500D01*
G75*
G02*
X130467500Y-81000000I-147500J0D01*
G01*
X130172500Y-81000000D01*
G75*
G02*
X130025000Y-80852500I0J147500D01*
G01*
G37*
G36*
G01*
X129055000Y-80852500D02*
X129055000Y-80507500D01*
G75*
G02*
X129202500Y-80360000I147500J0D01*
G01*
X129497500Y-80360000D01*
G75*
G02*
X129645000Y-80507500I0J-147500D01*
G01*
X129645000Y-80852500D01*
G75*
G02*
X129497500Y-81000000I-147500J0D01*
G01*
X129202500Y-81000000D01*
G75*
G02*
X129055000Y-80852500I0J147500D01*
G01*
G37*
G04 #@! TD*
G04 #@! TO.C,C601*
G36*
G01*
X126982500Y-67305000D02*
X126637500Y-67305000D01*
G75*
G02*
X126490000Y-67157500I0J147500D01*
G01*
X126490000Y-66862500D01*
G75*
G02*
X126637500Y-66715000I147500J0D01*
G01*
X126982500Y-66715000D01*
G75*
G02*
X127130000Y-66862500I0J-147500D01*
G01*
X127130000Y-67157500D01*
G75*
G02*
X126982500Y-67305000I-147500J0D01*
G01*
G37*
G36*
G01*
X126982500Y-68275000D02*
X126637500Y-68275000D01*
G75*
G02*
X126490000Y-68127500I0J147500D01*
G01*
X126490000Y-67832500D01*
G75*
G02*
X126637500Y-67685000I147500J0D01*
G01*
X126982500Y-67685000D01*
G75*
G02*
X127130000Y-67832500I0J-147500D01*
G01*
X127130000Y-68127500D01*
G75*
G02*
X126982500Y-68275000I-147500J0D01*
G01*
G37*
G04 #@! TD*
G04 #@! TO.C,C502*
G36*
G01*
X157295000Y-76177501D02*
X157295000Y-76522501D01*
G75*
G02*
X157147500Y-76670001I-147500J0D01*
G01*
X156852500Y-76670001D01*
G75*
G02*
X156705000Y-76522501I0J147500D01*
G01*
X156705000Y-76177501D01*
G75*
G02*
X156852500Y-76030001I147500J0D01*
G01*
X157147500Y-76030001D01*
G75*
G02*
X157295000Y-76177501I0J-147500D01*
G01*
G37*
G36*
G01*
X158265000Y-76177501D02*
X158265000Y-76522501D01*
G75*
G02*
X158117500Y-76670001I-147500J0D01*
G01*
X157822500Y-76670001D01*
G75*
G02*
X157675000Y-76522501I0J147500D01*
G01*
X157675000Y-76177501D01*
G75*
G02*
X157822500Y-76030001I147500J0D01*
G01*
X158117500Y-76030001D01*
G75*
G02*
X158265000Y-76177501I0J-147500D01*
G01*
G37*
G04 #@! TD*
G04 #@! TO.C,C501*
G36*
G01*
X160337500Y-89725001D02*
X160682500Y-89725001D01*
G75*
G02*
X160830000Y-89872501I0J-147500D01*
G01*
X160830000Y-90167501D01*
G75*
G02*
X160682500Y-90315001I-147500J0D01*
G01*
X160337500Y-90315001D01*
G75*
G02*
X160190000Y-90167501I0J147500D01*
G01*
X160190000Y-89872501D01*
G75*
G02*
X160337500Y-89725001I147500J0D01*
G01*
G37*
G36*
G01*
X160337500Y-88755001D02*
X160682500Y-88755001D01*
G75*
G02*
X160830000Y-88902501I0J-147500D01*
G01*
X160830000Y-89197501D01*
G75*
G02*
X160682500Y-89345001I-147500J0D01*
G01*
X160337500Y-89345001D01*
G75*
G02*
X160190000Y-89197501I0J147500D01*
G01*
X160190000Y-88902501D01*
G75*
G02*
X160337500Y-88755001I147500J0D01*
G01*
G37*
G04 #@! TD*
M02*
