G04 #@! TF.GenerationSoftware,KiCad,Pcbnew,(5.1.6)-1*
G04 #@! TF.CreationDate,2020-06-22T19:30:58+02:00*
G04 #@! TF.ProjectId,plc-sniffer,706c632d-736e-4696-9666-65722e6b6963,rev?*
G04 #@! TF.SameCoordinates,Original*
G04 #@! TF.FileFunction,Soldermask,Bot*
G04 #@! TF.FilePolarity,Negative*
%FSLAX46Y46*%
G04 Gerber Fmt 4.6, Leading zero omitted, Abs format (unit mm)*
G04 Created by KiCad (PCBNEW (5.1.6)-1) date 2020-06-22 19:30:58*
%MOMM*%
%LPD*%
G01*
G04 APERTURE LIST*
%ADD10O,1.800000X1.800000*%
%ADD11R,1.800000X1.800000*%
%ADD12C,1.800000*%
%ADD13C,0.900000*%
%ADD14C,6.500000*%
%ADD15C,3.350000*%
%ADD16C,2.700000*%
%ADD17C,1.990000*%
%ADD18C,2.000000*%
%ADD19R,2.000000X2.000000*%
G04 APERTURE END LIST*
D10*
G04 #@! TO.C,J601*
X134540000Y-55000000D03*
X132000000Y-55000000D03*
X129460000Y-55000000D03*
X126920000Y-55000000D03*
X124380000Y-55000000D03*
D11*
X121840000Y-55000000D03*
G04 #@! TD*
D10*
G04 #@! TO.C,J501*
X140000000Y-67700000D03*
X140000000Y-65160000D03*
X140000000Y-62620000D03*
X140000000Y-60080000D03*
X140000000Y-57540000D03*
D11*
X140000000Y-55000000D03*
G04 #@! TD*
D12*
G04 #@! TO.C,U802*
X176700000Y-91580000D03*
X176700000Y-89040000D03*
X176700000Y-86500000D03*
X176700000Y-81420000D03*
D11*
X176700000Y-78880000D03*
G04 #@! TD*
D13*
G04 #@! TO.C,REF\u002A\u002A*
X196697056Y-53302944D03*
X195000000Y-52600000D03*
X193302944Y-53302944D03*
X192600000Y-55000000D03*
X193302944Y-56697056D03*
X195000000Y-57400000D03*
X196697056Y-56697056D03*
X197400000Y-55000000D03*
D14*
X195000000Y-55000000D03*
G04 #@! TD*
D13*
G04 #@! TO.C,REF\u002A\u002A*
X106697056Y-53302944D03*
X105000000Y-52600000D03*
X103302944Y-53302944D03*
X102600000Y-55000000D03*
X103302944Y-56697056D03*
X105000000Y-57400000D03*
X106697056Y-56697056D03*
X107400000Y-55000000D03*
D14*
X105000000Y-55000000D03*
G04 #@! TD*
D13*
G04 #@! TO.C,REF\u002A\u002A*
X106697056Y-146697056D03*
X107400000Y-145000000D03*
X106697056Y-143302944D03*
X105000000Y-142600000D03*
X103302944Y-143302944D03*
X102600000Y-145000000D03*
X103302944Y-146697056D03*
X105000000Y-147400000D03*
D14*
X105000000Y-145000000D03*
G04 #@! TD*
D13*
G04 #@! TO.C,REF\u002A\u002A*
X196697056Y-143302944D03*
X195000000Y-142600000D03*
X193302944Y-143302944D03*
X192600000Y-145000000D03*
X193302944Y-146697056D03*
X195000000Y-147400000D03*
X196697056Y-146697056D03*
X197400000Y-145000000D03*
D14*
X195000000Y-145000000D03*
G04 #@! TD*
D15*
G04 #@! TO.C,J1001*
X192140000Y-134660000D03*
X192140000Y-123230000D03*
D16*
X189090000Y-136720000D03*
X189090000Y-121170000D03*
D17*
X197040000Y-122620000D03*
X195520000Y-125160000D03*
X197040000Y-132730000D03*
X195520000Y-135270000D03*
D18*
X183260000Y-133390000D03*
X185800000Y-132120000D03*
X183260000Y-130850000D03*
X185800000Y-129580000D03*
X183260000Y-128310000D03*
X185800000Y-127040000D03*
X183260000Y-125770000D03*
D19*
X185800000Y-124500000D03*
G04 #@! TD*
D10*
G04 #@! TO.C,J902*
X117340000Y-108100000D03*
D11*
X114800000Y-108100000D03*
G04 #@! TD*
D10*
G04 #@! TO.C,J703*
X110640000Y-115040000D03*
X110640000Y-112500000D03*
X113180000Y-115040000D03*
X113180000Y-112500000D03*
X115720000Y-115040000D03*
X115720000Y-112500000D03*
X118260000Y-115040000D03*
X118260000Y-112500000D03*
X120800000Y-115040000D03*
D11*
X120800000Y-112500000D03*
G04 #@! TD*
D10*
G04 #@! TO.C,J702*
X150240000Y-147700000D03*
X147700000Y-147700000D03*
D11*
X145160000Y-147700000D03*
G04 #@! TD*
D10*
G04 #@! TO.C,J701*
X161880000Y-147700000D03*
X159340000Y-147700000D03*
D11*
X156800000Y-147700000D03*
G04 #@! TD*
D10*
G04 #@! TO.C,J103*
X198000000Y-95080000D03*
X198000000Y-92540000D03*
D11*
X198000000Y-90000000D03*
G04 #@! TD*
D10*
G04 #@! TO.C,J102*
X110600000Y-120300000D03*
X113140000Y-120300000D03*
D11*
X115680000Y-120300000D03*
G04 #@! TD*
D10*
G04 #@! TO.C,J101*
X102000000Y-70500000D03*
X102000000Y-67960000D03*
D11*
X102000000Y-65420000D03*
G04 #@! TD*
M02*
