G04 #@! TF.GenerationSoftware,KiCad,Pcbnew,(5.1.6)-1*
G04 #@! TF.CreationDate,2020-06-22T19:30:58+02:00*
G04 #@! TF.ProjectId,plc-sniffer,706c632d-736e-4696-9666-65722e6b6963,rev?*
G04 #@! TF.SameCoordinates,Original*
G04 #@! TF.FileFunction,Soldermask,Top*
G04 #@! TF.FilePolarity,Negative*
%FSLAX46Y46*%
G04 Gerber Fmt 4.6, Leading zero omitted, Abs format (unit mm)*
G04 Created by KiCad (PCBNEW (5.1.6)-1) date 2020-06-22 19:30:58*
%MOMM*%
%LPD*%
G01*
G04 APERTURE LIST*
%ADD10O,1.800000X1.800000*%
%ADD11R,1.800000X1.800000*%
%ADD12C,1.800000*%
%ADD13C,0.900000*%
%ADD14C,6.500000*%
%ADD15R,1.000000X0.900000*%
%ADD16R,1.300000X1.500000*%
%ADD17R,2.100000X1.600000*%
%ADD18R,2.100000X3.900000*%
%ADD19R,0.950000X1.800000*%
%ADD20R,1.600000X2.100000*%
%ADD21R,3.900000X2.100000*%
%ADD22R,1.100000X0.850000*%
%ADD23R,0.900000X1.000000*%
%ADD24C,3.350000*%
%ADD25C,2.700000*%
%ADD26C,1.990000*%
%ADD27C,2.000000*%
%ADD28R,2.000000X2.000000*%
%ADD29R,1.500000X0.500000*%
%ADD30R,2.000000X2.400000*%
%ADD31R,2.000000X1.900000*%
%ADD32R,1.000000X1.300000*%
%ADD33R,1.300000X1.000000*%
%ADD34R,1.200000X1.200000*%
G04 APERTURE END LIST*
G04 #@! TO.C,C714*
G36*
G01*
X122312500Y-117981250D02*
X122312500Y-117418750D01*
G75*
G02*
X122556250Y-117175000I243750J0D01*
G01*
X123043750Y-117175000D01*
G75*
G02*
X123287500Y-117418750I0J-243750D01*
G01*
X123287500Y-117981250D01*
G75*
G02*
X123043750Y-118225000I-243750J0D01*
G01*
X122556250Y-118225000D01*
G75*
G02*
X122312500Y-117981250I0J243750D01*
G01*
G37*
G36*
G01*
X120737500Y-117981250D02*
X120737500Y-117418750D01*
G75*
G02*
X120981250Y-117175000I243750J0D01*
G01*
X121468750Y-117175000D01*
G75*
G02*
X121712500Y-117418750I0J-243750D01*
G01*
X121712500Y-117981250D01*
G75*
G02*
X121468750Y-118225000I-243750J0D01*
G01*
X120981250Y-118225000D01*
G75*
G02*
X120737500Y-117981250I0J243750D01*
G01*
G37*
G04 #@! TD*
G04 #@! TO.C,C712*
G36*
G01*
X143987500Y-123018750D02*
X143987500Y-123581250D01*
G75*
G02*
X143743750Y-123825000I-243750J0D01*
G01*
X143256250Y-123825000D01*
G75*
G02*
X143012500Y-123581250I0J243750D01*
G01*
X143012500Y-123018750D01*
G75*
G02*
X143256250Y-122775000I243750J0D01*
G01*
X143743750Y-122775000D01*
G75*
G02*
X143987500Y-123018750I0J-243750D01*
G01*
G37*
G36*
G01*
X145562500Y-123018750D02*
X145562500Y-123581250D01*
G75*
G02*
X145318750Y-123825000I-243750J0D01*
G01*
X144831250Y-123825000D01*
G75*
G02*
X144587500Y-123581250I0J243750D01*
G01*
X144587500Y-123018750D01*
G75*
G02*
X144831250Y-122775000I243750J0D01*
G01*
X145318750Y-122775000D01*
G75*
G02*
X145562500Y-123018750I0J-243750D01*
G01*
G37*
G04 #@! TD*
G04 #@! TO.C,C706*
G36*
G01*
X143312500Y-120418750D02*
X143312500Y-120981250D01*
G75*
G02*
X143068750Y-121225000I-243750J0D01*
G01*
X142581250Y-121225000D01*
G75*
G02*
X142337500Y-120981250I0J243750D01*
G01*
X142337500Y-120418750D01*
G75*
G02*
X142581250Y-120175000I243750J0D01*
G01*
X143068750Y-120175000D01*
G75*
G02*
X143312500Y-120418750I0J-243750D01*
G01*
G37*
G36*
G01*
X144887500Y-120418750D02*
X144887500Y-120981250D01*
G75*
G02*
X144643750Y-121225000I-243750J0D01*
G01*
X144156250Y-121225000D01*
G75*
G02*
X143912500Y-120981250I0J243750D01*
G01*
X143912500Y-120418750D01*
G75*
G02*
X144156250Y-120175000I243750J0D01*
G01*
X144643750Y-120175000D01*
G75*
G02*
X144887500Y-120418750I0J-243750D01*
G01*
G37*
G04 #@! TD*
G04 #@! TO.C,C802*
G36*
G01*
X188018750Y-83962500D02*
X188981250Y-83962500D01*
G75*
G02*
X189250000Y-84231250I0J-268750D01*
G01*
X189250000Y-84768750D01*
G75*
G02*
X188981250Y-85037500I-268750J0D01*
G01*
X188018750Y-85037500D01*
G75*
G02*
X187750000Y-84768750I0J268750D01*
G01*
X187750000Y-84231250D01*
G75*
G02*
X188018750Y-83962500I268750J0D01*
G01*
G37*
G36*
G01*
X188018750Y-82087500D02*
X188981250Y-82087500D01*
G75*
G02*
X189250000Y-82356250I0J-268750D01*
G01*
X189250000Y-82893750D01*
G75*
G02*
X188981250Y-83162500I-268750J0D01*
G01*
X188018750Y-83162500D01*
G75*
G02*
X187750000Y-82893750I0J268750D01*
G01*
X187750000Y-82356250D01*
G75*
G02*
X188018750Y-82087500I268750J0D01*
G01*
G37*
G04 #@! TD*
G04 #@! TO.C,C801*
G36*
G01*
X183262500Y-91418750D02*
X183262500Y-92381250D01*
G75*
G02*
X182993750Y-92650000I-268750J0D01*
G01*
X182456250Y-92650000D01*
G75*
G02*
X182187500Y-92381250I0J268750D01*
G01*
X182187500Y-91418750D01*
G75*
G02*
X182456250Y-91150000I268750J0D01*
G01*
X182993750Y-91150000D01*
G75*
G02*
X183262500Y-91418750I0J-268750D01*
G01*
G37*
G36*
G01*
X185137500Y-91418750D02*
X185137500Y-92381250D01*
G75*
G02*
X184868750Y-92650000I-268750J0D01*
G01*
X184331250Y-92650000D01*
G75*
G02*
X184062500Y-92381250I0J268750D01*
G01*
X184062500Y-91418750D01*
G75*
G02*
X184331250Y-91150000I268750J0D01*
G01*
X184868750Y-91150000D01*
G75*
G02*
X185137500Y-91418750I0J-268750D01*
G01*
G37*
G04 #@! TD*
D10*
G04 #@! TO.C,J601*
X134540000Y-55000000D03*
X132000000Y-55000000D03*
X129460000Y-55000000D03*
X126920000Y-55000000D03*
X124380000Y-55000000D03*
D11*
X121840000Y-55000000D03*
G04 #@! TD*
D10*
G04 #@! TO.C,J501*
X140000000Y-67700000D03*
X140000000Y-65160000D03*
X140000000Y-62620000D03*
X140000000Y-60080000D03*
X140000000Y-57540000D03*
D11*
X140000000Y-55000000D03*
G04 #@! TD*
D12*
G04 #@! TO.C,U802*
X176700000Y-91580000D03*
X176700000Y-89040000D03*
X176700000Y-86500000D03*
X176700000Y-81420000D03*
D11*
X176700000Y-78880000D03*
G04 #@! TD*
G04 #@! TO.C,U702*
G36*
G01*
X120862500Y-139700000D02*
X119487500Y-139700000D01*
G75*
G02*
X119387500Y-139600000I0J100000D01*
G01*
X119387500Y-139400000D01*
G75*
G02*
X119487500Y-139300000I100000J0D01*
G01*
X120862500Y-139300000D01*
G75*
G02*
X120962500Y-139400000I0J-100000D01*
G01*
X120962500Y-139600000D01*
G75*
G02*
X120862500Y-139700000I-100000J0D01*
G01*
G37*
G36*
G01*
X120862500Y-139200000D02*
X119487500Y-139200000D01*
G75*
G02*
X119387500Y-139100000I0J100000D01*
G01*
X119387500Y-138900000D01*
G75*
G02*
X119487500Y-138800000I100000J0D01*
G01*
X120862500Y-138800000D01*
G75*
G02*
X120962500Y-138900000I0J-100000D01*
G01*
X120962500Y-139100000D01*
G75*
G02*
X120862500Y-139200000I-100000J0D01*
G01*
G37*
G36*
G01*
X120862500Y-138700000D02*
X119487500Y-138700000D01*
G75*
G02*
X119387500Y-138600000I0J100000D01*
G01*
X119387500Y-138400000D01*
G75*
G02*
X119487500Y-138300000I100000J0D01*
G01*
X120862500Y-138300000D01*
G75*
G02*
X120962500Y-138400000I0J-100000D01*
G01*
X120962500Y-138600000D01*
G75*
G02*
X120862500Y-138700000I-100000J0D01*
G01*
G37*
G36*
G01*
X120862500Y-138200000D02*
X119487500Y-138200000D01*
G75*
G02*
X119387500Y-138100000I0J100000D01*
G01*
X119387500Y-137900000D01*
G75*
G02*
X119487500Y-137800000I100000J0D01*
G01*
X120862500Y-137800000D01*
G75*
G02*
X120962500Y-137900000I0J-100000D01*
G01*
X120962500Y-138100000D01*
G75*
G02*
X120862500Y-138200000I-100000J0D01*
G01*
G37*
G36*
G01*
X120862500Y-137700000D02*
X119487500Y-137700000D01*
G75*
G02*
X119387500Y-137600000I0J100000D01*
G01*
X119387500Y-137400000D01*
G75*
G02*
X119487500Y-137300000I100000J0D01*
G01*
X120862500Y-137300000D01*
G75*
G02*
X120962500Y-137400000I0J-100000D01*
G01*
X120962500Y-137600000D01*
G75*
G02*
X120862500Y-137700000I-100000J0D01*
G01*
G37*
G36*
G01*
X120862500Y-137200000D02*
X119487500Y-137200000D01*
G75*
G02*
X119387500Y-137100000I0J100000D01*
G01*
X119387500Y-136900000D01*
G75*
G02*
X119487500Y-136800000I100000J0D01*
G01*
X120862500Y-136800000D01*
G75*
G02*
X120962500Y-136900000I0J-100000D01*
G01*
X120962500Y-137100000D01*
G75*
G02*
X120862500Y-137200000I-100000J0D01*
G01*
G37*
G36*
G01*
X120862500Y-136700000D02*
X119487500Y-136700000D01*
G75*
G02*
X119387500Y-136600000I0J100000D01*
G01*
X119387500Y-136400000D01*
G75*
G02*
X119487500Y-136300000I100000J0D01*
G01*
X120862500Y-136300000D01*
G75*
G02*
X120962500Y-136400000I0J-100000D01*
G01*
X120962500Y-136600000D01*
G75*
G02*
X120862500Y-136700000I-100000J0D01*
G01*
G37*
G36*
G01*
X120862500Y-136200000D02*
X119487500Y-136200000D01*
G75*
G02*
X119387500Y-136100000I0J100000D01*
G01*
X119387500Y-135900000D01*
G75*
G02*
X119487500Y-135800000I100000J0D01*
G01*
X120862500Y-135800000D01*
G75*
G02*
X120962500Y-135900000I0J-100000D01*
G01*
X120962500Y-136100000D01*
G75*
G02*
X120862500Y-136200000I-100000J0D01*
G01*
G37*
G36*
G01*
X120862500Y-135700000D02*
X119487500Y-135700000D01*
G75*
G02*
X119387500Y-135600000I0J100000D01*
G01*
X119387500Y-135400000D01*
G75*
G02*
X119487500Y-135300000I100000J0D01*
G01*
X120862500Y-135300000D01*
G75*
G02*
X120962500Y-135400000I0J-100000D01*
G01*
X120962500Y-135600000D01*
G75*
G02*
X120862500Y-135700000I-100000J0D01*
G01*
G37*
G36*
G01*
X120862500Y-135200000D02*
X119487500Y-135200000D01*
G75*
G02*
X119387500Y-135100000I0J100000D01*
G01*
X119387500Y-134900000D01*
G75*
G02*
X119487500Y-134800000I100000J0D01*
G01*
X120862500Y-134800000D01*
G75*
G02*
X120962500Y-134900000I0J-100000D01*
G01*
X120962500Y-135100000D01*
G75*
G02*
X120862500Y-135200000I-100000J0D01*
G01*
G37*
G36*
G01*
X120862500Y-134700000D02*
X119487500Y-134700000D01*
G75*
G02*
X119387500Y-134600000I0J100000D01*
G01*
X119387500Y-134400000D01*
G75*
G02*
X119487500Y-134300000I100000J0D01*
G01*
X120862500Y-134300000D01*
G75*
G02*
X120962500Y-134400000I0J-100000D01*
G01*
X120962500Y-134600000D01*
G75*
G02*
X120862500Y-134700000I-100000J0D01*
G01*
G37*
G36*
G01*
X120862500Y-134200000D02*
X119487500Y-134200000D01*
G75*
G02*
X119387500Y-134100000I0J100000D01*
G01*
X119387500Y-133900000D01*
G75*
G02*
X119487500Y-133800000I100000J0D01*
G01*
X120862500Y-133800000D01*
G75*
G02*
X120962500Y-133900000I0J-100000D01*
G01*
X120962500Y-134100000D01*
G75*
G02*
X120862500Y-134200000I-100000J0D01*
G01*
G37*
G36*
G01*
X120862500Y-133700000D02*
X119487500Y-133700000D01*
G75*
G02*
X119387500Y-133600000I0J100000D01*
G01*
X119387500Y-133400000D01*
G75*
G02*
X119487500Y-133300000I100000J0D01*
G01*
X120862500Y-133300000D01*
G75*
G02*
X120962500Y-133400000I0J-100000D01*
G01*
X120962500Y-133600000D01*
G75*
G02*
X120862500Y-133700000I-100000J0D01*
G01*
G37*
G36*
G01*
X120862500Y-133200000D02*
X119487500Y-133200000D01*
G75*
G02*
X119387500Y-133100000I0J100000D01*
G01*
X119387500Y-132900000D01*
G75*
G02*
X119487500Y-132800000I100000J0D01*
G01*
X120862500Y-132800000D01*
G75*
G02*
X120962500Y-132900000I0J-100000D01*
G01*
X120962500Y-133100000D01*
G75*
G02*
X120862500Y-133200000I-100000J0D01*
G01*
G37*
G36*
G01*
X120862500Y-132700000D02*
X119487500Y-132700000D01*
G75*
G02*
X119387500Y-132600000I0J100000D01*
G01*
X119387500Y-132400000D01*
G75*
G02*
X119487500Y-132300000I100000J0D01*
G01*
X120862500Y-132300000D01*
G75*
G02*
X120962500Y-132400000I0J-100000D01*
G01*
X120962500Y-132600000D01*
G75*
G02*
X120862500Y-132700000I-100000J0D01*
G01*
G37*
G36*
G01*
X120862500Y-132200000D02*
X119487500Y-132200000D01*
G75*
G02*
X119387500Y-132100000I0J100000D01*
G01*
X119387500Y-131900000D01*
G75*
G02*
X119487500Y-131800000I100000J0D01*
G01*
X120862500Y-131800000D01*
G75*
G02*
X120962500Y-131900000I0J-100000D01*
G01*
X120962500Y-132100000D01*
G75*
G02*
X120862500Y-132200000I-100000J0D01*
G01*
G37*
G36*
G01*
X120862500Y-131700000D02*
X119487500Y-131700000D01*
G75*
G02*
X119387500Y-131600000I0J100000D01*
G01*
X119387500Y-131400000D01*
G75*
G02*
X119487500Y-131300000I100000J0D01*
G01*
X120862500Y-131300000D01*
G75*
G02*
X120962500Y-131400000I0J-100000D01*
G01*
X120962500Y-131600000D01*
G75*
G02*
X120862500Y-131700000I-100000J0D01*
G01*
G37*
G36*
G01*
X120862500Y-131200000D02*
X119487500Y-131200000D01*
G75*
G02*
X119387500Y-131100000I0J100000D01*
G01*
X119387500Y-130900000D01*
G75*
G02*
X119487500Y-130800000I100000J0D01*
G01*
X120862500Y-130800000D01*
G75*
G02*
X120962500Y-130900000I0J-100000D01*
G01*
X120962500Y-131100000D01*
G75*
G02*
X120862500Y-131200000I-100000J0D01*
G01*
G37*
G36*
G01*
X120862500Y-130700000D02*
X119487500Y-130700000D01*
G75*
G02*
X119387500Y-130600000I0J100000D01*
G01*
X119387500Y-130400000D01*
G75*
G02*
X119487500Y-130300000I100000J0D01*
G01*
X120862500Y-130300000D01*
G75*
G02*
X120962500Y-130400000I0J-100000D01*
G01*
X120962500Y-130600000D01*
G75*
G02*
X120862500Y-130700000I-100000J0D01*
G01*
G37*
G36*
G01*
X120862500Y-130200000D02*
X119487500Y-130200000D01*
G75*
G02*
X119387500Y-130100000I0J100000D01*
G01*
X119387500Y-129900000D01*
G75*
G02*
X119487500Y-129800000I100000J0D01*
G01*
X120862500Y-129800000D01*
G75*
G02*
X120962500Y-129900000I0J-100000D01*
G01*
X120962500Y-130100000D01*
G75*
G02*
X120862500Y-130200000I-100000J0D01*
G01*
G37*
G36*
G01*
X120862500Y-129700000D02*
X119487500Y-129700000D01*
G75*
G02*
X119387500Y-129600000I0J100000D01*
G01*
X119387500Y-129400000D01*
G75*
G02*
X119487500Y-129300000I100000J0D01*
G01*
X120862500Y-129300000D01*
G75*
G02*
X120962500Y-129400000I0J-100000D01*
G01*
X120962500Y-129600000D01*
G75*
G02*
X120862500Y-129700000I-100000J0D01*
G01*
G37*
G36*
G01*
X120862500Y-129200000D02*
X119487500Y-129200000D01*
G75*
G02*
X119387500Y-129100000I0J100000D01*
G01*
X119387500Y-128900000D01*
G75*
G02*
X119487500Y-128800000I100000J0D01*
G01*
X120862500Y-128800000D01*
G75*
G02*
X120962500Y-128900000I0J-100000D01*
G01*
X120962500Y-129100000D01*
G75*
G02*
X120862500Y-129200000I-100000J0D01*
G01*
G37*
G36*
G01*
X120862500Y-128700000D02*
X119487500Y-128700000D01*
G75*
G02*
X119387500Y-128600000I0J100000D01*
G01*
X119387500Y-128400000D01*
G75*
G02*
X119487500Y-128300000I100000J0D01*
G01*
X120862500Y-128300000D01*
G75*
G02*
X120962500Y-128400000I0J-100000D01*
G01*
X120962500Y-128600000D01*
G75*
G02*
X120862500Y-128700000I-100000J0D01*
G01*
G37*
G36*
G01*
X120862500Y-128200000D02*
X119487500Y-128200000D01*
G75*
G02*
X119387500Y-128100000I0J100000D01*
G01*
X119387500Y-127900000D01*
G75*
G02*
X119487500Y-127800000I100000J0D01*
G01*
X120862500Y-127800000D01*
G75*
G02*
X120962500Y-127900000I0J-100000D01*
G01*
X120962500Y-128100000D01*
G75*
G02*
X120862500Y-128200000I-100000J0D01*
G01*
G37*
G36*
G01*
X120862500Y-127700000D02*
X119487500Y-127700000D01*
G75*
G02*
X119387500Y-127600000I0J100000D01*
G01*
X119387500Y-127400000D01*
G75*
G02*
X119487500Y-127300000I100000J0D01*
G01*
X120862500Y-127300000D01*
G75*
G02*
X120962500Y-127400000I0J-100000D01*
G01*
X120962500Y-127600000D01*
G75*
G02*
X120862500Y-127700000I-100000J0D01*
G01*
G37*
G36*
G01*
X120862500Y-127200000D02*
X119487500Y-127200000D01*
G75*
G02*
X119387500Y-127100000I0J100000D01*
G01*
X119387500Y-126900000D01*
G75*
G02*
X119487500Y-126800000I100000J0D01*
G01*
X120862500Y-126800000D01*
G75*
G02*
X120962500Y-126900000I0J-100000D01*
G01*
X120962500Y-127100000D01*
G75*
G02*
X120862500Y-127200000I-100000J0D01*
G01*
G37*
G36*
G01*
X120862500Y-126700000D02*
X119487500Y-126700000D01*
G75*
G02*
X119387500Y-126600000I0J100000D01*
G01*
X119387500Y-126400000D01*
G75*
G02*
X119487500Y-126300000I100000J0D01*
G01*
X120862500Y-126300000D01*
G75*
G02*
X120962500Y-126400000I0J-100000D01*
G01*
X120962500Y-126600000D01*
G75*
G02*
X120862500Y-126700000I-100000J0D01*
G01*
G37*
G36*
G01*
X120862500Y-126200000D02*
X119487500Y-126200000D01*
G75*
G02*
X119387500Y-126100000I0J100000D01*
G01*
X119387500Y-125900000D01*
G75*
G02*
X119487500Y-125800000I100000J0D01*
G01*
X120862500Y-125800000D01*
G75*
G02*
X120962500Y-125900000I0J-100000D01*
G01*
X120962500Y-126100000D01*
G75*
G02*
X120862500Y-126200000I-100000J0D01*
G01*
G37*
G36*
G01*
X120862500Y-125700000D02*
X119487500Y-125700000D01*
G75*
G02*
X119387500Y-125600000I0J100000D01*
G01*
X119387500Y-125400000D01*
G75*
G02*
X119487500Y-125300000I100000J0D01*
G01*
X120862500Y-125300000D01*
G75*
G02*
X120962500Y-125400000I0J-100000D01*
G01*
X120962500Y-125600000D01*
G75*
G02*
X120862500Y-125700000I-100000J0D01*
G01*
G37*
G36*
G01*
X120862500Y-125200000D02*
X119487500Y-125200000D01*
G75*
G02*
X119387500Y-125100000I0J100000D01*
G01*
X119387500Y-124900000D01*
G75*
G02*
X119487500Y-124800000I100000J0D01*
G01*
X120862500Y-124800000D01*
G75*
G02*
X120962500Y-124900000I0J-100000D01*
G01*
X120962500Y-125100000D01*
G75*
G02*
X120862500Y-125200000I-100000J0D01*
G01*
G37*
G36*
G01*
X120862500Y-124700000D02*
X119487500Y-124700000D01*
G75*
G02*
X119387500Y-124600000I0J100000D01*
G01*
X119387500Y-124400000D01*
G75*
G02*
X119487500Y-124300000I100000J0D01*
G01*
X120862500Y-124300000D01*
G75*
G02*
X120962500Y-124400000I0J-100000D01*
G01*
X120962500Y-124600000D01*
G75*
G02*
X120862500Y-124700000I-100000J0D01*
G01*
G37*
G36*
G01*
X120862500Y-124200000D02*
X119487500Y-124200000D01*
G75*
G02*
X119387500Y-124100000I0J100000D01*
G01*
X119387500Y-123900000D01*
G75*
G02*
X119487500Y-123800000I100000J0D01*
G01*
X120862500Y-123800000D01*
G75*
G02*
X120962500Y-123900000I0J-100000D01*
G01*
X120962500Y-124100000D01*
G75*
G02*
X120862500Y-124200000I-100000J0D01*
G01*
G37*
G36*
G01*
X120862500Y-123700000D02*
X119487500Y-123700000D01*
G75*
G02*
X119387500Y-123600000I0J100000D01*
G01*
X119387500Y-123400000D01*
G75*
G02*
X119487500Y-123300000I100000J0D01*
G01*
X120862500Y-123300000D01*
G75*
G02*
X120962500Y-123400000I0J-100000D01*
G01*
X120962500Y-123600000D01*
G75*
G02*
X120862500Y-123700000I-100000J0D01*
G01*
G37*
G36*
G01*
X120862500Y-123200000D02*
X119487500Y-123200000D01*
G75*
G02*
X119387500Y-123100000I0J100000D01*
G01*
X119387500Y-122900000D01*
G75*
G02*
X119487500Y-122800000I100000J0D01*
G01*
X120862500Y-122800000D01*
G75*
G02*
X120962500Y-122900000I0J-100000D01*
G01*
X120962500Y-123100000D01*
G75*
G02*
X120862500Y-123200000I-100000J0D01*
G01*
G37*
G36*
G01*
X120862500Y-122700000D02*
X119487500Y-122700000D01*
G75*
G02*
X119387500Y-122600000I0J100000D01*
G01*
X119387500Y-122400000D01*
G75*
G02*
X119487500Y-122300000I100000J0D01*
G01*
X120862500Y-122300000D01*
G75*
G02*
X120962500Y-122400000I0J-100000D01*
G01*
X120962500Y-122600000D01*
G75*
G02*
X120862500Y-122700000I-100000J0D01*
G01*
G37*
G36*
G01*
X120862500Y-122200000D02*
X119487500Y-122200000D01*
G75*
G02*
X119387500Y-122100000I0J100000D01*
G01*
X119387500Y-121900000D01*
G75*
G02*
X119487500Y-121800000I100000J0D01*
G01*
X120862500Y-121800000D01*
G75*
G02*
X120962500Y-121900000I0J-100000D01*
G01*
X120962500Y-122100000D01*
G75*
G02*
X120862500Y-122200000I-100000J0D01*
G01*
G37*
G36*
G01*
X122187500Y-120875000D02*
X121987500Y-120875000D01*
G75*
G02*
X121887500Y-120775000I0J100000D01*
G01*
X121887500Y-119400000D01*
G75*
G02*
X121987500Y-119300000I100000J0D01*
G01*
X122187500Y-119300000D01*
G75*
G02*
X122287500Y-119400000I0J-100000D01*
G01*
X122287500Y-120775000D01*
G75*
G02*
X122187500Y-120875000I-100000J0D01*
G01*
G37*
G36*
G01*
X122687500Y-120875000D02*
X122487500Y-120875000D01*
G75*
G02*
X122387500Y-120775000I0J100000D01*
G01*
X122387500Y-119400000D01*
G75*
G02*
X122487500Y-119300000I100000J0D01*
G01*
X122687500Y-119300000D01*
G75*
G02*
X122787500Y-119400000I0J-100000D01*
G01*
X122787500Y-120775000D01*
G75*
G02*
X122687500Y-120875000I-100000J0D01*
G01*
G37*
G36*
G01*
X123187500Y-120875000D02*
X122987500Y-120875000D01*
G75*
G02*
X122887500Y-120775000I0J100000D01*
G01*
X122887500Y-119400000D01*
G75*
G02*
X122987500Y-119300000I100000J0D01*
G01*
X123187500Y-119300000D01*
G75*
G02*
X123287500Y-119400000I0J-100000D01*
G01*
X123287500Y-120775000D01*
G75*
G02*
X123187500Y-120875000I-100000J0D01*
G01*
G37*
G36*
G01*
X123687500Y-120875000D02*
X123487500Y-120875000D01*
G75*
G02*
X123387500Y-120775000I0J100000D01*
G01*
X123387500Y-119400000D01*
G75*
G02*
X123487500Y-119300000I100000J0D01*
G01*
X123687500Y-119300000D01*
G75*
G02*
X123787500Y-119400000I0J-100000D01*
G01*
X123787500Y-120775000D01*
G75*
G02*
X123687500Y-120875000I-100000J0D01*
G01*
G37*
G36*
G01*
X124187500Y-120875000D02*
X123987500Y-120875000D01*
G75*
G02*
X123887500Y-120775000I0J100000D01*
G01*
X123887500Y-119400000D01*
G75*
G02*
X123987500Y-119300000I100000J0D01*
G01*
X124187500Y-119300000D01*
G75*
G02*
X124287500Y-119400000I0J-100000D01*
G01*
X124287500Y-120775000D01*
G75*
G02*
X124187500Y-120875000I-100000J0D01*
G01*
G37*
G36*
G01*
X124687500Y-120875000D02*
X124487500Y-120875000D01*
G75*
G02*
X124387500Y-120775000I0J100000D01*
G01*
X124387500Y-119400000D01*
G75*
G02*
X124487500Y-119300000I100000J0D01*
G01*
X124687500Y-119300000D01*
G75*
G02*
X124787500Y-119400000I0J-100000D01*
G01*
X124787500Y-120775000D01*
G75*
G02*
X124687500Y-120875000I-100000J0D01*
G01*
G37*
G36*
G01*
X125187500Y-120875000D02*
X124987500Y-120875000D01*
G75*
G02*
X124887500Y-120775000I0J100000D01*
G01*
X124887500Y-119400000D01*
G75*
G02*
X124987500Y-119300000I100000J0D01*
G01*
X125187500Y-119300000D01*
G75*
G02*
X125287500Y-119400000I0J-100000D01*
G01*
X125287500Y-120775000D01*
G75*
G02*
X125187500Y-120875000I-100000J0D01*
G01*
G37*
G36*
G01*
X125687500Y-120875000D02*
X125487500Y-120875000D01*
G75*
G02*
X125387500Y-120775000I0J100000D01*
G01*
X125387500Y-119400000D01*
G75*
G02*
X125487500Y-119300000I100000J0D01*
G01*
X125687500Y-119300000D01*
G75*
G02*
X125787500Y-119400000I0J-100000D01*
G01*
X125787500Y-120775000D01*
G75*
G02*
X125687500Y-120875000I-100000J0D01*
G01*
G37*
G36*
G01*
X126187500Y-120875000D02*
X125987500Y-120875000D01*
G75*
G02*
X125887500Y-120775000I0J100000D01*
G01*
X125887500Y-119400000D01*
G75*
G02*
X125987500Y-119300000I100000J0D01*
G01*
X126187500Y-119300000D01*
G75*
G02*
X126287500Y-119400000I0J-100000D01*
G01*
X126287500Y-120775000D01*
G75*
G02*
X126187500Y-120875000I-100000J0D01*
G01*
G37*
G36*
G01*
X126687500Y-120875000D02*
X126487500Y-120875000D01*
G75*
G02*
X126387500Y-120775000I0J100000D01*
G01*
X126387500Y-119400000D01*
G75*
G02*
X126487500Y-119300000I100000J0D01*
G01*
X126687500Y-119300000D01*
G75*
G02*
X126787500Y-119400000I0J-100000D01*
G01*
X126787500Y-120775000D01*
G75*
G02*
X126687500Y-120875000I-100000J0D01*
G01*
G37*
G36*
G01*
X127187500Y-120875000D02*
X126987500Y-120875000D01*
G75*
G02*
X126887500Y-120775000I0J100000D01*
G01*
X126887500Y-119400000D01*
G75*
G02*
X126987500Y-119300000I100000J0D01*
G01*
X127187500Y-119300000D01*
G75*
G02*
X127287500Y-119400000I0J-100000D01*
G01*
X127287500Y-120775000D01*
G75*
G02*
X127187500Y-120875000I-100000J0D01*
G01*
G37*
G36*
G01*
X127687500Y-120875000D02*
X127487500Y-120875000D01*
G75*
G02*
X127387500Y-120775000I0J100000D01*
G01*
X127387500Y-119400000D01*
G75*
G02*
X127487500Y-119300000I100000J0D01*
G01*
X127687500Y-119300000D01*
G75*
G02*
X127787500Y-119400000I0J-100000D01*
G01*
X127787500Y-120775000D01*
G75*
G02*
X127687500Y-120875000I-100000J0D01*
G01*
G37*
G36*
G01*
X128187500Y-120875000D02*
X127987500Y-120875000D01*
G75*
G02*
X127887500Y-120775000I0J100000D01*
G01*
X127887500Y-119400000D01*
G75*
G02*
X127987500Y-119300000I100000J0D01*
G01*
X128187500Y-119300000D01*
G75*
G02*
X128287500Y-119400000I0J-100000D01*
G01*
X128287500Y-120775000D01*
G75*
G02*
X128187500Y-120875000I-100000J0D01*
G01*
G37*
G36*
G01*
X128687500Y-120875000D02*
X128487500Y-120875000D01*
G75*
G02*
X128387500Y-120775000I0J100000D01*
G01*
X128387500Y-119400000D01*
G75*
G02*
X128487500Y-119300000I100000J0D01*
G01*
X128687500Y-119300000D01*
G75*
G02*
X128787500Y-119400000I0J-100000D01*
G01*
X128787500Y-120775000D01*
G75*
G02*
X128687500Y-120875000I-100000J0D01*
G01*
G37*
G36*
G01*
X129187500Y-120875000D02*
X128987500Y-120875000D01*
G75*
G02*
X128887500Y-120775000I0J100000D01*
G01*
X128887500Y-119400000D01*
G75*
G02*
X128987500Y-119300000I100000J0D01*
G01*
X129187500Y-119300000D01*
G75*
G02*
X129287500Y-119400000I0J-100000D01*
G01*
X129287500Y-120775000D01*
G75*
G02*
X129187500Y-120875000I-100000J0D01*
G01*
G37*
G36*
G01*
X129687500Y-120875000D02*
X129487500Y-120875000D01*
G75*
G02*
X129387500Y-120775000I0J100000D01*
G01*
X129387500Y-119400000D01*
G75*
G02*
X129487500Y-119300000I100000J0D01*
G01*
X129687500Y-119300000D01*
G75*
G02*
X129787500Y-119400000I0J-100000D01*
G01*
X129787500Y-120775000D01*
G75*
G02*
X129687500Y-120875000I-100000J0D01*
G01*
G37*
G36*
G01*
X130187500Y-120875000D02*
X129987500Y-120875000D01*
G75*
G02*
X129887500Y-120775000I0J100000D01*
G01*
X129887500Y-119400000D01*
G75*
G02*
X129987500Y-119300000I100000J0D01*
G01*
X130187500Y-119300000D01*
G75*
G02*
X130287500Y-119400000I0J-100000D01*
G01*
X130287500Y-120775000D01*
G75*
G02*
X130187500Y-120875000I-100000J0D01*
G01*
G37*
G36*
G01*
X130687500Y-120875000D02*
X130487500Y-120875000D01*
G75*
G02*
X130387500Y-120775000I0J100000D01*
G01*
X130387500Y-119400000D01*
G75*
G02*
X130487500Y-119300000I100000J0D01*
G01*
X130687500Y-119300000D01*
G75*
G02*
X130787500Y-119400000I0J-100000D01*
G01*
X130787500Y-120775000D01*
G75*
G02*
X130687500Y-120875000I-100000J0D01*
G01*
G37*
G36*
G01*
X131187500Y-120875000D02*
X130987500Y-120875000D01*
G75*
G02*
X130887500Y-120775000I0J100000D01*
G01*
X130887500Y-119400000D01*
G75*
G02*
X130987500Y-119300000I100000J0D01*
G01*
X131187500Y-119300000D01*
G75*
G02*
X131287500Y-119400000I0J-100000D01*
G01*
X131287500Y-120775000D01*
G75*
G02*
X131187500Y-120875000I-100000J0D01*
G01*
G37*
G36*
G01*
X131687500Y-120875000D02*
X131487500Y-120875000D01*
G75*
G02*
X131387500Y-120775000I0J100000D01*
G01*
X131387500Y-119400000D01*
G75*
G02*
X131487500Y-119300000I100000J0D01*
G01*
X131687500Y-119300000D01*
G75*
G02*
X131787500Y-119400000I0J-100000D01*
G01*
X131787500Y-120775000D01*
G75*
G02*
X131687500Y-120875000I-100000J0D01*
G01*
G37*
G36*
G01*
X132187500Y-120875000D02*
X131987500Y-120875000D01*
G75*
G02*
X131887500Y-120775000I0J100000D01*
G01*
X131887500Y-119400000D01*
G75*
G02*
X131987500Y-119300000I100000J0D01*
G01*
X132187500Y-119300000D01*
G75*
G02*
X132287500Y-119400000I0J-100000D01*
G01*
X132287500Y-120775000D01*
G75*
G02*
X132187500Y-120875000I-100000J0D01*
G01*
G37*
G36*
G01*
X132687500Y-120875000D02*
X132487500Y-120875000D01*
G75*
G02*
X132387500Y-120775000I0J100000D01*
G01*
X132387500Y-119400000D01*
G75*
G02*
X132487500Y-119300000I100000J0D01*
G01*
X132687500Y-119300000D01*
G75*
G02*
X132787500Y-119400000I0J-100000D01*
G01*
X132787500Y-120775000D01*
G75*
G02*
X132687500Y-120875000I-100000J0D01*
G01*
G37*
G36*
G01*
X133187500Y-120875000D02*
X132987500Y-120875000D01*
G75*
G02*
X132887500Y-120775000I0J100000D01*
G01*
X132887500Y-119400000D01*
G75*
G02*
X132987500Y-119300000I100000J0D01*
G01*
X133187500Y-119300000D01*
G75*
G02*
X133287500Y-119400000I0J-100000D01*
G01*
X133287500Y-120775000D01*
G75*
G02*
X133187500Y-120875000I-100000J0D01*
G01*
G37*
G36*
G01*
X133687500Y-120875000D02*
X133487500Y-120875000D01*
G75*
G02*
X133387500Y-120775000I0J100000D01*
G01*
X133387500Y-119400000D01*
G75*
G02*
X133487500Y-119300000I100000J0D01*
G01*
X133687500Y-119300000D01*
G75*
G02*
X133787500Y-119400000I0J-100000D01*
G01*
X133787500Y-120775000D01*
G75*
G02*
X133687500Y-120875000I-100000J0D01*
G01*
G37*
G36*
G01*
X134187500Y-120875000D02*
X133987500Y-120875000D01*
G75*
G02*
X133887500Y-120775000I0J100000D01*
G01*
X133887500Y-119400000D01*
G75*
G02*
X133987500Y-119300000I100000J0D01*
G01*
X134187500Y-119300000D01*
G75*
G02*
X134287500Y-119400000I0J-100000D01*
G01*
X134287500Y-120775000D01*
G75*
G02*
X134187500Y-120875000I-100000J0D01*
G01*
G37*
G36*
G01*
X134687500Y-120875000D02*
X134487500Y-120875000D01*
G75*
G02*
X134387500Y-120775000I0J100000D01*
G01*
X134387500Y-119400000D01*
G75*
G02*
X134487500Y-119300000I100000J0D01*
G01*
X134687500Y-119300000D01*
G75*
G02*
X134787500Y-119400000I0J-100000D01*
G01*
X134787500Y-120775000D01*
G75*
G02*
X134687500Y-120875000I-100000J0D01*
G01*
G37*
G36*
G01*
X135187500Y-120875000D02*
X134987500Y-120875000D01*
G75*
G02*
X134887500Y-120775000I0J100000D01*
G01*
X134887500Y-119400000D01*
G75*
G02*
X134987500Y-119300000I100000J0D01*
G01*
X135187500Y-119300000D01*
G75*
G02*
X135287500Y-119400000I0J-100000D01*
G01*
X135287500Y-120775000D01*
G75*
G02*
X135187500Y-120875000I-100000J0D01*
G01*
G37*
G36*
G01*
X135687500Y-120875000D02*
X135487500Y-120875000D01*
G75*
G02*
X135387500Y-120775000I0J100000D01*
G01*
X135387500Y-119400000D01*
G75*
G02*
X135487500Y-119300000I100000J0D01*
G01*
X135687500Y-119300000D01*
G75*
G02*
X135787500Y-119400000I0J-100000D01*
G01*
X135787500Y-120775000D01*
G75*
G02*
X135687500Y-120875000I-100000J0D01*
G01*
G37*
G36*
G01*
X136187500Y-120875000D02*
X135987500Y-120875000D01*
G75*
G02*
X135887500Y-120775000I0J100000D01*
G01*
X135887500Y-119400000D01*
G75*
G02*
X135987500Y-119300000I100000J0D01*
G01*
X136187500Y-119300000D01*
G75*
G02*
X136287500Y-119400000I0J-100000D01*
G01*
X136287500Y-120775000D01*
G75*
G02*
X136187500Y-120875000I-100000J0D01*
G01*
G37*
G36*
G01*
X136687500Y-120875000D02*
X136487500Y-120875000D01*
G75*
G02*
X136387500Y-120775000I0J100000D01*
G01*
X136387500Y-119400000D01*
G75*
G02*
X136487500Y-119300000I100000J0D01*
G01*
X136687500Y-119300000D01*
G75*
G02*
X136787500Y-119400000I0J-100000D01*
G01*
X136787500Y-120775000D01*
G75*
G02*
X136687500Y-120875000I-100000J0D01*
G01*
G37*
G36*
G01*
X137187500Y-120875000D02*
X136987500Y-120875000D01*
G75*
G02*
X136887500Y-120775000I0J100000D01*
G01*
X136887500Y-119400000D01*
G75*
G02*
X136987500Y-119300000I100000J0D01*
G01*
X137187500Y-119300000D01*
G75*
G02*
X137287500Y-119400000I0J-100000D01*
G01*
X137287500Y-120775000D01*
G75*
G02*
X137187500Y-120875000I-100000J0D01*
G01*
G37*
G36*
G01*
X137687500Y-120875000D02*
X137487500Y-120875000D01*
G75*
G02*
X137387500Y-120775000I0J100000D01*
G01*
X137387500Y-119400000D01*
G75*
G02*
X137487500Y-119300000I100000J0D01*
G01*
X137687500Y-119300000D01*
G75*
G02*
X137787500Y-119400000I0J-100000D01*
G01*
X137787500Y-120775000D01*
G75*
G02*
X137687500Y-120875000I-100000J0D01*
G01*
G37*
G36*
G01*
X138187500Y-120875000D02*
X137987500Y-120875000D01*
G75*
G02*
X137887500Y-120775000I0J100000D01*
G01*
X137887500Y-119400000D01*
G75*
G02*
X137987500Y-119300000I100000J0D01*
G01*
X138187500Y-119300000D01*
G75*
G02*
X138287500Y-119400000I0J-100000D01*
G01*
X138287500Y-120775000D01*
G75*
G02*
X138187500Y-120875000I-100000J0D01*
G01*
G37*
G36*
G01*
X138687500Y-120875000D02*
X138487500Y-120875000D01*
G75*
G02*
X138387500Y-120775000I0J100000D01*
G01*
X138387500Y-119400000D01*
G75*
G02*
X138487500Y-119300000I100000J0D01*
G01*
X138687500Y-119300000D01*
G75*
G02*
X138787500Y-119400000I0J-100000D01*
G01*
X138787500Y-120775000D01*
G75*
G02*
X138687500Y-120875000I-100000J0D01*
G01*
G37*
G36*
G01*
X139187500Y-120875000D02*
X138987500Y-120875000D01*
G75*
G02*
X138887500Y-120775000I0J100000D01*
G01*
X138887500Y-119400000D01*
G75*
G02*
X138987500Y-119300000I100000J0D01*
G01*
X139187500Y-119300000D01*
G75*
G02*
X139287500Y-119400000I0J-100000D01*
G01*
X139287500Y-120775000D01*
G75*
G02*
X139187500Y-120875000I-100000J0D01*
G01*
G37*
G36*
G01*
X139687500Y-120875000D02*
X139487500Y-120875000D01*
G75*
G02*
X139387500Y-120775000I0J100000D01*
G01*
X139387500Y-119400000D01*
G75*
G02*
X139487500Y-119300000I100000J0D01*
G01*
X139687500Y-119300000D01*
G75*
G02*
X139787500Y-119400000I0J-100000D01*
G01*
X139787500Y-120775000D01*
G75*
G02*
X139687500Y-120875000I-100000J0D01*
G01*
G37*
G36*
G01*
X142187500Y-122200000D02*
X140812500Y-122200000D01*
G75*
G02*
X140712500Y-122100000I0J100000D01*
G01*
X140712500Y-121900000D01*
G75*
G02*
X140812500Y-121800000I100000J0D01*
G01*
X142187500Y-121800000D01*
G75*
G02*
X142287500Y-121900000I0J-100000D01*
G01*
X142287500Y-122100000D01*
G75*
G02*
X142187500Y-122200000I-100000J0D01*
G01*
G37*
G36*
G01*
X142187500Y-122700000D02*
X140812500Y-122700000D01*
G75*
G02*
X140712500Y-122600000I0J100000D01*
G01*
X140712500Y-122400000D01*
G75*
G02*
X140812500Y-122300000I100000J0D01*
G01*
X142187500Y-122300000D01*
G75*
G02*
X142287500Y-122400000I0J-100000D01*
G01*
X142287500Y-122600000D01*
G75*
G02*
X142187500Y-122700000I-100000J0D01*
G01*
G37*
G36*
G01*
X142187500Y-123200000D02*
X140812500Y-123200000D01*
G75*
G02*
X140712500Y-123100000I0J100000D01*
G01*
X140712500Y-122900000D01*
G75*
G02*
X140812500Y-122800000I100000J0D01*
G01*
X142187500Y-122800000D01*
G75*
G02*
X142287500Y-122900000I0J-100000D01*
G01*
X142287500Y-123100000D01*
G75*
G02*
X142187500Y-123200000I-100000J0D01*
G01*
G37*
G36*
G01*
X142187500Y-123700000D02*
X140812500Y-123700000D01*
G75*
G02*
X140712500Y-123600000I0J100000D01*
G01*
X140712500Y-123400000D01*
G75*
G02*
X140812500Y-123300000I100000J0D01*
G01*
X142187500Y-123300000D01*
G75*
G02*
X142287500Y-123400000I0J-100000D01*
G01*
X142287500Y-123600000D01*
G75*
G02*
X142187500Y-123700000I-100000J0D01*
G01*
G37*
G36*
G01*
X142187500Y-124200000D02*
X140812500Y-124200000D01*
G75*
G02*
X140712500Y-124100000I0J100000D01*
G01*
X140712500Y-123900000D01*
G75*
G02*
X140812500Y-123800000I100000J0D01*
G01*
X142187500Y-123800000D01*
G75*
G02*
X142287500Y-123900000I0J-100000D01*
G01*
X142287500Y-124100000D01*
G75*
G02*
X142187500Y-124200000I-100000J0D01*
G01*
G37*
G36*
G01*
X142187500Y-124700000D02*
X140812500Y-124700000D01*
G75*
G02*
X140712500Y-124600000I0J100000D01*
G01*
X140712500Y-124400000D01*
G75*
G02*
X140812500Y-124300000I100000J0D01*
G01*
X142187500Y-124300000D01*
G75*
G02*
X142287500Y-124400000I0J-100000D01*
G01*
X142287500Y-124600000D01*
G75*
G02*
X142187500Y-124700000I-100000J0D01*
G01*
G37*
G36*
G01*
X142187500Y-125200000D02*
X140812500Y-125200000D01*
G75*
G02*
X140712500Y-125100000I0J100000D01*
G01*
X140712500Y-124900000D01*
G75*
G02*
X140812500Y-124800000I100000J0D01*
G01*
X142187500Y-124800000D01*
G75*
G02*
X142287500Y-124900000I0J-100000D01*
G01*
X142287500Y-125100000D01*
G75*
G02*
X142187500Y-125200000I-100000J0D01*
G01*
G37*
G36*
G01*
X142187500Y-125700000D02*
X140812500Y-125700000D01*
G75*
G02*
X140712500Y-125600000I0J100000D01*
G01*
X140712500Y-125400000D01*
G75*
G02*
X140812500Y-125300000I100000J0D01*
G01*
X142187500Y-125300000D01*
G75*
G02*
X142287500Y-125400000I0J-100000D01*
G01*
X142287500Y-125600000D01*
G75*
G02*
X142187500Y-125700000I-100000J0D01*
G01*
G37*
G36*
G01*
X142187500Y-126200000D02*
X140812500Y-126200000D01*
G75*
G02*
X140712500Y-126100000I0J100000D01*
G01*
X140712500Y-125900000D01*
G75*
G02*
X140812500Y-125800000I100000J0D01*
G01*
X142187500Y-125800000D01*
G75*
G02*
X142287500Y-125900000I0J-100000D01*
G01*
X142287500Y-126100000D01*
G75*
G02*
X142187500Y-126200000I-100000J0D01*
G01*
G37*
G36*
G01*
X142187500Y-126700000D02*
X140812500Y-126700000D01*
G75*
G02*
X140712500Y-126600000I0J100000D01*
G01*
X140712500Y-126400000D01*
G75*
G02*
X140812500Y-126300000I100000J0D01*
G01*
X142187500Y-126300000D01*
G75*
G02*
X142287500Y-126400000I0J-100000D01*
G01*
X142287500Y-126600000D01*
G75*
G02*
X142187500Y-126700000I-100000J0D01*
G01*
G37*
G36*
G01*
X142187500Y-127200000D02*
X140812500Y-127200000D01*
G75*
G02*
X140712500Y-127100000I0J100000D01*
G01*
X140712500Y-126900000D01*
G75*
G02*
X140812500Y-126800000I100000J0D01*
G01*
X142187500Y-126800000D01*
G75*
G02*
X142287500Y-126900000I0J-100000D01*
G01*
X142287500Y-127100000D01*
G75*
G02*
X142187500Y-127200000I-100000J0D01*
G01*
G37*
G36*
G01*
X142187500Y-127700000D02*
X140812500Y-127700000D01*
G75*
G02*
X140712500Y-127600000I0J100000D01*
G01*
X140712500Y-127400000D01*
G75*
G02*
X140812500Y-127300000I100000J0D01*
G01*
X142187500Y-127300000D01*
G75*
G02*
X142287500Y-127400000I0J-100000D01*
G01*
X142287500Y-127600000D01*
G75*
G02*
X142187500Y-127700000I-100000J0D01*
G01*
G37*
G36*
G01*
X142187500Y-128200000D02*
X140812500Y-128200000D01*
G75*
G02*
X140712500Y-128100000I0J100000D01*
G01*
X140712500Y-127900000D01*
G75*
G02*
X140812500Y-127800000I100000J0D01*
G01*
X142187500Y-127800000D01*
G75*
G02*
X142287500Y-127900000I0J-100000D01*
G01*
X142287500Y-128100000D01*
G75*
G02*
X142187500Y-128200000I-100000J0D01*
G01*
G37*
G36*
G01*
X142187500Y-128700000D02*
X140812500Y-128700000D01*
G75*
G02*
X140712500Y-128600000I0J100000D01*
G01*
X140712500Y-128400000D01*
G75*
G02*
X140812500Y-128300000I100000J0D01*
G01*
X142187500Y-128300000D01*
G75*
G02*
X142287500Y-128400000I0J-100000D01*
G01*
X142287500Y-128600000D01*
G75*
G02*
X142187500Y-128700000I-100000J0D01*
G01*
G37*
G36*
G01*
X142187500Y-129200000D02*
X140812500Y-129200000D01*
G75*
G02*
X140712500Y-129100000I0J100000D01*
G01*
X140712500Y-128900000D01*
G75*
G02*
X140812500Y-128800000I100000J0D01*
G01*
X142187500Y-128800000D01*
G75*
G02*
X142287500Y-128900000I0J-100000D01*
G01*
X142287500Y-129100000D01*
G75*
G02*
X142187500Y-129200000I-100000J0D01*
G01*
G37*
G36*
G01*
X142187500Y-129700000D02*
X140812500Y-129700000D01*
G75*
G02*
X140712500Y-129600000I0J100000D01*
G01*
X140712500Y-129400000D01*
G75*
G02*
X140812500Y-129300000I100000J0D01*
G01*
X142187500Y-129300000D01*
G75*
G02*
X142287500Y-129400000I0J-100000D01*
G01*
X142287500Y-129600000D01*
G75*
G02*
X142187500Y-129700000I-100000J0D01*
G01*
G37*
G36*
G01*
X142187500Y-130200000D02*
X140812500Y-130200000D01*
G75*
G02*
X140712500Y-130100000I0J100000D01*
G01*
X140712500Y-129900000D01*
G75*
G02*
X140812500Y-129800000I100000J0D01*
G01*
X142187500Y-129800000D01*
G75*
G02*
X142287500Y-129900000I0J-100000D01*
G01*
X142287500Y-130100000D01*
G75*
G02*
X142187500Y-130200000I-100000J0D01*
G01*
G37*
G36*
G01*
X142187500Y-130700000D02*
X140812500Y-130700000D01*
G75*
G02*
X140712500Y-130600000I0J100000D01*
G01*
X140712500Y-130400000D01*
G75*
G02*
X140812500Y-130300000I100000J0D01*
G01*
X142187500Y-130300000D01*
G75*
G02*
X142287500Y-130400000I0J-100000D01*
G01*
X142287500Y-130600000D01*
G75*
G02*
X142187500Y-130700000I-100000J0D01*
G01*
G37*
G36*
G01*
X142187500Y-131200000D02*
X140812500Y-131200000D01*
G75*
G02*
X140712500Y-131100000I0J100000D01*
G01*
X140712500Y-130900000D01*
G75*
G02*
X140812500Y-130800000I100000J0D01*
G01*
X142187500Y-130800000D01*
G75*
G02*
X142287500Y-130900000I0J-100000D01*
G01*
X142287500Y-131100000D01*
G75*
G02*
X142187500Y-131200000I-100000J0D01*
G01*
G37*
G36*
G01*
X142187500Y-131700000D02*
X140812500Y-131700000D01*
G75*
G02*
X140712500Y-131600000I0J100000D01*
G01*
X140712500Y-131400000D01*
G75*
G02*
X140812500Y-131300000I100000J0D01*
G01*
X142187500Y-131300000D01*
G75*
G02*
X142287500Y-131400000I0J-100000D01*
G01*
X142287500Y-131600000D01*
G75*
G02*
X142187500Y-131700000I-100000J0D01*
G01*
G37*
G36*
G01*
X142187500Y-132200000D02*
X140812500Y-132200000D01*
G75*
G02*
X140712500Y-132100000I0J100000D01*
G01*
X140712500Y-131900000D01*
G75*
G02*
X140812500Y-131800000I100000J0D01*
G01*
X142187500Y-131800000D01*
G75*
G02*
X142287500Y-131900000I0J-100000D01*
G01*
X142287500Y-132100000D01*
G75*
G02*
X142187500Y-132200000I-100000J0D01*
G01*
G37*
G36*
G01*
X142187500Y-132700000D02*
X140812500Y-132700000D01*
G75*
G02*
X140712500Y-132600000I0J100000D01*
G01*
X140712500Y-132400000D01*
G75*
G02*
X140812500Y-132300000I100000J0D01*
G01*
X142187500Y-132300000D01*
G75*
G02*
X142287500Y-132400000I0J-100000D01*
G01*
X142287500Y-132600000D01*
G75*
G02*
X142187500Y-132700000I-100000J0D01*
G01*
G37*
G36*
G01*
X142187500Y-133200000D02*
X140812500Y-133200000D01*
G75*
G02*
X140712500Y-133100000I0J100000D01*
G01*
X140712500Y-132900000D01*
G75*
G02*
X140812500Y-132800000I100000J0D01*
G01*
X142187500Y-132800000D01*
G75*
G02*
X142287500Y-132900000I0J-100000D01*
G01*
X142287500Y-133100000D01*
G75*
G02*
X142187500Y-133200000I-100000J0D01*
G01*
G37*
G36*
G01*
X142187500Y-133700000D02*
X140812500Y-133700000D01*
G75*
G02*
X140712500Y-133600000I0J100000D01*
G01*
X140712500Y-133400000D01*
G75*
G02*
X140812500Y-133300000I100000J0D01*
G01*
X142187500Y-133300000D01*
G75*
G02*
X142287500Y-133400000I0J-100000D01*
G01*
X142287500Y-133600000D01*
G75*
G02*
X142187500Y-133700000I-100000J0D01*
G01*
G37*
G36*
G01*
X142187500Y-134200000D02*
X140812500Y-134200000D01*
G75*
G02*
X140712500Y-134100000I0J100000D01*
G01*
X140712500Y-133900000D01*
G75*
G02*
X140812500Y-133800000I100000J0D01*
G01*
X142187500Y-133800000D01*
G75*
G02*
X142287500Y-133900000I0J-100000D01*
G01*
X142287500Y-134100000D01*
G75*
G02*
X142187500Y-134200000I-100000J0D01*
G01*
G37*
G36*
G01*
X142187500Y-134700000D02*
X140812500Y-134700000D01*
G75*
G02*
X140712500Y-134600000I0J100000D01*
G01*
X140712500Y-134400000D01*
G75*
G02*
X140812500Y-134300000I100000J0D01*
G01*
X142187500Y-134300000D01*
G75*
G02*
X142287500Y-134400000I0J-100000D01*
G01*
X142287500Y-134600000D01*
G75*
G02*
X142187500Y-134700000I-100000J0D01*
G01*
G37*
G36*
G01*
X142187500Y-135200000D02*
X140812500Y-135200000D01*
G75*
G02*
X140712500Y-135100000I0J100000D01*
G01*
X140712500Y-134900000D01*
G75*
G02*
X140812500Y-134800000I100000J0D01*
G01*
X142187500Y-134800000D01*
G75*
G02*
X142287500Y-134900000I0J-100000D01*
G01*
X142287500Y-135100000D01*
G75*
G02*
X142187500Y-135200000I-100000J0D01*
G01*
G37*
G36*
G01*
X142187500Y-135700000D02*
X140812500Y-135700000D01*
G75*
G02*
X140712500Y-135600000I0J100000D01*
G01*
X140712500Y-135400000D01*
G75*
G02*
X140812500Y-135300000I100000J0D01*
G01*
X142187500Y-135300000D01*
G75*
G02*
X142287500Y-135400000I0J-100000D01*
G01*
X142287500Y-135600000D01*
G75*
G02*
X142187500Y-135700000I-100000J0D01*
G01*
G37*
G36*
G01*
X142187500Y-136200000D02*
X140812500Y-136200000D01*
G75*
G02*
X140712500Y-136100000I0J100000D01*
G01*
X140712500Y-135900000D01*
G75*
G02*
X140812500Y-135800000I100000J0D01*
G01*
X142187500Y-135800000D01*
G75*
G02*
X142287500Y-135900000I0J-100000D01*
G01*
X142287500Y-136100000D01*
G75*
G02*
X142187500Y-136200000I-100000J0D01*
G01*
G37*
G36*
G01*
X142187500Y-136700000D02*
X140812500Y-136700000D01*
G75*
G02*
X140712500Y-136600000I0J100000D01*
G01*
X140712500Y-136400000D01*
G75*
G02*
X140812500Y-136300000I100000J0D01*
G01*
X142187500Y-136300000D01*
G75*
G02*
X142287500Y-136400000I0J-100000D01*
G01*
X142287500Y-136600000D01*
G75*
G02*
X142187500Y-136700000I-100000J0D01*
G01*
G37*
G36*
G01*
X142187500Y-137200000D02*
X140812500Y-137200000D01*
G75*
G02*
X140712500Y-137100000I0J100000D01*
G01*
X140712500Y-136900000D01*
G75*
G02*
X140812500Y-136800000I100000J0D01*
G01*
X142187500Y-136800000D01*
G75*
G02*
X142287500Y-136900000I0J-100000D01*
G01*
X142287500Y-137100000D01*
G75*
G02*
X142187500Y-137200000I-100000J0D01*
G01*
G37*
G36*
G01*
X142187500Y-137700000D02*
X140812500Y-137700000D01*
G75*
G02*
X140712500Y-137600000I0J100000D01*
G01*
X140712500Y-137400000D01*
G75*
G02*
X140812500Y-137300000I100000J0D01*
G01*
X142187500Y-137300000D01*
G75*
G02*
X142287500Y-137400000I0J-100000D01*
G01*
X142287500Y-137600000D01*
G75*
G02*
X142187500Y-137700000I-100000J0D01*
G01*
G37*
G36*
G01*
X142187500Y-138200000D02*
X140812500Y-138200000D01*
G75*
G02*
X140712500Y-138100000I0J100000D01*
G01*
X140712500Y-137900000D01*
G75*
G02*
X140812500Y-137800000I100000J0D01*
G01*
X142187500Y-137800000D01*
G75*
G02*
X142287500Y-137900000I0J-100000D01*
G01*
X142287500Y-138100000D01*
G75*
G02*
X142187500Y-138200000I-100000J0D01*
G01*
G37*
G36*
G01*
X142187500Y-138700000D02*
X140812500Y-138700000D01*
G75*
G02*
X140712500Y-138600000I0J100000D01*
G01*
X140712500Y-138400000D01*
G75*
G02*
X140812500Y-138300000I100000J0D01*
G01*
X142187500Y-138300000D01*
G75*
G02*
X142287500Y-138400000I0J-100000D01*
G01*
X142287500Y-138600000D01*
G75*
G02*
X142187500Y-138700000I-100000J0D01*
G01*
G37*
G36*
G01*
X142187500Y-139200000D02*
X140812500Y-139200000D01*
G75*
G02*
X140712500Y-139100000I0J100000D01*
G01*
X140712500Y-138900000D01*
G75*
G02*
X140812500Y-138800000I100000J0D01*
G01*
X142187500Y-138800000D01*
G75*
G02*
X142287500Y-138900000I0J-100000D01*
G01*
X142287500Y-139100000D01*
G75*
G02*
X142187500Y-139200000I-100000J0D01*
G01*
G37*
G36*
G01*
X142187500Y-139700000D02*
X140812500Y-139700000D01*
G75*
G02*
X140712500Y-139600000I0J100000D01*
G01*
X140712500Y-139400000D01*
G75*
G02*
X140812500Y-139300000I100000J0D01*
G01*
X142187500Y-139300000D01*
G75*
G02*
X142287500Y-139400000I0J-100000D01*
G01*
X142287500Y-139600000D01*
G75*
G02*
X142187500Y-139700000I-100000J0D01*
G01*
G37*
G36*
G01*
X139687500Y-142200000D02*
X139487500Y-142200000D01*
G75*
G02*
X139387500Y-142100000I0J100000D01*
G01*
X139387500Y-140725000D01*
G75*
G02*
X139487500Y-140625000I100000J0D01*
G01*
X139687500Y-140625000D01*
G75*
G02*
X139787500Y-140725000I0J-100000D01*
G01*
X139787500Y-142100000D01*
G75*
G02*
X139687500Y-142200000I-100000J0D01*
G01*
G37*
G36*
G01*
X139187500Y-142200000D02*
X138987500Y-142200000D01*
G75*
G02*
X138887500Y-142100000I0J100000D01*
G01*
X138887500Y-140725000D01*
G75*
G02*
X138987500Y-140625000I100000J0D01*
G01*
X139187500Y-140625000D01*
G75*
G02*
X139287500Y-140725000I0J-100000D01*
G01*
X139287500Y-142100000D01*
G75*
G02*
X139187500Y-142200000I-100000J0D01*
G01*
G37*
G36*
G01*
X138687500Y-142200000D02*
X138487500Y-142200000D01*
G75*
G02*
X138387500Y-142100000I0J100000D01*
G01*
X138387500Y-140725000D01*
G75*
G02*
X138487500Y-140625000I100000J0D01*
G01*
X138687500Y-140625000D01*
G75*
G02*
X138787500Y-140725000I0J-100000D01*
G01*
X138787500Y-142100000D01*
G75*
G02*
X138687500Y-142200000I-100000J0D01*
G01*
G37*
G36*
G01*
X138187500Y-142200000D02*
X137987500Y-142200000D01*
G75*
G02*
X137887500Y-142100000I0J100000D01*
G01*
X137887500Y-140725000D01*
G75*
G02*
X137987500Y-140625000I100000J0D01*
G01*
X138187500Y-140625000D01*
G75*
G02*
X138287500Y-140725000I0J-100000D01*
G01*
X138287500Y-142100000D01*
G75*
G02*
X138187500Y-142200000I-100000J0D01*
G01*
G37*
G36*
G01*
X137687500Y-142200000D02*
X137487500Y-142200000D01*
G75*
G02*
X137387500Y-142100000I0J100000D01*
G01*
X137387500Y-140725000D01*
G75*
G02*
X137487500Y-140625000I100000J0D01*
G01*
X137687500Y-140625000D01*
G75*
G02*
X137787500Y-140725000I0J-100000D01*
G01*
X137787500Y-142100000D01*
G75*
G02*
X137687500Y-142200000I-100000J0D01*
G01*
G37*
G36*
G01*
X137187500Y-142200000D02*
X136987500Y-142200000D01*
G75*
G02*
X136887500Y-142100000I0J100000D01*
G01*
X136887500Y-140725000D01*
G75*
G02*
X136987500Y-140625000I100000J0D01*
G01*
X137187500Y-140625000D01*
G75*
G02*
X137287500Y-140725000I0J-100000D01*
G01*
X137287500Y-142100000D01*
G75*
G02*
X137187500Y-142200000I-100000J0D01*
G01*
G37*
G36*
G01*
X136687500Y-142200000D02*
X136487500Y-142200000D01*
G75*
G02*
X136387500Y-142100000I0J100000D01*
G01*
X136387500Y-140725000D01*
G75*
G02*
X136487500Y-140625000I100000J0D01*
G01*
X136687500Y-140625000D01*
G75*
G02*
X136787500Y-140725000I0J-100000D01*
G01*
X136787500Y-142100000D01*
G75*
G02*
X136687500Y-142200000I-100000J0D01*
G01*
G37*
G36*
G01*
X136187500Y-142200000D02*
X135987500Y-142200000D01*
G75*
G02*
X135887500Y-142100000I0J100000D01*
G01*
X135887500Y-140725000D01*
G75*
G02*
X135987500Y-140625000I100000J0D01*
G01*
X136187500Y-140625000D01*
G75*
G02*
X136287500Y-140725000I0J-100000D01*
G01*
X136287500Y-142100000D01*
G75*
G02*
X136187500Y-142200000I-100000J0D01*
G01*
G37*
G36*
G01*
X135687500Y-142200000D02*
X135487500Y-142200000D01*
G75*
G02*
X135387500Y-142100000I0J100000D01*
G01*
X135387500Y-140725000D01*
G75*
G02*
X135487500Y-140625000I100000J0D01*
G01*
X135687500Y-140625000D01*
G75*
G02*
X135787500Y-140725000I0J-100000D01*
G01*
X135787500Y-142100000D01*
G75*
G02*
X135687500Y-142200000I-100000J0D01*
G01*
G37*
G36*
G01*
X135187500Y-142200000D02*
X134987500Y-142200000D01*
G75*
G02*
X134887500Y-142100000I0J100000D01*
G01*
X134887500Y-140725000D01*
G75*
G02*
X134987500Y-140625000I100000J0D01*
G01*
X135187500Y-140625000D01*
G75*
G02*
X135287500Y-140725000I0J-100000D01*
G01*
X135287500Y-142100000D01*
G75*
G02*
X135187500Y-142200000I-100000J0D01*
G01*
G37*
G36*
G01*
X134687500Y-142200000D02*
X134487500Y-142200000D01*
G75*
G02*
X134387500Y-142100000I0J100000D01*
G01*
X134387500Y-140725000D01*
G75*
G02*
X134487500Y-140625000I100000J0D01*
G01*
X134687500Y-140625000D01*
G75*
G02*
X134787500Y-140725000I0J-100000D01*
G01*
X134787500Y-142100000D01*
G75*
G02*
X134687500Y-142200000I-100000J0D01*
G01*
G37*
G36*
G01*
X134187500Y-142200000D02*
X133987500Y-142200000D01*
G75*
G02*
X133887500Y-142100000I0J100000D01*
G01*
X133887500Y-140725000D01*
G75*
G02*
X133987500Y-140625000I100000J0D01*
G01*
X134187500Y-140625000D01*
G75*
G02*
X134287500Y-140725000I0J-100000D01*
G01*
X134287500Y-142100000D01*
G75*
G02*
X134187500Y-142200000I-100000J0D01*
G01*
G37*
G36*
G01*
X133687500Y-142200000D02*
X133487500Y-142200000D01*
G75*
G02*
X133387500Y-142100000I0J100000D01*
G01*
X133387500Y-140725000D01*
G75*
G02*
X133487500Y-140625000I100000J0D01*
G01*
X133687500Y-140625000D01*
G75*
G02*
X133787500Y-140725000I0J-100000D01*
G01*
X133787500Y-142100000D01*
G75*
G02*
X133687500Y-142200000I-100000J0D01*
G01*
G37*
G36*
G01*
X133187500Y-142200000D02*
X132987500Y-142200000D01*
G75*
G02*
X132887500Y-142100000I0J100000D01*
G01*
X132887500Y-140725000D01*
G75*
G02*
X132987500Y-140625000I100000J0D01*
G01*
X133187500Y-140625000D01*
G75*
G02*
X133287500Y-140725000I0J-100000D01*
G01*
X133287500Y-142100000D01*
G75*
G02*
X133187500Y-142200000I-100000J0D01*
G01*
G37*
G36*
G01*
X132687500Y-142200000D02*
X132487500Y-142200000D01*
G75*
G02*
X132387500Y-142100000I0J100000D01*
G01*
X132387500Y-140725000D01*
G75*
G02*
X132487500Y-140625000I100000J0D01*
G01*
X132687500Y-140625000D01*
G75*
G02*
X132787500Y-140725000I0J-100000D01*
G01*
X132787500Y-142100000D01*
G75*
G02*
X132687500Y-142200000I-100000J0D01*
G01*
G37*
G36*
G01*
X132187500Y-142200000D02*
X131987500Y-142200000D01*
G75*
G02*
X131887500Y-142100000I0J100000D01*
G01*
X131887500Y-140725000D01*
G75*
G02*
X131987500Y-140625000I100000J0D01*
G01*
X132187500Y-140625000D01*
G75*
G02*
X132287500Y-140725000I0J-100000D01*
G01*
X132287500Y-142100000D01*
G75*
G02*
X132187500Y-142200000I-100000J0D01*
G01*
G37*
G36*
G01*
X131687500Y-142200000D02*
X131487500Y-142200000D01*
G75*
G02*
X131387500Y-142100000I0J100000D01*
G01*
X131387500Y-140725000D01*
G75*
G02*
X131487500Y-140625000I100000J0D01*
G01*
X131687500Y-140625000D01*
G75*
G02*
X131787500Y-140725000I0J-100000D01*
G01*
X131787500Y-142100000D01*
G75*
G02*
X131687500Y-142200000I-100000J0D01*
G01*
G37*
G36*
G01*
X131187500Y-142200000D02*
X130987500Y-142200000D01*
G75*
G02*
X130887500Y-142100000I0J100000D01*
G01*
X130887500Y-140725000D01*
G75*
G02*
X130987500Y-140625000I100000J0D01*
G01*
X131187500Y-140625000D01*
G75*
G02*
X131287500Y-140725000I0J-100000D01*
G01*
X131287500Y-142100000D01*
G75*
G02*
X131187500Y-142200000I-100000J0D01*
G01*
G37*
G36*
G01*
X130687500Y-142200000D02*
X130487500Y-142200000D01*
G75*
G02*
X130387500Y-142100000I0J100000D01*
G01*
X130387500Y-140725000D01*
G75*
G02*
X130487500Y-140625000I100000J0D01*
G01*
X130687500Y-140625000D01*
G75*
G02*
X130787500Y-140725000I0J-100000D01*
G01*
X130787500Y-142100000D01*
G75*
G02*
X130687500Y-142200000I-100000J0D01*
G01*
G37*
G36*
G01*
X130187500Y-142200000D02*
X129987500Y-142200000D01*
G75*
G02*
X129887500Y-142100000I0J100000D01*
G01*
X129887500Y-140725000D01*
G75*
G02*
X129987500Y-140625000I100000J0D01*
G01*
X130187500Y-140625000D01*
G75*
G02*
X130287500Y-140725000I0J-100000D01*
G01*
X130287500Y-142100000D01*
G75*
G02*
X130187500Y-142200000I-100000J0D01*
G01*
G37*
G36*
G01*
X129687500Y-142200000D02*
X129487500Y-142200000D01*
G75*
G02*
X129387500Y-142100000I0J100000D01*
G01*
X129387500Y-140725000D01*
G75*
G02*
X129487500Y-140625000I100000J0D01*
G01*
X129687500Y-140625000D01*
G75*
G02*
X129787500Y-140725000I0J-100000D01*
G01*
X129787500Y-142100000D01*
G75*
G02*
X129687500Y-142200000I-100000J0D01*
G01*
G37*
G36*
G01*
X129187500Y-142200000D02*
X128987500Y-142200000D01*
G75*
G02*
X128887500Y-142100000I0J100000D01*
G01*
X128887500Y-140725000D01*
G75*
G02*
X128987500Y-140625000I100000J0D01*
G01*
X129187500Y-140625000D01*
G75*
G02*
X129287500Y-140725000I0J-100000D01*
G01*
X129287500Y-142100000D01*
G75*
G02*
X129187500Y-142200000I-100000J0D01*
G01*
G37*
G36*
G01*
X128687500Y-142200000D02*
X128487500Y-142200000D01*
G75*
G02*
X128387500Y-142100000I0J100000D01*
G01*
X128387500Y-140725000D01*
G75*
G02*
X128487500Y-140625000I100000J0D01*
G01*
X128687500Y-140625000D01*
G75*
G02*
X128787500Y-140725000I0J-100000D01*
G01*
X128787500Y-142100000D01*
G75*
G02*
X128687500Y-142200000I-100000J0D01*
G01*
G37*
G36*
G01*
X128187500Y-142200000D02*
X127987500Y-142200000D01*
G75*
G02*
X127887500Y-142100000I0J100000D01*
G01*
X127887500Y-140725000D01*
G75*
G02*
X127987500Y-140625000I100000J0D01*
G01*
X128187500Y-140625000D01*
G75*
G02*
X128287500Y-140725000I0J-100000D01*
G01*
X128287500Y-142100000D01*
G75*
G02*
X128187500Y-142200000I-100000J0D01*
G01*
G37*
G36*
G01*
X127687500Y-142200000D02*
X127487500Y-142200000D01*
G75*
G02*
X127387500Y-142100000I0J100000D01*
G01*
X127387500Y-140725000D01*
G75*
G02*
X127487500Y-140625000I100000J0D01*
G01*
X127687500Y-140625000D01*
G75*
G02*
X127787500Y-140725000I0J-100000D01*
G01*
X127787500Y-142100000D01*
G75*
G02*
X127687500Y-142200000I-100000J0D01*
G01*
G37*
G36*
G01*
X127187500Y-142200000D02*
X126987500Y-142200000D01*
G75*
G02*
X126887500Y-142100000I0J100000D01*
G01*
X126887500Y-140725000D01*
G75*
G02*
X126987500Y-140625000I100000J0D01*
G01*
X127187500Y-140625000D01*
G75*
G02*
X127287500Y-140725000I0J-100000D01*
G01*
X127287500Y-142100000D01*
G75*
G02*
X127187500Y-142200000I-100000J0D01*
G01*
G37*
G36*
G01*
X126687500Y-142200000D02*
X126487500Y-142200000D01*
G75*
G02*
X126387500Y-142100000I0J100000D01*
G01*
X126387500Y-140725000D01*
G75*
G02*
X126487500Y-140625000I100000J0D01*
G01*
X126687500Y-140625000D01*
G75*
G02*
X126787500Y-140725000I0J-100000D01*
G01*
X126787500Y-142100000D01*
G75*
G02*
X126687500Y-142200000I-100000J0D01*
G01*
G37*
G36*
G01*
X126187500Y-142200000D02*
X125987500Y-142200000D01*
G75*
G02*
X125887500Y-142100000I0J100000D01*
G01*
X125887500Y-140725000D01*
G75*
G02*
X125987500Y-140625000I100000J0D01*
G01*
X126187500Y-140625000D01*
G75*
G02*
X126287500Y-140725000I0J-100000D01*
G01*
X126287500Y-142100000D01*
G75*
G02*
X126187500Y-142200000I-100000J0D01*
G01*
G37*
G36*
G01*
X125687500Y-142200000D02*
X125487500Y-142200000D01*
G75*
G02*
X125387500Y-142100000I0J100000D01*
G01*
X125387500Y-140725000D01*
G75*
G02*
X125487500Y-140625000I100000J0D01*
G01*
X125687500Y-140625000D01*
G75*
G02*
X125787500Y-140725000I0J-100000D01*
G01*
X125787500Y-142100000D01*
G75*
G02*
X125687500Y-142200000I-100000J0D01*
G01*
G37*
G36*
G01*
X125187500Y-142200000D02*
X124987500Y-142200000D01*
G75*
G02*
X124887500Y-142100000I0J100000D01*
G01*
X124887500Y-140725000D01*
G75*
G02*
X124987500Y-140625000I100000J0D01*
G01*
X125187500Y-140625000D01*
G75*
G02*
X125287500Y-140725000I0J-100000D01*
G01*
X125287500Y-142100000D01*
G75*
G02*
X125187500Y-142200000I-100000J0D01*
G01*
G37*
G36*
G01*
X124687500Y-142200000D02*
X124487500Y-142200000D01*
G75*
G02*
X124387500Y-142100000I0J100000D01*
G01*
X124387500Y-140725000D01*
G75*
G02*
X124487500Y-140625000I100000J0D01*
G01*
X124687500Y-140625000D01*
G75*
G02*
X124787500Y-140725000I0J-100000D01*
G01*
X124787500Y-142100000D01*
G75*
G02*
X124687500Y-142200000I-100000J0D01*
G01*
G37*
G36*
G01*
X124187500Y-142200000D02*
X123987500Y-142200000D01*
G75*
G02*
X123887500Y-142100000I0J100000D01*
G01*
X123887500Y-140725000D01*
G75*
G02*
X123987500Y-140625000I100000J0D01*
G01*
X124187500Y-140625000D01*
G75*
G02*
X124287500Y-140725000I0J-100000D01*
G01*
X124287500Y-142100000D01*
G75*
G02*
X124187500Y-142200000I-100000J0D01*
G01*
G37*
G36*
G01*
X123687500Y-142200000D02*
X123487500Y-142200000D01*
G75*
G02*
X123387500Y-142100000I0J100000D01*
G01*
X123387500Y-140725000D01*
G75*
G02*
X123487500Y-140625000I100000J0D01*
G01*
X123687500Y-140625000D01*
G75*
G02*
X123787500Y-140725000I0J-100000D01*
G01*
X123787500Y-142100000D01*
G75*
G02*
X123687500Y-142200000I-100000J0D01*
G01*
G37*
G36*
G01*
X123187500Y-142200000D02*
X122987500Y-142200000D01*
G75*
G02*
X122887500Y-142100000I0J100000D01*
G01*
X122887500Y-140725000D01*
G75*
G02*
X122987500Y-140625000I100000J0D01*
G01*
X123187500Y-140625000D01*
G75*
G02*
X123287500Y-140725000I0J-100000D01*
G01*
X123287500Y-142100000D01*
G75*
G02*
X123187500Y-142200000I-100000J0D01*
G01*
G37*
G36*
G01*
X122687500Y-142200000D02*
X122487500Y-142200000D01*
G75*
G02*
X122387500Y-142100000I0J100000D01*
G01*
X122387500Y-140725000D01*
G75*
G02*
X122487500Y-140625000I100000J0D01*
G01*
X122687500Y-140625000D01*
G75*
G02*
X122787500Y-140725000I0J-100000D01*
G01*
X122787500Y-142100000D01*
G75*
G02*
X122687500Y-142200000I-100000J0D01*
G01*
G37*
G36*
G01*
X122187500Y-142200000D02*
X121987500Y-142200000D01*
G75*
G02*
X121887500Y-142100000I0J100000D01*
G01*
X121887500Y-140725000D01*
G75*
G02*
X121987500Y-140625000I100000J0D01*
G01*
X122187500Y-140625000D01*
G75*
G02*
X122287500Y-140725000I0J-100000D01*
G01*
X122287500Y-142100000D01*
G75*
G02*
X122187500Y-142200000I-100000J0D01*
G01*
G37*
G04 #@! TD*
D13*
G04 #@! TO.C,REF\u002A\u002A*
X196697056Y-53302944D03*
X195000000Y-52600000D03*
X193302944Y-53302944D03*
X192600000Y-55000000D03*
X193302944Y-56697056D03*
X195000000Y-57400000D03*
X196697056Y-56697056D03*
X197400000Y-55000000D03*
D14*
X195000000Y-55000000D03*
G04 #@! TD*
D13*
G04 #@! TO.C,REF\u002A\u002A*
X106697056Y-53302944D03*
X105000000Y-52600000D03*
X103302944Y-53302944D03*
X102600000Y-55000000D03*
X103302944Y-56697056D03*
X105000000Y-57400000D03*
X106697056Y-56697056D03*
X107400000Y-55000000D03*
D14*
X105000000Y-55000000D03*
G04 #@! TD*
D13*
G04 #@! TO.C,REF\u002A\u002A*
X106697056Y-146697056D03*
X107400000Y-145000000D03*
X106697056Y-143302944D03*
X105000000Y-142600000D03*
X103302944Y-143302944D03*
X102600000Y-145000000D03*
X103302944Y-146697056D03*
X105000000Y-147400000D03*
D14*
X105000000Y-145000000D03*
G04 #@! TD*
D13*
G04 #@! TO.C,REF\u002A\u002A*
X196697056Y-143302944D03*
X195000000Y-142600000D03*
X193302944Y-143302944D03*
X192600000Y-145000000D03*
X193302944Y-146697056D03*
X195000000Y-147400000D03*
X196697056Y-146697056D03*
X197400000Y-145000000D03*
D14*
X195000000Y-145000000D03*
G04 #@! TD*
G04 #@! TO.C,R1028*
G36*
G01*
X196340000Y-101997500D02*
X196340000Y-101602500D01*
G75*
G02*
X196512500Y-101430000I172500J0D01*
G01*
X196857500Y-101430000D01*
G75*
G02*
X197030000Y-101602500I0J-172500D01*
G01*
X197030000Y-101997500D01*
G75*
G02*
X196857500Y-102170000I-172500J0D01*
G01*
X196512500Y-102170000D01*
G75*
G02*
X196340000Y-101997500I0J172500D01*
G01*
G37*
G36*
G01*
X195370000Y-101997500D02*
X195370000Y-101602500D01*
G75*
G02*
X195542500Y-101430000I172500J0D01*
G01*
X195887500Y-101430000D01*
G75*
G02*
X196060000Y-101602500I0J-172500D01*
G01*
X196060000Y-101997500D01*
G75*
G02*
X195887500Y-102170000I-172500J0D01*
G01*
X195542500Y-102170000D01*
G75*
G02*
X195370000Y-101997500I0J172500D01*
G01*
G37*
G04 #@! TD*
G04 #@! TO.C,R405*
G36*
G01*
X194902500Y-95725000D02*
X195297500Y-95725000D01*
G75*
G02*
X195470000Y-95897500I0J-172500D01*
G01*
X195470000Y-96242500D01*
G75*
G02*
X195297500Y-96415000I-172500J0D01*
G01*
X194902500Y-96415000D01*
G75*
G02*
X194730000Y-96242500I0J172500D01*
G01*
X194730000Y-95897500D01*
G75*
G02*
X194902500Y-95725000I172500J0D01*
G01*
G37*
G36*
G01*
X194902500Y-94755000D02*
X195297500Y-94755000D01*
G75*
G02*
X195470000Y-94927500I0J-172500D01*
G01*
X195470000Y-95272500D01*
G75*
G02*
X195297500Y-95445000I-172500J0D01*
G01*
X194902500Y-95445000D01*
G75*
G02*
X194730000Y-95272500I0J172500D01*
G01*
X194730000Y-94927500D01*
G75*
G02*
X194902500Y-94755000I172500J0D01*
G01*
G37*
G04 #@! TD*
D15*
G04 #@! TO.C,Q403*
X197100000Y-99400000D03*
X195100000Y-100350000D03*
X195100000Y-98450000D03*
G04 #@! TD*
G04 #@! TO.C,R707*
G36*
G01*
X120518750Y-144737500D02*
X121481250Y-144737500D01*
G75*
G02*
X121750000Y-145006250I0J-268750D01*
G01*
X121750000Y-145543750D01*
G75*
G02*
X121481250Y-145812500I-268750J0D01*
G01*
X120518750Y-145812500D01*
G75*
G02*
X120250000Y-145543750I0J268750D01*
G01*
X120250000Y-145006250D01*
G75*
G02*
X120518750Y-144737500I268750J0D01*
G01*
G37*
G36*
G01*
X120518750Y-142862500D02*
X121481250Y-142862500D01*
G75*
G02*
X121750000Y-143131250I0J-268750D01*
G01*
X121750000Y-143668750D01*
G75*
G02*
X121481250Y-143937500I-268750J0D01*
G01*
X120518750Y-143937500D01*
G75*
G02*
X120250000Y-143668750I0J268750D01*
G01*
X120250000Y-143131250D01*
G75*
G02*
X120518750Y-142862500I268750J0D01*
G01*
G37*
G04 #@! TD*
G04 #@! TO.C,R610*
G36*
G01*
X104431250Y-79795000D02*
X103468750Y-79795000D01*
G75*
G02*
X103200000Y-79526250I0J268750D01*
G01*
X103200000Y-78988750D01*
G75*
G02*
X103468750Y-78720000I268750J0D01*
G01*
X104431250Y-78720000D01*
G75*
G02*
X104700000Y-78988750I0J-268750D01*
G01*
X104700000Y-79526250D01*
G75*
G02*
X104431250Y-79795000I-268750J0D01*
G01*
G37*
G36*
G01*
X104431250Y-81670000D02*
X103468750Y-81670000D01*
G75*
G02*
X103200000Y-81401250I0J268750D01*
G01*
X103200000Y-80863750D01*
G75*
G02*
X103468750Y-80595000I268750J0D01*
G01*
X104431250Y-80595000D01*
G75*
G02*
X104700000Y-80863750I0J-268750D01*
G01*
X104700000Y-81401250D01*
G75*
G02*
X104431250Y-81670000I-268750J0D01*
G01*
G37*
G04 #@! TD*
G04 #@! TO.C,R510*
G36*
G01*
X182888750Y-77235001D02*
X183851250Y-77235001D01*
G75*
G02*
X184120000Y-77503751I0J-268750D01*
G01*
X184120000Y-78041251D01*
G75*
G02*
X183851250Y-78310001I-268750J0D01*
G01*
X182888750Y-78310001D01*
G75*
G02*
X182620000Y-78041251I0J268750D01*
G01*
X182620000Y-77503751D01*
G75*
G02*
X182888750Y-77235001I268750J0D01*
G01*
G37*
G36*
G01*
X182888750Y-75360001D02*
X183851250Y-75360001D01*
G75*
G02*
X184120000Y-75628751I0J-268750D01*
G01*
X184120000Y-76166251D01*
G75*
G02*
X183851250Y-76435001I-268750J0D01*
G01*
X182888750Y-76435001D01*
G75*
G02*
X182620000Y-76166251I0J268750D01*
G01*
X182620000Y-75628751D01*
G75*
G02*
X182888750Y-75360001I268750J0D01*
G01*
G37*
G04 #@! TD*
D16*
G04 #@! TO.C,Y701*
X132150000Y-148400000D03*
X132150000Y-146200000D03*
X133850000Y-146200000D03*
X133850000Y-148400000D03*
G04 #@! TD*
G04 #@! TO.C,U1002*
G36*
G01*
X157362500Y-127700000D02*
X155987500Y-127700000D01*
G75*
G02*
X155887500Y-127600000I0J100000D01*
G01*
X155887500Y-127400000D01*
G75*
G02*
X155987500Y-127300000I100000J0D01*
G01*
X157362500Y-127300000D01*
G75*
G02*
X157462500Y-127400000I0J-100000D01*
G01*
X157462500Y-127600000D01*
G75*
G02*
X157362500Y-127700000I-100000J0D01*
G01*
G37*
G36*
G01*
X157362500Y-127200000D02*
X155987500Y-127200000D01*
G75*
G02*
X155887500Y-127100000I0J100000D01*
G01*
X155887500Y-126900000D01*
G75*
G02*
X155987500Y-126800000I100000J0D01*
G01*
X157362500Y-126800000D01*
G75*
G02*
X157462500Y-126900000I0J-100000D01*
G01*
X157462500Y-127100000D01*
G75*
G02*
X157362500Y-127200000I-100000J0D01*
G01*
G37*
G36*
G01*
X157362500Y-126700000D02*
X155987500Y-126700000D01*
G75*
G02*
X155887500Y-126600000I0J100000D01*
G01*
X155887500Y-126400000D01*
G75*
G02*
X155987500Y-126300000I100000J0D01*
G01*
X157362500Y-126300000D01*
G75*
G02*
X157462500Y-126400000I0J-100000D01*
G01*
X157462500Y-126600000D01*
G75*
G02*
X157362500Y-126700000I-100000J0D01*
G01*
G37*
G36*
G01*
X157362500Y-126200000D02*
X155987500Y-126200000D01*
G75*
G02*
X155887500Y-126100000I0J100000D01*
G01*
X155887500Y-125900000D01*
G75*
G02*
X155987500Y-125800000I100000J0D01*
G01*
X157362500Y-125800000D01*
G75*
G02*
X157462500Y-125900000I0J-100000D01*
G01*
X157462500Y-126100000D01*
G75*
G02*
X157362500Y-126200000I-100000J0D01*
G01*
G37*
G36*
G01*
X157362500Y-125700000D02*
X155987500Y-125700000D01*
G75*
G02*
X155887500Y-125600000I0J100000D01*
G01*
X155887500Y-125400000D01*
G75*
G02*
X155987500Y-125300000I100000J0D01*
G01*
X157362500Y-125300000D01*
G75*
G02*
X157462500Y-125400000I0J-100000D01*
G01*
X157462500Y-125600000D01*
G75*
G02*
X157362500Y-125700000I-100000J0D01*
G01*
G37*
G36*
G01*
X157362500Y-125200000D02*
X155987500Y-125200000D01*
G75*
G02*
X155887500Y-125100000I0J100000D01*
G01*
X155887500Y-124900000D01*
G75*
G02*
X155987500Y-124800000I100000J0D01*
G01*
X157362500Y-124800000D01*
G75*
G02*
X157462500Y-124900000I0J-100000D01*
G01*
X157462500Y-125100000D01*
G75*
G02*
X157362500Y-125200000I-100000J0D01*
G01*
G37*
G36*
G01*
X157362500Y-124700000D02*
X155987500Y-124700000D01*
G75*
G02*
X155887500Y-124600000I0J100000D01*
G01*
X155887500Y-124400000D01*
G75*
G02*
X155987500Y-124300000I100000J0D01*
G01*
X157362500Y-124300000D01*
G75*
G02*
X157462500Y-124400000I0J-100000D01*
G01*
X157462500Y-124600000D01*
G75*
G02*
X157362500Y-124700000I-100000J0D01*
G01*
G37*
G36*
G01*
X157362500Y-124200000D02*
X155987500Y-124200000D01*
G75*
G02*
X155887500Y-124100000I0J100000D01*
G01*
X155887500Y-123900000D01*
G75*
G02*
X155987500Y-123800000I100000J0D01*
G01*
X157362500Y-123800000D01*
G75*
G02*
X157462500Y-123900000I0J-100000D01*
G01*
X157462500Y-124100000D01*
G75*
G02*
X157362500Y-124200000I-100000J0D01*
G01*
G37*
G36*
G01*
X157362500Y-123700000D02*
X155987500Y-123700000D01*
G75*
G02*
X155887500Y-123600000I0J100000D01*
G01*
X155887500Y-123400000D01*
G75*
G02*
X155987500Y-123300000I100000J0D01*
G01*
X157362500Y-123300000D01*
G75*
G02*
X157462500Y-123400000I0J-100000D01*
G01*
X157462500Y-123600000D01*
G75*
G02*
X157362500Y-123700000I-100000J0D01*
G01*
G37*
G36*
G01*
X157362500Y-123200000D02*
X155987500Y-123200000D01*
G75*
G02*
X155887500Y-123100000I0J100000D01*
G01*
X155887500Y-122900000D01*
G75*
G02*
X155987500Y-122800000I100000J0D01*
G01*
X157362500Y-122800000D01*
G75*
G02*
X157462500Y-122900000I0J-100000D01*
G01*
X157462500Y-123100000D01*
G75*
G02*
X157362500Y-123200000I-100000J0D01*
G01*
G37*
G36*
G01*
X157362500Y-122700000D02*
X155987500Y-122700000D01*
G75*
G02*
X155887500Y-122600000I0J100000D01*
G01*
X155887500Y-122400000D01*
G75*
G02*
X155987500Y-122300000I100000J0D01*
G01*
X157362500Y-122300000D01*
G75*
G02*
X157462500Y-122400000I0J-100000D01*
G01*
X157462500Y-122600000D01*
G75*
G02*
X157362500Y-122700000I-100000J0D01*
G01*
G37*
G36*
G01*
X157362500Y-122200000D02*
X155987500Y-122200000D01*
G75*
G02*
X155887500Y-122100000I0J100000D01*
G01*
X155887500Y-121900000D01*
G75*
G02*
X155987500Y-121800000I100000J0D01*
G01*
X157362500Y-121800000D01*
G75*
G02*
X157462500Y-121900000I0J-100000D01*
G01*
X157462500Y-122100000D01*
G75*
G02*
X157362500Y-122200000I-100000J0D01*
G01*
G37*
G36*
G01*
X158187500Y-121375000D02*
X157987500Y-121375000D01*
G75*
G02*
X157887500Y-121275000I0J100000D01*
G01*
X157887500Y-119900000D01*
G75*
G02*
X157987500Y-119800000I100000J0D01*
G01*
X158187500Y-119800000D01*
G75*
G02*
X158287500Y-119900000I0J-100000D01*
G01*
X158287500Y-121275000D01*
G75*
G02*
X158187500Y-121375000I-100000J0D01*
G01*
G37*
G36*
G01*
X158687500Y-121375000D02*
X158487500Y-121375000D01*
G75*
G02*
X158387500Y-121275000I0J100000D01*
G01*
X158387500Y-119900000D01*
G75*
G02*
X158487500Y-119800000I100000J0D01*
G01*
X158687500Y-119800000D01*
G75*
G02*
X158787500Y-119900000I0J-100000D01*
G01*
X158787500Y-121275000D01*
G75*
G02*
X158687500Y-121375000I-100000J0D01*
G01*
G37*
G36*
G01*
X159187500Y-121375000D02*
X158987500Y-121375000D01*
G75*
G02*
X158887500Y-121275000I0J100000D01*
G01*
X158887500Y-119900000D01*
G75*
G02*
X158987500Y-119800000I100000J0D01*
G01*
X159187500Y-119800000D01*
G75*
G02*
X159287500Y-119900000I0J-100000D01*
G01*
X159287500Y-121275000D01*
G75*
G02*
X159187500Y-121375000I-100000J0D01*
G01*
G37*
G36*
G01*
X159687500Y-121375000D02*
X159487500Y-121375000D01*
G75*
G02*
X159387500Y-121275000I0J100000D01*
G01*
X159387500Y-119900000D01*
G75*
G02*
X159487500Y-119800000I100000J0D01*
G01*
X159687500Y-119800000D01*
G75*
G02*
X159787500Y-119900000I0J-100000D01*
G01*
X159787500Y-121275000D01*
G75*
G02*
X159687500Y-121375000I-100000J0D01*
G01*
G37*
G36*
G01*
X160187500Y-121375000D02*
X159987500Y-121375000D01*
G75*
G02*
X159887500Y-121275000I0J100000D01*
G01*
X159887500Y-119900000D01*
G75*
G02*
X159987500Y-119800000I100000J0D01*
G01*
X160187500Y-119800000D01*
G75*
G02*
X160287500Y-119900000I0J-100000D01*
G01*
X160287500Y-121275000D01*
G75*
G02*
X160187500Y-121375000I-100000J0D01*
G01*
G37*
G36*
G01*
X160687500Y-121375000D02*
X160487500Y-121375000D01*
G75*
G02*
X160387500Y-121275000I0J100000D01*
G01*
X160387500Y-119900000D01*
G75*
G02*
X160487500Y-119800000I100000J0D01*
G01*
X160687500Y-119800000D01*
G75*
G02*
X160787500Y-119900000I0J-100000D01*
G01*
X160787500Y-121275000D01*
G75*
G02*
X160687500Y-121375000I-100000J0D01*
G01*
G37*
G36*
G01*
X161187500Y-121375000D02*
X160987500Y-121375000D01*
G75*
G02*
X160887500Y-121275000I0J100000D01*
G01*
X160887500Y-119900000D01*
G75*
G02*
X160987500Y-119800000I100000J0D01*
G01*
X161187500Y-119800000D01*
G75*
G02*
X161287500Y-119900000I0J-100000D01*
G01*
X161287500Y-121275000D01*
G75*
G02*
X161187500Y-121375000I-100000J0D01*
G01*
G37*
G36*
G01*
X161687500Y-121375000D02*
X161487500Y-121375000D01*
G75*
G02*
X161387500Y-121275000I0J100000D01*
G01*
X161387500Y-119900000D01*
G75*
G02*
X161487500Y-119800000I100000J0D01*
G01*
X161687500Y-119800000D01*
G75*
G02*
X161787500Y-119900000I0J-100000D01*
G01*
X161787500Y-121275000D01*
G75*
G02*
X161687500Y-121375000I-100000J0D01*
G01*
G37*
G36*
G01*
X162187500Y-121375000D02*
X161987500Y-121375000D01*
G75*
G02*
X161887500Y-121275000I0J100000D01*
G01*
X161887500Y-119900000D01*
G75*
G02*
X161987500Y-119800000I100000J0D01*
G01*
X162187500Y-119800000D01*
G75*
G02*
X162287500Y-119900000I0J-100000D01*
G01*
X162287500Y-121275000D01*
G75*
G02*
X162187500Y-121375000I-100000J0D01*
G01*
G37*
G36*
G01*
X162687500Y-121375000D02*
X162487500Y-121375000D01*
G75*
G02*
X162387500Y-121275000I0J100000D01*
G01*
X162387500Y-119900000D01*
G75*
G02*
X162487500Y-119800000I100000J0D01*
G01*
X162687500Y-119800000D01*
G75*
G02*
X162787500Y-119900000I0J-100000D01*
G01*
X162787500Y-121275000D01*
G75*
G02*
X162687500Y-121375000I-100000J0D01*
G01*
G37*
G36*
G01*
X163187500Y-121375000D02*
X162987500Y-121375000D01*
G75*
G02*
X162887500Y-121275000I0J100000D01*
G01*
X162887500Y-119900000D01*
G75*
G02*
X162987500Y-119800000I100000J0D01*
G01*
X163187500Y-119800000D01*
G75*
G02*
X163287500Y-119900000I0J-100000D01*
G01*
X163287500Y-121275000D01*
G75*
G02*
X163187500Y-121375000I-100000J0D01*
G01*
G37*
G36*
G01*
X163687500Y-121375000D02*
X163487500Y-121375000D01*
G75*
G02*
X163387500Y-121275000I0J100000D01*
G01*
X163387500Y-119900000D01*
G75*
G02*
X163487500Y-119800000I100000J0D01*
G01*
X163687500Y-119800000D01*
G75*
G02*
X163787500Y-119900000I0J-100000D01*
G01*
X163787500Y-121275000D01*
G75*
G02*
X163687500Y-121375000I-100000J0D01*
G01*
G37*
G36*
G01*
X165687500Y-122200000D02*
X164312500Y-122200000D01*
G75*
G02*
X164212500Y-122100000I0J100000D01*
G01*
X164212500Y-121900000D01*
G75*
G02*
X164312500Y-121800000I100000J0D01*
G01*
X165687500Y-121800000D01*
G75*
G02*
X165787500Y-121900000I0J-100000D01*
G01*
X165787500Y-122100000D01*
G75*
G02*
X165687500Y-122200000I-100000J0D01*
G01*
G37*
G36*
G01*
X165687500Y-122700000D02*
X164312500Y-122700000D01*
G75*
G02*
X164212500Y-122600000I0J100000D01*
G01*
X164212500Y-122400000D01*
G75*
G02*
X164312500Y-122300000I100000J0D01*
G01*
X165687500Y-122300000D01*
G75*
G02*
X165787500Y-122400000I0J-100000D01*
G01*
X165787500Y-122600000D01*
G75*
G02*
X165687500Y-122700000I-100000J0D01*
G01*
G37*
G36*
G01*
X165687500Y-123200000D02*
X164312500Y-123200000D01*
G75*
G02*
X164212500Y-123100000I0J100000D01*
G01*
X164212500Y-122900000D01*
G75*
G02*
X164312500Y-122800000I100000J0D01*
G01*
X165687500Y-122800000D01*
G75*
G02*
X165787500Y-122900000I0J-100000D01*
G01*
X165787500Y-123100000D01*
G75*
G02*
X165687500Y-123200000I-100000J0D01*
G01*
G37*
G36*
G01*
X165687500Y-123700000D02*
X164312500Y-123700000D01*
G75*
G02*
X164212500Y-123600000I0J100000D01*
G01*
X164212500Y-123400000D01*
G75*
G02*
X164312500Y-123300000I100000J0D01*
G01*
X165687500Y-123300000D01*
G75*
G02*
X165787500Y-123400000I0J-100000D01*
G01*
X165787500Y-123600000D01*
G75*
G02*
X165687500Y-123700000I-100000J0D01*
G01*
G37*
G36*
G01*
X165687500Y-124200000D02*
X164312500Y-124200000D01*
G75*
G02*
X164212500Y-124100000I0J100000D01*
G01*
X164212500Y-123900000D01*
G75*
G02*
X164312500Y-123800000I100000J0D01*
G01*
X165687500Y-123800000D01*
G75*
G02*
X165787500Y-123900000I0J-100000D01*
G01*
X165787500Y-124100000D01*
G75*
G02*
X165687500Y-124200000I-100000J0D01*
G01*
G37*
G36*
G01*
X165687500Y-124700000D02*
X164312500Y-124700000D01*
G75*
G02*
X164212500Y-124600000I0J100000D01*
G01*
X164212500Y-124400000D01*
G75*
G02*
X164312500Y-124300000I100000J0D01*
G01*
X165687500Y-124300000D01*
G75*
G02*
X165787500Y-124400000I0J-100000D01*
G01*
X165787500Y-124600000D01*
G75*
G02*
X165687500Y-124700000I-100000J0D01*
G01*
G37*
G36*
G01*
X165687500Y-125200000D02*
X164312500Y-125200000D01*
G75*
G02*
X164212500Y-125100000I0J100000D01*
G01*
X164212500Y-124900000D01*
G75*
G02*
X164312500Y-124800000I100000J0D01*
G01*
X165687500Y-124800000D01*
G75*
G02*
X165787500Y-124900000I0J-100000D01*
G01*
X165787500Y-125100000D01*
G75*
G02*
X165687500Y-125200000I-100000J0D01*
G01*
G37*
G36*
G01*
X165687500Y-125700000D02*
X164312500Y-125700000D01*
G75*
G02*
X164212500Y-125600000I0J100000D01*
G01*
X164212500Y-125400000D01*
G75*
G02*
X164312500Y-125300000I100000J0D01*
G01*
X165687500Y-125300000D01*
G75*
G02*
X165787500Y-125400000I0J-100000D01*
G01*
X165787500Y-125600000D01*
G75*
G02*
X165687500Y-125700000I-100000J0D01*
G01*
G37*
G36*
G01*
X165687500Y-126200000D02*
X164312500Y-126200000D01*
G75*
G02*
X164212500Y-126100000I0J100000D01*
G01*
X164212500Y-125900000D01*
G75*
G02*
X164312500Y-125800000I100000J0D01*
G01*
X165687500Y-125800000D01*
G75*
G02*
X165787500Y-125900000I0J-100000D01*
G01*
X165787500Y-126100000D01*
G75*
G02*
X165687500Y-126200000I-100000J0D01*
G01*
G37*
G36*
G01*
X165687500Y-126700000D02*
X164312500Y-126700000D01*
G75*
G02*
X164212500Y-126600000I0J100000D01*
G01*
X164212500Y-126400000D01*
G75*
G02*
X164312500Y-126300000I100000J0D01*
G01*
X165687500Y-126300000D01*
G75*
G02*
X165787500Y-126400000I0J-100000D01*
G01*
X165787500Y-126600000D01*
G75*
G02*
X165687500Y-126700000I-100000J0D01*
G01*
G37*
G36*
G01*
X165687500Y-127200000D02*
X164312500Y-127200000D01*
G75*
G02*
X164212500Y-127100000I0J100000D01*
G01*
X164212500Y-126900000D01*
G75*
G02*
X164312500Y-126800000I100000J0D01*
G01*
X165687500Y-126800000D01*
G75*
G02*
X165787500Y-126900000I0J-100000D01*
G01*
X165787500Y-127100000D01*
G75*
G02*
X165687500Y-127200000I-100000J0D01*
G01*
G37*
G36*
G01*
X165687500Y-127700000D02*
X164312500Y-127700000D01*
G75*
G02*
X164212500Y-127600000I0J100000D01*
G01*
X164212500Y-127400000D01*
G75*
G02*
X164312500Y-127300000I100000J0D01*
G01*
X165687500Y-127300000D01*
G75*
G02*
X165787500Y-127400000I0J-100000D01*
G01*
X165787500Y-127600000D01*
G75*
G02*
X165687500Y-127700000I-100000J0D01*
G01*
G37*
G36*
G01*
X163687500Y-129700000D02*
X163487500Y-129700000D01*
G75*
G02*
X163387500Y-129600000I0J100000D01*
G01*
X163387500Y-128225000D01*
G75*
G02*
X163487500Y-128125000I100000J0D01*
G01*
X163687500Y-128125000D01*
G75*
G02*
X163787500Y-128225000I0J-100000D01*
G01*
X163787500Y-129600000D01*
G75*
G02*
X163687500Y-129700000I-100000J0D01*
G01*
G37*
G36*
G01*
X163187500Y-129700000D02*
X162987500Y-129700000D01*
G75*
G02*
X162887500Y-129600000I0J100000D01*
G01*
X162887500Y-128225000D01*
G75*
G02*
X162987500Y-128125000I100000J0D01*
G01*
X163187500Y-128125000D01*
G75*
G02*
X163287500Y-128225000I0J-100000D01*
G01*
X163287500Y-129600000D01*
G75*
G02*
X163187500Y-129700000I-100000J0D01*
G01*
G37*
G36*
G01*
X162687500Y-129700000D02*
X162487500Y-129700000D01*
G75*
G02*
X162387500Y-129600000I0J100000D01*
G01*
X162387500Y-128225000D01*
G75*
G02*
X162487500Y-128125000I100000J0D01*
G01*
X162687500Y-128125000D01*
G75*
G02*
X162787500Y-128225000I0J-100000D01*
G01*
X162787500Y-129600000D01*
G75*
G02*
X162687500Y-129700000I-100000J0D01*
G01*
G37*
G36*
G01*
X162187500Y-129700000D02*
X161987500Y-129700000D01*
G75*
G02*
X161887500Y-129600000I0J100000D01*
G01*
X161887500Y-128225000D01*
G75*
G02*
X161987500Y-128125000I100000J0D01*
G01*
X162187500Y-128125000D01*
G75*
G02*
X162287500Y-128225000I0J-100000D01*
G01*
X162287500Y-129600000D01*
G75*
G02*
X162187500Y-129700000I-100000J0D01*
G01*
G37*
G36*
G01*
X161687500Y-129700000D02*
X161487500Y-129700000D01*
G75*
G02*
X161387500Y-129600000I0J100000D01*
G01*
X161387500Y-128225000D01*
G75*
G02*
X161487500Y-128125000I100000J0D01*
G01*
X161687500Y-128125000D01*
G75*
G02*
X161787500Y-128225000I0J-100000D01*
G01*
X161787500Y-129600000D01*
G75*
G02*
X161687500Y-129700000I-100000J0D01*
G01*
G37*
G36*
G01*
X161187500Y-129700000D02*
X160987500Y-129700000D01*
G75*
G02*
X160887500Y-129600000I0J100000D01*
G01*
X160887500Y-128225000D01*
G75*
G02*
X160987500Y-128125000I100000J0D01*
G01*
X161187500Y-128125000D01*
G75*
G02*
X161287500Y-128225000I0J-100000D01*
G01*
X161287500Y-129600000D01*
G75*
G02*
X161187500Y-129700000I-100000J0D01*
G01*
G37*
G36*
G01*
X160687500Y-129700000D02*
X160487500Y-129700000D01*
G75*
G02*
X160387500Y-129600000I0J100000D01*
G01*
X160387500Y-128225000D01*
G75*
G02*
X160487500Y-128125000I100000J0D01*
G01*
X160687500Y-128125000D01*
G75*
G02*
X160787500Y-128225000I0J-100000D01*
G01*
X160787500Y-129600000D01*
G75*
G02*
X160687500Y-129700000I-100000J0D01*
G01*
G37*
G36*
G01*
X160187500Y-129700000D02*
X159987500Y-129700000D01*
G75*
G02*
X159887500Y-129600000I0J100000D01*
G01*
X159887500Y-128225000D01*
G75*
G02*
X159987500Y-128125000I100000J0D01*
G01*
X160187500Y-128125000D01*
G75*
G02*
X160287500Y-128225000I0J-100000D01*
G01*
X160287500Y-129600000D01*
G75*
G02*
X160187500Y-129700000I-100000J0D01*
G01*
G37*
G36*
G01*
X159687500Y-129700000D02*
X159487500Y-129700000D01*
G75*
G02*
X159387500Y-129600000I0J100000D01*
G01*
X159387500Y-128225000D01*
G75*
G02*
X159487500Y-128125000I100000J0D01*
G01*
X159687500Y-128125000D01*
G75*
G02*
X159787500Y-128225000I0J-100000D01*
G01*
X159787500Y-129600000D01*
G75*
G02*
X159687500Y-129700000I-100000J0D01*
G01*
G37*
G36*
G01*
X159187500Y-129700000D02*
X158987500Y-129700000D01*
G75*
G02*
X158887500Y-129600000I0J100000D01*
G01*
X158887500Y-128225000D01*
G75*
G02*
X158987500Y-128125000I100000J0D01*
G01*
X159187500Y-128125000D01*
G75*
G02*
X159287500Y-128225000I0J-100000D01*
G01*
X159287500Y-129600000D01*
G75*
G02*
X159187500Y-129700000I-100000J0D01*
G01*
G37*
G36*
G01*
X158687500Y-129700000D02*
X158487500Y-129700000D01*
G75*
G02*
X158387500Y-129600000I0J100000D01*
G01*
X158387500Y-128225000D01*
G75*
G02*
X158487500Y-128125000I100000J0D01*
G01*
X158687500Y-128125000D01*
G75*
G02*
X158787500Y-128225000I0J-100000D01*
G01*
X158787500Y-129600000D01*
G75*
G02*
X158687500Y-129700000I-100000J0D01*
G01*
G37*
G36*
G01*
X158187500Y-129700000D02*
X157987500Y-129700000D01*
G75*
G02*
X157887500Y-129600000I0J100000D01*
G01*
X157887500Y-128225000D01*
G75*
G02*
X157987500Y-128125000I100000J0D01*
G01*
X158187500Y-128125000D01*
G75*
G02*
X158287500Y-128225000I0J-100000D01*
G01*
X158287500Y-129600000D01*
G75*
G02*
X158187500Y-129700000I-100000J0D01*
G01*
G37*
G04 #@! TD*
D17*
G04 #@! TO.C,U1001*
X162600000Y-139900000D03*
X162600000Y-135300000D03*
X162600000Y-137600000D03*
D18*
X156300000Y-137600000D03*
G04 #@! TD*
G04 #@! TO.C,U801*
G36*
G01*
X184775000Y-89825000D02*
X184775000Y-90175000D01*
G75*
G02*
X184600000Y-90350000I-175000J0D01*
G01*
X182900000Y-90350000D01*
G75*
G02*
X182725000Y-90175000I0J175000D01*
G01*
X182725000Y-89825000D01*
G75*
G02*
X182900000Y-89650000I175000J0D01*
G01*
X184600000Y-89650000D01*
G75*
G02*
X184775000Y-89825000I0J-175000D01*
G01*
G37*
G36*
G01*
X184775000Y-88555000D02*
X184775000Y-88905000D01*
G75*
G02*
X184600000Y-89080000I-175000J0D01*
G01*
X182900000Y-89080000D01*
G75*
G02*
X182725000Y-88905000I0J175000D01*
G01*
X182725000Y-88555000D01*
G75*
G02*
X182900000Y-88380000I175000J0D01*
G01*
X184600000Y-88380000D01*
G75*
G02*
X184775000Y-88555000I0J-175000D01*
G01*
G37*
G36*
G01*
X184775000Y-87285000D02*
X184775000Y-87635000D01*
G75*
G02*
X184600000Y-87810000I-175000J0D01*
G01*
X182900000Y-87810000D01*
G75*
G02*
X182725000Y-87635000I0J175000D01*
G01*
X182725000Y-87285000D01*
G75*
G02*
X182900000Y-87110000I175000J0D01*
G01*
X184600000Y-87110000D01*
G75*
G02*
X184775000Y-87285000I0J-175000D01*
G01*
G37*
G36*
G01*
X184775000Y-86015000D02*
X184775000Y-86365000D01*
G75*
G02*
X184600000Y-86540000I-175000J0D01*
G01*
X182900000Y-86540000D01*
G75*
G02*
X182725000Y-86365000I0J175000D01*
G01*
X182725000Y-86015000D01*
G75*
G02*
X182900000Y-85840000I175000J0D01*
G01*
X184600000Y-85840000D01*
G75*
G02*
X184775000Y-86015000I0J-175000D01*
G01*
G37*
G36*
G01*
X189725000Y-86015000D02*
X189725000Y-86365000D01*
G75*
G02*
X189550000Y-86540000I-175000J0D01*
G01*
X187850000Y-86540000D01*
G75*
G02*
X187675000Y-86365000I0J175000D01*
G01*
X187675000Y-86015000D01*
G75*
G02*
X187850000Y-85840000I175000J0D01*
G01*
X189550000Y-85840000D01*
G75*
G02*
X189725000Y-86015000I0J-175000D01*
G01*
G37*
G36*
G01*
X189725000Y-87285000D02*
X189725000Y-87635000D01*
G75*
G02*
X189550000Y-87810000I-175000J0D01*
G01*
X187850000Y-87810000D01*
G75*
G02*
X187675000Y-87635000I0J175000D01*
G01*
X187675000Y-87285000D01*
G75*
G02*
X187850000Y-87110000I175000J0D01*
G01*
X189550000Y-87110000D01*
G75*
G02*
X189725000Y-87285000I0J-175000D01*
G01*
G37*
G36*
G01*
X189725000Y-88555000D02*
X189725000Y-88905000D01*
G75*
G02*
X189550000Y-89080000I-175000J0D01*
G01*
X187850000Y-89080000D01*
G75*
G02*
X187675000Y-88905000I0J175000D01*
G01*
X187675000Y-88555000D01*
G75*
G02*
X187850000Y-88380000I175000J0D01*
G01*
X189550000Y-88380000D01*
G75*
G02*
X189725000Y-88555000I0J-175000D01*
G01*
G37*
G36*
G01*
X189725000Y-89825000D02*
X189725000Y-90175000D01*
G75*
G02*
X189550000Y-90350000I-175000J0D01*
G01*
X187850000Y-90350000D01*
G75*
G02*
X187675000Y-90175000I0J175000D01*
G01*
X187675000Y-89825000D01*
G75*
G02*
X187850000Y-89650000I175000J0D01*
G01*
X189550000Y-89650000D01*
G75*
G02*
X189725000Y-89825000I0J-175000D01*
G01*
G37*
G04 #@! TD*
D17*
G04 #@! TO.C,U701*
X112300000Y-143000000D03*
X112300000Y-147600000D03*
X112300000Y-145300000D03*
D18*
X118600000Y-145300000D03*
G04 #@! TD*
D19*
G04 #@! TO.C,U602*
X133160000Y-103905000D03*
X131890000Y-103905000D03*
X130620000Y-103905000D03*
X129350000Y-103905000D03*
X128080000Y-103905000D03*
X126810000Y-103905000D03*
X125540000Y-103905000D03*
X124270000Y-103905000D03*
X102680000Y-82585000D03*
X103950000Y-82585000D03*
X114110000Y-82585000D03*
X128080000Y-82585000D03*
X129350000Y-82585000D03*
X130620000Y-82585000D03*
X131890000Y-82585000D03*
X133160000Y-82585000D03*
X134430000Y-82585000D03*
X135700000Y-82585000D03*
X136970000Y-82585000D03*
X138240000Y-82585000D03*
X139510000Y-82585000D03*
X140780000Y-82585000D03*
X142050000Y-82585000D03*
X143320000Y-82585000D03*
G04 #@! TD*
D20*
G04 #@! TO.C,U601*
X131650000Y-70150000D03*
X127050000Y-70150000D03*
X129350000Y-70150000D03*
D21*
X129350000Y-76450000D03*
G04 #@! TD*
D19*
G04 #@! TO.C,U502*
X154160000Y-53125001D03*
X155430000Y-53125001D03*
X156700000Y-53125001D03*
X157970000Y-53125001D03*
X159240000Y-53125001D03*
X160510000Y-53125001D03*
X161780000Y-53125001D03*
X163050000Y-53125001D03*
X184640000Y-74445001D03*
X183370000Y-74445001D03*
X173210000Y-74445001D03*
X159240000Y-74445001D03*
X157970000Y-74445001D03*
X156700000Y-74445001D03*
X155430000Y-74445001D03*
X154160000Y-74445001D03*
X152890000Y-74445001D03*
X151620000Y-74445001D03*
X150350000Y-74445001D03*
X149080000Y-74445001D03*
X147810000Y-74445001D03*
X146540000Y-74445001D03*
X145270000Y-74445001D03*
X144000000Y-74445001D03*
G04 #@! TD*
D20*
G04 #@! TO.C,U501*
X155670000Y-86880001D03*
X160270000Y-86880001D03*
X157970000Y-86880001D03*
D21*
X157970000Y-80580001D03*
G04 #@! TD*
D22*
G04 #@! TO.C,SW705*
X107000000Y-130150000D03*
X101000000Y-130150000D03*
X101000000Y-133900000D03*
X107000000Y-133900000D03*
G04 #@! TD*
G04 #@! TO.C,SW704*
X107000000Y-124550000D03*
X101000000Y-124550000D03*
X101000000Y-128300000D03*
X107000000Y-128300000D03*
G04 #@! TD*
G04 #@! TO.C,SW703*
X114900000Y-124525000D03*
X108900000Y-124525000D03*
X108900000Y-128275000D03*
X114900000Y-128275000D03*
G04 #@! TD*
G04 #@! TO.C,SW702*
X114900000Y-130125000D03*
X108900000Y-130125000D03*
X108900000Y-133875000D03*
X114900000Y-133875000D03*
G04 #@! TD*
G04 #@! TO.C,SW701*
X108900000Y-139475000D03*
X114900000Y-139475000D03*
X114900000Y-135725000D03*
X108900000Y-135725000D03*
G04 #@! TD*
G04 #@! TO.C,R1027*
G36*
G01*
X164045000Y-114102500D02*
X164045000Y-114497500D01*
G75*
G02*
X163872500Y-114670000I-172500J0D01*
G01*
X163527500Y-114670000D01*
G75*
G02*
X163355000Y-114497500I0J172500D01*
G01*
X163355000Y-114102500D01*
G75*
G02*
X163527500Y-113930000I172500J0D01*
G01*
X163872500Y-113930000D01*
G75*
G02*
X164045000Y-114102500I0J-172500D01*
G01*
G37*
G36*
G01*
X165015000Y-114102500D02*
X165015000Y-114497500D01*
G75*
G02*
X164842500Y-114670000I-172500J0D01*
G01*
X164497500Y-114670000D01*
G75*
G02*
X164325000Y-114497500I0J172500D01*
G01*
X164325000Y-114102500D01*
G75*
G02*
X164497500Y-113930000I172500J0D01*
G01*
X164842500Y-113930000D01*
G75*
G02*
X165015000Y-114102500I0J-172500D01*
G01*
G37*
G04 #@! TD*
G04 #@! TO.C,R1026*
G36*
G01*
X164060000Y-111302500D02*
X164060000Y-111697500D01*
G75*
G02*
X163887500Y-111870000I-172500J0D01*
G01*
X163542500Y-111870000D01*
G75*
G02*
X163370000Y-111697500I0J172500D01*
G01*
X163370000Y-111302500D01*
G75*
G02*
X163542500Y-111130000I172500J0D01*
G01*
X163887500Y-111130000D01*
G75*
G02*
X164060000Y-111302500I0J-172500D01*
G01*
G37*
G36*
G01*
X165030000Y-111302500D02*
X165030000Y-111697500D01*
G75*
G02*
X164857500Y-111870000I-172500J0D01*
G01*
X164512500Y-111870000D01*
G75*
G02*
X164340000Y-111697500I0J172500D01*
G01*
X164340000Y-111302500D01*
G75*
G02*
X164512500Y-111130000I172500J0D01*
G01*
X164857500Y-111130000D01*
G75*
G02*
X165030000Y-111302500I0J-172500D01*
G01*
G37*
G04 #@! TD*
G04 #@! TO.C,R1025*
G36*
G01*
X164045000Y-108502500D02*
X164045000Y-108897500D01*
G75*
G02*
X163872500Y-109070000I-172500J0D01*
G01*
X163527500Y-109070000D01*
G75*
G02*
X163355000Y-108897500I0J172500D01*
G01*
X163355000Y-108502500D01*
G75*
G02*
X163527500Y-108330000I172500J0D01*
G01*
X163872500Y-108330000D01*
G75*
G02*
X164045000Y-108502500I0J-172500D01*
G01*
G37*
G36*
G01*
X165015000Y-108502500D02*
X165015000Y-108897500D01*
G75*
G02*
X164842500Y-109070000I-172500J0D01*
G01*
X164497500Y-109070000D01*
G75*
G02*
X164325000Y-108897500I0J172500D01*
G01*
X164325000Y-108502500D01*
G75*
G02*
X164497500Y-108330000I172500J0D01*
G01*
X164842500Y-108330000D01*
G75*
G02*
X165015000Y-108502500I0J-172500D01*
G01*
G37*
G04 #@! TD*
G04 #@! TO.C,R1024*
G36*
G01*
X166975000Y-115502500D02*
X166975000Y-115897500D01*
G75*
G02*
X166802500Y-116070000I-172500J0D01*
G01*
X166457500Y-116070000D01*
G75*
G02*
X166285000Y-115897500I0J172500D01*
G01*
X166285000Y-115502500D01*
G75*
G02*
X166457500Y-115330000I172500J0D01*
G01*
X166802500Y-115330000D01*
G75*
G02*
X166975000Y-115502500I0J-172500D01*
G01*
G37*
G36*
G01*
X167945000Y-115502500D02*
X167945000Y-115897500D01*
G75*
G02*
X167772500Y-116070000I-172500J0D01*
G01*
X167427500Y-116070000D01*
G75*
G02*
X167255000Y-115897500I0J172500D01*
G01*
X167255000Y-115502500D01*
G75*
G02*
X167427500Y-115330000I172500J0D01*
G01*
X167772500Y-115330000D01*
G75*
G02*
X167945000Y-115502500I0J-172500D01*
G01*
G37*
G04 #@! TD*
G04 #@! TO.C,R1023*
G36*
G01*
X166945000Y-112702500D02*
X166945000Y-113097500D01*
G75*
G02*
X166772500Y-113270000I-172500J0D01*
G01*
X166427500Y-113270000D01*
G75*
G02*
X166255000Y-113097500I0J172500D01*
G01*
X166255000Y-112702500D01*
G75*
G02*
X166427500Y-112530000I172500J0D01*
G01*
X166772500Y-112530000D01*
G75*
G02*
X166945000Y-112702500I0J-172500D01*
G01*
G37*
G36*
G01*
X167915000Y-112702500D02*
X167915000Y-113097500D01*
G75*
G02*
X167742500Y-113270000I-172500J0D01*
G01*
X167397500Y-113270000D01*
G75*
G02*
X167225000Y-113097500I0J172500D01*
G01*
X167225000Y-112702500D01*
G75*
G02*
X167397500Y-112530000I172500J0D01*
G01*
X167742500Y-112530000D01*
G75*
G02*
X167915000Y-112702500I0J-172500D01*
G01*
G37*
G04 #@! TD*
G04 #@! TO.C,R1022*
G36*
G01*
X166945000Y-109902500D02*
X166945000Y-110297500D01*
G75*
G02*
X166772500Y-110470000I-172500J0D01*
G01*
X166427500Y-110470000D01*
G75*
G02*
X166255000Y-110297500I0J172500D01*
G01*
X166255000Y-109902500D01*
G75*
G02*
X166427500Y-109730000I172500J0D01*
G01*
X166772500Y-109730000D01*
G75*
G02*
X166945000Y-109902500I0J-172500D01*
G01*
G37*
G36*
G01*
X167915000Y-109902500D02*
X167915000Y-110297500D01*
G75*
G02*
X167742500Y-110470000I-172500J0D01*
G01*
X167397500Y-110470000D01*
G75*
G02*
X167225000Y-110297500I0J172500D01*
G01*
X167225000Y-109902500D01*
G75*
G02*
X167397500Y-109730000I172500J0D01*
G01*
X167742500Y-109730000D01*
G75*
G02*
X167915000Y-109902500I0J-172500D01*
G01*
G37*
G04 #@! TD*
G04 #@! TO.C,R1021*
G36*
G01*
X161897500Y-131875000D02*
X161502500Y-131875000D01*
G75*
G02*
X161330000Y-131702500I0J172500D01*
G01*
X161330000Y-131357500D01*
G75*
G02*
X161502500Y-131185000I172500J0D01*
G01*
X161897500Y-131185000D01*
G75*
G02*
X162070000Y-131357500I0J-172500D01*
G01*
X162070000Y-131702500D01*
G75*
G02*
X161897500Y-131875000I-172500J0D01*
G01*
G37*
G36*
G01*
X161897500Y-132845000D02*
X161502500Y-132845000D01*
G75*
G02*
X161330000Y-132672500I0J172500D01*
G01*
X161330000Y-132327500D01*
G75*
G02*
X161502500Y-132155000I172500J0D01*
G01*
X161897500Y-132155000D01*
G75*
G02*
X162070000Y-132327500I0J-172500D01*
G01*
X162070000Y-132672500D01*
G75*
G02*
X161897500Y-132845000I-172500J0D01*
G01*
G37*
G04 #@! TD*
G04 #@! TO.C,R1020*
G36*
G01*
X194875000Y-137502500D02*
X194875000Y-137897500D01*
G75*
G02*
X194702500Y-138070000I-172500J0D01*
G01*
X194357500Y-138070000D01*
G75*
G02*
X194185000Y-137897500I0J172500D01*
G01*
X194185000Y-137502500D01*
G75*
G02*
X194357500Y-137330000I172500J0D01*
G01*
X194702500Y-137330000D01*
G75*
G02*
X194875000Y-137502500I0J-172500D01*
G01*
G37*
G36*
G01*
X195845000Y-137502500D02*
X195845000Y-137897500D01*
G75*
G02*
X195672500Y-138070000I-172500J0D01*
G01*
X195327500Y-138070000D01*
G75*
G02*
X195155000Y-137897500I0J172500D01*
G01*
X195155000Y-137502500D01*
G75*
G02*
X195327500Y-137330000I172500J0D01*
G01*
X195672500Y-137330000D01*
G75*
G02*
X195845000Y-137502500I0J-172500D01*
G01*
G37*
G04 #@! TD*
G04 #@! TO.C,R1019*
G36*
G01*
X196375000Y-120002500D02*
X196375000Y-120397500D01*
G75*
G02*
X196202500Y-120570000I-172500J0D01*
G01*
X195857500Y-120570000D01*
G75*
G02*
X195685000Y-120397500I0J172500D01*
G01*
X195685000Y-120002500D01*
G75*
G02*
X195857500Y-119830000I172500J0D01*
G01*
X196202500Y-119830000D01*
G75*
G02*
X196375000Y-120002500I0J-172500D01*
G01*
G37*
G36*
G01*
X197345000Y-120002500D02*
X197345000Y-120397500D01*
G75*
G02*
X197172500Y-120570000I-172500J0D01*
G01*
X196827500Y-120570000D01*
G75*
G02*
X196655000Y-120397500I0J172500D01*
G01*
X196655000Y-120002500D01*
G75*
G02*
X196827500Y-119830000I172500J0D01*
G01*
X197172500Y-119830000D01*
G75*
G02*
X197345000Y-120002500I0J-172500D01*
G01*
G37*
G04 #@! TD*
G04 #@! TO.C,R1018*
G36*
G01*
X161202500Y-112855000D02*
X161597500Y-112855000D01*
G75*
G02*
X161770000Y-113027500I0J-172500D01*
G01*
X161770000Y-113372500D01*
G75*
G02*
X161597500Y-113545000I-172500J0D01*
G01*
X161202500Y-113545000D01*
G75*
G02*
X161030000Y-113372500I0J172500D01*
G01*
X161030000Y-113027500D01*
G75*
G02*
X161202500Y-112855000I172500J0D01*
G01*
G37*
G36*
G01*
X161202500Y-111885000D02*
X161597500Y-111885000D01*
G75*
G02*
X161770000Y-112057500I0J-172500D01*
G01*
X161770000Y-112402500D01*
G75*
G02*
X161597500Y-112575000I-172500J0D01*
G01*
X161202500Y-112575000D01*
G75*
G02*
X161030000Y-112402500I0J172500D01*
G01*
X161030000Y-112057500D01*
G75*
G02*
X161202500Y-111885000I172500J0D01*
G01*
G37*
G04 #@! TD*
G04 #@! TO.C,R1017*
G36*
G01*
X152802500Y-121655000D02*
X153197500Y-121655000D01*
G75*
G02*
X153370000Y-121827500I0J-172500D01*
G01*
X153370000Y-122172500D01*
G75*
G02*
X153197500Y-122345000I-172500J0D01*
G01*
X152802500Y-122345000D01*
G75*
G02*
X152630000Y-122172500I0J172500D01*
G01*
X152630000Y-121827500D01*
G75*
G02*
X152802500Y-121655000I172500J0D01*
G01*
G37*
G36*
G01*
X152802500Y-120685000D02*
X153197500Y-120685000D01*
G75*
G02*
X153370000Y-120857500I0J-172500D01*
G01*
X153370000Y-121202500D01*
G75*
G02*
X153197500Y-121375000I-172500J0D01*
G01*
X152802500Y-121375000D01*
G75*
G02*
X152630000Y-121202500I0J172500D01*
G01*
X152630000Y-120857500D01*
G75*
G02*
X152802500Y-120685000I172500J0D01*
G01*
G37*
G04 #@! TD*
G04 #@! TO.C,R1016*
G36*
G01*
X165987500Y-118018750D02*
X165987500Y-118581250D01*
G75*
G02*
X165743750Y-118825000I-243750J0D01*
G01*
X165256250Y-118825000D01*
G75*
G02*
X165012500Y-118581250I0J243750D01*
G01*
X165012500Y-118018750D01*
G75*
G02*
X165256250Y-117775000I243750J0D01*
G01*
X165743750Y-117775000D01*
G75*
G02*
X165987500Y-118018750I0J-243750D01*
G01*
G37*
G36*
G01*
X167562500Y-118018750D02*
X167562500Y-118581250D01*
G75*
G02*
X167318750Y-118825000I-243750J0D01*
G01*
X166831250Y-118825000D01*
G75*
G02*
X166587500Y-118581250I0J243750D01*
G01*
X166587500Y-118018750D01*
G75*
G02*
X166831250Y-117775000I243750J0D01*
G01*
X167318750Y-117775000D01*
G75*
G02*
X167562500Y-118018750I0J-243750D01*
G01*
G37*
G04 #@! TD*
G04 #@! TO.C,R1015*
G36*
G01*
X175797500Y-131075000D02*
X175402500Y-131075000D01*
G75*
G02*
X175230000Y-130902500I0J172500D01*
G01*
X175230000Y-130557500D01*
G75*
G02*
X175402500Y-130385000I172500J0D01*
G01*
X175797500Y-130385000D01*
G75*
G02*
X175970000Y-130557500I0J-172500D01*
G01*
X175970000Y-130902500D01*
G75*
G02*
X175797500Y-131075000I-172500J0D01*
G01*
G37*
G36*
G01*
X175797500Y-132045000D02*
X175402500Y-132045000D01*
G75*
G02*
X175230000Y-131872500I0J172500D01*
G01*
X175230000Y-131527500D01*
G75*
G02*
X175402500Y-131355000I172500J0D01*
G01*
X175797500Y-131355000D01*
G75*
G02*
X175970000Y-131527500I0J-172500D01*
G01*
X175970000Y-131872500D01*
G75*
G02*
X175797500Y-132045000I-172500J0D01*
G01*
G37*
G04 #@! TD*
G04 #@! TO.C,R1014*
G36*
G01*
X175797500Y-125545000D02*
X175402500Y-125545000D01*
G75*
G02*
X175230000Y-125372500I0J172500D01*
G01*
X175230000Y-125027500D01*
G75*
G02*
X175402500Y-124855000I172500J0D01*
G01*
X175797500Y-124855000D01*
G75*
G02*
X175970000Y-125027500I0J-172500D01*
G01*
X175970000Y-125372500D01*
G75*
G02*
X175797500Y-125545000I-172500J0D01*
G01*
G37*
G36*
G01*
X175797500Y-126515000D02*
X175402500Y-126515000D01*
G75*
G02*
X175230000Y-126342500I0J172500D01*
G01*
X175230000Y-125997500D01*
G75*
G02*
X175402500Y-125825000I172500J0D01*
G01*
X175797500Y-125825000D01*
G75*
G02*
X175970000Y-125997500I0J-172500D01*
G01*
X175970000Y-126342500D01*
G75*
G02*
X175797500Y-126515000I-172500J0D01*
G01*
G37*
G04 #@! TD*
G04 #@! TO.C,R1013*
G36*
G01*
X165302500Y-120355000D02*
X165697500Y-120355000D01*
G75*
G02*
X165870000Y-120527500I0J-172500D01*
G01*
X165870000Y-120872500D01*
G75*
G02*
X165697500Y-121045000I-172500J0D01*
G01*
X165302500Y-121045000D01*
G75*
G02*
X165130000Y-120872500I0J172500D01*
G01*
X165130000Y-120527500D01*
G75*
G02*
X165302500Y-120355000I172500J0D01*
G01*
G37*
G36*
G01*
X165302500Y-119385000D02*
X165697500Y-119385000D01*
G75*
G02*
X165870000Y-119557500I0J-172500D01*
G01*
X165870000Y-119902500D01*
G75*
G02*
X165697500Y-120075000I-172500J0D01*
G01*
X165302500Y-120075000D01*
G75*
G02*
X165130000Y-119902500I0J172500D01*
G01*
X165130000Y-119557500D01*
G75*
G02*
X165302500Y-119385000I172500J0D01*
G01*
G37*
G04 #@! TD*
G04 #@! TO.C,R1012*
G36*
G01*
X169945000Y-123302500D02*
X169945000Y-123697500D01*
G75*
G02*
X169772500Y-123870000I-172500J0D01*
G01*
X169427500Y-123870000D01*
G75*
G02*
X169255000Y-123697500I0J172500D01*
G01*
X169255000Y-123302500D01*
G75*
G02*
X169427500Y-123130000I172500J0D01*
G01*
X169772500Y-123130000D01*
G75*
G02*
X169945000Y-123302500I0J-172500D01*
G01*
G37*
G36*
G01*
X170915000Y-123302500D02*
X170915000Y-123697500D01*
G75*
G02*
X170742500Y-123870000I-172500J0D01*
G01*
X170397500Y-123870000D01*
G75*
G02*
X170225000Y-123697500I0J172500D01*
G01*
X170225000Y-123302500D01*
G75*
G02*
X170397500Y-123130000I172500J0D01*
G01*
X170742500Y-123130000D01*
G75*
G02*
X170915000Y-123302500I0J-172500D01*
G01*
G37*
G04 #@! TD*
G04 #@! TO.C,R1011*
G36*
G01*
X167845000Y-123902500D02*
X167845000Y-124297500D01*
G75*
G02*
X167672500Y-124470000I-172500J0D01*
G01*
X167327500Y-124470000D01*
G75*
G02*
X167155000Y-124297500I0J172500D01*
G01*
X167155000Y-123902500D01*
G75*
G02*
X167327500Y-123730000I172500J0D01*
G01*
X167672500Y-123730000D01*
G75*
G02*
X167845000Y-123902500I0J-172500D01*
G01*
G37*
G36*
G01*
X168815000Y-123902500D02*
X168815000Y-124297500D01*
G75*
G02*
X168642500Y-124470000I-172500J0D01*
G01*
X168297500Y-124470000D01*
G75*
G02*
X168125000Y-124297500I0J172500D01*
G01*
X168125000Y-123902500D01*
G75*
G02*
X168297500Y-123730000I172500J0D01*
G01*
X168642500Y-123730000D01*
G75*
G02*
X168815000Y-123902500I0J-172500D01*
G01*
G37*
G04 #@! TD*
G04 #@! TO.C,R1010*
G36*
G01*
X175402500Y-129355000D02*
X175797500Y-129355000D01*
G75*
G02*
X175970000Y-129527500I0J-172500D01*
G01*
X175970000Y-129872500D01*
G75*
G02*
X175797500Y-130045000I-172500J0D01*
G01*
X175402500Y-130045000D01*
G75*
G02*
X175230000Y-129872500I0J172500D01*
G01*
X175230000Y-129527500D01*
G75*
G02*
X175402500Y-129355000I172500J0D01*
G01*
G37*
G36*
G01*
X175402500Y-128385000D02*
X175797500Y-128385000D01*
G75*
G02*
X175970000Y-128557500I0J-172500D01*
G01*
X175970000Y-128902500D01*
G75*
G02*
X175797500Y-129075000I-172500J0D01*
G01*
X175402500Y-129075000D01*
G75*
G02*
X175230000Y-128902500I0J172500D01*
G01*
X175230000Y-128557500D01*
G75*
G02*
X175402500Y-128385000I172500J0D01*
G01*
G37*
G04 #@! TD*
G04 #@! TO.C,R1009*
G36*
G01*
X175402500Y-123855000D02*
X175797500Y-123855000D01*
G75*
G02*
X175970000Y-124027500I0J-172500D01*
G01*
X175970000Y-124372500D01*
G75*
G02*
X175797500Y-124545000I-172500J0D01*
G01*
X175402500Y-124545000D01*
G75*
G02*
X175230000Y-124372500I0J172500D01*
G01*
X175230000Y-124027500D01*
G75*
G02*
X175402500Y-123855000I172500J0D01*
G01*
G37*
G36*
G01*
X175402500Y-122885000D02*
X175797500Y-122885000D01*
G75*
G02*
X175970000Y-123057500I0J-172500D01*
G01*
X175970000Y-123402500D01*
G75*
G02*
X175797500Y-123575000I-172500J0D01*
G01*
X175402500Y-123575000D01*
G75*
G02*
X175230000Y-123402500I0J172500D01*
G01*
X175230000Y-123057500D01*
G75*
G02*
X175402500Y-122885000I172500J0D01*
G01*
G37*
G04 #@! TD*
G04 #@! TO.C,R1008*
G36*
G01*
X150202500Y-121655000D02*
X150597500Y-121655000D01*
G75*
G02*
X150770000Y-121827500I0J-172500D01*
G01*
X150770000Y-122172500D01*
G75*
G02*
X150597500Y-122345000I-172500J0D01*
G01*
X150202500Y-122345000D01*
G75*
G02*
X150030000Y-122172500I0J172500D01*
G01*
X150030000Y-121827500D01*
G75*
G02*
X150202500Y-121655000I172500J0D01*
G01*
G37*
G36*
G01*
X150202500Y-120685000D02*
X150597500Y-120685000D01*
G75*
G02*
X150770000Y-120857500I0J-172500D01*
G01*
X150770000Y-121202500D01*
G75*
G02*
X150597500Y-121375000I-172500J0D01*
G01*
X150202500Y-121375000D01*
G75*
G02*
X150030000Y-121202500I0J172500D01*
G01*
X150030000Y-120857500D01*
G75*
G02*
X150202500Y-120685000I172500J0D01*
G01*
G37*
G04 #@! TD*
G04 #@! TO.C,R1007*
G36*
G01*
X153802500Y-121655000D02*
X154197500Y-121655000D01*
G75*
G02*
X154370000Y-121827500I0J-172500D01*
G01*
X154370000Y-122172500D01*
G75*
G02*
X154197500Y-122345000I-172500J0D01*
G01*
X153802500Y-122345000D01*
G75*
G02*
X153630000Y-122172500I0J172500D01*
G01*
X153630000Y-121827500D01*
G75*
G02*
X153802500Y-121655000I172500J0D01*
G01*
G37*
G36*
G01*
X153802500Y-120685000D02*
X154197500Y-120685000D01*
G75*
G02*
X154370000Y-120857500I0J-172500D01*
G01*
X154370000Y-121202500D01*
G75*
G02*
X154197500Y-121375000I-172500J0D01*
G01*
X153802500Y-121375000D01*
G75*
G02*
X153630000Y-121202500I0J172500D01*
G01*
X153630000Y-120857500D01*
G75*
G02*
X153802500Y-120685000I172500J0D01*
G01*
G37*
G04 #@! TD*
G04 #@! TO.C,R1006*
G36*
G01*
X151202500Y-121655000D02*
X151597500Y-121655000D01*
G75*
G02*
X151770000Y-121827500I0J-172500D01*
G01*
X151770000Y-122172500D01*
G75*
G02*
X151597500Y-122345000I-172500J0D01*
G01*
X151202500Y-122345000D01*
G75*
G02*
X151030000Y-122172500I0J172500D01*
G01*
X151030000Y-121827500D01*
G75*
G02*
X151202500Y-121655000I172500J0D01*
G01*
G37*
G36*
G01*
X151202500Y-120685000D02*
X151597500Y-120685000D01*
G75*
G02*
X151770000Y-120857500I0J-172500D01*
G01*
X151770000Y-121202500D01*
G75*
G02*
X151597500Y-121375000I-172500J0D01*
G01*
X151202500Y-121375000D01*
G75*
G02*
X151030000Y-121202500I0J172500D01*
G01*
X151030000Y-120857500D01*
G75*
G02*
X151202500Y-120685000I172500J0D01*
G01*
G37*
G04 #@! TD*
G04 #@! TO.C,R1005*
G36*
G01*
X152802500Y-129325000D02*
X153197500Y-129325000D01*
G75*
G02*
X153370000Y-129497500I0J-172500D01*
G01*
X153370000Y-129842500D01*
G75*
G02*
X153197500Y-130015000I-172500J0D01*
G01*
X152802500Y-130015000D01*
G75*
G02*
X152630000Y-129842500I0J172500D01*
G01*
X152630000Y-129497500D01*
G75*
G02*
X152802500Y-129325000I172500J0D01*
G01*
G37*
G36*
G01*
X152802500Y-128355000D02*
X153197500Y-128355000D01*
G75*
G02*
X153370000Y-128527500I0J-172500D01*
G01*
X153370000Y-128872500D01*
G75*
G02*
X153197500Y-129045000I-172500J0D01*
G01*
X152802500Y-129045000D01*
G75*
G02*
X152630000Y-128872500I0J172500D01*
G01*
X152630000Y-128527500D01*
G75*
G02*
X152802500Y-128355000I172500J0D01*
G01*
G37*
G04 #@! TD*
G04 #@! TO.C,R1004*
G36*
G01*
X151802500Y-129325000D02*
X152197500Y-129325000D01*
G75*
G02*
X152370000Y-129497500I0J-172500D01*
G01*
X152370000Y-129842500D01*
G75*
G02*
X152197500Y-130015000I-172500J0D01*
G01*
X151802500Y-130015000D01*
G75*
G02*
X151630000Y-129842500I0J172500D01*
G01*
X151630000Y-129497500D01*
G75*
G02*
X151802500Y-129325000I172500J0D01*
G01*
G37*
G36*
G01*
X151802500Y-128355000D02*
X152197500Y-128355000D01*
G75*
G02*
X152370000Y-128527500I0J-172500D01*
G01*
X152370000Y-128872500D01*
G75*
G02*
X152197500Y-129045000I-172500J0D01*
G01*
X151802500Y-129045000D01*
G75*
G02*
X151630000Y-128872500I0J172500D01*
G01*
X151630000Y-128527500D01*
G75*
G02*
X151802500Y-128355000I172500J0D01*
G01*
G37*
G04 #@! TD*
G04 #@! TO.C,R1003*
G36*
G01*
X150802500Y-129325000D02*
X151197500Y-129325000D01*
G75*
G02*
X151370000Y-129497500I0J-172500D01*
G01*
X151370000Y-129842500D01*
G75*
G02*
X151197500Y-130015000I-172500J0D01*
G01*
X150802500Y-130015000D01*
G75*
G02*
X150630000Y-129842500I0J172500D01*
G01*
X150630000Y-129497500D01*
G75*
G02*
X150802500Y-129325000I172500J0D01*
G01*
G37*
G36*
G01*
X150802500Y-128355000D02*
X151197500Y-128355000D01*
G75*
G02*
X151370000Y-128527500I0J-172500D01*
G01*
X151370000Y-128872500D01*
G75*
G02*
X151197500Y-129045000I-172500J0D01*
G01*
X150802500Y-129045000D01*
G75*
G02*
X150630000Y-128872500I0J172500D01*
G01*
X150630000Y-128527500D01*
G75*
G02*
X150802500Y-128355000I172500J0D01*
G01*
G37*
G04 #@! TD*
G04 #@! TO.C,R1002*
G36*
G01*
X149402500Y-129325000D02*
X149797500Y-129325000D01*
G75*
G02*
X149970000Y-129497500I0J-172500D01*
G01*
X149970000Y-129842500D01*
G75*
G02*
X149797500Y-130015000I-172500J0D01*
G01*
X149402500Y-130015000D01*
G75*
G02*
X149230000Y-129842500I0J172500D01*
G01*
X149230000Y-129497500D01*
G75*
G02*
X149402500Y-129325000I172500J0D01*
G01*
G37*
G36*
G01*
X149402500Y-128355000D02*
X149797500Y-128355000D01*
G75*
G02*
X149970000Y-128527500I0J-172500D01*
G01*
X149970000Y-128872500D01*
G75*
G02*
X149797500Y-129045000I-172500J0D01*
G01*
X149402500Y-129045000D01*
G75*
G02*
X149230000Y-128872500I0J172500D01*
G01*
X149230000Y-128527500D01*
G75*
G02*
X149402500Y-128355000I172500J0D01*
G01*
G37*
G04 #@! TD*
G04 #@! TO.C,R1001*
G36*
G01*
X160402500Y-132155000D02*
X160797500Y-132155000D01*
G75*
G02*
X160970000Y-132327500I0J-172500D01*
G01*
X160970000Y-132672500D01*
G75*
G02*
X160797500Y-132845000I-172500J0D01*
G01*
X160402500Y-132845000D01*
G75*
G02*
X160230000Y-132672500I0J172500D01*
G01*
X160230000Y-132327500D01*
G75*
G02*
X160402500Y-132155000I172500J0D01*
G01*
G37*
G36*
G01*
X160402500Y-131185000D02*
X160797500Y-131185000D01*
G75*
G02*
X160970000Y-131357500I0J-172500D01*
G01*
X160970000Y-131702500D01*
G75*
G02*
X160797500Y-131875000I-172500J0D01*
G01*
X160402500Y-131875000D01*
G75*
G02*
X160230000Y-131702500I0J172500D01*
G01*
X160230000Y-131357500D01*
G75*
G02*
X160402500Y-131185000I172500J0D01*
G01*
G37*
G04 #@! TD*
G04 #@! TO.C,R901*
G36*
G01*
X112102500Y-105855000D02*
X112497500Y-105855000D01*
G75*
G02*
X112670000Y-106027500I0J-172500D01*
G01*
X112670000Y-106372500D01*
G75*
G02*
X112497500Y-106545000I-172500J0D01*
G01*
X112102500Y-106545000D01*
G75*
G02*
X111930000Y-106372500I0J172500D01*
G01*
X111930000Y-106027500D01*
G75*
G02*
X112102500Y-105855000I172500J0D01*
G01*
G37*
G36*
G01*
X112102500Y-104885000D02*
X112497500Y-104885000D01*
G75*
G02*
X112670000Y-105057500I0J-172500D01*
G01*
X112670000Y-105402500D01*
G75*
G02*
X112497500Y-105575000I-172500J0D01*
G01*
X112102500Y-105575000D01*
G75*
G02*
X111930000Y-105402500I0J172500D01*
G01*
X111930000Y-105057500D01*
G75*
G02*
X112102500Y-104885000I172500J0D01*
G01*
G37*
G04 #@! TD*
G04 #@! TO.C,R813*
G36*
G01*
X172945000Y-87802500D02*
X172945000Y-88197500D01*
G75*
G02*
X172772500Y-88370000I-172500J0D01*
G01*
X172427500Y-88370000D01*
G75*
G02*
X172255000Y-88197500I0J172500D01*
G01*
X172255000Y-87802500D01*
G75*
G02*
X172427500Y-87630000I172500J0D01*
G01*
X172772500Y-87630000D01*
G75*
G02*
X172945000Y-87802500I0J-172500D01*
G01*
G37*
G36*
G01*
X173915000Y-87802500D02*
X173915000Y-88197500D01*
G75*
G02*
X173742500Y-88370000I-172500J0D01*
G01*
X173397500Y-88370000D01*
G75*
G02*
X173225000Y-88197500I0J172500D01*
G01*
X173225000Y-87802500D01*
G75*
G02*
X173397500Y-87630000I172500J0D01*
G01*
X173742500Y-87630000D01*
G75*
G02*
X173915000Y-87802500I0J-172500D01*
G01*
G37*
G04 #@! TD*
G04 #@! TO.C,R812*
G36*
G01*
X172975000Y-91402500D02*
X172975000Y-91797500D01*
G75*
G02*
X172802500Y-91970000I-172500J0D01*
G01*
X172457500Y-91970000D01*
G75*
G02*
X172285000Y-91797500I0J172500D01*
G01*
X172285000Y-91402500D01*
G75*
G02*
X172457500Y-91230000I172500J0D01*
G01*
X172802500Y-91230000D01*
G75*
G02*
X172975000Y-91402500I0J-172500D01*
G01*
G37*
G36*
G01*
X173945000Y-91402500D02*
X173945000Y-91797500D01*
G75*
G02*
X173772500Y-91970000I-172500J0D01*
G01*
X173427500Y-91970000D01*
G75*
G02*
X173255000Y-91797500I0J172500D01*
G01*
X173255000Y-91402500D01*
G75*
G02*
X173427500Y-91230000I172500J0D01*
G01*
X173772500Y-91230000D01*
G75*
G02*
X173945000Y-91402500I0J-172500D01*
G01*
G37*
G04 #@! TD*
G04 #@! TO.C,R811*
G36*
G01*
X194902500Y-79555000D02*
X195297500Y-79555000D01*
G75*
G02*
X195470000Y-79727500I0J-172500D01*
G01*
X195470000Y-80072500D01*
G75*
G02*
X195297500Y-80245000I-172500J0D01*
G01*
X194902500Y-80245000D01*
G75*
G02*
X194730000Y-80072500I0J172500D01*
G01*
X194730000Y-79727500D01*
G75*
G02*
X194902500Y-79555000I172500J0D01*
G01*
G37*
G36*
G01*
X194902500Y-78585000D02*
X195297500Y-78585000D01*
G75*
G02*
X195470000Y-78757500I0J-172500D01*
G01*
X195470000Y-79102500D01*
G75*
G02*
X195297500Y-79275000I-172500J0D01*
G01*
X194902500Y-79275000D01*
G75*
G02*
X194730000Y-79102500I0J172500D01*
G01*
X194730000Y-78757500D01*
G75*
G02*
X194902500Y-78585000I172500J0D01*
G01*
G37*
G04 #@! TD*
G04 #@! TO.C,R810*
G36*
G01*
X194902500Y-81655000D02*
X195297500Y-81655000D01*
G75*
G02*
X195470000Y-81827500I0J-172500D01*
G01*
X195470000Y-82172500D01*
G75*
G02*
X195297500Y-82345000I-172500J0D01*
G01*
X194902500Y-82345000D01*
G75*
G02*
X194730000Y-82172500I0J172500D01*
G01*
X194730000Y-81827500D01*
G75*
G02*
X194902500Y-81655000I172500J0D01*
G01*
G37*
G36*
G01*
X194902500Y-80685000D02*
X195297500Y-80685000D01*
G75*
G02*
X195470000Y-80857500I0J-172500D01*
G01*
X195470000Y-81202500D01*
G75*
G02*
X195297500Y-81375000I-172500J0D01*
G01*
X194902500Y-81375000D01*
G75*
G02*
X194730000Y-81202500I0J172500D01*
G01*
X194730000Y-80857500D01*
G75*
G02*
X194902500Y-80685000I172500J0D01*
G01*
G37*
G04 #@! TD*
G04 #@! TO.C,R809*
G36*
G01*
X194755000Y-90197500D02*
X194755000Y-89802500D01*
G75*
G02*
X194927500Y-89630000I172500J0D01*
G01*
X195272500Y-89630000D01*
G75*
G02*
X195445000Y-89802500I0J-172500D01*
G01*
X195445000Y-90197500D01*
G75*
G02*
X195272500Y-90370000I-172500J0D01*
G01*
X194927500Y-90370000D01*
G75*
G02*
X194755000Y-90197500I0J172500D01*
G01*
G37*
G36*
G01*
X193785000Y-90197500D02*
X193785000Y-89802500D01*
G75*
G02*
X193957500Y-89630000I172500J0D01*
G01*
X194302500Y-89630000D01*
G75*
G02*
X194475000Y-89802500I0J-172500D01*
G01*
X194475000Y-90197500D01*
G75*
G02*
X194302500Y-90370000I-172500J0D01*
G01*
X193957500Y-90370000D01*
G75*
G02*
X193785000Y-90197500I0J172500D01*
G01*
G37*
G04 #@! TD*
G04 #@! TO.C,R808*
G36*
G01*
X191718750Y-89512500D02*
X192281250Y-89512500D01*
G75*
G02*
X192525000Y-89756250I0J-243750D01*
G01*
X192525000Y-90243750D01*
G75*
G02*
X192281250Y-90487500I-243750J0D01*
G01*
X191718750Y-90487500D01*
G75*
G02*
X191475000Y-90243750I0J243750D01*
G01*
X191475000Y-89756250D01*
G75*
G02*
X191718750Y-89512500I243750J0D01*
G01*
G37*
G36*
G01*
X191718750Y-87937500D02*
X192281250Y-87937500D01*
G75*
G02*
X192525000Y-88181250I0J-243750D01*
G01*
X192525000Y-88668750D01*
G75*
G02*
X192281250Y-88912500I-243750J0D01*
G01*
X191718750Y-88912500D01*
G75*
G02*
X191475000Y-88668750I0J243750D01*
G01*
X191475000Y-88181250D01*
G75*
G02*
X191718750Y-87937500I243750J0D01*
G01*
G37*
G04 #@! TD*
G04 #@! TO.C,R807*
G36*
G01*
X188987500Y-92081250D02*
X188987500Y-91518750D01*
G75*
G02*
X189231250Y-91275000I243750J0D01*
G01*
X189718750Y-91275000D01*
G75*
G02*
X189962500Y-91518750I0J-243750D01*
G01*
X189962500Y-92081250D01*
G75*
G02*
X189718750Y-92325000I-243750J0D01*
G01*
X189231250Y-92325000D01*
G75*
G02*
X188987500Y-92081250I0J243750D01*
G01*
G37*
G36*
G01*
X187412500Y-92081250D02*
X187412500Y-91518750D01*
G75*
G02*
X187656250Y-91275000I243750J0D01*
G01*
X188143750Y-91275000D01*
G75*
G02*
X188387500Y-91518750I0J-243750D01*
G01*
X188387500Y-92081250D01*
G75*
G02*
X188143750Y-92325000I-243750J0D01*
G01*
X187656250Y-92325000D01*
G75*
G02*
X187412500Y-92081250I0J243750D01*
G01*
G37*
G04 #@! TD*
G04 #@! TO.C,R806*
G36*
G01*
X186581250Y-92287500D02*
X186018750Y-92287500D01*
G75*
G02*
X185775000Y-92043750I0J243750D01*
G01*
X185775000Y-91556250D01*
G75*
G02*
X186018750Y-91312500I243750J0D01*
G01*
X186581250Y-91312500D01*
G75*
G02*
X186825000Y-91556250I0J-243750D01*
G01*
X186825000Y-92043750D01*
G75*
G02*
X186581250Y-92287500I-243750J0D01*
G01*
G37*
G36*
G01*
X186581250Y-93862500D02*
X186018750Y-93862500D01*
G75*
G02*
X185775000Y-93618750I0J243750D01*
G01*
X185775000Y-93131250D01*
G75*
G02*
X186018750Y-92887500I243750J0D01*
G01*
X186581250Y-92887500D01*
G75*
G02*
X186825000Y-93131250I0J-243750D01*
G01*
X186825000Y-93618750D01*
G75*
G02*
X186581250Y-93862500I-243750J0D01*
G01*
G37*
G04 #@! TD*
G04 #@! TO.C,R805*
G36*
G01*
X191718750Y-86300000D02*
X192281250Y-86300000D01*
G75*
G02*
X192525000Y-86543750I0J-243750D01*
G01*
X192525000Y-87031250D01*
G75*
G02*
X192281250Y-87275000I-243750J0D01*
G01*
X191718750Y-87275000D01*
G75*
G02*
X191475000Y-87031250I0J243750D01*
G01*
X191475000Y-86543750D01*
G75*
G02*
X191718750Y-86300000I243750J0D01*
G01*
G37*
G36*
G01*
X191718750Y-84725000D02*
X192281250Y-84725000D01*
G75*
G02*
X192525000Y-84968750I0J-243750D01*
G01*
X192525000Y-85456250D01*
G75*
G02*
X192281250Y-85700000I-243750J0D01*
G01*
X191718750Y-85700000D01*
G75*
G02*
X191475000Y-85456250I0J243750D01*
G01*
X191475000Y-84968750D01*
G75*
G02*
X191718750Y-84725000I243750J0D01*
G01*
G37*
G04 #@! TD*
G04 #@! TO.C,R804*
G36*
G01*
X184997500Y-94075000D02*
X184602500Y-94075000D01*
G75*
G02*
X184430000Y-93902500I0J172500D01*
G01*
X184430000Y-93557500D01*
G75*
G02*
X184602500Y-93385000I172500J0D01*
G01*
X184997500Y-93385000D01*
G75*
G02*
X185170000Y-93557500I0J-172500D01*
G01*
X185170000Y-93902500D01*
G75*
G02*
X184997500Y-94075000I-172500J0D01*
G01*
G37*
G36*
G01*
X184997500Y-95045000D02*
X184602500Y-95045000D01*
G75*
G02*
X184430000Y-94872500I0J172500D01*
G01*
X184430000Y-94527500D01*
G75*
G02*
X184602500Y-94355000I172500J0D01*
G01*
X184997500Y-94355000D01*
G75*
G02*
X185170000Y-94527500I0J-172500D01*
G01*
X185170000Y-94872500D01*
G75*
G02*
X184997500Y-95045000I-172500J0D01*
G01*
G37*
G04 #@! TD*
G04 #@! TO.C,R803*
G36*
G01*
X186102500Y-95325000D02*
X186497500Y-95325000D01*
G75*
G02*
X186670000Y-95497500I0J-172500D01*
G01*
X186670000Y-95842500D01*
G75*
G02*
X186497500Y-96015000I-172500J0D01*
G01*
X186102500Y-96015000D01*
G75*
G02*
X185930000Y-95842500I0J172500D01*
G01*
X185930000Y-95497500D01*
G75*
G02*
X186102500Y-95325000I172500J0D01*
G01*
G37*
G36*
G01*
X186102500Y-94355000D02*
X186497500Y-94355000D01*
G75*
G02*
X186670000Y-94527500I0J-172500D01*
G01*
X186670000Y-94872500D01*
G75*
G02*
X186497500Y-95045000I-172500J0D01*
G01*
X186102500Y-95045000D01*
G75*
G02*
X185930000Y-94872500I0J172500D01*
G01*
X185930000Y-94527500D01*
G75*
G02*
X186102500Y-94355000I172500J0D01*
G01*
G37*
G04 #@! TD*
G04 #@! TO.C,R802*
G36*
G01*
X165002500Y-78540000D02*
X165397500Y-78540000D01*
G75*
G02*
X165570000Y-78712500I0J-172500D01*
G01*
X165570000Y-79057500D01*
G75*
G02*
X165397500Y-79230000I-172500J0D01*
G01*
X165002500Y-79230000D01*
G75*
G02*
X164830000Y-79057500I0J172500D01*
G01*
X164830000Y-78712500D01*
G75*
G02*
X165002500Y-78540000I172500J0D01*
G01*
G37*
G36*
G01*
X165002500Y-77570000D02*
X165397500Y-77570000D01*
G75*
G02*
X165570000Y-77742500I0J-172500D01*
G01*
X165570000Y-78087500D01*
G75*
G02*
X165397500Y-78260000I-172500J0D01*
G01*
X165002500Y-78260000D01*
G75*
G02*
X164830000Y-78087500I0J172500D01*
G01*
X164830000Y-77742500D01*
G75*
G02*
X165002500Y-77570000I172500J0D01*
G01*
G37*
G04 #@! TD*
G04 #@! TO.C,R801*
G36*
G01*
X170497500Y-78760000D02*
X170102500Y-78760000D01*
G75*
G02*
X169930000Y-78587500I0J172500D01*
G01*
X169930000Y-78242500D01*
G75*
G02*
X170102500Y-78070000I172500J0D01*
G01*
X170497500Y-78070000D01*
G75*
G02*
X170670000Y-78242500I0J-172500D01*
G01*
X170670000Y-78587500D01*
G75*
G02*
X170497500Y-78760000I-172500J0D01*
G01*
G37*
G36*
G01*
X170497500Y-79730000D02*
X170102500Y-79730000D01*
G75*
G02*
X169930000Y-79557500I0J172500D01*
G01*
X169930000Y-79212500D01*
G75*
G02*
X170102500Y-79040000I172500J0D01*
G01*
X170497500Y-79040000D01*
G75*
G02*
X170670000Y-79212500I0J-172500D01*
G01*
X170670000Y-79557500D01*
G75*
G02*
X170497500Y-79730000I-172500J0D01*
G01*
G37*
G04 #@! TD*
G04 #@! TO.C,R715*
G36*
G01*
X103025000Y-119897500D02*
X103025000Y-119502500D01*
G75*
G02*
X103197500Y-119330000I172500J0D01*
G01*
X103542500Y-119330000D01*
G75*
G02*
X103715000Y-119502500I0J-172500D01*
G01*
X103715000Y-119897500D01*
G75*
G02*
X103542500Y-120070000I-172500J0D01*
G01*
X103197500Y-120070000D01*
G75*
G02*
X103025000Y-119897500I0J172500D01*
G01*
G37*
G36*
G01*
X102055000Y-119897500D02*
X102055000Y-119502500D01*
G75*
G02*
X102227500Y-119330000I172500J0D01*
G01*
X102572500Y-119330000D01*
G75*
G02*
X102745000Y-119502500I0J-172500D01*
G01*
X102745000Y-119897500D01*
G75*
G02*
X102572500Y-120070000I-172500J0D01*
G01*
X102227500Y-120070000D01*
G75*
G02*
X102055000Y-119897500I0J172500D01*
G01*
G37*
G04 #@! TD*
G04 #@! TO.C,R714*
G36*
G01*
X103055000Y-122397500D02*
X103055000Y-122002500D01*
G75*
G02*
X103227500Y-121830000I172500J0D01*
G01*
X103572500Y-121830000D01*
G75*
G02*
X103745000Y-122002500I0J-172500D01*
G01*
X103745000Y-122397500D01*
G75*
G02*
X103572500Y-122570000I-172500J0D01*
G01*
X103227500Y-122570000D01*
G75*
G02*
X103055000Y-122397500I0J172500D01*
G01*
G37*
G36*
G01*
X102085000Y-122397500D02*
X102085000Y-122002500D01*
G75*
G02*
X102257500Y-121830000I172500J0D01*
G01*
X102602500Y-121830000D01*
G75*
G02*
X102775000Y-122002500I0J-172500D01*
G01*
X102775000Y-122397500D01*
G75*
G02*
X102602500Y-122570000I-172500J0D01*
G01*
X102257500Y-122570000D01*
G75*
G02*
X102085000Y-122397500I0J172500D01*
G01*
G37*
G04 #@! TD*
G04 #@! TO.C,R713*
G36*
G01*
X102955000Y-139197500D02*
X102955000Y-138802500D01*
G75*
G02*
X103127500Y-138630000I172500J0D01*
G01*
X103472500Y-138630000D01*
G75*
G02*
X103645000Y-138802500I0J-172500D01*
G01*
X103645000Y-139197500D01*
G75*
G02*
X103472500Y-139370000I-172500J0D01*
G01*
X103127500Y-139370000D01*
G75*
G02*
X102955000Y-139197500I0J172500D01*
G01*
G37*
G36*
G01*
X101985000Y-139197500D02*
X101985000Y-138802500D01*
G75*
G02*
X102157500Y-138630000I172500J0D01*
G01*
X102502500Y-138630000D01*
G75*
G02*
X102675000Y-138802500I0J-172500D01*
G01*
X102675000Y-139197500D01*
G75*
G02*
X102502500Y-139370000I-172500J0D01*
G01*
X102157500Y-139370000D01*
G75*
G02*
X101985000Y-139197500I0J172500D01*
G01*
G37*
G04 #@! TD*
G04 #@! TO.C,R712*
G36*
G01*
X102955000Y-136497500D02*
X102955000Y-136102500D01*
G75*
G02*
X103127500Y-135930000I172500J0D01*
G01*
X103472500Y-135930000D01*
G75*
G02*
X103645000Y-136102500I0J-172500D01*
G01*
X103645000Y-136497500D01*
G75*
G02*
X103472500Y-136670000I-172500J0D01*
G01*
X103127500Y-136670000D01*
G75*
G02*
X102955000Y-136497500I0J172500D01*
G01*
G37*
G36*
G01*
X101985000Y-136497500D02*
X101985000Y-136102500D01*
G75*
G02*
X102157500Y-135930000I172500J0D01*
G01*
X102502500Y-135930000D01*
G75*
G02*
X102675000Y-136102500I0J-172500D01*
G01*
X102675000Y-136497500D01*
G75*
G02*
X102502500Y-136670000I-172500J0D01*
G01*
X102157500Y-136670000D01*
G75*
G02*
X101985000Y-136497500I0J172500D01*
G01*
G37*
G04 #@! TD*
G04 #@! TO.C,R711*
G36*
G01*
X107897500Y-131960000D02*
X107502500Y-131960000D01*
G75*
G02*
X107330000Y-131787500I0J172500D01*
G01*
X107330000Y-131442500D01*
G75*
G02*
X107502500Y-131270000I172500J0D01*
G01*
X107897500Y-131270000D01*
G75*
G02*
X108070000Y-131442500I0J-172500D01*
G01*
X108070000Y-131787500D01*
G75*
G02*
X107897500Y-131960000I-172500J0D01*
G01*
G37*
G36*
G01*
X107897500Y-132930000D02*
X107502500Y-132930000D01*
G75*
G02*
X107330000Y-132757500I0J172500D01*
G01*
X107330000Y-132412500D01*
G75*
G02*
X107502500Y-132240000I172500J0D01*
G01*
X107897500Y-132240000D01*
G75*
G02*
X108070000Y-132412500I0J-172500D01*
G01*
X108070000Y-132757500D01*
G75*
G02*
X107897500Y-132930000I-172500J0D01*
G01*
G37*
G04 #@! TD*
G04 #@! TO.C,R710*
G36*
G01*
X107897500Y-126360000D02*
X107502500Y-126360000D01*
G75*
G02*
X107330000Y-126187500I0J172500D01*
G01*
X107330000Y-125842500D01*
G75*
G02*
X107502500Y-125670000I172500J0D01*
G01*
X107897500Y-125670000D01*
G75*
G02*
X108070000Y-125842500I0J-172500D01*
G01*
X108070000Y-126187500D01*
G75*
G02*
X107897500Y-126360000I-172500J0D01*
G01*
G37*
G36*
G01*
X107897500Y-127330000D02*
X107502500Y-127330000D01*
G75*
G02*
X107330000Y-127157500I0J172500D01*
G01*
X107330000Y-126812500D01*
G75*
G02*
X107502500Y-126640000I172500J0D01*
G01*
X107897500Y-126640000D01*
G75*
G02*
X108070000Y-126812500I0J-172500D01*
G01*
X108070000Y-127157500D01*
G75*
G02*
X107897500Y-127330000I-172500J0D01*
G01*
G37*
G04 #@! TD*
G04 #@! TO.C,R709*
G36*
G01*
X115797500Y-126345000D02*
X115402500Y-126345000D01*
G75*
G02*
X115230000Y-126172500I0J172500D01*
G01*
X115230000Y-125827500D01*
G75*
G02*
X115402500Y-125655000I172500J0D01*
G01*
X115797500Y-125655000D01*
G75*
G02*
X115970000Y-125827500I0J-172500D01*
G01*
X115970000Y-126172500D01*
G75*
G02*
X115797500Y-126345000I-172500J0D01*
G01*
G37*
G36*
G01*
X115797500Y-127315000D02*
X115402500Y-127315000D01*
G75*
G02*
X115230000Y-127142500I0J172500D01*
G01*
X115230000Y-126797500D01*
G75*
G02*
X115402500Y-126625000I172500J0D01*
G01*
X115797500Y-126625000D01*
G75*
G02*
X115970000Y-126797500I0J-172500D01*
G01*
X115970000Y-127142500D01*
G75*
G02*
X115797500Y-127315000I-172500J0D01*
G01*
G37*
G04 #@! TD*
G04 #@! TO.C,R708*
G36*
G01*
X115797500Y-131860000D02*
X115402500Y-131860000D01*
G75*
G02*
X115230000Y-131687500I0J172500D01*
G01*
X115230000Y-131342500D01*
G75*
G02*
X115402500Y-131170000I172500J0D01*
G01*
X115797500Y-131170000D01*
G75*
G02*
X115970000Y-131342500I0J-172500D01*
G01*
X115970000Y-131687500D01*
G75*
G02*
X115797500Y-131860000I-172500J0D01*
G01*
G37*
G36*
G01*
X115797500Y-132830000D02*
X115402500Y-132830000D01*
G75*
G02*
X115230000Y-132657500I0J172500D01*
G01*
X115230000Y-132312500D01*
G75*
G02*
X115402500Y-132140000I172500J0D01*
G01*
X115797500Y-132140000D01*
G75*
G02*
X115970000Y-132312500I0J-172500D01*
G01*
X115970000Y-132657500D01*
G75*
G02*
X115797500Y-132830000I-172500J0D01*
G01*
G37*
G04 #@! TD*
G04 #@! TO.C,R706*
G36*
G01*
X124925000Y-147597500D02*
X124925000Y-147202500D01*
G75*
G02*
X125097500Y-147030000I172500J0D01*
G01*
X125442500Y-147030000D01*
G75*
G02*
X125615000Y-147202500I0J-172500D01*
G01*
X125615000Y-147597500D01*
G75*
G02*
X125442500Y-147770000I-172500J0D01*
G01*
X125097500Y-147770000D01*
G75*
G02*
X124925000Y-147597500I0J172500D01*
G01*
G37*
G36*
G01*
X123955000Y-147597500D02*
X123955000Y-147202500D01*
G75*
G02*
X124127500Y-147030000I172500J0D01*
G01*
X124472500Y-147030000D01*
G75*
G02*
X124645000Y-147202500I0J-172500D01*
G01*
X124645000Y-147597500D01*
G75*
G02*
X124472500Y-147770000I-172500J0D01*
G01*
X124127500Y-147770000D01*
G75*
G02*
X123955000Y-147597500I0J172500D01*
G01*
G37*
G04 #@! TD*
G04 #@! TO.C,R705*
G36*
G01*
X117245000Y-135502500D02*
X117245000Y-135897500D01*
G75*
G02*
X117072500Y-136070000I-172500J0D01*
G01*
X116727500Y-136070000D01*
G75*
G02*
X116555000Y-135897500I0J172500D01*
G01*
X116555000Y-135502500D01*
G75*
G02*
X116727500Y-135330000I172500J0D01*
G01*
X117072500Y-135330000D01*
G75*
G02*
X117245000Y-135502500I0J-172500D01*
G01*
G37*
G36*
G01*
X118215000Y-135502500D02*
X118215000Y-135897500D01*
G75*
G02*
X118042500Y-136070000I-172500J0D01*
G01*
X117697500Y-136070000D01*
G75*
G02*
X117525000Y-135897500I0J172500D01*
G01*
X117525000Y-135502500D01*
G75*
G02*
X117697500Y-135330000I172500J0D01*
G01*
X118042500Y-135330000D01*
G75*
G02*
X118215000Y-135502500I0J-172500D01*
G01*
G37*
G04 #@! TD*
G04 #@! TO.C,R704*
G36*
G01*
X142897500Y-147075000D02*
X142502500Y-147075000D01*
G75*
G02*
X142330000Y-146902500I0J172500D01*
G01*
X142330000Y-146557500D01*
G75*
G02*
X142502500Y-146385000I172500J0D01*
G01*
X142897500Y-146385000D01*
G75*
G02*
X143070000Y-146557500I0J-172500D01*
G01*
X143070000Y-146902500D01*
G75*
G02*
X142897500Y-147075000I-172500J0D01*
G01*
G37*
G36*
G01*
X142897500Y-148045000D02*
X142502500Y-148045000D01*
G75*
G02*
X142330000Y-147872500I0J172500D01*
G01*
X142330000Y-147527500D01*
G75*
G02*
X142502500Y-147355000I172500J0D01*
G01*
X142897500Y-147355000D01*
G75*
G02*
X143070000Y-147527500I0J-172500D01*
G01*
X143070000Y-147872500D01*
G75*
G02*
X142897500Y-148045000I-172500J0D01*
G01*
G37*
G04 #@! TD*
G04 #@! TO.C,R703*
G36*
G01*
X152997500Y-147075000D02*
X152602500Y-147075000D01*
G75*
G02*
X152430000Y-146902500I0J172500D01*
G01*
X152430000Y-146557500D01*
G75*
G02*
X152602500Y-146385000I172500J0D01*
G01*
X152997500Y-146385000D01*
G75*
G02*
X153170000Y-146557500I0J-172500D01*
G01*
X153170000Y-146902500D01*
G75*
G02*
X152997500Y-147075000I-172500J0D01*
G01*
G37*
G36*
G01*
X152997500Y-148045000D02*
X152602500Y-148045000D01*
G75*
G02*
X152430000Y-147872500I0J172500D01*
G01*
X152430000Y-147527500D01*
G75*
G02*
X152602500Y-147355000I172500J0D01*
G01*
X152997500Y-147355000D01*
G75*
G02*
X153170000Y-147527500I0J-172500D01*
G01*
X153170000Y-147872500D01*
G75*
G02*
X152997500Y-148045000I-172500J0D01*
G01*
G37*
G04 #@! TD*
G04 #@! TO.C,R702*
G36*
G01*
X154497500Y-147075000D02*
X154102500Y-147075000D01*
G75*
G02*
X153930000Y-146902500I0J172500D01*
G01*
X153930000Y-146557500D01*
G75*
G02*
X154102500Y-146385000I172500J0D01*
G01*
X154497500Y-146385000D01*
G75*
G02*
X154670000Y-146557500I0J-172500D01*
G01*
X154670000Y-146902500D01*
G75*
G02*
X154497500Y-147075000I-172500J0D01*
G01*
G37*
G36*
G01*
X154497500Y-148045000D02*
X154102500Y-148045000D01*
G75*
G02*
X153930000Y-147872500I0J172500D01*
G01*
X153930000Y-147527500D01*
G75*
G02*
X154102500Y-147355000I172500J0D01*
G01*
X154497500Y-147355000D01*
G75*
G02*
X154670000Y-147527500I0J-172500D01*
G01*
X154670000Y-147872500D01*
G75*
G02*
X154497500Y-148045000I-172500J0D01*
G01*
G37*
G04 #@! TD*
G04 #@! TO.C,R701*
G36*
G01*
X164697500Y-147075000D02*
X164302500Y-147075000D01*
G75*
G02*
X164130000Y-146902500I0J172500D01*
G01*
X164130000Y-146557500D01*
G75*
G02*
X164302500Y-146385000I172500J0D01*
G01*
X164697500Y-146385000D01*
G75*
G02*
X164870000Y-146557500I0J-172500D01*
G01*
X164870000Y-146902500D01*
G75*
G02*
X164697500Y-147075000I-172500J0D01*
G01*
G37*
G36*
G01*
X164697500Y-148045000D02*
X164302500Y-148045000D01*
G75*
G02*
X164130000Y-147872500I0J172500D01*
G01*
X164130000Y-147527500D01*
G75*
G02*
X164302500Y-147355000I172500J0D01*
G01*
X164697500Y-147355000D01*
G75*
G02*
X164870000Y-147527500I0J-172500D01*
G01*
X164870000Y-147872500D01*
G75*
G02*
X164697500Y-148045000I-172500J0D01*
G01*
G37*
G04 #@! TD*
G04 #@! TO.C,R609*
G36*
G01*
X129547500Y-67355000D02*
X129152500Y-67355000D01*
G75*
G02*
X128980000Y-67182500I0J172500D01*
G01*
X128980000Y-66837500D01*
G75*
G02*
X129152500Y-66665000I172500J0D01*
G01*
X129547500Y-66665000D01*
G75*
G02*
X129720000Y-66837500I0J-172500D01*
G01*
X129720000Y-67182500D01*
G75*
G02*
X129547500Y-67355000I-172500J0D01*
G01*
G37*
G36*
G01*
X129547500Y-68325000D02*
X129152500Y-68325000D01*
G75*
G02*
X128980000Y-68152500I0J172500D01*
G01*
X128980000Y-67807500D01*
G75*
G02*
X129152500Y-67635000I172500J0D01*
G01*
X129547500Y-67635000D01*
G75*
G02*
X129720000Y-67807500I0J-172500D01*
G01*
X129720000Y-68152500D01*
G75*
G02*
X129547500Y-68325000I-172500J0D01*
G01*
G37*
G04 #@! TD*
G04 #@! TO.C,R608*
G36*
G01*
X128277500Y-80055000D02*
X127882500Y-80055000D01*
G75*
G02*
X127710000Y-79882500I0J172500D01*
G01*
X127710000Y-79537500D01*
G75*
G02*
X127882500Y-79365000I172500J0D01*
G01*
X128277500Y-79365000D01*
G75*
G02*
X128450000Y-79537500I0J-172500D01*
G01*
X128450000Y-79882500D01*
G75*
G02*
X128277500Y-80055000I-172500J0D01*
G01*
G37*
G36*
G01*
X128277500Y-81025000D02*
X127882500Y-81025000D01*
G75*
G02*
X127710000Y-80852500I0J172500D01*
G01*
X127710000Y-80507500D01*
G75*
G02*
X127882500Y-80335000I172500J0D01*
G01*
X128277500Y-80335000D01*
G75*
G02*
X128450000Y-80507500I0J-172500D01*
G01*
X128450000Y-80852500D01*
G75*
G02*
X128277500Y-81025000I-172500J0D01*
G01*
G37*
G04 #@! TD*
G04 #@! TO.C,R607*
G36*
G01*
X120760000Y-63752500D02*
X120760000Y-64147500D01*
G75*
G02*
X120587500Y-64320000I-172500J0D01*
G01*
X120242500Y-64320000D01*
G75*
G02*
X120070000Y-64147500I0J172500D01*
G01*
X120070000Y-63752500D01*
G75*
G02*
X120242500Y-63580000I172500J0D01*
G01*
X120587500Y-63580000D01*
G75*
G02*
X120760000Y-63752500I0J-172500D01*
G01*
G37*
G36*
G01*
X121730000Y-63752500D02*
X121730000Y-64147500D01*
G75*
G02*
X121557500Y-64320000I-172500J0D01*
G01*
X121212500Y-64320000D01*
G75*
G02*
X121040000Y-64147500I0J172500D01*
G01*
X121040000Y-63752500D01*
G75*
G02*
X121212500Y-63580000I172500J0D01*
G01*
X121557500Y-63580000D01*
G75*
G02*
X121730000Y-63752500I0J-172500D01*
G01*
G37*
G04 #@! TD*
G04 #@! TO.C,R606*
G36*
G01*
X121097500Y-70060000D02*
X120702500Y-70060000D01*
G75*
G02*
X120530000Y-69887500I0J172500D01*
G01*
X120530000Y-69542500D01*
G75*
G02*
X120702500Y-69370000I172500J0D01*
G01*
X121097500Y-69370000D01*
G75*
G02*
X121270000Y-69542500I0J-172500D01*
G01*
X121270000Y-69887500D01*
G75*
G02*
X121097500Y-70060000I-172500J0D01*
G01*
G37*
G36*
G01*
X121097500Y-71030000D02*
X120702500Y-71030000D01*
G75*
G02*
X120530000Y-70857500I0J172500D01*
G01*
X120530000Y-70512500D01*
G75*
G02*
X120702500Y-70340000I172500J0D01*
G01*
X121097500Y-70340000D01*
G75*
G02*
X121270000Y-70512500I0J-172500D01*
G01*
X121270000Y-70857500D01*
G75*
G02*
X121097500Y-71030000I-172500J0D01*
G01*
G37*
G04 #@! TD*
G04 #@! TO.C,R605*
G36*
G01*
X134085000Y-78972500D02*
X134085000Y-78577500D01*
G75*
G02*
X134257500Y-78405000I172500J0D01*
G01*
X134602500Y-78405000D01*
G75*
G02*
X134775000Y-78577500I0J-172500D01*
G01*
X134775000Y-78972500D01*
G75*
G02*
X134602500Y-79145000I-172500J0D01*
G01*
X134257500Y-79145000D01*
G75*
G02*
X134085000Y-78972500I0J172500D01*
G01*
G37*
G36*
G01*
X133115000Y-78972500D02*
X133115000Y-78577500D01*
G75*
G02*
X133287500Y-78405000I172500J0D01*
G01*
X133632500Y-78405000D01*
G75*
G02*
X133805000Y-78577500I0J-172500D01*
G01*
X133805000Y-78972500D01*
G75*
G02*
X133632500Y-79145000I-172500J0D01*
G01*
X133287500Y-79145000D01*
G75*
G02*
X133115000Y-78972500I0J172500D01*
G01*
G37*
G04 #@! TD*
G04 #@! TO.C,R604*
G36*
G01*
X140977500Y-80055000D02*
X140582500Y-80055000D01*
G75*
G02*
X140410000Y-79882500I0J172500D01*
G01*
X140410000Y-79537500D01*
G75*
G02*
X140582500Y-79365000I172500J0D01*
G01*
X140977500Y-79365000D01*
G75*
G02*
X141150000Y-79537500I0J-172500D01*
G01*
X141150000Y-79882500D01*
G75*
G02*
X140977500Y-80055000I-172500J0D01*
G01*
G37*
G36*
G01*
X140977500Y-81025000D02*
X140582500Y-81025000D01*
G75*
G02*
X140410000Y-80852500I0J172500D01*
G01*
X140410000Y-80507500D01*
G75*
G02*
X140582500Y-80335000I172500J0D01*
G01*
X140977500Y-80335000D01*
G75*
G02*
X141150000Y-80507500I0J-172500D01*
G01*
X141150000Y-80852500D01*
G75*
G02*
X140977500Y-81025000I-172500J0D01*
G01*
G37*
G04 #@! TD*
G04 #@! TO.C,R603*
G36*
G01*
X142247500Y-80055000D02*
X141852500Y-80055000D01*
G75*
G02*
X141680000Y-79882500I0J172500D01*
G01*
X141680000Y-79537500D01*
G75*
G02*
X141852500Y-79365000I172500J0D01*
G01*
X142247500Y-79365000D01*
G75*
G02*
X142420000Y-79537500I0J-172500D01*
G01*
X142420000Y-79882500D01*
G75*
G02*
X142247500Y-80055000I-172500J0D01*
G01*
G37*
G36*
G01*
X142247500Y-81025000D02*
X141852500Y-81025000D01*
G75*
G02*
X141680000Y-80852500I0J172500D01*
G01*
X141680000Y-80507500D01*
G75*
G02*
X141852500Y-80335000I172500J0D01*
G01*
X142247500Y-80335000D01*
G75*
G02*
X142420000Y-80507500I0J-172500D01*
G01*
X142420000Y-80852500D01*
G75*
G02*
X142247500Y-81025000I-172500J0D01*
G01*
G37*
G04 #@! TD*
G04 #@! TO.C,R602*
G36*
G01*
X146297500Y-85115000D02*
X146692500Y-85115000D01*
G75*
G02*
X146865000Y-85287500I0J-172500D01*
G01*
X146865000Y-85632500D01*
G75*
G02*
X146692500Y-85805000I-172500J0D01*
G01*
X146297500Y-85805000D01*
G75*
G02*
X146125000Y-85632500I0J172500D01*
G01*
X146125000Y-85287500D01*
G75*
G02*
X146297500Y-85115000I172500J0D01*
G01*
G37*
G36*
G01*
X146297500Y-84145000D02*
X146692500Y-84145000D01*
G75*
G02*
X146865000Y-84317500I0J-172500D01*
G01*
X146865000Y-84662500D01*
G75*
G02*
X146692500Y-84835000I-172500J0D01*
G01*
X146297500Y-84835000D01*
G75*
G02*
X146125000Y-84662500I0J172500D01*
G01*
X146125000Y-84317500D01*
G75*
G02*
X146297500Y-84145000I172500J0D01*
G01*
G37*
G04 #@! TD*
G04 #@! TO.C,R601*
G36*
G01*
X143122500Y-80335000D02*
X143517500Y-80335000D01*
G75*
G02*
X143690000Y-80507500I0J-172500D01*
G01*
X143690000Y-80852500D01*
G75*
G02*
X143517500Y-81025000I-172500J0D01*
G01*
X143122500Y-81025000D01*
G75*
G02*
X142950000Y-80852500I0J172500D01*
G01*
X142950000Y-80507500D01*
G75*
G02*
X143122500Y-80335000I172500J0D01*
G01*
G37*
G36*
G01*
X143122500Y-79365000D02*
X143517500Y-79365000D01*
G75*
G02*
X143690000Y-79537500I0J-172500D01*
G01*
X143690000Y-79882500D01*
G75*
G02*
X143517500Y-80055000I-172500J0D01*
G01*
X143122500Y-80055000D01*
G75*
G02*
X142950000Y-79882500I0J172500D01*
G01*
X142950000Y-79537500D01*
G75*
G02*
X143122500Y-79365000I172500J0D01*
G01*
G37*
G04 #@! TD*
G04 #@! TO.C,R509*
G36*
G01*
X157772500Y-89675001D02*
X158167500Y-89675001D01*
G75*
G02*
X158340000Y-89847501I0J-172500D01*
G01*
X158340000Y-90192501D01*
G75*
G02*
X158167500Y-90365001I-172500J0D01*
G01*
X157772500Y-90365001D01*
G75*
G02*
X157600000Y-90192501I0J172500D01*
G01*
X157600000Y-89847501D01*
G75*
G02*
X157772500Y-89675001I172500J0D01*
G01*
G37*
G36*
G01*
X157772500Y-88705001D02*
X158167500Y-88705001D01*
G75*
G02*
X158340000Y-88877501I0J-172500D01*
G01*
X158340000Y-89222501D01*
G75*
G02*
X158167500Y-89395001I-172500J0D01*
G01*
X157772500Y-89395001D01*
G75*
G02*
X157600000Y-89222501I0J172500D01*
G01*
X157600000Y-88877501D01*
G75*
G02*
X157772500Y-88705001I172500J0D01*
G01*
G37*
G04 #@! TD*
G04 #@! TO.C,R508*
G36*
G01*
X159042500Y-76975001D02*
X159437500Y-76975001D01*
G75*
G02*
X159610000Y-77147501I0J-172500D01*
G01*
X159610000Y-77492501D01*
G75*
G02*
X159437500Y-77665001I-172500J0D01*
G01*
X159042500Y-77665001D01*
G75*
G02*
X158870000Y-77492501I0J172500D01*
G01*
X158870000Y-77147501D01*
G75*
G02*
X159042500Y-76975001I172500J0D01*
G01*
G37*
G36*
G01*
X159042500Y-76005001D02*
X159437500Y-76005001D01*
G75*
G02*
X159610000Y-76177501I0J-172500D01*
G01*
X159610000Y-76522501D01*
G75*
G02*
X159437500Y-76695001I-172500J0D01*
G01*
X159042500Y-76695001D01*
G75*
G02*
X158870000Y-76522501I0J172500D01*
G01*
X158870000Y-76177501D01*
G75*
G02*
X159042500Y-76005001I172500J0D01*
G01*
G37*
G04 #@! TD*
G04 #@! TO.C,R507*
G36*
G01*
X166560000Y-93277501D02*
X166560000Y-92882501D01*
G75*
G02*
X166732500Y-92710001I172500J0D01*
G01*
X167077500Y-92710001D01*
G75*
G02*
X167250000Y-92882501I0J-172500D01*
G01*
X167250000Y-93277501D01*
G75*
G02*
X167077500Y-93450001I-172500J0D01*
G01*
X166732500Y-93450001D01*
G75*
G02*
X166560000Y-93277501I0J172500D01*
G01*
G37*
G36*
G01*
X165590000Y-93277501D02*
X165590000Y-92882501D01*
G75*
G02*
X165762500Y-92710001I172500J0D01*
G01*
X166107500Y-92710001D01*
G75*
G02*
X166280000Y-92882501I0J-172500D01*
G01*
X166280000Y-93277501D01*
G75*
G02*
X166107500Y-93450001I-172500J0D01*
G01*
X165762500Y-93450001D01*
G75*
G02*
X165590000Y-93277501I0J172500D01*
G01*
G37*
G04 #@! TD*
G04 #@! TO.C,R506*
G36*
G01*
X166222500Y-86970001D02*
X166617500Y-86970001D01*
G75*
G02*
X166790000Y-87142501I0J-172500D01*
G01*
X166790000Y-87487501D01*
G75*
G02*
X166617500Y-87660001I-172500J0D01*
G01*
X166222500Y-87660001D01*
G75*
G02*
X166050000Y-87487501I0J172500D01*
G01*
X166050000Y-87142501D01*
G75*
G02*
X166222500Y-86970001I172500J0D01*
G01*
G37*
G36*
G01*
X166222500Y-86000001D02*
X166617500Y-86000001D01*
G75*
G02*
X166790000Y-86172501I0J-172500D01*
G01*
X166790000Y-86517501D01*
G75*
G02*
X166617500Y-86690001I-172500J0D01*
G01*
X166222500Y-86690001D01*
G75*
G02*
X166050000Y-86517501I0J172500D01*
G01*
X166050000Y-86172501D01*
G75*
G02*
X166222500Y-86000001I172500J0D01*
G01*
G37*
G04 #@! TD*
G04 #@! TO.C,R505*
G36*
G01*
X153235000Y-78057501D02*
X153235000Y-78452501D01*
G75*
G02*
X153062500Y-78625001I-172500J0D01*
G01*
X152717500Y-78625001D01*
G75*
G02*
X152545000Y-78452501I0J172500D01*
G01*
X152545000Y-78057501D01*
G75*
G02*
X152717500Y-77885001I172500J0D01*
G01*
X153062500Y-77885001D01*
G75*
G02*
X153235000Y-78057501I0J-172500D01*
G01*
G37*
G36*
G01*
X154205000Y-78057501D02*
X154205000Y-78452501D01*
G75*
G02*
X154032500Y-78625001I-172500J0D01*
G01*
X153687500Y-78625001D01*
G75*
G02*
X153515000Y-78452501I0J172500D01*
G01*
X153515000Y-78057501D01*
G75*
G02*
X153687500Y-77885001I172500J0D01*
G01*
X154032500Y-77885001D01*
G75*
G02*
X154205000Y-78057501I0J-172500D01*
G01*
G37*
G04 #@! TD*
G04 #@! TO.C,R504*
G36*
G01*
X146342500Y-76975001D02*
X146737500Y-76975001D01*
G75*
G02*
X146910000Y-77147501I0J-172500D01*
G01*
X146910000Y-77492501D01*
G75*
G02*
X146737500Y-77665001I-172500J0D01*
G01*
X146342500Y-77665001D01*
G75*
G02*
X146170000Y-77492501I0J172500D01*
G01*
X146170000Y-77147501D01*
G75*
G02*
X146342500Y-76975001I172500J0D01*
G01*
G37*
G36*
G01*
X146342500Y-76005001D02*
X146737500Y-76005001D01*
G75*
G02*
X146910000Y-76177501I0J-172500D01*
G01*
X146910000Y-76522501D01*
G75*
G02*
X146737500Y-76695001I-172500J0D01*
G01*
X146342500Y-76695001D01*
G75*
G02*
X146170000Y-76522501I0J172500D01*
G01*
X146170000Y-76177501D01*
G75*
G02*
X146342500Y-76005001I172500J0D01*
G01*
G37*
G04 #@! TD*
G04 #@! TO.C,R503*
G36*
G01*
X145072500Y-76975001D02*
X145467500Y-76975001D01*
G75*
G02*
X145640000Y-77147501I0J-172500D01*
G01*
X145640000Y-77492501D01*
G75*
G02*
X145467500Y-77665001I-172500J0D01*
G01*
X145072500Y-77665001D01*
G75*
G02*
X144900000Y-77492501I0J172500D01*
G01*
X144900000Y-77147501D01*
G75*
G02*
X145072500Y-76975001I172500J0D01*
G01*
G37*
G36*
G01*
X145072500Y-76005001D02*
X145467500Y-76005001D01*
G75*
G02*
X145640000Y-76177501I0J-172500D01*
G01*
X145640000Y-76522501D01*
G75*
G02*
X145467500Y-76695001I-172500J0D01*
G01*
X145072500Y-76695001D01*
G75*
G02*
X144900000Y-76522501I0J172500D01*
G01*
X144900000Y-76177501D01*
G75*
G02*
X145072500Y-76005001I172500J0D01*
G01*
G37*
G04 #@! TD*
G04 #@! TO.C,R502*
G36*
G01*
X141022500Y-71915001D02*
X140627500Y-71915001D01*
G75*
G02*
X140455000Y-71742501I0J172500D01*
G01*
X140455000Y-71397501D01*
G75*
G02*
X140627500Y-71225001I172500J0D01*
G01*
X141022500Y-71225001D01*
G75*
G02*
X141195000Y-71397501I0J-172500D01*
G01*
X141195000Y-71742501D01*
G75*
G02*
X141022500Y-71915001I-172500J0D01*
G01*
G37*
G36*
G01*
X141022500Y-72885001D02*
X140627500Y-72885001D01*
G75*
G02*
X140455000Y-72712501I0J172500D01*
G01*
X140455000Y-72367501D01*
G75*
G02*
X140627500Y-72195001I172500J0D01*
G01*
X141022500Y-72195001D01*
G75*
G02*
X141195000Y-72367501I0J-172500D01*
G01*
X141195000Y-72712501D01*
G75*
G02*
X141022500Y-72885001I-172500J0D01*
G01*
G37*
G04 #@! TD*
G04 #@! TO.C,R501*
G36*
G01*
X144197500Y-76695001D02*
X143802500Y-76695001D01*
G75*
G02*
X143630000Y-76522501I0J172500D01*
G01*
X143630000Y-76177501D01*
G75*
G02*
X143802500Y-76005001I172500J0D01*
G01*
X144197500Y-76005001D01*
G75*
G02*
X144370000Y-76177501I0J-172500D01*
G01*
X144370000Y-76522501D01*
G75*
G02*
X144197500Y-76695001I-172500J0D01*
G01*
G37*
G36*
G01*
X144197500Y-77665001D02*
X143802500Y-77665001D01*
G75*
G02*
X143630000Y-77492501I0J172500D01*
G01*
X143630000Y-77147501D01*
G75*
G02*
X143802500Y-76975001I172500J0D01*
G01*
X144197500Y-76975001D01*
G75*
G02*
X144370000Y-77147501I0J-172500D01*
G01*
X144370000Y-77492501D01*
G75*
G02*
X144197500Y-77665001I-172500J0D01*
G01*
G37*
G04 #@! TD*
G04 #@! TO.C,R404*
G36*
G01*
X192602500Y-98025000D02*
X192997500Y-98025000D01*
G75*
G02*
X193170000Y-98197500I0J-172500D01*
G01*
X193170000Y-98542500D01*
G75*
G02*
X192997500Y-98715000I-172500J0D01*
G01*
X192602500Y-98715000D01*
G75*
G02*
X192430000Y-98542500I0J172500D01*
G01*
X192430000Y-98197500D01*
G75*
G02*
X192602500Y-98025000I172500J0D01*
G01*
G37*
G36*
G01*
X192602500Y-97055000D02*
X192997500Y-97055000D01*
G75*
G02*
X193170000Y-97227500I0J-172500D01*
G01*
X193170000Y-97572500D01*
G75*
G02*
X192997500Y-97745000I-172500J0D01*
G01*
X192602500Y-97745000D01*
G75*
G02*
X192430000Y-97572500I0J172500D01*
G01*
X192430000Y-97227500D01*
G75*
G02*
X192602500Y-97055000I172500J0D01*
G01*
G37*
G04 #@! TD*
G04 #@! TO.C,R403*
G36*
G01*
X192602500Y-95740000D02*
X192997500Y-95740000D01*
G75*
G02*
X193170000Y-95912500I0J-172500D01*
G01*
X193170000Y-96257500D01*
G75*
G02*
X192997500Y-96430000I-172500J0D01*
G01*
X192602500Y-96430000D01*
G75*
G02*
X192430000Y-96257500I0J172500D01*
G01*
X192430000Y-95912500D01*
G75*
G02*
X192602500Y-95740000I172500J0D01*
G01*
G37*
G36*
G01*
X192602500Y-94770000D02*
X192997500Y-94770000D01*
G75*
G02*
X193170000Y-94942500I0J-172500D01*
G01*
X193170000Y-95287500D01*
G75*
G02*
X192997500Y-95460000I-172500J0D01*
G01*
X192602500Y-95460000D01*
G75*
G02*
X192430000Y-95287500I0J172500D01*
G01*
X192430000Y-94942500D01*
G75*
G02*
X192602500Y-94770000I172500J0D01*
G01*
G37*
G04 #@! TD*
G04 #@! TO.C,R402*
G36*
G01*
X189102500Y-102625000D02*
X189497500Y-102625000D01*
G75*
G02*
X189670000Y-102797500I0J-172500D01*
G01*
X189670000Y-103142500D01*
G75*
G02*
X189497500Y-103315000I-172500J0D01*
G01*
X189102500Y-103315000D01*
G75*
G02*
X188930000Y-103142500I0J172500D01*
G01*
X188930000Y-102797500D01*
G75*
G02*
X189102500Y-102625000I172500J0D01*
G01*
G37*
G36*
G01*
X189102500Y-101655000D02*
X189497500Y-101655000D01*
G75*
G02*
X189670000Y-101827500I0J-172500D01*
G01*
X189670000Y-102172500D01*
G75*
G02*
X189497500Y-102345000I-172500J0D01*
G01*
X189102500Y-102345000D01*
G75*
G02*
X188930000Y-102172500I0J172500D01*
G01*
X188930000Y-101827500D01*
G75*
G02*
X189102500Y-101655000I172500J0D01*
G01*
G37*
G04 #@! TD*
G04 #@! TO.C,R401*
G36*
G01*
X189497500Y-95375000D02*
X189102500Y-95375000D01*
G75*
G02*
X188930000Y-95202500I0J172500D01*
G01*
X188930000Y-94857500D01*
G75*
G02*
X189102500Y-94685000I172500J0D01*
G01*
X189497500Y-94685000D01*
G75*
G02*
X189670000Y-94857500I0J-172500D01*
G01*
X189670000Y-95202500D01*
G75*
G02*
X189497500Y-95375000I-172500J0D01*
G01*
G37*
G36*
G01*
X189497500Y-96345000D02*
X189102500Y-96345000D01*
G75*
G02*
X188930000Y-96172500I0J172500D01*
G01*
X188930000Y-95827500D01*
G75*
G02*
X189102500Y-95655000I172500J0D01*
G01*
X189497500Y-95655000D01*
G75*
G02*
X189670000Y-95827500I0J-172500D01*
G01*
X189670000Y-96172500D01*
G75*
G02*
X189497500Y-96345000I-172500J0D01*
G01*
G37*
G04 #@! TD*
G04 #@! TO.C,R304*
G36*
G01*
X107681250Y-61100000D02*
X107118750Y-61100000D01*
G75*
G02*
X106875000Y-60856250I0J243750D01*
G01*
X106875000Y-60368750D01*
G75*
G02*
X107118750Y-60125000I243750J0D01*
G01*
X107681250Y-60125000D01*
G75*
G02*
X107925000Y-60368750I0J-243750D01*
G01*
X107925000Y-60856250D01*
G75*
G02*
X107681250Y-61100000I-243750J0D01*
G01*
G37*
G36*
G01*
X107681250Y-62675000D02*
X107118750Y-62675000D01*
G75*
G02*
X106875000Y-62431250I0J243750D01*
G01*
X106875000Y-61943750D01*
G75*
G02*
X107118750Y-61700000I243750J0D01*
G01*
X107681250Y-61700000D01*
G75*
G02*
X107925000Y-61943750I0J-243750D01*
G01*
X107925000Y-62431250D01*
G75*
G02*
X107681250Y-62675000I-243750J0D01*
G01*
G37*
G04 #@! TD*
G04 #@! TO.C,R303*
G36*
G01*
X107681250Y-64312500D02*
X107118750Y-64312500D01*
G75*
G02*
X106875000Y-64068750I0J243750D01*
G01*
X106875000Y-63581250D01*
G75*
G02*
X107118750Y-63337500I243750J0D01*
G01*
X107681250Y-63337500D01*
G75*
G02*
X107925000Y-63581250I0J-243750D01*
G01*
X107925000Y-64068750D01*
G75*
G02*
X107681250Y-64312500I-243750J0D01*
G01*
G37*
G36*
G01*
X107681250Y-65887500D02*
X107118750Y-65887500D01*
G75*
G02*
X106875000Y-65643750I0J243750D01*
G01*
X106875000Y-65156250D01*
G75*
G02*
X107118750Y-64912500I243750J0D01*
G01*
X107681250Y-64912500D01*
G75*
G02*
X107925000Y-65156250I0J-243750D01*
G01*
X107925000Y-65643750D01*
G75*
G02*
X107681250Y-65887500I-243750J0D01*
G01*
G37*
G04 #@! TD*
G04 #@! TO.C,R302*
G36*
G01*
X105381250Y-67200000D02*
X104818750Y-67200000D01*
G75*
G02*
X104575000Y-66956250I0J243750D01*
G01*
X104575000Y-66468750D01*
G75*
G02*
X104818750Y-66225000I243750J0D01*
G01*
X105381250Y-66225000D01*
G75*
G02*
X105625000Y-66468750I0J-243750D01*
G01*
X105625000Y-66956250D01*
G75*
G02*
X105381250Y-67200000I-243750J0D01*
G01*
G37*
G36*
G01*
X105381250Y-68775000D02*
X104818750Y-68775000D01*
G75*
G02*
X104575000Y-68531250I0J243750D01*
G01*
X104575000Y-68043750D01*
G75*
G02*
X104818750Y-67800000I243750J0D01*
G01*
X105381250Y-67800000D01*
G75*
G02*
X105625000Y-68043750I0J-243750D01*
G01*
X105625000Y-68531250D01*
G75*
G02*
X105381250Y-68775000I-243750J0D01*
G01*
G37*
G04 #@! TD*
G04 #@! TO.C,R301*
G36*
G01*
X105297500Y-64775000D02*
X104902500Y-64775000D01*
G75*
G02*
X104730000Y-64602500I0J172500D01*
G01*
X104730000Y-64257500D01*
G75*
G02*
X104902500Y-64085000I172500J0D01*
G01*
X105297500Y-64085000D01*
G75*
G02*
X105470000Y-64257500I0J-172500D01*
G01*
X105470000Y-64602500D01*
G75*
G02*
X105297500Y-64775000I-172500J0D01*
G01*
G37*
G36*
G01*
X105297500Y-65745000D02*
X104902500Y-65745000D01*
G75*
G02*
X104730000Y-65572500I0J172500D01*
G01*
X104730000Y-65227500D01*
G75*
G02*
X104902500Y-65055000I172500J0D01*
G01*
X105297500Y-65055000D01*
G75*
G02*
X105470000Y-65227500I0J-172500D01*
G01*
X105470000Y-65572500D01*
G75*
G02*
X105297500Y-65745000I-172500J0D01*
G01*
G37*
G04 #@! TD*
G04 #@! TO.C,R208*
G36*
G01*
X112797500Y-72960000D02*
X112402500Y-72960000D01*
G75*
G02*
X112230000Y-72787500I0J172500D01*
G01*
X112230000Y-72442500D01*
G75*
G02*
X112402500Y-72270000I172500J0D01*
G01*
X112797500Y-72270000D01*
G75*
G02*
X112970000Y-72442500I0J-172500D01*
G01*
X112970000Y-72787500D01*
G75*
G02*
X112797500Y-72960000I-172500J0D01*
G01*
G37*
G36*
G01*
X112797500Y-73930000D02*
X112402500Y-73930000D01*
G75*
G02*
X112230000Y-73757500I0J172500D01*
G01*
X112230000Y-73412500D01*
G75*
G02*
X112402500Y-73240000I172500J0D01*
G01*
X112797500Y-73240000D01*
G75*
G02*
X112970000Y-73412500I0J-172500D01*
G01*
X112970000Y-73757500D01*
G75*
G02*
X112797500Y-73930000I-172500J0D01*
G01*
G37*
G04 #@! TD*
G04 #@! TO.C,R207*
G36*
G01*
X110097500Y-73745000D02*
X109702500Y-73745000D01*
G75*
G02*
X109530000Y-73572500I0J172500D01*
G01*
X109530000Y-73227500D01*
G75*
G02*
X109702500Y-73055000I172500J0D01*
G01*
X110097500Y-73055000D01*
G75*
G02*
X110270000Y-73227500I0J-172500D01*
G01*
X110270000Y-73572500D01*
G75*
G02*
X110097500Y-73745000I-172500J0D01*
G01*
G37*
G36*
G01*
X110097500Y-74715000D02*
X109702500Y-74715000D01*
G75*
G02*
X109530000Y-74542500I0J172500D01*
G01*
X109530000Y-74197500D01*
G75*
G02*
X109702500Y-74025000I172500J0D01*
G01*
X110097500Y-74025000D01*
G75*
G02*
X110270000Y-74197500I0J-172500D01*
G01*
X110270000Y-74542500D01*
G75*
G02*
X110097500Y-74715000I-172500J0D01*
G01*
G37*
G04 #@! TD*
G04 #@! TO.C,R206*
G36*
G01*
X110082500Y-75845000D02*
X109687500Y-75845000D01*
G75*
G02*
X109515000Y-75672500I0J172500D01*
G01*
X109515000Y-75327500D01*
G75*
G02*
X109687500Y-75155000I172500J0D01*
G01*
X110082500Y-75155000D01*
G75*
G02*
X110255000Y-75327500I0J-172500D01*
G01*
X110255000Y-75672500D01*
G75*
G02*
X110082500Y-75845000I-172500J0D01*
G01*
G37*
G36*
G01*
X110082500Y-76815000D02*
X109687500Y-76815000D01*
G75*
G02*
X109515000Y-76642500I0J172500D01*
G01*
X109515000Y-76297500D01*
G75*
G02*
X109687500Y-76125000I172500J0D01*
G01*
X110082500Y-76125000D01*
G75*
G02*
X110255000Y-76297500I0J-172500D01*
G01*
X110255000Y-76642500D01*
G75*
G02*
X110082500Y-76815000I-172500J0D01*
G01*
G37*
G04 #@! TD*
G04 #@! TO.C,R205*
G36*
G01*
X117197500Y-72945000D02*
X116802500Y-72945000D01*
G75*
G02*
X116630000Y-72772500I0J172500D01*
G01*
X116630000Y-72427500D01*
G75*
G02*
X116802500Y-72255000I172500J0D01*
G01*
X117197500Y-72255000D01*
G75*
G02*
X117370000Y-72427500I0J-172500D01*
G01*
X117370000Y-72772500D01*
G75*
G02*
X117197500Y-72945000I-172500J0D01*
G01*
G37*
G36*
G01*
X117197500Y-73915000D02*
X116802500Y-73915000D01*
G75*
G02*
X116630000Y-73742500I0J172500D01*
G01*
X116630000Y-73397500D01*
G75*
G02*
X116802500Y-73225000I172500J0D01*
G01*
X117197500Y-73225000D01*
G75*
G02*
X117370000Y-73397500I0J-172500D01*
G01*
X117370000Y-73742500D01*
G75*
G02*
X117197500Y-73915000I-172500J0D01*
G01*
G37*
G04 #@! TD*
G04 #@! TO.C,R204*
G36*
G01*
X117197500Y-70845000D02*
X116802500Y-70845000D01*
G75*
G02*
X116630000Y-70672500I0J172500D01*
G01*
X116630000Y-70327500D01*
G75*
G02*
X116802500Y-70155000I172500J0D01*
G01*
X117197500Y-70155000D01*
G75*
G02*
X117370000Y-70327500I0J-172500D01*
G01*
X117370000Y-70672500D01*
G75*
G02*
X117197500Y-70845000I-172500J0D01*
G01*
G37*
G36*
G01*
X117197500Y-71815000D02*
X116802500Y-71815000D01*
G75*
G02*
X116630000Y-71642500I0J172500D01*
G01*
X116630000Y-71297500D01*
G75*
G02*
X116802500Y-71125000I172500J0D01*
G01*
X117197500Y-71125000D01*
G75*
G02*
X117370000Y-71297500I0J-172500D01*
G01*
X117370000Y-71642500D01*
G75*
G02*
X117197500Y-71815000I-172500J0D01*
G01*
G37*
G04 #@! TD*
G04 #@! TO.C,R203*
G36*
G01*
X112797500Y-70845000D02*
X112402500Y-70845000D01*
G75*
G02*
X112230000Y-70672500I0J172500D01*
G01*
X112230000Y-70327500D01*
G75*
G02*
X112402500Y-70155000I172500J0D01*
G01*
X112797500Y-70155000D01*
G75*
G02*
X112970000Y-70327500I0J-172500D01*
G01*
X112970000Y-70672500D01*
G75*
G02*
X112797500Y-70845000I-172500J0D01*
G01*
G37*
G36*
G01*
X112797500Y-71815000D02*
X112402500Y-71815000D01*
G75*
G02*
X112230000Y-71642500I0J172500D01*
G01*
X112230000Y-71297500D01*
G75*
G02*
X112402500Y-71125000I172500J0D01*
G01*
X112797500Y-71125000D01*
G75*
G02*
X112970000Y-71297500I0J-172500D01*
G01*
X112970000Y-71642500D01*
G75*
G02*
X112797500Y-71815000I-172500J0D01*
G01*
G37*
G04 #@! TD*
G04 #@! TO.C,R202*
G36*
G01*
X112255000Y-78797500D02*
X112255000Y-78402500D01*
G75*
G02*
X112427500Y-78230000I172500J0D01*
G01*
X112772500Y-78230000D01*
G75*
G02*
X112945000Y-78402500I0J-172500D01*
G01*
X112945000Y-78797500D01*
G75*
G02*
X112772500Y-78970000I-172500J0D01*
G01*
X112427500Y-78970000D01*
G75*
G02*
X112255000Y-78797500I0J172500D01*
G01*
G37*
G36*
G01*
X111285000Y-78797500D02*
X111285000Y-78402500D01*
G75*
G02*
X111457500Y-78230000I172500J0D01*
G01*
X111802500Y-78230000D01*
G75*
G02*
X111975000Y-78402500I0J-172500D01*
G01*
X111975000Y-78797500D01*
G75*
G02*
X111802500Y-78970000I-172500J0D01*
G01*
X111457500Y-78970000D01*
G75*
G02*
X111285000Y-78797500I0J172500D01*
G01*
G37*
G04 #@! TD*
G04 #@! TO.C,R201*
G36*
G01*
X110181250Y-70987500D02*
X109618750Y-70987500D01*
G75*
G02*
X109375000Y-70743750I0J243750D01*
G01*
X109375000Y-70256250D01*
G75*
G02*
X109618750Y-70012500I243750J0D01*
G01*
X110181250Y-70012500D01*
G75*
G02*
X110425000Y-70256250I0J-243750D01*
G01*
X110425000Y-70743750D01*
G75*
G02*
X110181250Y-70987500I-243750J0D01*
G01*
G37*
G36*
G01*
X110181250Y-72562500D02*
X109618750Y-72562500D01*
G75*
G02*
X109375000Y-72318750I0J243750D01*
G01*
X109375000Y-71831250D01*
G75*
G02*
X109618750Y-71587500I243750J0D01*
G01*
X110181250Y-71587500D01*
G75*
G02*
X110425000Y-71831250I0J-243750D01*
G01*
X110425000Y-72318750D01*
G75*
G02*
X110181250Y-72562500I-243750J0D01*
G01*
G37*
G04 #@! TD*
D15*
G04 #@! TO.C,Q802*
X173700000Y-78900000D03*
X171700000Y-79850000D03*
X171700000Y-77950000D03*
G04 #@! TD*
G04 #@! TO.C,Q801*
X168600000Y-78400000D03*
X166600000Y-79350000D03*
X166600000Y-77450000D03*
G04 #@! TD*
G04 #@! TO.C,Q602*
X124400000Y-70200000D03*
X122400000Y-71150000D03*
X122400000Y-69250000D03*
G04 #@! TD*
D23*
G04 #@! TO.C,Q601*
X120900000Y-67450000D03*
X119950000Y-65450000D03*
X121850000Y-65450000D03*
G04 #@! TD*
D15*
G04 #@! TO.C,Q502*
X162920000Y-86830001D03*
X164920000Y-85880001D03*
X164920000Y-87780001D03*
G04 #@! TD*
D23*
G04 #@! TO.C,Q501*
X166420000Y-89580001D03*
X167370000Y-91580001D03*
X165470000Y-91580001D03*
G04 #@! TD*
G04 #@! TO.C,Q402*
X191850000Y-104000000D03*
X190900000Y-102000000D03*
X192800000Y-102000000D03*
G04 #@! TD*
G04 #@! TO.C,Q401*
X190250000Y-99400000D03*
X189300000Y-97400000D03*
X191200000Y-97400000D03*
G04 #@! TD*
D15*
G04 #@! TO.C,Q201*
X114600000Y-76150000D03*
X112600000Y-77100000D03*
X112600000Y-75200000D03*
G04 #@! TD*
D24*
G04 #@! TO.C,J1001*
X192140000Y-134660000D03*
X192140000Y-123230000D03*
D25*
X189090000Y-136720000D03*
X189090000Y-121170000D03*
D26*
X197040000Y-122620000D03*
X195520000Y-125160000D03*
X197040000Y-132730000D03*
X195520000Y-135270000D03*
D27*
X183260000Y-133390000D03*
X185800000Y-132120000D03*
X183260000Y-130850000D03*
X185800000Y-129580000D03*
X183260000Y-128310000D03*
X185800000Y-127040000D03*
X183260000Y-125770000D03*
D28*
X185800000Y-124500000D03*
G04 #@! TD*
D10*
G04 #@! TO.C,J902*
X117340000Y-108100000D03*
D11*
X114800000Y-108100000D03*
G04 #@! TD*
D29*
G04 #@! TO.C,J901*
X106050000Y-109100000D03*
X106050000Y-109750000D03*
X106050000Y-110400000D03*
X106050000Y-111050000D03*
X106050000Y-111700000D03*
D30*
X103200000Y-106650000D03*
X103200000Y-114150000D03*
D31*
X103200000Y-109250000D03*
X103200000Y-111550000D03*
G04 #@! TD*
D10*
G04 #@! TO.C,J703*
X110640000Y-115040000D03*
X110640000Y-112500000D03*
X113180000Y-115040000D03*
X113180000Y-112500000D03*
X115720000Y-115040000D03*
X115720000Y-112500000D03*
X118260000Y-115040000D03*
X118260000Y-112500000D03*
X120800000Y-115040000D03*
D11*
X120800000Y-112500000D03*
G04 #@! TD*
D10*
G04 #@! TO.C,J702*
X150240000Y-147700000D03*
X147700000Y-147700000D03*
D11*
X145160000Y-147700000D03*
G04 #@! TD*
D10*
G04 #@! TO.C,J701*
X161880000Y-147700000D03*
X159340000Y-147700000D03*
D11*
X156800000Y-147700000D03*
G04 #@! TD*
D10*
G04 #@! TO.C,J103*
X198000000Y-95080000D03*
X198000000Y-92540000D03*
D11*
X198000000Y-90000000D03*
G04 #@! TD*
D10*
G04 #@! TO.C,J102*
X110600000Y-120300000D03*
X113140000Y-120300000D03*
D11*
X115680000Y-120300000D03*
G04 #@! TD*
D10*
G04 #@! TO.C,J101*
X102000000Y-70500000D03*
X102000000Y-67960000D03*
D11*
X102000000Y-65420000D03*
G04 #@! TD*
G04 #@! TO.C,FB1001*
G36*
G01*
X173737500Y-127981250D02*
X173737500Y-127018750D01*
G75*
G02*
X174006250Y-126750000I268750J0D01*
G01*
X174543750Y-126750000D01*
G75*
G02*
X174812500Y-127018750I0J-268750D01*
G01*
X174812500Y-127981250D01*
G75*
G02*
X174543750Y-128250000I-268750J0D01*
G01*
X174006250Y-128250000D01*
G75*
G02*
X173737500Y-127981250I0J268750D01*
G01*
G37*
G36*
G01*
X171862500Y-127981250D02*
X171862500Y-127018750D01*
G75*
G02*
X172131250Y-126750000I268750J0D01*
G01*
X172668750Y-126750000D01*
G75*
G02*
X172937500Y-127018750I0J-268750D01*
G01*
X172937500Y-127981250D01*
G75*
G02*
X172668750Y-128250000I-268750J0D01*
G01*
X172131250Y-128250000D01*
G75*
G02*
X171862500Y-127981250I0J268750D01*
G01*
G37*
G04 #@! TD*
G04 #@! TO.C,FB701*
G36*
G01*
X138937500Y-147781250D02*
X138937500Y-146818750D01*
G75*
G02*
X139206250Y-146550000I268750J0D01*
G01*
X139743750Y-146550000D01*
G75*
G02*
X140012500Y-146818750I0J-268750D01*
G01*
X140012500Y-147781250D01*
G75*
G02*
X139743750Y-148050000I-268750J0D01*
G01*
X139206250Y-148050000D01*
G75*
G02*
X138937500Y-147781250I0J268750D01*
G01*
G37*
G36*
G01*
X137062500Y-147781250D02*
X137062500Y-146818750D01*
G75*
G02*
X137331250Y-146550000I268750J0D01*
G01*
X137868750Y-146550000D01*
G75*
G02*
X138137500Y-146818750I0J-268750D01*
G01*
X138137500Y-147781250D01*
G75*
G02*
X137868750Y-148050000I-268750J0D01*
G01*
X137331250Y-148050000D01*
G75*
G02*
X137062500Y-147781250I0J268750D01*
G01*
G37*
G04 #@! TD*
G04 #@! TO.C,D1003*
G36*
G01*
X164800000Y-115981250D02*
X164800000Y-115418750D01*
G75*
G02*
X165043750Y-115175000I243750J0D01*
G01*
X165531250Y-115175000D01*
G75*
G02*
X165775000Y-115418750I0J-243750D01*
G01*
X165775000Y-115981250D01*
G75*
G02*
X165531250Y-116225000I-243750J0D01*
G01*
X165043750Y-116225000D01*
G75*
G02*
X164800000Y-115981250I0J243750D01*
G01*
G37*
G36*
G01*
X163225000Y-115981250D02*
X163225000Y-115418750D01*
G75*
G02*
X163468750Y-115175000I243750J0D01*
G01*
X163956250Y-115175000D01*
G75*
G02*
X164200000Y-115418750I0J-243750D01*
G01*
X164200000Y-115981250D01*
G75*
G02*
X163956250Y-116225000I-243750J0D01*
G01*
X163468750Y-116225000D01*
G75*
G02*
X163225000Y-115981250I0J243750D01*
G01*
G37*
G04 #@! TD*
G04 #@! TO.C,D1002*
G36*
G01*
X164787500Y-113181250D02*
X164787500Y-112618750D01*
G75*
G02*
X165031250Y-112375000I243750J0D01*
G01*
X165518750Y-112375000D01*
G75*
G02*
X165762500Y-112618750I0J-243750D01*
G01*
X165762500Y-113181250D01*
G75*
G02*
X165518750Y-113425000I-243750J0D01*
G01*
X165031250Y-113425000D01*
G75*
G02*
X164787500Y-113181250I0J243750D01*
G01*
G37*
G36*
G01*
X163212500Y-113181250D02*
X163212500Y-112618750D01*
G75*
G02*
X163456250Y-112375000I243750J0D01*
G01*
X163943750Y-112375000D01*
G75*
G02*
X164187500Y-112618750I0J-243750D01*
G01*
X164187500Y-113181250D01*
G75*
G02*
X163943750Y-113425000I-243750J0D01*
G01*
X163456250Y-113425000D01*
G75*
G02*
X163212500Y-113181250I0J243750D01*
G01*
G37*
G04 #@! TD*
G04 #@! TO.C,D1001*
G36*
G01*
X164787500Y-110381250D02*
X164787500Y-109818750D01*
G75*
G02*
X165031250Y-109575000I243750J0D01*
G01*
X165518750Y-109575000D01*
G75*
G02*
X165762500Y-109818750I0J-243750D01*
G01*
X165762500Y-110381250D01*
G75*
G02*
X165518750Y-110625000I-243750J0D01*
G01*
X165031250Y-110625000D01*
G75*
G02*
X164787500Y-110381250I0J243750D01*
G01*
G37*
G36*
G01*
X163212500Y-110381250D02*
X163212500Y-109818750D01*
G75*
G02*
X163456250Y-109575000I243750J0D01*
G01*
X163943750Y-109575000D01*
G75*
G02*
X164187500Y-109818750I0J-243750D01*
G01*
X164187500Y-110381250D01*
G75*
G02*
X163943750Y-110625000I-243750J0D01*
G01*
X163456250Y-110625000D01*
G75*
G02*
X163212500Y-110381250I0J243750D01*
G01*
G37*
G04 #@! TD*
D32*
G04 #@! TO.C,D902*
X111950000Y-108100000D03*
X108650000Y-108100000D03*
G04 #@! TD*
G04 #@! TO.C,D901*
G36*
G01*
X110037500Y-106181250D02*
X110037500Y-105218750D01*
G75*
G02*
X110306250Y-104950000I268750J0D01*
G01*
X110843750Y-104950000D01*
G75*
G02*
X111112500Y-105218750I0J-268750D01*
G01*
X111112500Y-106181250D01*
G75*
G02*
X110843750Y-106450000I-268750J0D01*
G01*
X110306250Y-106450000D01*
G75*
G02*
X110037500Y-106181250I0J268750D01*
G01*
G37*
G36*
G01*
X108162500Y-106181250D02*
X108162500Y-105218750D01*
G75*
G02*
X108431250Y-104950000I268750J0D01*
G01*
X108968750Y-104950000D01*
G75*
G02*
X109237500Y-105218750I0J-268750D01*
G01*
X109237500Y-106181250D01*
G75*
G02*
X108968750Y-106450000I-268750J0D01*
G01*
X108431250Y-106450000D01*
G75*
G02*
X108162500Y-106181250I0J268750D01*
G01*
G37*
G04 #@! TD*
G04 #@! TO.C,D803*
G36*
G01*
X170518750Y-87500000D02*
X171481250Y-87500000D01*
G75*
G02*
X171750000Y-87768750I0J-268750D01*
G01*
X171750000Y-88306250D01*
G75*
G02*
X171481250Y-88575000I-268750J0D01*
G01*
X170518750Y-88575000D01*
G75*
G02*
X170250000Y-88306250I0J268750D01*
G01*
X170250000Y-87768750D01*
G75*
G02*
X170518750Y-87500000I268750J0D01*
G01*
G37*
G36*
G01*
X170518750Y-85625000D02*
X171481250Y-85625000D01*
G75*
G02*
X171750000Y-85893750I0J-268750D01*
G01*
X171750000Y-86431250D01*
G75*
G02*
X171481250Y-86700000I-268750J0D01*
G01*
X170518750Y-86700000D01*
G75*
G02*
X170250000Y-86431250I0J268750D01*
G01*
X170250000Y-85893750D01*
G75*
G02*
X170518750Y-85625000I268750J0D01*
G01*
G37*
G04 #@! TD*
G04 #@! TO.C,D802*
G36*
G01*
X170518750Y-91062500D02*
X171481250Y-91062500D01*
G75*
G02*
X171750000Y-91331250I0J-268750D01*
G01*
X171750000Y-91868750D01*
G75*
G02*
X171481250Y-92137500I-268750J0D01*
G01*
X170518750Y-92137500D01*
G75*
G02*
X170250000Y-91868750I0J268750D01*
G01*
X170250000Y-91331250D01*
G75*
G02*
X170518750Y-91062500I268750J0D01*
G01*
G37*
G36*
G01*
X170518750Y-89187500D02*
X171481250Y-89187500D01*
G75*
G02*
X171750000Y-89456250I0J-268750D01*
G01*
X171750000Y-89993750D01*
G75*
G02*
X171481250Y-90262500I-268750J0D01*
G01*
X170518750Y-90262500D01*
G75*
G02*
X170250000Y-89993750I0J268750D01*
G01*
X170250000Y-89456250D01*
G75*
G02*
X170518750Y-89187500I268750J0D01*
G01*
G37*
G04 #@! TD*
D33*
G04 #@! TO.C,D801*
X195100000Y-86750000D03*
X195100000Y-83450000D03*
G04 #@! TD*
G04 #@! TO.C,D705*
G36*
G01*
X106462500Y-120181250D02*
X106462500Y-119218750D01*
G75*
G02*
X106731250Y-118950000I268750J0D01*
G01*
X107268750Y-118950000D01*
G75*
G02*
X107537500Y-119218750I0J-268750D01*
G01*
X107537500Y-120181250D01*
G75*
G02*
X107268750Y-120450000I-268750J0D01*
G01*
X106731250Y-120450000D01*
G75*
G02*
X106462500Y-120181250I0J268750D01*
G01*
G37*
G36*
G01*
X104587500Y-120181250D02*
X104587500Y-119218750D01*
G75*
G02*
X104856250Y-118950000I268750J0D01*
G01*
X105393750Y-118950000D01*
G75*
G02*
X105662500Y-119218750I0J-268750D01*
G01*
X105662500Y-120181250D01*
G75*
G02*
X105393750Y-120450000I-268750J0D01*
G01*
X104856250Y-120450000D01*
G75*
G02*
X104587500Y-120181250I0J268750D01*
G01*
G37*
G04 #@! TD*
G04 #@! TO.C,D704*
G36*
G01*
X106462500Y-122681250D02*
X106462500Y-121718750D01*
G75*
G02*
X106731250Y-121450000I268750J0D01*
G01*
X107268750Y-121450000D01*
G75*
G02*
X107537500Y-121718750I0J-268750D01*
G01*
X107537500Y-122681250D01*
G75*
G02*
X107268750Y-122950000I-268750J0D01*
G01*
X106731250Y-122950000D01*
G75*
G02*
X106462500Y-122681250I0J268750D01*
G01*
G37*
G36*
G01*
X104587500Y-122681250D02*
X104587500Y-121718750D01*
G75*
G02*
X104856250Y-121450000I268750J0D01*
G01*
X105393750Y-121450000D01*
G75*
G02*
X105662500Y-121718750I0J-268750D01*
G01*
X105662500Y-122681250D01*
G75*
G02*
X105393750Y-122950000I-268750J0D01*
G01*
X104856250Y-122950000D01*
G75*
G02*
X104587500Y-122681250I0J268750D01*
G01*
G37*
G04 #@! TD*
G04 #@! TO.C,D703*
G36*
G01*
X106462500Y-139481250D02*
X106462500Y-138518750D01*
G75*
G02*
X106731250Y-138250000I268750J0D01*
G01*
X107268750Y-138250000D01*
G75*
G02*
X107537500Y-138518750I0J-268750D01*
G01*
X107537500Y-139481250D01*
G75*
G02*
X107268750Y-139750000I-268750J0D01*
G01*
X106731250Y-139750000D01*
G75*
G02*
X106462500Y-139481250I0J268750D01*
G01*
G37*
G36*
G01*
X104587500Y-139481250D02*
X104587500Y-138518750D01*
G75*
G02*
X104856250Y-138250000I268750J0D01*
G01*
X105393750Y-138250000D01*
G75*
G02*
X105662500Y-138518750I0J-268750D01*
G01*
X105662500Y-139481250D01*
G75*
G02*
X105393750Y-139750000I-268750J0D01*
G01*
X104856250Y-139750000D01*
G75*
G02*
X104587500Y-139481250I0J268750D01*
G01*
G37*
G04 #@! TD*
G04 #@! TO.C,D702*
G36*
G01*
X106462500Y-136781250D02*
X106462500Y-135818750D01*
G75*
G02*
X106731250Y-135550000I268750J0D01*
G01*
X107268750Y-135550000D01*
G75*
G02*
X107537500Y-135818750I0J-268750D01*
G01*
X107537500Y-136781250D01*
G75*
G02*
X107268750Y-137050000I-268750J0D01*
G01*
X106731250Y-137050000D01*
G75*
G02*
X106462500Y-136781250I0J268750D01*
G01*
G37*
G36*
G01*
X104587500Y-136781250D02*
X104587500Y-135818750D01*
G75*
G02*
X104856250Y-135550000I268750J0D01*
G01*
X105393750Y-135550000D01*
G75*
G02*
X105662500Y-135818750I0J-268750D01*
G01*
X105662500Y-136781250D01*
G75*
G02*
X105393750Y-137050000I-268750J0D01*
G01*
X104856250Y-137050000D01*
G75*
G02*
X104587500Y-136781250I0J268750D01*
G01*
G37*
G04 #@! TD*
G04 #@! TO.C,D701*
G36*
G01*
X121537500Y-146918750D02*
X121537500Y-147881250D01*
G75*
G02*
X121268750Y-148150000I-268750J0D01*
G01*
X120731250Y-148150000D01*
G75*
G02*
X120462500Y-147881250I0J268750D01*
G01*
X120462500Y-146918750D01*
G75*
G02*
X120731250Y-146650000I268750J0D01*
G01*
X121268750Y-146650000D01*
G75*
G02*
X121537500Y-146918750I0J-268750D01*
G01*
G37*
G36*
G01*
X123412500Y-146918750D02*
X123412500Y-147881250D01*
G75*
G02*
X123143750Y-148150000I-268750J0D01*
G01*
X122606250Y-148150000D01*
G75*
G02*
X122337500Y-147881250I0J268750D01*
G01*
X122337500Y-146918750D01*
G75*
G02*
X122606250Y-146650000I268750J0D01*
G01*
X123143750Y-146650000D01*
G75*
G02*
X123412500Y-146918750I0J-268750D01*
G01*
G37*
G04 #@! TD*
G04 #@! TO.C,D602*
G36*
G01*
X129887500Y-64958750D02*
X129887500Y-65921250D01*
G75*
G02*
X129618750Y-66190000I-268750J0D01*
G01*
X129081250Y-66190000D01*
G75*
G02*
X128812500Y-65921250I0J268750D01*
G01*
X128812500Y-64958750D01*
G75*
G02*
X129081250Y-64690000I268750J0D01*
G01*
X129618750Y-64690000D01*
G75*
G02*
X129887500Y-64958750I0J-268750D01*
G01*
G37*
G36*
G01*
X131762500Y-64958750D02*
X131762500Y-65921250D01*
G75*
G02*
X131493750Y-66190000I-268750J0D01*
G01*
X130956250Y-66190000D01*
G75*
G02*
X130687500Y-65921250I0J268750D01*
G01*
X130687500Y-64958750D01*
G75*
G02*
X130956250Y-64690000I268750J0D01*
G01*
X131493750Y-64690000D01*
G75*
G02*
X131762500Y-64958750I0J-268750D01*
G01*
G37*
G04 #@! TD*
G04 #@! TO.C,D601*
G36*
G01*
X146976250Y-81217500D02*
X146013750Y-81217500D01*
G75*
G02*
X145745000Y-80948750I0J268750D01*
G01*
X145745000Y-80411250D01*
G75*
G02*
X146013750Y-80142500I268750J0D01*
G01*
X146976250Y-80142500D01*
G75*
G02*
X147245000Y-80411250I0J-268750D01*
G01*
X147245000Y-80948750D01*
G75*
G02*
X146976250Y-81217500I-268750J0D01*
G01*
G37*
G36*
G01*
X146976250Y-83092500D02*
X146013750Y-83092500D01*
G75*
G02*
X145745000Y-82823750I0J268750D01*
G01*
X145745000Y-82286250D01*
G75*
G02*
X146013750Y-82017500I268750J0D01*
G01*
X146976250Y-82017500D01*
G75*
G02*
X147245000Y-82286250I0J-268750D01*
G01*
X147245000Y-82823750D01*
G75*
G02*
X146976250Y-83092500I-268750J0D01*
G01*
G37*
G04 #@! TD*
G04 #@! TO.C,D502*
G36*
G01*
X157432500Y-92071251D02*
X157432500Y-91108751D01*
G75*
G02*
X157701250Y-90840001I268750J0D01*
G01*
X158238750Y-90840001D01*
G75*
G02*
X158507500Y-91108751I0J-268750D01*
G01*
X158507500Y-92071251D01*
G75*
G02*
X158238750Y-92340001I-268750J0D01*
G01*
X157701250Y-92340001D01*
G75*
G02*
X157432500Y-92071251I0J268750D01*
G01*
G37*
G36*
G01*
X155557500Y-92071251D02*
X155557500Y-91108751D01*
G75*
G02*
X155826250Y-90840001I268750J0D01*
G01*
X156363750Y-90840001D01*
G75*
G02*
X156632500Y-91108751I0J-268750D01*
G01*
X156632500Y-92071251D01*
G75*
G02*
X156363750Y-92340001I-268750J0D01*
G01*
X155826250Y-92340001D01*
G75*
G02*
X155557500Y-92071251I0J268750D01*
G01*
G37*
G04 #@! TD*
G04 #@! TO.C,D501*
G36*
G01*
X140343750Y-75812501D02*
X141306250Y-75812501D01*
G75*
G02*
X141575000Y-76081251I0J-268750D01*
G01*
X141575000Y-76618751D01*
G75*
G02*
X141306250Y-76887501I-268750J0D01*
G01*
X140343750Y-76887501D01*
G75*
G02*
X140075000Y-76618751I0J268750D01*
G01*
X140075000Y-76081251D01*
G75*
G02*
X140343750Y-75812501I268750J0D01*
G01*
G37*
G36*
G01*
X140343750Y-73937501D02*
X141306250Y-73937501D01*
G75*
G02*
X141575000Y-74206251I0J-268750D01*
G01*
X141575000Y-74743751D01*
G75*
G02*
X141306250Y-75012501I-268750J0D01*
G01*
X140343750Y-75012501D01*
G75*
G02*
X140075000Y-74743751I0J268750D01*
G01*
X140075000Y-74206251D01*
G75*
G02*
X140343750Y-73937501I268750J0D01*
G01*
G37*
G04 #@! TD*
D34*
G04 #@! TO.C,D201*
X105000000Y-70500000D03*
X107800000Y-70500000D03*
G04 #@! TD*
G04 #@! TO.C,C1011*
G36*
G01*
X168125000Y-119897500D02*
X168125000Y-119502500D01*
G75*
G02*
X168297500Y-119330000I172500J0D01*
G01*
X168642500Y-119330000D01*
G75*
G02*
X168815000Y-119502500I0J-172500D01*
G01*
X168815000Y-119897500D01*
G75*
G02*
X168642500Y-120070000I-172500J0D01*
G01*
X168297500Y-120070000D01*
G75*
G02*
X168125000Y-119897500I0J172500D01*
G01*
G37*
G36*
G01*
X167155000Y-119897500D02*
X167155000Y-119502500D01*
G75*
G02*
X167327500Y-119330000I172500J0D01*
G01*
X167672500Y-119330000D01*
G75*
G02*
X167845000Y-119502500I0J-172500D01*
G01*
X167845000Y-119897500D01*
G75*
G02*
X167672500Y-120070000I-172500J0D01*
G01*
X167327500Y-120070000D01*
G75*
G02*
X167155000Y-119897500I0J172500D01*
G01*
G37*
G04 #@! TD*
G04 #@! TO.C,C1010*
G36*
G01*
X168140000Y-120997500D02*
X168140000Y-120602500D01*
G75*
G02*
X168312500Y-120430000I172500J0D01*
G01*
X168657500Y-120430000D01*
G75*
G02*
X168830000Y-120602500I0J-172500D01*
G01*
X168830000Y-120997500D01*
G75*
G02*
X168657500Y-121170000I-172500J0D01*
G01*
X168312500Y-121170000D01*
G75*
G02*
X168140000Y-120997500I0J172500D01*
G01*
G37*
G36*
G01*
X167170000Y-120997500D02*
X167170000Y-120602500D01*
G75*
G02*
X167342500Y-120430000I172500J0D01*
G01*
X167687500Y-120430000D01*
G75*
G02*
X167860000Y-120602500I0J-172500D01*
G01*
X167860000Y-120997500D01*
G75*
G02*
X167687500Y-121170000I-172500J0D01*
G01*
X167342500Y-121170000D01*
G75*
G02*
X167170000Y-120997500I0J172500D01*
G01*
G37*
G04 #@! TD*
G04 #@! TO.C,C1009*
G36*
G01*
X175945000Y-127302500D02*
X175945000Y-127697500D01*
G75*
G02*
X175772500Y-127870000I-172500J0D01*
G01*
X175427500Y-127870000D01*
G75*
G02*
X175255000Y-127697500I0J172500D01*
G01*
X175255000Y-127302500D01*
G75*
G02*
X175427500Y-127130000I172500J0D01*
G01*
X175772500Y-127130000D01*
G75*
G02*
X175945000Y-127302500I0J-172500D01*
G01*
G37*
G36*
G01*
X176915000Y-127302500D02*
X176915000Y-127697500D01*
G75*
G02*
X176742500Y-127870000I-172500J0D01*
G01*
X176397500Y-127870000D01*
G75*
G02*
X176225000Y-127697500I0J172500D01*
G01*
X176225000Y-127302500D01*
G75*
G02*
X176397500Y-127130000I172500J0D01*
G01*
X176742500Y-127130000D01*
G75*
G02*
X176915000Y-127302500I0J-172500D01*
G01*
G37*
G04 #@! TD*
G04 #@! TO.C,C1008*
G36*
G01*
X170225000Y-124997500D02*
X170225000Y-124602500D01*
G75*
G02*
X170397500Y-124430000I172500J0D01*
G01*
X170742500Y-124430000D01*
G75*
G02*
X170915000Y-124602500I0J-172500D01*
G01*
X170915000Y-124997500D01*
G75*
G02*
X170742500Y-125170000I-172500J0D01*
G01*
X170397500Y-125170000D01*
G75*
G02*
X170225000Y-124997500I0J172500D01*
G01*
G37*
G36*
G01*
X169255000Y-124997500D02*
X169255000Y-124602500D01*
G75*
G02*
X169427500Y-124430000I172500J0D01*
G01*
X169772500Y-124430000D01*
G75*
G02*
X169945000Y-124602500I0J-172500D01*
G01*
X169945000Y-124997500D01*
G75*
G02*
X169772500Y-125170000I-172500J0D01*
G01*
X169427500Y-125170000D01*
G75*
G02*
X169255000Y-124997500I0J172500D01*
G01*
G37*
G04 #@! TD*
G04 #@! TO.C,C1007*
G36*
G01*
X156297500Y-120275000D02*
X155902500Y-120275000D01*
G75*
G02*
X155730000Y-120102500I0J172500D01*
G01*
X155730000Y-119757500D01*
G75*
G02*
X155902500Y-119585000I172500J0D01*
G01*
X156297500Y-119585000D01*
G75*
G02*
X156470000Y-119757500I0J-172500D01*
G01*
X156470000Y-120102500D01*
G75*
G02*
X156297500Y-120275000I-172500J0D01*
G01*
G37*
G36*
G01*
X156297500Y-121245000D02*
X155902500Y-121245000D01*
G75*
G02*
X155730000Y-121072500I0J172500D01*
G01*
X155730000Y-120727500D01*
G75*
G02*
X155902500Y-120555000I172500J0D01*
G01*
X156297500Y-120555000D01*
G75*
G02*
X156470000Y-120727500I0J-172500D01*
G01*
X156470000Y-121072500D01*
G75*
G02*
X156297500Y-121245000I-172500J0D01*
G01*
G37*
G04 #@! TD*
G04 #@! TO.C,C1006*
G36*
G01*
X153297500Y-136975000D02*
X152902500Y-136975000D01*
G75*
G02*
X152730000Y-136802500I0J172500D01*
G01*
X152730000Y-136457500D01*
G75*
G02*
X152902500Y-136285000I172500J0D01*
G01*
X153297500Y-136285000D01*
G75*
G02*
X153470000Y-136457500I0J-172500D01*
G01*
X153470000Y-136802500D01*
G75*
G02*
X153297500Y-136975000I-172500J0D01*
G01*
G37*
G36*
G01*
X153297500Y-137945000D02*
X152902500Y-137945000D01*
G75*
G02*
X152730000Y-137772500I0J172500D01*
G01*
X152730000Y-137427500D01*
G75*
G02*
X152902500Y-137255000I172500J0D01*
G01*
X153297500Y-137255000D01*
G75*
G02*
X153470000Y-137427500I0J-172500D01*
G01*
X153470000Y-137772500D01*
G75*
G02*
X153297500Y-137945000I-172500J0D01*
G01*
G37*
G04 #@! TD*
G04 #@! TO.C,C1005*
G36*
G01*
X154397500Y-136975000D02*
X154002500Y-136975000D01*
G75*
G02*
X153830000Y-136802500I0J172500D01*
G01*
X153830000Y-136457500D01*
G75*
G02*
X154002500Y-136285000I172500J0D01*
G01*
X154397500Y-136285000D01*
G75*
G02*
X154570000Y-136457500I0J-172500D01*
G01*
X154570000Y-136802500D01*
G75*
G02*
X154397500Y-136975000I-172500J0D01*
G01*
G37*
G36*
G01*
X154397500Y-137945000D02*
X154002500Y-137945000D01*
G75*
G02*
X153830000Y-137772500I0J172500D01*
G01*
X153830000Y-137427500D01*
G75*
G02*
X154002500Y-137255000I172500J0D01*
G01*
X154397500Y-137255000D01*
G75*
G02*
X154570000Y-137427500I0J-172500D01*
G01*
X154570000Y-137772500D01*
G75*
G02*
X154397500Y-137945000I-172500J0D01*
G01*
G37*
G04 #@! TD*
G04 #@! TO.C,C1004*
G36*
G01*
X160297500Y-117375000D02*
X159902500Y-117375000D01*
G75*
G02*
X159730000Y-117202500I0J172500D01*
G01*
X159730000Y-116857500D01*
G75*
G02*
X159902500Y-116685000I172500J0D01*
G01*
X160297500Y-116685000D01*
G75*
G02*
X160470000Y-116857500I0J-172500D01*
G01*
X160470000Y-117202500D01*
G75*
G02*
X160297500Y-117375000I-172500J0D01*
G01*
G37*
G36*
G01*
X160297500Y-118345000D02*
X159902500Y-118345000D01*
G75*
G02*
X159730000Y-118172500I0J172500D01*
G01*
X159730000Y-117827500D01*
G75*
G02*
X159902500Y-117655000I172500J0D01*
G01*
X160297500Y-117655000D01*
G75*
G02*
X160470000Y-117827500I0J-172500D01*
G01*
X160470000Y-118172500D01*
G75*
G02*
X160297500Y-118345000I-172500J0D01*
G01*
G37*
G04 #@! TD*
G04 #@! TO.C,C1003*
G36*
G01*
X155660000Y-128502500D02*
X155660000Y-128897500D01*
G75*
G02*
X155487500Y-129070000I-172500J0D01*
G01*
X155142500Y-129070000D01*
G75*
G02*
X154970000Y-128897500I0J172500D01*
G01*
X154970000Y-128502500D01*
G75*
G02*
X155142500Y-128330000I172500J0D01*
G01*
X155487500Y-128330000D01*
G75*
G02*
X155660000Y-128502500I0J-172500D01*
G01*
G37*
G36*
G01*
X156630000Y-128502500D02*
X156630000Y-128897500D01*
G75*
G02*
X156457500Y-129070000I-172500J0D01*
G01*
X156112500Y-129070000D01*
G75*
G02*
X155940000Y-128897500I0J172500D01*
G01*
X155940000Y-128502500D01*
G75*
G02*
X156112500Y-128330000I172500J0D01*
G01*
X156457500Y-128330000D01*
G75*
G02*
X156630000Y-128502500I0J-172500D01*
G01*
G37*
G04 #@! TD*
G04 #@! TO.C,C1002*
G36*
G01*
X164797500Y-134675000D02*
X164402500Y-134675000D01*
G75*
G02*
X164230000Y-134502500I0J172500D01*
G01*
X164230000Y-134157500D01*
G75*
G02*
X164402500Y-133985000I172500J0D01*
G01*
X164797500Y-133985000D01*
G75*
G02*
X164970000Y-134157500I0J-172500D01*
G01*
X164970000Y-134502500D01*
G75*
G02*
X164797500Y-134675000I-172500J0D01*
G01*
G37*
G36*
G01*
X164797500Y-135645000D02*
X164402500Y-135645000D01*
G75*
G02*
X164230000Y-135472500I0J172500D01*
G01*
X164230000Y-135127500D01*
G75*
G02*
X164402500Y-134955000I172500J0D01*
G01*
X164797500Y-134955000D01*
G75*
G02*
X164970000Y-135127500I0J-172500D01*
G01*
X164970000Y-135472500D01*
G75*
G02*
X164797500Y-135645000I-172500J0D01*
G01*
G37*
G04 #@! TD*
G04 #@! TO.C,C1001*
G36*
G01*
X168125000Y-122997500D02*
X168125000Y-122602500D01*
G75*
G02*
X168297500Y-122430000I172500J0D01*
G01*
X168642500Y-122430000D01*
G75*
G02*
X168815000Y-122602500I0J-172500D01*
G01*
X168815000Y-122997500D01*
G75*
G02*
X168642500Y-123170000I-172500J0D01*
G01*
X168297500Y-123170000D01*
G75*
G02*
X168125000Y-122997500I0J172500D01*
G01*
G37*
G36*
G01*
X167155000Y-122997500D02*
X167155000Y-122602500D01*
G75*
G02*
X167327500Y-122430000I172500J0D01*
G01*
X167672500Y-122430000D01*
G75*
G02*
X167845000Y-122602500I0J-172500D01*
G01*
X167845000Y-122997500D01*
G75*
G02*
X167672500Y-123170000I-172500J0D01*
G01*
X167327500Y-123170000D01*
G75*
G02*
X167155000Y-122997500I0J172500D01*
G01*
G37*
G04 #@! TD*
G04 #@! TO.C,C901*
G36*
G01*
X107802500Y-113840000D02*
X108197500Y-113840000D01*
G75*
G02*
X108370000Y-114012500I0J-172500D01*
G01*
X108370000Y-114357500D01*
G75*
G02*
X108197500Y-114530000I-172500J0D01*
G01*
X107802500Y-114530000D01*
G75*
G02*
X107630000Y-114357500I0J172500D01*
G01*
X107630000Y-114012500D01*
G75*
G02*
X107802500Y-113840000I172500J0D01*
G01*
G37*
G36*
G01*
X107802500Y-112870000D02*
X108197500Y-112870000D01*
G75*
G02*
X108370000Y-113042500I0J-172500D01*
G01*
X108370000Y-113387500D01*
G75*
G02*
X108197500Y-113560000I-172500J0D01*
G01*
X107802500Y-113560000D01*
G75*
G02*
X107630000Y-113387500I0J172500D01*
G01*
X107630000Y-113042500D01*
G75*
G02*
X107802500Y-112870000I172500J0D01*
G01*
G37*
G04 #@! TD*
G04 #@! TO.C,C723*
G36*
G01*
X124402500Y-144140000D02*
X124797500Y-144140000D01*
G75*
G02*
X124970000Y-144312500I0J-172500D01*
G01*
X124970000Y-144657500D01*
G75*
G02*
X124797500Y-144830000I-172500J0D01*
G01*
X124402500Y-144830000D01*
G75*
G02*
X124230000Y-144657500I0J172500D01*
G01*
X124230000Y-144312500D01*
G75*
G02*
X124402500Y-144140000I172500J0D01*
G01*
G37*
G36*
G01*
X124402500Y-143170000D02*
X124797500Y-143170000D01*
G75*
G02*
X124970000Y-143342500I0J-172500D01*
G01*
X124970000Y-143687500D01*
G75*
G02*
X124797500Y-143860000I-172500J0D01*
G01*
X124402500Y-143860000D01*
G75*
G02*
X124230000Y-143687500I0J172500D01*
G01*
X124230000Y-143342500D01*
G75*
G02*
X124402500Y-143170000I172500J0D01*
G01*
G37*
G04 #@! TD*
G04 #@! TO.C,C722*
G36*
G01*
X117260000Y-139302500D02*
X117260000Y-139697500D01*
G75*
G02*
X117087500Y-139870000I-172500J0D01*
G01*
X116742500Y-139870000D01*
G75*
G02*
X116570000Y-139697500I0J172500D01*
G01*
X116570000Y-139302500D01*
G75*
G02*
X116742500Y-139130000I172500J0D01*
G01*
X117087500Y-139130000D01*
G75*
G02*
X117260000Y-139302500I0J-172500D01*
G01*
G37*
G36*
G01*
X118230000Y-139302500D02*
X118230000Y-139697500D01*
G75*
G02*
X118057500Y-139870000I-172500J0D01*
G01*
X117712500Y-139870000D01*
G75*
G02*
X117540000Y-139697500I0J172500D01*
G01*
X117540000Y-139302500D01*
G75*
G02*
X117712500Y-139130000I172500J0D01*
G01*
X118057500Y-139130000D01*
G75*
G02*
X118230000Y-139302500I0J-172500D01*
G01*
G37*
G04 #@! TD*
G04 #@! TO.C,C721*
G36*
G01*
X117260000Y-132802500D02*
X117260000Y-133197500D01*
G75*
G02*
X117087500Y-133370000I-172500J0D01*
G01*
X116742500Y-133370000D01*
G75*
G02*
X116570000Y-133197500I0J172500D01*
G01*
X116570000Y-132802500D01*
G75*
G02*
X116742500Y-132630000I172500J0D01*
G01*
X117087500Y-132630000D01*
G75*
G02*
X117260000Y-132802500I0J-172500D01*
G01*
G37*
G36*
G01*
X118230000Y-132802500D02*
X118230000Y-133197500D01*
G75*
G02*
X118057500Y-133370000I-172500J0D01*
G01*
X117712500Y-133370000D01*
G75*
G02*
X117540000Y-133197500I0J172500D01*
G01*
X117540000Y-132802500D01*
G75*
G02*
X117712500Y-132630000I172500J0D01*
G01*
X118057500Y-132630000D01*
G75*
G02*
X118230000Y-132802500I0J-172500D01*
G01*
G37*
G04 #@! TD*
G04 #@! TO.C,C720*
G36*
G01*
X117160000Y-128102500D02*
X117160000Y-128497500D01*
G75*
G02*
X116987500Y-128670000I-172500J0D01*
G01*
X116642500Y-128670000D01*
G75*
G02*
X116470000Y-128497500I0J172500D01*
G01*
X116470000Y-128102500D01*
G75*
G02*
X116642500Y-127930000I172500J0D01*
G01*
X116987500Y-127930000D01*
G75*
G02*
X117160000Y-128102500I0J-172500D01*
G01*
G37*
G36*
G01*
X118130000Y-128102500D02*
X118130000Y-128497500D01*
G75*
G02*
X117957500Y-128670000I-172500J0D01*
G01*
X117612500Y-128670000D01*
G75*
G02*
X117440000Y-128497500I0J172500D01*
G01*
X117440000Y-128102500D01*
G75*
G02*
X117612500Y-127930000I172500J0D01*
G01*
X117957500Y-127930000D01*
G75*
G02*
X118130000Y-128102500I0J-172500D01*
G01*
G37*
G04 #@! TD*
G04 #@! TO.C,C719*
G36*
G01*
X129902500Y-144140000D02*
X130297500Y-144140000D01*
G75*
G02*
X130470000Y-144312500I0J-172500D01*
G01*
X130470000Y-144657500D01*
G75*
G02*
X130297500Y-144830000I-172500J0D01*
G01*
X129902500Y-144830000D01*
G75*
G02*
X129730000Y-144657500I0J172500D01*
G01*
X129730000Y-144312500D01*
G75*
G02*
X129902500Y-144140000I172500J0D01*
G01*
G37*
G36*
G01*
X129902500Y-143170000D02*
X130297500Y-143170000D01*
G75*
G02*
X130470000Y-143342500I0J-172500D01*
G01*
X130470000Y-143687500D01*
G75*
G02*
X130297500Y-143860000I-172500J0D01*
G01*
X129902500Y-143860000D01*
G75*
G02*
X129730000Y-143687500I0J172500D01*
G01*
X129730000Y-143342500D01*
G75*
G02*
X129902500Y-143170000I172500J0D01*
G01*
G37*
G04 #@! TD*
G04 #@! TO.C,C718*
G36*
G01*
X135497500Y-147160000D02*
X135102500Y-147160000D01*
G75*
G02*
X134930000Y-146987500I0J172500D01*
G01*
X134930000Y-146642500D01*
G75*
G02*
X135102500Y-146470000I172500J0D01*
G01*
X135497500Y-146470000D01*
G75*
G02*
X135670000Y-146642500I0J-172500D01*
G01*
X135670000Y-146987500D01*
G75*
G02*
X135497500Y-147160000I-172500J0D01*
G01*
G37*
G36*
G01*
X135497500Y-148130000D02*
X135102500Y-148130000D01*
G75*
G02*
X134930000Y-147957500I0J172500D01*
G01*
X134930000Y-147612500D01*
G75*
G02*
X135102500Y-147440000I172500J0D01*
G01*
X135497500Y-147440000D01*
G75*
G02*
X135670000Y-147612500I0J-172500D01*
G01*
X135670000Y-147957500D01*
G75*
G02*
X135497500Y-148130000I-172500J0D01*
G01*
G37*
G04 #@! TD*
G04 #@! TO.C,C717*
G36*
G01*
X121197500Y-119375000D02*
X120802500Y-119375000D01*
G75*
G02*
X120630000Y-119202500I0J172500D01*
G01*
X120630000Y-118857500D01*
G75*
G02*
X120802500Y-118685000I172500J0D01*
G01*
X121197500Y-118685000D01*
G75*
G02*
X121370000Y-118857500I0J-172500D01*
G01*
X121370000Y-119202500D01*
G75*
G02*
X121197500Y-119375000I-172500J0D01*
G01*
G37*
G36*
G01*
X121197500Y-120345000D02*
X120802500Y-120345000D01*
G75*
G02*
X120630000Y-120172500I0J172500D01*
G01*
X120630000Y-119827500D01*
G75*
G02*
X120802500Y-119655000I172500J0D01*
G01*
X121197500Y-119655000D01*
G75*
G02*
X121370000Y-119827500I0J-172500D01*
G01*
X121370000Y-120172500D01*
G75*
G02*
X121197500Y-120345000I-172500J0D01*
G01*
G37*
G04 #@! TD*
G04 #@! TO.C,C716*
G36*
G01*
X130502500Y-147440000D02*
X130897500Y-147440000D01*
G75*
G02*
X131070000Y-147612500I0J-172500D01*
G01*
X131070000Y-147957500D01*
G75*
G02*
X130897500Y-148130000I-172500J0D01*
G01*
X130502500Y-148130000D01*
G75*
G02*
X130330000Y-147957500I0J172500D01*
G01*
X130330000Y-147612500D01*
G75*
G02*
X130502500Y-147440000I172500J0D01*
G01*
G37*
G36*
G01*
X130502500Y-146470000D02*
X130897500Y-146470000D01*
G75*
G02*
X131070000Y-146642500I0J-172500D01*
G01*
X131070000Y-146987500D01*
G75*
G02*
X130897500Y-147160000I-172500J0D01*
G01*
X130502500Y-147160000D01*
G75*
G02*
X130330000Y-146987500I0J172500D01*
G01*
X130330000Y-146642500D01*
G75*
G02*
X130502500Y-146470000I172500J0D01*
G01*
G37*
G04 #@! TD*
G04 #@! TO.C,C715*
G36*
G01*
X136402500Y-144140000D02*
X136797500Y-144140000D01*
G75*
G02*
X136970000Y-144312500I0J-172500D01*
G01*
X136970000Y-144657500D01*
G75*
G02*
X136797500Y-144830000I-172500J0D01*
G01*
X136402500Y-144830000D01*
G75*
G02*
X136230000Y-144657500I0J172500D01*
G01*
X136230000Y-144312500D01*
G75*
G02*
X136402500Y-144140000I172500J0D01*
G01*
G37*
G36*
G01*
X136402500Y-143170000D02*
X136797500Y-143170000D01*
G75*
G02*
X136970000Y-143342500I0J-172500D01*
G01*
X136970000Y-143687500D01*
G75*
G02*
X136797500Y-143860000I-172500J0D01*
G01*
X136402500Y-143860000D01*
G75*
G02*
X136230000Y-143687500I0J172500D01*
G01*
X136230000Y-143342500D01*
G75*
G02*
X136402500Y-143170000I172500J0D01*
G01*
G37*
G04 #@! TD*
G04 #@! TO.C,C713*
G36*
G01*
X134297500Y-117260000D02*
X133902500Y-117260000D01*
G75*
G02*
X133730000Y-117087500I0J172500D01*
G01*
X133730000Y-116742500D01*
G75*
G02*
X133902500Y-116570000I172500J0D01*
G01*
X134297500Y-116570000D01*
G75*
G02*
X134470000Y-116742500I0J-172500D01*
G01*
X134470000Y-117087500D01*
G75*
G02*
X134297500Y-117260000I-172500J0D01*
G01*
G37*
G36*
G01*
X134297500Y-118230000D02*
X133902500Y-118230000D01*
G75*
G02*
X133730000Y-118057500I0J172500D01*
G01*
X133730000Y-117712500D01*
G75*
G02*
X133902500Y-117540000I172500J0D01*
G01*
X134297500Y-117540000D01*
G75*
G02*
X134470000Y-117712500I0J-172500D01*
G01*
X134470000Y-118057500D01*
G75*
G02*
X134297500Y-118230000I-172500J0D01*
G01*
G37*
G04 #@! TD*
G04 #@! TO.C,C711*
G36*
G01*
X144140000Y-138697500D02*
X144140000Y-138302500D01*
G75*
G02*
X144312500Y-138130000I172500J0D01*
G01*
X144657500Y-138130000D01*
G75*
G02*
X144830000Y-138302500I0J-172500D01*
G01*
X144830000Y-138697500D01*
G75*
G02*
X144657500Y-138870000I-172500J0D01*
G01*
X144312500Y-138870000D01*
G75*
G02*
X144140000Y-138697500I0J172500D01*
G01*
G37*
G36*
G01*
X143170000Y-138697500D02*
X143170000Y-138302500D01*
G75*
G02*
X143342500Y-138130000I172500J0D01*
G01*
X143687500Y-138130000D01*
G75*
G02*
X143860000Y-138302500I0J-172500D01*
G01*
X143860000Y-138697500D01*
G75*
G02*
X143687500Y-138870000I-172500J0D01*
G01*
X143342500Y-138870000D01*
G75*
G02*
X143170000Y-138697500I0J172500D01*
G01*
G37*
G04 #@! TD*
G04 #@! TO.C,C710*
G36*
G01*
X144140000Y-132197500D02*
X144140000Y-131802500D01*
G75*
G02*
X144312500Y-131630000I172500J0D01*
G01*
X144657500Y-131630000D01*
G75*
G02*
X144830000Y-131802500I0J-172500D01*
G01*
X144830000Y-132197500D01*
G75*
G02*
X144657500Y-132370000I-172500J0D01*
G01*
X144312500Y-132370000D01*
G75*
G02*
X144140000Y-132197500I0J172500D01*
G01*
G37*
G36*
G01*
X143170000Y-132197500D02*
X143170000Y-131802500D01*
G75*
G02*
X143342500Y-131630000I172500J0D01*
G01*
X143687500Y-131630000D01*
G75*
G02*
X143860000Y-131802500I0J-172500D01*
G01*
X143860000Y-132197500D01*
G75*
G02*
X143687500Y-132370000I-172500J0D01*
G01*
X143342500Y-132370000D01*
G75*
G02*
X143170000Y-132197500I0J172500D01*
G01*
G37*
G04 #@! TD*
G04 #@! TO.C,C709*
G36*
G01*
X144140000Y-127097500D02*
X144140000Y-126702500D01*
G75*
G02*
X144312500Y-126530000I172500J0D01*
G01*
X144657500Y-126530000D01*
G75*
G02*
X144830000Y-126702500I0J-172500D01*
G01*
X144830000Y-127097500D01*
G75*
G02*
X144657500Y-127270000I-172500J0D01*
G01*
X144312500Y-127270000D01*
G75*
G02*
X144140000Y-127097500I0J172500D01*
G01*
G37*
G36*
G01*
X143170000Y-127097500D02*
X143170000Y-126702500D01*
G75*
G02*
X143342500Y-126530000I172500J0D01*
G01*
X143687500Y-126530000D01*
G75*
G02*
X143860000Y-126702500I0J-172500D01*
G01*
X143860000Y-127097500D01*
G75*
G02*
X143687500Y-127270000I-172500J0D01*
G01*
X143342500Y-127270000D01*
G75*
G02*
X143170000Y-127097500I0J172500D01*
G01*
G37*
G04 #@! TD*
G04 #@! TO.C,C708*
G36*
G01*
X128397500Y-117260000D02*
X128002500Y-117260000D01*
G75*
G02*
X127830000Y-117087500I0J172500D01*
G01*
X127830000Y-116742500D01*
G75*
G02*
X128002500Y-116570000I172500J0D01*
G01*
X128397500Y-116570000D01*
G75*
G02*
X128570000Y-116742500I0J-172500D01*
G01*
X128570000Y-117087500D01*
G75*
G02*
X128397500Y-117260000I-172500J0D01*
G01*
G37*
G36*
G01*
X128397500Y-118230000D02*
X128002500Y-118230000D01*
G75*
G02*
X127830000Y-118057500I0J172500D01*
G01*
X127830000Y-117712500D01*
G75*
G02*
X128002500Y-117540000I172500J0D01*
G01*
X128397500Y-117540000D01*
G75*
G02*
X128570000Y-117712500I0J-172500D01*
G01*
X128570000Y-118057500D01*
G75*
G02*
X128397500Y-118230000I-172500J0D01*
G01*
G37*
G04 #@! TD*
G04 #@! TO.C,C707*
G36*
G01*
X144925000Y-122197500D02*
X144925000Y-121802500D01*
G75*
G02*
X145097500Y-121630000I172500J0D01*
G01*
X145442500Y-121630000D01*
G75*
G02*
X145615000Y-121802500I0J-172500D01*
G01*
X145615000Y-122197500D01*
G75*
G02*
X145442500Y-122370000I-172500J0D01*
G01*
X145097500Y-122370000D01*
G75*
G02*
X144925000Y-122197500I0J172500D01*
G01*
G37*
G36*
G01*
X143955000Y-122197500D02*
X143955000Y-121802500D01*
G75*
G02*
X144127500Y-121630000I172500J0D01*
G01*
X144472500Y-121630000D01*
G75*
G02*
X144645000Y-121802500I0J-172500D01*
G01*
X144645000Y-122197500D01*
G75*
G02*
X144472500Y-122370000I-172500J0D01*
G01*
X144127500Y-122370000D01*
G75*
G02*
X143955000Y-122197500I0J172500D01*
G01*
G37*
G04 #@! TD*
G04 #@! TO.C,C705*
G36*
G01*
X110597500Y-143345000D02*
X110202500Y-143345000D01*
G75*
G02*
X110030000Y-143172500I0J172500D01*
G01*
X110030000Y-142827500D01*
G75*
G02*
X110202500Y-142655000I172500J0D01*
G01*
X110597500Y-142655000D01*
G75*
G02*
X110770000Y-142827500I0J-172500D01*
G01*
X110770000Y-143172500D01*
G75*
G02*
X110597500Y-143345000I-172500J0D01*
G01*
G37*
G36*
G01*
X110597500Y-144315000D02*
X110202500Y-144315000D01*
G75*
G02*
X110030000Y-144142500I0J172500D01*
G01*
X110030000Y-143797500D01*
G75*
G02*
X110202500Y-143625000I172500J0D01*
G01*
X110597500Y-143625000D01*
G75*
G02*
X110770000Y-143797500I0J-172500D01*
G01*
X110770000Y-144142500D01*
G75*
G02*
X110597500Y-144315000I-172500J0D01*
G01*
G37*
G04 #@! TD*
G04 #@! TO.C,C704*
G36*
G01*
X138225000Y-144597500D02*
X138225000Y-144202500D01*
G75*
G02*
X138397500Y-144030000I172500J0D01*
G01*
X138742500Y-144030000D01*
G75*
G02*
X138915000Y-144202500I0J-172500D01*
G01*
X138915000Y-144597500D01*
G75*
G02*
X138742500Y-144770000I-172500J0D01*
G01*
X138397500Y-144770000D01*
G75*
G02*
X138225000Y-144597500I0J172500D01*
G01*
G37*
G36*
G01*
X137255000Y-144597500D02*
X137255000Y-144202500D01*
G75*
G02*
X137427500Y-144030000I172500J0D01*
G01*
X137772500Y-144030000D01*
G75*
G02*
X137945000Y-144202500I0J-172500D01*
G01*
X137945000Y-144597500D01*
G75*
G02*
X137772500Y-144770000I-172500J0D01*
G01*
X137427500Y-144770000D01*
G75*
G02*
X137255000Y-144597500I0J172500D01*
G01*
G37*
G04 #@! TD*
G04 #@! TO.C,C703*
G36*
G01*
X138225000Y-143497500D02*
X138225000Y-143102500D01*
G75*
G02*
X138397500Y-142930000I172500J0D01*
G01*
X138742500Y-142930000D01*
G75*
G02*
X138915000Y-143102500I0J-172500D01*
G01*
X138915000Y-143497500D01*
G75*
G02*
X138742500Y-143670000I-172500J0D01*
G01*
X138397500Y-143670000D01*
G75*
G02*
X138225000Y-143497500I0J172500D01*
G01*
G37*
G36*
G01*
X137255000Y-143497500D02*
X137255000Y-143102500D01*
G75*
G02*
X137427500Y-142930000I172500J0D01*
G01*
X137772500Y-142930000D01*
G75*
G02*
X137945000Y-143102500I0J-172500D01*
G01*
X137945000Y-143497500D01*
G75*
G02*
X137772500Y-143670000I-172500J0D01*
G01*
X137427500Y-143670000D01*
G75*
G02*
X137255000Y-143497500I0J172500D01*
G01*
G37*
G04 #@! TD*
G04 #@! TO.C,C702*
G36*
G01*
X116260000Y-136902500D02*
X116260000Y-137297500D01*
G75*
G02*
X116087500Y-137470000I-172500J0D01*
G01*
X115742500Y-137470000D01*
G75*
G02*
X115570000Y-137297500I0J172500D01*
G01*
X115570000Y-136902500D01*
G75*
G02*
X115742500Y-136730000I172500J0D01*
G01*
X116087500Y-136730000D01*
G75*
G02*
X116260000Y-136902500I0J-172500D01*
G01*
G37*
G36*
G01*
X117230000Y-136902500D02*
X117230000Y-137297500D01*
G75*
G02*
X117057500Y-137470000I-172500J0D01*
G01*
X116712500Y-137470000D01*
G75*
G02*
X116540000Y-137297500I0J172500D01*
G01*
X116540000Y-136902500D01*
G75*
G02*
X116712500Y-136730000I172500J0D01*
G01*
X117057500Y-136730000D01*
G75*
G02*
X117230000Y-136902500I0J-172500D01*
G01*
G37*
G04 #@! TD*
G04 #@! TO.C,C701*
G36*
G01*
X110597500Y-146975000D02*
X110202500Y-146975000D01*
G75*
G02*
X110030000Y-146802500I0J172500D01*
G01*
X110030000Y-146457500D01*
G75*
G02*
X110202500Y-146285000I172500J0D01*
G01*
X110597500Y-146285000D01*
G75*
G02*
X110770000Y-146457500I0J-172500D01*
G01*
X110770000Y-146802500D01*
G75*
G02*
X110597500Y-146975000I-172500J0D01*
G01*
G37*
G36*
G01*
X110597500Y-147945000D02*
X110202500Y-147945000D01*
G75*
G02*
X110030000Y-147772500I0J172500D01*
G01*
X110030000Y-147427500D01*
G75*
G02*
X110202500Y-147255000I172500J0D01*
G01*
X110597500Y-147255000D01*
G75*
G02*
X110770000Y-147427500I0J-172500D01*
G01*
X110770000Y-147772500D01*
G75*
G02*
X110597500Y-147945000I-172500J0D01*
G01*
G37*
G04 #@! TD*
G04 #@! TO.C,C602*
G36*
G01*
X129975000Y-80877500D02*
X129975000Y-80482500D01*
G75*
G02*
X130147500Y-80310000I172500J0D01*
G01*
X130492500Y-80310000D01*
G75*
G02*
X130665000Y-80482500I0J-172500D01*
G01*
X130665000Y-80877500D01*
G75*
G02*
X130492500Y-81050000I-172500J0D01*
G01*
X130147500Y-81050000D01*
G75*
G02*
X129975000Y-80877500I0J172500D01*
G01*
G37*
G36*
G01*
X129005000Y-80877500D02*
X129005000Y-80482500D01*
G75*
G02*
X129177500Y-80310000I172500J0D01*
G01*
X129522500Y-80310000D01*
G75*
G02*
X129695000Y-80482500I0J-172500D01*
G01*
X129695000Y-80877500D01*
G75*
G02*
X129522500Y-81050000I-172500J0D01*
G01*
X129177500Y-81050000D01*
G75*
G02*
X129005000Y-80877500I0J172500D01*
G01*
G37*
G04 #@! TD*
G04 #@! TO.C,C601*
G36*
G01*
X127007500Y-67355000D02*
X126612500Y-67355000D01*
G75*
G02*
X126440000Y-67182500I0J172500D01*
G01*
X126440000Y-66837500D01*
G75*
G02*
X126612500Y-66665000I172500J0D01*
G01*
X127007500Y-66665000D01*
G75*
G02*
X127180000Y-66837500I0J-172500D01*
G01*
X127180000Y-67182500D01*
G75*
G02*
X127007500Y-67355000I-172500J0D01*
G01*
G37*
G36*
G01*
X127007500Y-68325000D02*
X126612500Y-68325000D01*
G75*
G02*
X126440000Y-68152500I0J172500D01*
G01*
X126440000Y-67807500D01*
G75*
G02*
X126612500Y-67635000I172500J0D01*
G01*
X127007500Y-67635000D01*
G75*
G02*
X127180000Y-67807500I0J-172500D01*
G01*
X127180000Y-68152500D01*
G75*
G02*
X127007500Y-68325000I-172500J0D01*
G01*
G37*
G04 #@! TD*
G04 #@! TO.C,C502*
G36*
G01*
X157345000Y-76152501D02*
X157345000Y-76547501D01*
G75*
G02*
X157172500Y-76720001I-172500J0D01*
G01*
X156827500Y-76720001D01*
G75*
G02*
X156655000Y-76547501I0J172500D01*
G01*
X156655000Y-76152501D01*
G75*
G02*
X156827500Y-75980001I172500J0D01*
G01*
X157172500Y-75980001D01*
G75*
G02*
X157345000Y-76152501I0J-172500D01*
G01*
G37*
G36*
G01*
X158315000Y-76152501D02*
X158315000Y-76547501D01*
G75*
G02*
X158142500Y-76720001I-172500J0D01*
G01*
X157797500Y-76720001D01*
G75*
G02*
X157625000Y-76547501I0J172500D01*
G01*
X157625000Y-76152501D01*
G75*
G02*
X157797500Y-75980001I172500J0D01*
G01*
X158142500Y-75980001D01*
G75*
G02*
X158315000Y-76152501I0J-172500D01*
G01*
G37*
G04 #@! TD*
G04 #@! TO.C,C501*
G36*
G01*
X160312500Y-89675001D02*
X160707500Y-89675001D01*
G75*
G02*
X160880000Y-89847501I0J-172500D01*
G01*
X160880000Y-90192501D01*
G75*
G02*
X160707500Y-90365001I-172500J0D01*
G01*
X160312500Y-90365001D01*
G75*
G02*
X160140000Y-90192501I0J172500D01*
G01*
X160140000Y-89847501D01*
G75*
G02*
X160312500Y-89675001I172500J0D01*
G01*
G37*
G36*
G01*
X160312500Y-88705001D02*
X160707500Y-88705001D01*
G75*
G02*
X160880000Y-88877501I0J-172500D01*
G01*
X160880000Y-89222501D01*
G75*
G02*
X160707500Y-89395001I-172500J0D01*
G01*
X160312500Y-89395001D01*
G75*
G02*
X160140000Y-89222501I0J172500D01*
G01*
X160140000Y-88877501D01*
G75*
G02*
X160312500Y-88705001I172500J0D01*
G01*
G37*
G04 #@! TD*
M02*
