M48
; DRILL file {KiCad (5.1.6)-1} date 06/22/20 19:31:00
; FORMAT={-:-/ absolute / metric / decimal}
; #@! TF.CreationDate,2020-06-22T19:31:00+02:00
; #@! TF.GenerationSoftware,Kicad,Pcbnew,(5.1.6)-1
FMAT,2
METRIC
T1C0.400
T2C0.500
T3C0.600
T4C0.890
T5C0.900
T6C1.000
T7C1.600
T8C3.200
T9C3.250
%
G90
G05
T1
X101.0Y-59.0
X101.0Y-63.0
X101.0Y-75.0
X101.0Y-79.0
X101.0Y-84.0
X101.0Y-88.0
X101.0Y-92.0
X101.0Y-96.0
X101.0Y-100.0
X101.0Y-105.0
X101.0Y-116.0
X101.0Y-121.0
X101.0Y-126.0
X101.0Y-132.0
X101.0Y-137.0
X101.0Y-141.0
X104.0Y-126.0
X104.0Y-129.0
X104.0Y-132.0
X105.0Y-59.0
X105.0Y-141.0
X106.0Y-75.0
X106.0Y-79.0
X106.0Y-84.0
X106.0Y-88.0
X106.0Y-92.0
X106.0Y-96.0
X106.2Y-123.6
X109.0Y-51.0
X109.0Y-55.0
X109.0Y-59.0
X109.0Y-63.0
X109.0Y-141.0
X110.0Y-84.0
X110.0Y-88.0
X110.0Y-92.0
X110.0Y-96.0
X110.0Y-126.2
X110.1Y-129.1
X111.113Y-127.706
X111.8Y-128.432
X112.0Y-132.0
X112.0Y-135.0
X112.5Y-125.4
X112.5Y-129.2
X113.0Y-51.0
X113.0Y-55.0
X113.0Y-59.0
X113.0Y-63.0
X113.0Y-141.0
X113.1Y-137.3
X113.5Y-124.6
X114.0Y-88.0
X114.0Y-92.0
X114.0Y-96.0
X114.0Y-100.0
X114.0Y-104.0
X114.2Y-127.0
X114.9Y-137.1
X114.9Y-138.3
X116.1Y-130.1
X116.7Y-127.2
X116.7Y-130.9
X116.9Y-138.5
X117.0Y-51.0
X117.0Y-55.0
X117.0Y-59.0
X117.0Y-63.0
X117.0Y-141.0
X117.0Y-142.0
X117.3Y-69.2
X117.493Y-124.884
X117.7Y-79.3
X117.9Y-134.0
X117.904Y-125.796
X118.0Y-84.0
X118.0Y-88.0
X118.0Y-92.0
X118.0Y-96.0
X118.0Y-100.0
X118.0Y-104.0
X118.0Y-141.0
X118.0Y-142.0
X118.2Y-72.7
X118.2Y-138.1
X118.3Y-131.7
X119.0Y-79.3
X119.0Y-141.0
X119.0Y-142.0
X120.0Y-119.8
X120.0Y-141.0
X120.0Y-142.0
X121.0Y-51.0
X121.0Y-59.0
X121.0Y-63.0
X121.0Y-73.0
X121.0Y-77.0
X121.0Y-141.0
X121.0Y-142.0
X121.7Y-127.1
X121.7Y-128.0
X121.7Y-133.0
X122.0Y-84.0
X122.0Y-88.0
X122.0Y-92.0
X122.0Y-96.0
X122.0Y-100.0
X122.0Y-104.0
X122.0Y-107.0
X122.1Y-121.5
X122.6Y-143.5
X122.6Y-144.7
X122.6Y-145.7
X123.0Y-132.1
X123.2Y-65.5
X123.6Y-143.5
X123.6Y-144.7
X123.6Y-145.7
X123.9Y-137.4
X124.0Y-139.0
X124.074Y-85.426
X124.6Y-145.7
X125.0Y-51.0
X125.0Y-59.0
X125.0Y-63.0
X125.3Y-146.4
X125.6Y-143.5
X126.0Y-88.0
X126.0Y-92.0
X126.0Y-96.0
X126.0Y-100.0
X126.0Y-107.0
X126.0Y-110.0
X126.0Y-115.0
X126.0Y-118.0
X126.0Y-127.0
X126.0Y-131.0
X126.0Y-136.0
X126.6Y-122.6
X127.2Y-118.0
X128.0Y-112.0
X128.0Y-115.0
X128.0Y-139.0
X128.6Y-121.5
X129.0Y-51.0
X129.0Y-59.0
X129.0Y-63.0
X129.1Y-143.5
X130.0Y-86.0
X130.0Y-92.0
X130.0Y-96.0
X130.0Y-100.0
X130.0Y-107.0
X130.0Y-127.0
X130.0Y-131.0
X130.0Y-136.0
X130.3Y-68.0
X131.0Y-123.0
X131.1Y-143.5
X132.597Y-85.776
X133.0Y-51.0
X133.0Y-63.0
X133.0Y-67.0
X133.0Y-106.4
X133.0Y-107.4
X133.0Y-108.4
X133.0Y-109.4
X133.0Y-110.4
X133.0Y-111.4
X133.2Y-115.2
X133.2Y-144.8
X133.3Y-139.8
X133.5Y-77.8
X133.6Y-122.0
X133.8Y-135.2
X134.0Y-84.4
X134.0Y-96.0
X134.0Y-100.0
X134.0Y-137.0
X134.1Y-131.9
X134.2Y-115.2
X134.8Y-121.9
X134.8Y-134.2
X135.1Y-117.9
X135.1Y-143.9
X135.155Y-131.755
X135.6Y-139.7
X135.7Y-143.0
X136.6Y-145.7
X136.6Y-139.7
X136.8Y-121.8
X137.0Y-51.0
X137.0Y-86.0
X137.0Y-90.0
X137.0Y-127.0
X137.0Y-129.0
X137.8Y-139.0
X138.0Y-121.7
X138.1Y-116.1
X139.0Y-96.0
X139.0Y-100.0
X139.0Y-104.0
X139.0Y-121.7
X139.005Y-114.205
X139.1Y-116.1
X139.4Y-138.2
X139.495Y-132.795
X139.6Y-79.7
X139.8Y-123.0
X139.8Y-124.1
X140.0Y-127.0
X140.135Y-116.175
X140.6Y-78.1
X140.7Y-146.7
X140.7Y-147.6
X141.0Y-51.0
X141.0Y-86.0
X141.0Y-90.0
X141.0Y-143.7
X141.3Y-115.075
X141.4Y-118.7
X142.0Y-143.0
X142.7Y-116.6
X142.7Y-114.1
X143.1Y-125.7
X143.3Y-78.3
X143.5Y-131.0
X143.5Y-139.5
X144.5Y-131.0
X144.5Y-139.5
X144.9Y-119.3
X145.0Y-51.0
X145.0Y-84.0
X145.0Y-88.0
X145.0Y-92.0
X145.0Y-96.0
X145.0Y-100.0
X145.0Y-104.0
X145.0Y-115.0
X145.0Y-129.7
X145.6Y-118.6
X145.748Y-136.53
X145.9Y-133.0
X145.9Y-134.0
X146.0Y-128.0
X146.1Y-119.7
X146.6Y-118.0
X146.7Y-121.4
X147.0Y-114.6
X147.0Y-138.0
X147.0Y-144.0
X147.105Y-141.505
X147.2Y-122.6
X147.4Y-132.9
X147.4Y-134.0
X148.0Y-127.0
X148.3Y-131.5
X148.5Y-93.2
X148.545Y-96.255
X148.6Y-128.7
X148.6Y-122.7
X148.8Y-77.4
X148.8Y-135.83
X149.0Y-51.0
X149.0Y-55.0
X149.0Y-59.0
X149.0Y-63.0
X149.0Y-67.0
X149.0Y-71.0
X149.0Y-80.0
X149.0Y-84.0
X149.0Y-88.0
X149.0Y-141.0
X150.0Y-125.0
X150.5Y-119.1
X150.5Y-120.0
X150.8Y-133.3
X151.0Y-144.0
X151.7Y-104.9
X151.7Y-105.9
X151.7Y-106.9
X151.7Y-107.9
X151.7Y-108.9
X151.7Y-109.9
X152.0Y-140.0
X152.5Y-79.4
X152.8Y-145.7
X153.0Y-51.0
X153.0Y-55.0
X153.0Y-59.0
X153.0Y-63.0
X153.0Y-67.0
X153.0Y-71.0
X153.7Y-77.2
X153.7Y-81.0
X154.0Y-94.0
X154.0Y-98.0
X154.0Y-102.0
X154.0Y-110.0
X154.0Y-113.7
X154.0Y-119.0
X154.1Y-123.1
X155.0Y-130.3
X155.0Y-142.0
X155.8Y-129.7
X156.0Y-135.0
X156.0Y-140.3
X156.0Y-145.0
X156.9Y-140.3
X157.0Y-51.0
X157.0Y-55.0
X157.0Y-59.0
X157.0Y-63.0
X157.0Y-67.0
X157.0Y-71.0
X157.0Y-135.0
X157.2Y-78.2
X157.4Y-132.4
X157.455Y-118.345
X158.0Y-94.0
X158.0Y-98.0
X158.0Y-106.0
X158.0Y-110.0
X158.0Y-113.7
X158.0Y-135.0
X158.0Y-136.0
X158.0Y-137.0
X158.0Y-137.9
X158.0Y-139.0
X158.0Y-140.0
X158.1Y-131.5
X158.387Y-127.207
X159.0Y-135.0
X159.0Y-136.0
X159.0Y-137.0
X159.0Y-138.0
X159.0Y-139.0
X159.0Y-140.0
X159.0Y-142.0
X159.1Y-126.5
X159.8Y-125.295
X160.8Y-119.1
X161.0Y-51.0
X161.0Y-55.0
X161.0Y-59.0
X161.0Y-63.0
X161.0Y-67.0
X161.0Y-71.0
X161.4Y-111.1
X161.4Y-122.7
X161.4Y-123.9
X161.7Y-125.7
X161.7Y-133.5
X162.0Y-106.0
X162.1Y-130.3
X162.3Y-83.9
X162.3Y-95.6
X162.3Y-98.0
X162.355Y-121.955
X163.0Y-142.0
X163.5Y-124.5
X163.5Y-126.5
X164.5Y-145.7
X164.6Y-137.2
X164.6Y-138.1
X165.0Y-51.0
X165.0Y-55.0
X165.0Y-59.0
X165.0Y-63.0
X165.0Y-67.0
X165.0Y-71.0
X165.5Y-137.2
X165.5Y-138.1
X165.7Y-108.7
X165.7Y-111.6
X166.5Y-113.9
X167.0Y-83.0
X167.0Y-98.0
X167.0Y-106.0
X167.0Y-129.0
X167.0Y-133.0
X167.0Y-137.0
X167.0Y-141.0
X167.0Y-145.0
X167.0Y-149.0
X167.6Y-121.8
X168.6Y-110.1
X168.6Y-112.9
X168.6Y-115.7
X169.0Y-51.0
X169.0Y-55.0
X169.0Y-59.0
X169.0Y-63.0
X169.0Y-67.0
X169.0Y-71.0
X169.5Y-110.1
X169.5Y-112.9
X169.5Y-115.7
X170.6Y-122.5
X171.0Y-94.0
X171.0Y-98.0
X171.0Y-106.0
X171.0Y-118.0
X171.0Y-130.0
X171.0Y-133.0
X171.0Y-137.0
X171.0Y-141.0
X171.0Y-145.0
X171.0Y-149.0
X171.2Y-126.7
X171.5Y-123.5
X173.0Y-51.0
X173.0Y-55.0
X173.0Y-59.0
X173.0Y-63.0
X173.0Y-67.0
X173.0Y-71.0
X173.2Y-128.8
X174.3Y-126.0
X174.4Y-123.7
X174.4Y-128.9
X174.4Y-131.4
X175.0Y-83.0
X175.0Y-94.0
X175.0Y-98.0
X175.0Y-106.0
X175.0Y-110.0
X175.0Y-113.8
X175.0Y-118.0
X175.0Y-122.0
X175.0Y-133.0
X175.0Y-137.0
X175.0Y-141.0
X175.0Y-145.0
X175.0Y-149.0
X177.0Y-51.0
X177.0Y-55.0
X177.0Y-59.0
X177.0Y-63.0
X177.0Y-67.0
X177.0Y-71.0
X177.7Y-127.5
X178.9Y-127.5
X179.0Y-79.0
X179.0Y-83.0
X179.0Y-86.0
X179.0Y-89.0
X179.0Y-94.0
X179.0Y-98.0
X179.0Y-106.0
X179.0Y-110.0
X179.0Y-113.8
X179.0Y-118.0
X179.0Y-122.0
X179.0Y-133.0
X179.0Y-137.0
X179.0Y-141.0
X179.0Y-145.0
X179.0Y-149.0
X180.2Y-127.5
X181.0Y-51.0
X181.0Y-55.0
X181.0Y-59.0
X181.0Y-63.0
X181.0Y-67.0
X181.0Y-71.0
X181.5Y-127.5
X183.0Y-83.0
X183.0Y-98.0
X183.0Y-106.0
X183.0Y-118.0
X183.0Y-141.0
X183.0Y-145.0
X183.0Y-149.0
X185.0Y-51.0
X185.0Y-55.0
X185.0Y-59.0
X185.0Y-63.0
X185.0Y-67.0
X185.0Y-71.0
X187.0Y-83.0
X187.0Y-106.0
X187.0Y-118.0
X187.0Y-141.0
X187.0Y-145.0
X187.0Y-149.0
X187.1Y-99.8
X187.4Y-115.1
X188.1Y-114.3
X189.0Y-51.0
X189.0Y-55.0
X189.0Y-59.0
X189.0Y-63.0
X189.0Y-67.0
X189.0Y-71.0
X189.0Y-75.0
X189.4Y-100.9
X190.0Y-84.7
X191.0Y-106.0
X191.0Y-110.0
X191.0Y-114.0
X191.0Y-141.0
X191.0Y-145.0
X191.0Y-149.0
X192.0Y-78.0
X192.6Y-137.7
X192.8Y-81.1
X193.5Y-137.7
X193.9Y-100.5
X194.0Y-59.0
X195.0Y-63.0
X195.0Y-67.0
X195.0Y-71.0
X195.0Y-75.0
X195.0Y-106.0
X195.0Y-110.0
X195.0Y-114.0
X195.0Y-119.3
X195.0Y-120.2
X195.0Y-141.0
X198.0Y-59.0
X199.0Y-63.0
X199.0Y-67.0
X199.0Y-71.0
X199.0Y-75.0
X199.0Y-79.0
X199.0Y-83.0
X199.0Y-87.0
X199.0Y-98.0
X199.0Y-102.0
X199.0Y-106.0
X199.0Y-110.0
X199.0Y-114.0
X199.0Y-118.0
X199.0Y-122.0
X199.0Y-126.0
X199.0Y-131.0
X199.0Y-135.0
X199.0Y-139.0
X199.0Y-143.0
T2
X102.6Y-55.0
X103.303Y-53.303
X103.303Y-56.697
X105.0Y-52.6
X105.0Y-57.4
X106.697Y-53.303
X106.697Y-56.697
X107.4Y-55.0
X102.6Y-145.0
X103.303Y-143.303
X103.303Y-146.697
X105.0Y-142.6
X105.0Y-147.4
X106.697Y-143.303
X106.697Y-146.697
X107.4Y-145.0
X192.6Y-55.0
X193.303Y-53.303
X193.303Y-56.697
X195.0Y-52.6
X195.0Y-57.4
X196.697Y-53.303
X196.697Y-56.697
X197.4Y-55.0
X192.6Y-145.0
X193.303Y-143.303
X193.303Y-146.697
X195.0Y-142.6
X195.0Y-147.4
X196.697Y-143.303
X196.697Y-146.697
X197.4Y-145.0
T3
X105.1Y-63.3
X106.0Y-100.0
X106.0Y-103.0
X106.0Y-106.0
X106.0Y-108.0
X107.3Y-108.0
X107.4Y-105.7
X108.7Y-104.3
X109.0Y-100.0
X109.0Y-103.0
X109.1Y-147.6
X110.1Y-108.1
X122.4Y-72.4
X164.9Y-83.6
X164.9Y-84.7
X165.8Y-135.3
X170.3Y-80.5
X171.7Y-81.1
X171.7Y-82.2
X186.3Y-96.9
X186.3Y-98.0
T4
X195.52Y-125.16
X195.52Y-135.27
X197.04Y-122.62
X197.04Y-132.73
T5
X183.26Y-125.77
X183.26Y-128.31
X183.26Y-130.85
X183.26Y-133.39
X185.8Y-124.5
X185.8Y-127.04
X185.8Y-129.58
X185.8Y-132.12
T6
X121.84Y-55.0
X124.38Y-55.0
X126.92Y-55.0
X129.46Y-55.0
X132.0Y-55.0
X134.54Y-55.0
X110.64Y-112.5
X110.64Y-115.04
X113.18Y-112.5
X113.18Y-115.04
X115.72Y-112.5
X115.72Y-115.04
X118.26Y-112.5
X118.26Y-115.04
X120.8Y-112.5
X120.8Y-115.04
X114.8Y-108.1
X117.34Y-108.1
X102.0Y-65.42
X102.0Y-67.96
X102.0Y-70.5
X176.7Y-78.88
X176.7Y-81.42
X176.7Y-86.5
X176.7Y-89.04
X176.7Y-91.58
X198.0Y-90.0
X198.0Y-92.54
X198.0Y-95.08
X145.16Y-147.7
X147.7Y-147.7
X150.24Y-147.7
X110.6Y-120.3
X113.14Y-120.3
X115.68Y-120.3
X140.0Y-55.0
X140.0Y-57.54
X140.0Y-60.08
X140.0Y-62.62
X140.0Y-65.16
X140.0Y-67.7
X156.8Y-147.7
X159.34Y-147.7
X161.88Y-147.7
T7
X189.09Y-121.17
X189.09Y-136.72
T8
X105.0Y-55.0
X105.0Y-145.0
X195.0Y-55.0
X195.0Y-145.0
T9
X192.14Y-123.23
X192.14Y-134.66
T0
M30
